G04 #@! TF.GenerationSoftware,KiCad,Pcbnew,(6.0.7-1)-1*
G04 #@! TF.CreationDate,2022-08-13T20:31:23-04:00*
G04 #@! TF.ProjectId,KnGXT,4b6e4758-542e-46b6-9963-61645f706362,rev?*
G04 #@! TF.SameCoordinates,Original*
G04 #@! TF.FileFunction,Legend,Bot*
G04 #@! TF.FilePolarity,Positive*
%FSLAX46Y46*%
G04 Gerber Fmt 4.6, Leading zero omitted, Abs format (unit mm)*
G04 Created by KiCad (PCBNEW (6.0.7-1)-1) date 2022-08-13 20:31:23*
%MOMM*%
%LPD*%
G01*
G04 APERTURE LIST*
G04 Aperture macros list*
%AMRoundRect*
0 Rectangle with rounded corners*
0 $1 Rounding radius*
0 $2 $3 $4 $5 $6 $7 $8 $9 X,Y pos of 4 corners*
0 Add a 4 corners polygon primitive as box body*
4,1,4,$2,$3,$4,$5,$6,$7,$8,$9,$2,$3,0*
0 Add four circle primitives for the rounded corners*
1,1,$1+$1,$2,$3*
1,1,$1+$1,$4,$5*
1,1,$1+$1,$6,$7*
1,1,$1+$1,$8,$9*
0 Add four rect primitives between the rounded corners*
20,1,$1+$1,$2,$3,$4,$5,0*
20,1,$1+$1,$4,$5,$6,$7,0*
20,1,$1+$1,$6,$7,$8,$9,0*
20,1,$1+$1,$8,$9,$2,$3,0*%
G04 Aperture macros list end*
%ADD10C,0.080000*%
%ADD11C,0.062500*%
%ADD12C,0.125000*%
%ADD13C,0.060000*%
%ADD14C,0.120000*%
%ADD15C,4.000000*%
%ADD16C,3.050000*%
%ADD17C,1.750000*%
%ADD18RoundRect,0.250000X-1.025000X-1.000000X1.025000X-1.000000X1.025000X1.000000X-1.025000X1.000000X0*%
%ADD19C,2.000000*%
%ADD20R,1.700000X1.700000*%
%ADD21O,1.700000X1.700000*%
%ADD22C,0.600000*%
%ADD23O,0.900000X1.700000*%
%ADD24O,0.900000X2.000000*%
%ADD25R,2.000000X2.000000*%
%ADD26R,2.500000X3.000000*%
G04 APERTURE END LIST*
D10*
X33383333Y-126325000D02*
X33416666Y-126308333D01*
X33466666Y-126308333D01*
X33516666Y-126325000D01*
X33550000Y-126358333D01*
X33566666Y-126391666D01*
X33583333Y-126458333D01*
X33583333Y-126508333D01*
X33566666Y-126575000D01*
X33550000Y-126608333D01*
X33516666Y-126641666D01*
X33466666Y-126658333D01*
X33433333Y-126658333D01*
X33383333Y-126641666D01*
X33366666Y-126625000D01*
X33366666Y-126508333D01*
X33433333Y-126508333D01*
X33216666Y-126658333D02*
X33216666Y-126308333D01*
X33083333Y-126308333D01*
X33050000Y-126325000D01*
X33033333Y-126341666D01*
X33016666Y-126375000D01*
X33016666Y-126425000D01*
X33033333Y-126458333D01*
X33050000Y-126475000D01*
X33083333Y-126491666D01*
X33216666Y-126491666D01*
X32866666Y-126658333D02*
X32866666Y-126308333D01*
X32633333Y-126308333D02*
X32566666Y-126308333D01*
X32533333Y-126325000D01*
X32500000Y-126358333D01*
X32483333Y-126425000D01*
X32483333Y-126541666D01*
X32500000Y-126608333D01*
X32533333Y-126641666D01*
X32566666Y-126658333D01*
X32633333Y-126658333D01*
X32666666Y-126641666D01*
X32700000Y-126608333D01*
X32716666Y-126541666D01*
X32716666Y-126425000D01*
X32700000Y-126358333D01*
X32666666Y-126325000D01*
X32633333Y-126308333D01*
X32150000Y-126658333D02*
X32350000Y-126658333D01*
X32250000Y-126658333D02*
X32250000Y-126308333D01*
X32283333Y-126358333D01*
X32316666Y-126391666D01*
X32350000Y-126408333D01*
X31850000Y-126308333D02*
X31916666Y-126308333D01*
X31950000Y-126325000D01*
X31966666Y-126341666D01*
X32000000Y-126391666D01*
X32016666Y-126458333D01*
X32016666Y-126591666D01*
X32000000Y-126625000D01*
X31983333Y-126641666D01*
X31950000Y-126658333D01*
X31883333Y-126658333D01*
X31850000Y-126641666D01*
X31833333Y-126625000D01*
X31816666Y-126591666D01*
X31816666Y-126508333D01*
X31833333Y-126475000D01*
X31850000Y-126458333D01*
X31883333Y-126441666D01*
X31950000Y-126441666D01*
X31983333Y-126458333D01*
X32000000Y-126475000D01*
X32016666Y-126508333D01*
D11*
X38500994Y-117341666D02*
X38381946Y-117341666D01*
X38524803Y-117413095D02*
X38441470Y-117163095D01*
X38358136Y-117413095D01*
X38239089Y-117413095D02*
X38262898Y-117401190D01*
X38274803Y-117377380D01*
X38274803Y-117163095D01*
X38108136Y-117413095D02*
X38131946Y-117401190D01*
X38143851Y-117377380D01*
X38143851Y-117163095D01*
X37834327Y-117163095D02*
X37834327Y-117210714D01*
X37739089Y-117163095D02*
X37739089Y-117210714D01*
X37631946Y-117413095D02*
X37631946Y-117163095D01*
X37489089Y-117413095D01*
X37489089Y-117163095D01*
X37370041Y-117413095D02*
X37370041Y-117163095D01*
X37274803Y-117163095D01*
X37250994Y-117175000D01*
X37239089Y-117186904D01*
X37227184Y-117210714D01*
X37227184Y-117246428D01*
X37239089Y-117270238D01*
X37250994Y-117282142D01*
X37274803Y-117294047D01*
X37370041Y-117294047D01*
X37131946Y-117163095D02*
X37131946Y-117210714D01*
X37036708Y-117163095D02*
X37036708Y-117210714D01*
X36631946Y-117413095D02*
X36631946Y-117163095D01*
X36631946Y-117401190D02*
X36655755Y-117413095D01*
X36703375Y-117413095D01*
X36727184Y-117401190D01*
X36739089Y-117389285D01*
X36750994Y-117365476D01*
X36750994Y-117294047D01*
X36739089Y-117270238D01*
X36727184Y-117258333D01*
X36703375Y-117246428D01*
X36655755Y-117246428D01*
X36631946Y-117258333D01*
X36417660Y-117401190D02*
X36441470Y-117413095D01*
X36489089Y-117413095D01*
X36512898Y-117401190D01*
X36524803Y-117377380D01*
X36524803Y-117282142D01*
X36512898Y-117258333D01*
X36489089Y-117246428D01*
X36441470Y-117246428D01*
X36417660Y-117258333D01*
X36405755Y-117282142D01*
X36405755Y-117305952D01*
X36524803Y-117329761D01*
X36322422Y-117246428D02*
X36262898Y-117413095D01*
X36203375Y-117246428D01*
X36108136Y-117413095D02*
X36108136Y-117246428D01*
X36108136Y-117163095D02*
X36120041Y-117175000D01*
X36108136Y-117186904D01*
X36096232Y-117175000D01*
X36108136Y-117163095D01*
X36108136Y-117186904D01*
X35881946Y-117401190D02*
X35905755Y-117413095D01*
X35953375Y-117413095D01*
X35977184Y-117401190D01*
X35989089Y-117389285D01*
X36000994Y-117365476D01*
X36000994Y-117294047D01*
X35989089Y-117270238D01*
X35977184Y-117258333D01*
X35953375Y-117246428D01*
X35905755Y-117246428D01*
X35881946Y-117258333D01*
X35679565Y-117401190D02*
X35703375Y-117413095D01*
X35750994Y-117413095D01*
X35774803Y-117401190D01*
X35786708Y-117377380D01*
X35786708Y-117282142D01*
X35774803Y-117258333D01*
X35750994Y-117246428D01*
X35703375Y-117246428D01*
X35679565Y-117258333D01*
X35667660Y-117282142D01*
X35667660Y-117305952D01*
X35786708Y-117329761D01*
X35572422Y-117401190D02*
X35548613Y-117413095D01*
X35500994Y-117413095D01*
X35477184Y-117401190D01*
X35465279Y-117377380D01*
X35465279Y-117365476D01*
X35477184Y-117341666D01*
X35500994Y-117329761D01*
X35536708Y-117329761D01*
X35560517Y-117317857D01*
X35572422Y-117294047D01*
X35572422Y-117282142D01*
X35560517Y-117258333D01*
X35536708Y-117246428D01*
X35500994Y-117246428D01*
X35477184Y-117258333D01*
X35060517Y-117413095D02*
X35060517Y-117282142D01*
X35072422Y-117258333D01*
X35096232Y-117246428D01*
X35143851Y-117246428D01*
X35167660Y-117258333D01*
X35060517Y-117401190D02*
X35084327Y-117413095D01*
X35143851Y-117413095D01*
X35167660Y-117401190D01*
X35179565Y-117377380D01*
X35179565Y-117353571D01*
X35167660Y-117329761D01*
X35143851Y-117317857D01*
X35084327Y-117317857D01*
X35060517Y-117305952D01*
X34941470Y-117413095D02*
X34941470Y-117246428D01*
X34941470Y-117294047D02*
X34929565Y-117270238D01*
X34917660Y-117258333D01*
X34893851Y-117246428D01*
X34870041Y-117246428D01*
X34691470Y-117401190D02*
X34715279Y-117413095D01*
X34762898Y-117413095D01*
X34786708Y-117401190D01*
X34798613Y-117377380D01*
X34798613Y-117282142D01*
X34786708Y-117258333D01*
X34762898Y-117246428D01*
X34715279Y-117246428D01*
X34691470Y-117258333D01*
X34679565Y-117282142D01*
X34679565Y-117305952D01*
X34798613Y-117329761D01*
X34405755Y-117163095D02*
X34346232Y-117413095D01*
X34298613Y-117234523D01*
X34250994Y-117413095D01*
X34191470Y-117163095D01*
X34108136Y-117401190D02*
X34072422Y-117413095D01*
X34012898Y-117413095D01*
X33989089Y-117401190D01*
X33977184Y-117389285D01*
X33965279Y-117365476D01*
X33965279Y-117341666D01*
X33977184Y-117317857D01*
X33989089Y-117305952D01*
X34012898Y-117294047D01*
X34060517Y-117282142D01*
X34084327Y-117270238D01*
X34096232Y-117258333D01*
X34108136Y-117234523D01*
X34108136Y-117210714D01*
X34096232Y-117186904D01*
X34084327Y-117175000D01*
X34060517Y-117163095D01*
X34000994Y-117163095D01*
X33965279Y-117175000D01*
X33870041Y-117186904D02*
X33858136Y-117175000D01*
X33834327Y-117163095D01*
X33774803Y-117163095D01*
X33750994Y-117175000D01*
X33739089Y-117186904D01*
X33727184Y-117210714D01*
X33727184Y-117234523D01*
X33739089Y-117270238D01*
X33881946Y-117413095D01*
X33727184Y-117413095D01*
X33584327Y-117270238D02*
X33608136Y-117258333D01*
X33620041Y-117246428D01*
X33631946Y-117222619D01*
X33631946Y-117210714D01*
X33620041Y-117186904D01*
X33608136Y-117175000D01*
X33584327Y-117163095D01*
X33536708Y-117163095D01*
X33512898Y-117175000D01*
X33500994Y-117186904D01*
X33489089Y-117210714D01*
X33489089Y-117222619D01*
X33500994Y-117246428D01*
X33512898Y-117258333D01*
X33536708Y-117270238D01*
X33584327Y-117270238D01*
X33608136Y-117282142D01*
X33620041Y-117294047D01*
X33631946Y-117317857D01*
X33631946Y-117365476D01*
X33620041Y-117389285D01*
X33608136Y-117401190D01*
X33584327Y-117413095D01*
X33536708Y-117413095D01*
X33512898Y-117401190D01*
X33500994Y-117389285D01*
X33489089Y-117365476D01*
X33489089Y-117317857D01*
X33500994Y-117294047D01*
X33512898Y-117282142D01*
X33536708Y-117270238D01*
X33250994Y-117413095D02*
X33393851Y-117413095D01*
X33322422Y-117413095D02*
X33322422Y-117163095D01*
X33346232Y-117198809D01*
X33370041Y-117222619D01*
X33393851Y-117234523D01*
X33155755Y-117186904D02*
X33143851Y-117175000D01*
X33120041Y-117163095D01*
X33060517Y-117163095D01*
X33036708Y-117175000D01*
X33024803Y-117186904D01*
X33012898Y-117210714D01*
X33012898Y-117234523D01*
X33024803Y-117270238D01*
X33167660Y-117413095D01*
X33012898Y-117413095D01*
X32870041Y-117270238D02*
X32893851Y-117258333D01*
X32905755Y-117246428D01*
X32917660Y-117222619D01*
X32917660Y-117210714D01*
X32905755Y-117186904D01*
X32893851Y-117175000D01*
X32870041Y-117163095D01*
X32822422Y-117163095D01*
X32798613Y-117175000D01*
X32786708Y-117186904D01*
X32774803Y-117210714D01*
X32774803Y-117222619D01*
X32786708Y-117246428D01*
X32798613Y-117258333D01*
X32822422Y-117270238D01*
X32870041Y-117270238D01*
X32893851Y-117282142D01*
X32905755Y-117294047D01*
X32917660Y-117317857D01*
X32917660Y-117365476D01*
X32905755Y-117389285D01*
X32893851Y-117401190D01*
X32870041Y-117413095D01*
X32822422Y-117413095D01*
X32798613Y-117401190D01*
X32786708Y-117389285D01*
X32774803Y-117365476D01*
X32774803Y-117317857D01*
X32786708Y-117294047D01*
X32798613Y-117282142D01*
X32822422Y-117270238D01*
X32584327Y-117282142D02*
X32548613Y-117294047D01*
X32536708Y-117305952D01*
X32524803Y-117329761D01*
X32524803Y-117365476D01*
X32536708Y-117389285D01*
X32548613Y-117401190D01*
X32572422Y-117413095D01*
X32667660Y-117413095D01*
X32667660Y-117163095D01*
X32584327Y-117163095D01*
X32560517Y-117175000D01*
X32548613Y-117186904D01*
X32536708Y-117210714D01*
X32536708Y-117234523D01*
X32548613Y-117258333D01*
X32560517Y-117270238D01*
X32584327Y-117282142D01*
X32667660Y-117282142D01*
X32405755Y-117401190D02*
X32405755Y-117413095D01*
X32417660Y-117436904D01*
X32429565Y-117448809D01*
X31989089Y-117413095D02*
X32108136Y-117413095D01*
X32108136Y-117163095D01*
X31762898Y-117389285D02*
X31774803Y-117401190D01*
X31810517Y-117413095D01*
X31834327Y-117413095D01*
X31870041Y-117401190D01*
X31893851Y-117377380D01*
X31905755Y-117353571D01*
X31917660Y-117305952D01*
X31917660Y-117270238D01*
X31905755Y-117222619D01*
X31893851Y-117198809D01*
X31870041Y-117175000D01*
X31834327Y-117163095D01*
X31810517Y-117163095D01*
X31774803Y-117175000D01*
X31762898Y-117186904D01*
X31667660Y-117401190D02*
X31631946Y-117413095D01*
X31572422Y-117413095D01*
X31548613Y-117401190D01*
X31536708Y-117389285D01*
X31524803Y-117365476D01*
X31524803Y-117341666D01*
X31536708Y-117317857D01*
X31548613Y-117305952D01*
X31572422Y-117294047D01*
X31620041Y-117282142D01*
X31643851Y-117270238D01*
X31655755Y-117258333D01*
X31667660Y-117234523D01*
X31667660Y-117210714D01*
X31655755Y-117186904D01*
X31643851Y-117175000D01*
X31620041Y-117163095D01*
X31560517Y-117163095D01*
X31524803Y-117175000D01*
X31274803Y-117389285D02*
X31286708Y-117401190D01*
X31322422Y-117413095D01*
X31346232Y-117413095D01*
X31381946Y-117401190D01*
X31405755Y-117377380D01*
X31417660Y-117353571D01*
X31429565Y-117305952D01*
X31429565Y-117270238D01*
X31417660Y-117222619D01*
X31405755Y-117198809D01*
X31381946Y-117175000D01*
X31346232Y-117163095D01*
X31322422Y-117163095D01*
X31286708Y-117175000D01*
X31274803Y-117186904D01*
X30834327Y-117389285D02*
X30846232Y-117401190D01*
X30881946Y-117413095D01*
X30905755Y-117413095D01*
X30941470Y-117401190D01*
X30965279Y-117377380D01*
X30977184Y-117353571D01*
X30989089Y-117305952D01*
X30989089Y-117270238D01*
X30977184Y-117222619D01*
X30965279Y-117198809D01*
X30941470Y-117175000D01*
X30905755Y-117163095D01*
X30881946Y-117163095D01*
X30846232Y-117175000D01*
X30834327Y-117186904D01*
X30715279Y-117413095D02*
X30667660Y-117413095D01*
X30643851Y-117401190D01*
X30631946Y-117389285D01*
X30608136Y-117353571D01*
X30596232Y-117305952D01*
X30596232Y-117210714D01*
X30608136Y-117186904D01*
X30620041Y-117175000D01*
X30643851Y-117163095D01*
X30691470Y-117163095D01*
X30715279Y-117175000D01*
X30727184Y-117186904D01*
X30739089Y-117210714D01*
X30739089Y-117270238D01*
X30727184Y-117294047D01*
X30715279Y-117305952D01*
X30691470Y-117317857D01*
X30643851Y-117317857D01*
X30620041Y-117305952D01*
X30608136Y-117294047D01*
X30596232Y-117270238D01*
X30381946Y-117163095D02*
X30429565Y-117163095D01*
X30453375Y-117175000D01*
X30465279Y-117186904D01*
X30489089Y-117222619D01*
X30500994Y-117270238D01*
X30500994Y-117365476D01*
X30489089Y-117389285D01*
X30477184Y-117401190D01*
X30453375Y-117413095D01*
X30405755Y-117413095D01*
X30381946Y-117401190D01*
X30370041Y-117389285D01*
X30358136Y-117365476D01*
X30358136Y-117305952D01*
X30370041Y-117282142D01*
X30381946Y-117270238D01*
X30405755Y-117258333D01*
X30453375Y-117258333D01*
X30477184Y-117270238D01*
X30489089Y-117282142D01*
X30500994Y-117305952D01*
X30131946Y-117163095D02*
X30250994Y-117163095D01*
X30262898Y-117282142D01*
X30250994Y-117270238D01*
X30227184Y-117258333D01*
X30167660Y-117258333D01*
X30143851Y-117270238D01*
X30131946Y-117282142D01*
X30120041Y-117305952D01*
X30120041Y-117365476D01*
X30131946Y-117389285D01*
X30143851Y-117401190D01*
X30167660Y-117413095D01*
X30227184Y-117413095D01*
X30250994Y-117401190D01*
X30262898Y-117389285D01*
X29893851Y-117163095D02*
X30012898Y-117163095D01*
X30024803Y-117282142D01*
X30012898Y-117270238D01*
X29989089Y-117258333D01*
X29929565Y-117258333D01*
X29905755Y-117270238D01*
X29893851Y-117282142D01*
X29881946Y-117305952D01*
X29881946Y-117365476D01*
X29893851Y-117389285D01*
X29905755Y-117401190D01*
X29929565Y-117413095D01*
X29989089Y-117413095D01*
X30012898Y-117401190D01*
X30024803Y-117389285D01*
X29655755Y-117163095D02*
X29774803Y-117163095D01*
X29786708Y-117282142D01*
X29774803Y-117270238D01*
X29750994Y-117258333D01*
X29691470Y-117258333D01*
X29667660Y-117270238D01*
X29655755Y-117282142D01*
X29643851Y-117305952D01*
X29643851Y-117365476D01*
X29655755Y-117389285D01*
X29667660Y-117401190D01*
X29691470Y-117413095D01*
X29750994Y-117413095D01*
X29774803Y-117401190D01*
X29786708Y-117389285D01*
X29560517Y-117163095D02*
X29393851Y-117163095D01*
X29500994Y-117413095D01*
D10*
X33634466Y-55567733D02*
X33751133Y-55401066D01*
X33834466Y-55567733D02*
X33834466Y-55217733D01*
X33701133Y-55217733D01*
X33667800Y-55234400D01*
X33651133Y-55251066D01*
X33634466Y-55284400D01*
X33634466Y-55334400D01*
X33651133Y-55367733D01*
X33667800Y-55384400D01*
X33701133Y-55401066D01*
X33834466Y-55401066D01*
X33534466Y-55217733D02*
X33334466Y-55217733D01*
X33434466Y-55567733D02*
X33434466Y-55217733D01*
X33234466Y-55251066D02*
X33217800Y-55234400D01*
X33184466Y-55217733D01*
X33101133Y-55217733D01*
X33067800Y-55234400D01*
X33051133Y-55251066D01*
X33034466Y-55284400D01*
X33034466Y-55317733D01*
X33051133Y-55367733D01*
X33251133Y-55567733D01*
X33034466Y-55567733D01*
X32901133Y-55467733D02*
X32734466Y-55467733D01*
X32934466Y-55567733D02*
X32817800Y-55217733D01*
X32701133Y-55567733D01*
X36226133Y-93442733D02*
X36009466Y-93442733D01*
X36126133Y-93576066D01*
X36076133Y-93576066D01*
X36042800Y-93592733D01*
X36026133Y-93609400D01*
X36009466Y-93642733D01*
X36009466Y-93726066D01*
X36026133Y-93759400D01*
X36042800Y-93776066D01*
X36076133Y-93792733D01*
X36176133Y-93792733D01*
X36209466Y-93776066D01*
X36226133Y-93759400D01*
X35909466Y-93442733D02*
X35792800Y-93792733D01*
X35676133Y-93442733D01*
X35592800Y-93442733D02*
X35376133Y-93442733D01*
X35492800Y-93576066D01*
X35442800Y-93576066D01*
X35409466Y-93592733D01*
X35392800Y-93609400D01*
X35376133Y-93642733D01*
X35376133Y-93726066D01*
X35392800Y-93759400D01*
X35409466Y-93776066D01*
X35442800Y-93792733D01*
X35542800Y-93792733D01*
X35576133Y-93776066D01*
X35592800Y-93759400D01*
X36226133Y-55217733D02*
X36009466Y-55217733D01*
X36126133Y-55351066D01*
X36076133Y-55351066D01*
X36042800Y-55367733D01*
X36026133Y-55384400D01*
X36009466Y-55417733D01*
X36009466Y-55501066D01*
X36026133Y-55534400D01*
X36042800Y-55551066D01*
X36076133Y-55567733D01*
X36176133Y-55567733D01*
X36209466Y-55551066D01*
X36226133Y-55534400D01*
X35909466Y-55217733D02*
X35792800Y-55567733D01*
X35676133Y-55217733D01*
X35592800Y-55217733D02*
X35376133Y-55217733D01*
X35492800Y-55351066D01*
X35442800Y-55351066D01*
X35409466Y-55367733D01*
X35392800Y-55384400D01*
X35376133Y-55417733D01*
X35376133Y-55501066D01*
X35392800Y-55534400D01*
X35409466Y-55551066D01*
X35442800Y-55567733D01*
X35542800Y-55567733D01*
X35576133Y-55551066D01*
X35592800Y-55534400D01*
D11*
X38798613Y-118413095D02*
X38798613Y-118163095D01*
X38655755Y-118413095D02*
X38762898Y-118270238D01*
X38655755Y-118163095D02*
X38798613Y-118305952D01*
X38453375Y-118401190D02*
X38477184Y-118413095D01*
X38524803Y-118413095D01*
X38548613Y-118401190D01*
X38560517Y-118377380D01*
X38560517Y-118282142D01*
X38548613Y-118258333D01*
X38524803Y-118246428D01*
X38477184Y-118246428D01*
X38453375Y-118258333D01*
X38441470Y-118282142D01*
X38441470Y-118305952D01*
X38560517Y-118329761D01*
X38358136Y-118246428D02*
X38298613Y-118413095D01*
X38239089Y-118246428D02*
X38298613Y-118413095D01*
X38322422Y-118472619D01*
X38334327Y-118484523D01*
X38358136Y-118496428D01*
X38155755Y-118401190D02*
X38131946Y-118413095D01*
X38084327Y-118413095D01*
X38060517Y-118401190D01*
X38048613Y-118377380D01*
X38048613Y-118365476D01*
X38060517Y-118341666D01*
X38084327Y-118329761D01*
X38120041Y-118329761D01*
X38143851Y-118317857D01*
X38155755Y-118294047D01*
X38155755Y-118282142D01*
X38143851Y-118258333D01*
X38120041Y-118246428D01*
X38084327Y-118246428D01*
X38060517Y-118258333D01*
X37965279Y-118246428D02*
X37917660Y-118413095D01*
X37870041Y-118294047D01*
X37822422Y-118413095D01*
X37774803Y-118246428D01*
X37679565Y-118413095D02*
X37679565Y-118246428D01*
X37679565Y-118163095D02*
X37691470Y-118175000D01*
X37679565Y-118186904D01*
X37667660Y-118175000D01*
X37679565Y-118163095D01*
X37679565Y-118186904D01*
X37596232Y-118246428D02*
X37500994Y-118246428D01*
X37560517Y-118163095D02*
X37560517Y-118377380D01*
X37548613Y-118401190D01*
X37524803Y-118413095D01*
X37500994Y-118413095D01*
X37310517Y-118401190D02*
X37334327Y-118413095D01*
X37381946Y-118413095D01*
X37405755Y-118401190D01*
X37417660Y-118389285D01*
X37429565Y-118365476D01*
X37429565Y-118294047D01*
X37417660Y-118270238D01*
X37405755Y-118258333D01*
X37381946Y-118246428D01*
X37334327Y-118246428D01*
X37310517Y-118258333D01*
X37203375Y-118413095D02*
X37203375Y-118163095D01*
X37096232Y-118413095D02*
X37096232Y-118282142D01*
X37108136Y-118258333D01*
X37131946Y-118246428D01*
X37167660Y-118246428D01*
X37191470Y-118258333D01*
X37203375Y-118270238D01*
X36881946Y-118401190D02*
X36905755Y-118413095D01*
X36953375Y-118413095D01*
X36977184Y-118401190D01*
X36989089Y-118377380D01*
X36989089Y-118282142D01*
X36977184Y-118258333D01*
X36953375Y-118246428D01*
X36905755Y-118246428D01*
X36881946Y-118258333D01*
X36870041Y-118282142D01*
X36870041Y-118305952D01*
X36989089Y-118329761D01*
X36774803Y-118401190D02*
X36750994Y-118413095D01*
X36703375Y-118413095D01*
X36679565Y-118401190D01*
X36667660Y-118377380D01*
X36667660Y-118365476D01*
X36679565Y-118341666D01*
X36703375Y-118329761D01*
X36739089Y-118329761D01*
X36762898Y-118317857D01*
X36774803Y-118294047D01*
X36774803Y-118282142D01*
X36762898Y-118258333D01*
X36739089Y-118246428D01*
X36703375Y-118246428D01*
X36679565Y-118258333D01*
X36262898Y-118413095D02*
X36262898Y-118282142D01*
X36274803Y-118258333D01*
X36298613Y-118246428D01*
X36346232Y-118246428D01*
X36370041Y-118258333D01*
X36262898Y-118401190D02*
X36286708Y-118413095D01*
X36346232Y-118413095D01*
X36370041Y-118401190D01*
X36381946Y-118377380D01*
X36381946Y-118353571D01*
X36370041Y-118329761D01*
X36346232Y-118317857D01*
X36286708Y-118317857D01*
X36262898Y-118305952D01*
X36143851Y-118413095D02*
X36143851Y-118246428D01*
X36143851Y-118294047D02*
X36131946Y-118270238D01*
X36120041Y-118258333D01*
X36096232Y-118246428D01*
X36072422Y-118246428D01*
X35893851Y-118401190D02*
X35917660Y-118413095D01*
X35965279Y-118413095D01*
X35989089Y-118401190D01*
X36000994Y-118377380D01*
X36000994Y-118282142D01*
X35989089Y-118258333D01*
X35965279Y-118246428D01*
X35917660Y-118246428D01*
X35893851Y-118258333D01*
X35881946Y-118282142D01*
X35881946Y-118305952D01*
X36000994Y-118329761D01*
X35584327Y-118413095D02*
X35584327Y-118163095D01*
X35477184Y-118413095D02*
X35477184Y-118282142D01*
X35489089Y-118258333D01*
X35512898Y-118246428D01*
X35548613Y-118246428D01*
X35572422Y-118258333D01*
X35584327Y-118270238D01*
X35322422Y-118413095D02*
X35346232Y-118401190D01*
X35358136Y-118389285D01*
X35370041Y-118365476D01*
X35370041Y-118294047D01*
X35358136Y-118270238D01*
X35346232Y-118258333D01*
X35322422Y-118246428D01*
X35286708Y-118246428D01*
X35262898Y-118258333D01*
X35250994Y-118270238D01*
X35239089Y-118294047D01*
X35239089Y-118365476D01*
X35250994Y-118389285D01*
X35262898Y-118401190D01*
X35286708Y-118413095D01*
X35322422Y-118413095D01*
X35167660Y-118246428D02*
X35072422Y-118246428D01*
X35131946Y-118163095D02*
X35131946Y-118377380D01*
X35120041Y-118401190D01*
X35096232Y-118413095D01*
X35072422Y-118413095D01*
X34989089Y-118317857D02*
X34798613Y-118317857D01*
X34691470Y-118401190D02*
X34667660Y-118413095D01*
X34620041Y-118413095D01*
X34596232Y-118401190D01*
X34584327Y-118377380D01*
X34584327Y-118365476D01*
X34596232Y-118341666D01*
X34620041Y-118329761D01*
X34655755Y-118329761D01*
X34679565Y-118317857D01*
X34691470Y-118294047D01*
X34691470Y-118282142D01*
X34679565Y-118258333D01*
X34655755Y-118246428D01*
X34620041Y-118246428D01*
X34596232Y-118258333D01*
X34500994Y-118246428D02*
X34453375Y-118413095D01*
X34405755Y-118294047D01*
X34358136Y-118413095D01*
X34310517Y-118246428D01*
X34108136Y-118413095D02*
X34108136Y-118282142D01*
X34120041Y-118258333D01*
X34143851Y-118246428D01*
X34191470Y-118246428D01*
X34215279Y-118258333D01*
X34108136Y-118401190D02*
X34131946Y-118413095D01*
X34191470Y-118413095D01*
X34215279Y-118401190D01*
X34227184Y-118377380D01*
X34227184Y-118353571D01*
X34215279Y-118329761D01*
X34191470Y-118317857D01*
X34131946Y-118317857D01*
X34108136Y-118305952D01*
X33989089Y-118246428D02*
X33989089Y-118496428D01*
X33989089Y-118258333D02*
X33965279Y-118246428D01*
X33917660Y-118246428D01*
X33893851Y-118258333D01*
X33881946Y-118270238D01*
X33870041Y-118294047D01*
X33870041Y-118365476D01*
X33881946Y-118389285D01*
X33893851Y-118401190D01*
X33917660Y-118413095D01*
X33965279Y-118413095D01*
X33989089Y-118401190D01*
X33762898Y-118246428D02*
X33762898Y-118496428D01*
X33762898Y-118258333D02*
X33739089Y-118246428D01*
X33691470Y-118246428D01*
X33667660Y-118258333D01*
X33655755Y-118270238D01*
X33643851Y-118294047D01*
X33643851Y-118365476D01*
X33655755Y-118389285D01*
X33667660Y-118401190D01*
X33691470Y-118413095D01*
X33739089Y-118413095D01*
X33762898Y-118401190D01*
X33429565Y-118413095D02*
X33429565Y-118282142D01*
X33441470Y-118258333D01*
X33465279Y-118246428D01*
X33512898Y-118246428D01*
X33536708Y-118258333D01*
X33429565Y-118401190D02*
X33453375Y-118413095D01*
X33512898Y-118413095D01*
X33536708Y-118401190D01*
X33548613Y-118377380D01*
X33548613Y-118353571D01*
X33536708Y-118329761D01*
X33512898Y-118317857D01*
X33453375Y-118317857D01*
X33429565Y-118305952D01*
X33310517Y-118413095D02*
X33310517Y-118163095D01*
X33310517Y-118258333D02*
X33286708Y-118246428D01*
X33239089Y-118246428D01*
X33215279Y-118258333D01*
X33203375Y-118270238D01*
X33191470Y-118294047D01*
X33191470Y-118365476D01*
X33203375Y-118389285D01*
X33215279Y-118401190D01*
X33239089Y-118413095D01*
X33286708Y-118413095D01*
X33310517Y-118401190D01*
X33048613Y-118413095D02*
X33072422Y-118401190D01*
X33084327Y-118377380D01*
X33084327Y-118163095D01*
X32858136Y-118401190D02*
X32881946Y-118413095D01*
X32929565Y-118413095D01*
X32953375Y-118401190D01*
X32965279Y-118377380D01*
X32965279Y-118282142D01*
X32953375Y-118258333D01*
X32929565Y-118246428D01*
X32881946Y-118246428D01*
X32858136Y-118258333D01*
X32846232Y-118282142D01*
X32846232Y-118305952D01*
X32965279Y-118329761D01*
X32405755Y-118389285D02*
X32417660Y-118401190D01*
X32453375Y-118413095D01*
X32477184Y-118413095D01*
X32512898Y-118401190D01*
X32536708Y-118377380D01*
X32548613Y-118353571D01*
X32560517Y-118305952D01*
X32560517Y-118270238D01*
X32548613Y-118222619D01*
X32536708Y-118198809D01*
X32512898Y-118175000D01*
X32477184Y-118163095D01*
X32453375Y-118163095D01*
X32417660Y-118175000D01*
X32405755Y-118186904D01*
X32298613Y-118413095D02*
X32298613Y-118163095D01*
X32191470Y-118413095D02*
X32191470Y-118282142D01*
X32203375Y-118258333D01*
X32227184Y-118246428D01*
X32262898Y-118246428D01*
X32286708Y-118258333D01*
X32298613Y-118270238D01*
X31977184Y-118401190D02*
X32000994Y-118413095D01*
X32048613Y-118413095D01*
X32072422Y-118401190D01*
X32084327Y-118377380D01*
X32084327Y-118282142D01*
X32072422Y-118258333D01*
X32048613Y-118246428D01*
X32000994Y-118246428D01*
X31977184Y-118258333D01*
X31965279Y-118282142D01*
X31965279Y-118305952D01*
X32084327Y-118329761D01*
X31858136Y-118413095D02*
X31858136Y-118246428D01*
X31858136Y-118294047D02*
X31846232Y-118270238D01*
X31834327Y-118258333D01*
X31810517Y-118246428D01*
X31786708Y-118246428D01*
X31703375Y-118413095D02*
X31703375Y-118246428D01*
X31703375Y-118294047D02*
X31691470Y-118270238D01*
X31679565Y-118258333D01*
X31655755Y-118246428D01*
X31631946Y-118246428D01*
X31572422Y-118246428D02*
X31512898Y-118413095D01*
X31453375Y-118246428D02*
X31512898Y-118413095D01*
X31536708Y-118472619D01*
X31548613Y-118484523D01*
X31572422Y-118496428D01*
X31358136Y-118317857D02*
X31167660Y-118317857D01*
X30941470Y-118401190D02*
X30965279Y-118413095D01*
X31012898Y-118413095D01*
X31036708Y-118401190D01*
X31048613Y-118389285D01*
X31060517Y-118365476D01*
X31060517Y-118294047D01*
X31048613Y-118270238D01*
X31036708Y-118258333D01*
X31012898Y-118246428D01*
X30965279Y-118246428D01*
X30941470Y-118258333D01*
X30798613Y-118413095D02*
X30822422Y-118401190D01*
X30834327Y-118389285D01*
X30846232Y-118365476D01*
X30846232Y-118294047D01*
X30834327Y-118270238D01*
X30822422Y-118258333D01*
X30798613Y-118246428D01*
X30762898Y-118246428D01*
X30739089Y-118258333D01*
X30727184Y-118270238D01*
X30715279Y-118294047D01*
X30715279Y-118365476D01*
X30727184Y-118389285D01*
X30739089Y-118401190D01*
X30762898Y-118413095D01*
X30798613Y-118413095D01*
X30608136Y-118413095D02*
X30608136Y-118246428D01*
X30608136Y-118270238D02*
X30596232Y-118258333D01*
X30572422Y-118246428D01*
X30536708Y-118246428D01*
X30512898Y-118258333D01*
X30500994Y-118282142D01*
X30500994Y-118413095D01*
X30500994Y-118282142D02*
X30489089Y-118258333D01*
X30465279Y-118246428D01*
X30429565Y-118246428D01*
X30405755Y-118258333D01*
X30393851Y-118282142D01*
X30393851Y-118413095D01*
X30274803Y-118246428D02*
X30274803Y-118496428D01*
X30274803Y-118258333D02*
X30250994Y-118246428D01*
X30203375Y-118246428D01*
X30179565Y-118258333D01*
X30167660Y-118270238D01*
X30155755Y-118294047D01*
X30155755Y-118365476D01*
X30167660Y-118389285D01*
X30179565Y-118401190D01*
X30203375Y-118413095D01*
X30250994Y-118413095D01*
X30274803Y-118401190D01*
X29941470Y-118413095D02*
X29941470Y-118282142D01*
X29953375Y-118258333D01*
X29977184Y-118246428D01*
X30024803Y-118246428D01*
X30048613Y-118258333D01*
X29941470Y-118401190D02*
X29965279Y-118413095D01*
X30024803Y-118413095D01*
X30048613Y-118401190D01*
X30060517Y-118377380D01*
X30060517Y-118353571D01*
X30048613Y-118329761D01*
X30024803Y-118317857D01*
X29965279Y-118317857D01*
X29941470Y-118305952D01*
X29858136Y-118246428D02*
X29762898Y-118246428D01*
X29822422Y-118163095D02*
X29822422Y-118377380D01*
X29810517Y-118401190D01*
X29786708Y-118413095D01*
X29762898Y-118413095D01*
X29679565Y-118413095D02*
X29679565Y-118246428D01*
X29679565Y-118163095D02*
X29691470Y-118175000D01*
X29679565Y-118186904D01*
X29667660Y-118175000D01*
X29679565Y-118163095D01*
X29679565Y-118186904D01*
X29560517Y-118413095D02*
X29560517Y-118163095D01*
X29560517Y-118258333D02*
X29536708Y-118246428D01*
X29489089Y-118246428D01*
X29465279Y-118258333D01*
X29453375Y-118270238D01*
X29441470Y-118294047D01*
X29441470Y-118365476D01*
X29453375Y-118389285D01*
X29465279Y-118401190D01*
X29489089Y-118413095D01*
X29536708Y-118413095D01*
X29560517Y-118401190D01*
X29298613Y-118413095D02*
X29322422Y-118401190D01*
X29334327Y-118377380D01*
X29334327Y-118163095D01*
X29108136Y-118401190D02*
X29131946Y-118413095D01*
X29179565Y-118413095D01*
X29203375Y-118401190D01*
X29215279Y-118377380D01*
X29215279Y-118282142D01*
X29203375Y-118258333D01*
X29179565Y-118246428D01*
X29131946Y-118246428D01*
X29108136Y-118258333D01*
X29096232Y-118282142D01*
X29096232Y-118305952D01*
X29215279Y-118329761D01*
X35850000Y-118846428D02*
X35790476Y-119013095D01*
X35730952Y-118846428D01*
X35588095Y-118763095D02*
X35564285Y-118763095D01*
X35540476Y-118775000D01*
X35528571Y-118786904D01*
X35516666Y-118810714D01*
X35504761Y-118858333D01*
X35504761Y-118917857D01*
X35516666Y-118965476D01*
X35528571Y-118989285D01*
X35540476Y-119001190D01*
X35564285Y-119013095D01*
X35588095Y-119013095D01*
X35611904Y-119001190D01*
X35623809Y-118989285D01*
X35635714Y-118965476D01*
X35647619Y-118917857D01*
X35647619Y-118858333D01*
X35635714Y-118810714D01*
X35623809Y-118786904D01*
X35611904Y-118775000D01*
X35588095Y-118763095D01*
X35397619Y-118989285D02*
X35385714Y-119001190D01*
X35397619Y-119013095D01*
X35409523Y-119001190D01*
X35397619Y-118989285D01*
X35397619Y-119013095D01*
X35147619Y-119013095D02*
X35290476Y-119013095D01*
X35219047Y-119013095D02*
X35219047Y-118763095D01*
X35242857Y-118798809D01*
X35266666Y-118822619D01*
X35290476Y-118834523D01*
X35040476Y-118989285D02*
X35028571Y-119001190D01*
X35040476Y-119013095D01*
X35052380Y-119001190D01*
X35040476Y-118989285D01*
X35040476Y-119013095D01*
X34873809Y-118763095D02*
X34850000Y-118763095D01*
X34826190Y-118775000D01*
X34814285Y-118786904D01*
X34802380Y-118810714D01*
X34790476Y-118858333D01*
X34790476Y-118917857D01*
X34802380Y-118965476D01*
X34814285Y-118989285D01*
X34826190Y-119001190D01*
X34850000Y-119013095D01*
X34873809Y-119013095D01*
X34897619Y-119001190D01*
X34909523Y-118989285D01*
X34921428Y-118965476D01*
X34933333Y-118917857D01*
X34933333Y-118858333D01*
X34921428Y-118810714D01*
X34909523Y-118786904D01*
X34897619Y-118775000D01*
X34873809Y-118763095D01*
X34433333Y-118929761D02*
X34528571Y-118929761D01*
X34171428Y-118786904D02*
X34159523Y-118775000D01*
X34135714Y-118763095D01*
X34076190Y-118763095D01*
X34052380Y-118775000D01*
X34040476Y-118786904D01*
X34028571Y-118810714D01*
X34028571Y-118834523D01*
X34040476Y-118870238D01*
X34183333Y-119013095D01*
X34028571Y-119013095D01*
X33873809Y-118763095D02*
X33850000Y-118763095D01*
X33826190Y-118775000D01*
X33814285Y-118786904D01*
X33802380Y-118810714D01*
X33790476Y-118858333D01*
X33790476Y-118917857D01*
X33802380Y-118965476D01*
X33814285Y-118989285D01*
X33826190Y-119001190D01*
X33850000Y-119013095D01*
X33873809Y-119013095D01*
X33897619Y-119001190D01*
X33909523Y-118989285D01*
X33921428Y-118965476D01*
X33933333Y-118917857D01*
X33933333Y-118858333D01*
X33921428Y-118810714D01*
X33909523Y-118786904D01*
X33897619Y-118775000D01*
X33873809Y-118763095D01*
X33695238Y-118786904D02*
X33683333Y-118775000D01*
X33659523Y-118763095D01*
X33600000Y-118763095D01*
X33576190Y-118775000D01*
X33564285Y-118786904D01*
X33552380Y-118810714D01*
X33552380Y-118834523D01*
X33564285Y-118870238D01*
X33707142Y-119013095D01*
X33552380Y-119013095D01*
X33457142Y-118786904D02*
X33445238Y-118775000D01*
X33421428Y-118763095D01*
X33361904Y-118763095D01*
X33338095Y-118775000D01*
X33326190Y-118786904D01*
X33314285Y-118810714D01*
X33314285Y-118834523D01*
X33326190Y-118870238D01*
X33469047Y-119013095D01*
X33314285Y-119013095D01*
X33159523Y-118763095D02*
X33135714Y-118763095D01*
X33111904Y-118775000D01*
X33100000Y-118786904D01*
X33088095Y-118810714D01*
X33076190Y-118858333D01*
X33076190Y-118917857D01*
X33088095Y-118965476D01*
X33100000Y-118989285D01*
X33111904Y-119001190D01*
X33135714Y-119013095D01*
X33159523Y-119013095D01*
X33183333Y-119001190D01*
X33195238Y-118989285D01*
X33207142Y-118965476D01*
X33219047Y-118917857D01*
X33219047Y-118858333D01*
X33207142Y-118810714D01*
X33195238Y-118786904D01*
X33183333Y-118775000D01*
X33159523Y-118763095D01*
X32933333Y-118870238D02*
X32957142Y-118858333D01*
X32969047Y-118846428D01*
X32980952Y-118822619D01*
X32980952Y-118810714D01*
X32969047Y-118786904D01*
X32957142Y-118775000D01*
X32933333Y-118763095D01*
X32885714Y-118763095D01*
X32861904Y-118775000D01*
X32850000Y-118786904D01*
X32838095Y-118810714D01*
X32838095Y-118822619D01*
X32850000Y-118846428D01*
X32861904Y-118858333D01*
X32885714Y-118870238D01*
X32933333Y-118870238D01*
X32957142Y-118882142D01*
X32969047Y-118894047D01*
X32980952Y-118917857D01*
X32980952Y-118965476D01*
X32969047Y-118989285D01*
X32957142Y-119001190D01*
X32933333Y-119013095D01*
X32885714Y-119013095D01*
X32861904Y-119001190D01*
X32850000Y-118989285D01*
X32838095Y-118965476D01*
X32838095Y-118917857D01*
X32850000Y-118894047D01*
X32861904Y-118882142D01*
X32885714Y-118870238D01*
X32600000Y-119013095D02*
X32742857Y-119013095D01*
X32671428Y-119013095D02*
X32671428Y-118763095D01*
X32695238Y-118798809D01*
X32719047Y-118822619D01*
X32742857Y-118834523D01*
X32516666Y-118763095D02*
X32361904Y-118763095D01*
X32445238Y-118858333D01*
X32409523Y-118858333D01*
X32385714Y-118870238D01*
X32373809Y-118882142D01*
X32361904Y-118905952D01*
X32361904Y-118965476D01*
X32373809Y-118989285D01*
X32385714Y-119001190D01*
X32409523Y-119013095D01*
X32480952Y-119013095D01*
X32504761Y-119001190D01*
X32516666Y-118989285D01*
D10*
X45691666Y-126325000D02*
X45725000Y-126308333D01*
X45775000Y-126308333D01*
X45825000Y-126325000D01*
X45858333Y-126358333D01*
X45875000Y-126391666D01*
X45891666Y-126458333D01*
X45891666Y-126508333D01*
X45875000Y-126575000D01*
X45858333Y-126608333D01*
X45825000Y-126641666D01*
X45775000Y-126658333D01*
X45741666Y-126658333D01*
X45691666Y-126641666D01*
X45675000Y-126625000D01*
X45675000Y-126508333D01*
X45741666Y-126508333D01*
X45525000Y-126658333D02*
X45525000Y-126308333D01*
X45325000Y-126658333D01*
X45325000Y-126308333D01*
X45158333Y-126658333D02*
X45158333Y-126308333D01*
X45075000Y-126308333D01*
X45025000Y-126325000D01*
X44991666Y-126358333D01*
X44975000Y-126391666D01*
X44958333Y-126458333D01*
X44958333Y-126508333D01*
X44975000Y-126575000D01*
X44991666Y-126608333D01*
X45025000Y-126641666D01*
X45075000Y-126658333D01*
X45158333Y-126658333D01*
X33634466Y-93792733D02*
X33751133Y-93626066D01*
X33834466Y-93792733D02*
X33834466Y-93442733D01*
X33701133Y-93442733D01*
X33667800Y-93459400D01*
X33651133Y-93476066D01*
X33634466Y-93509400D01*
X33634466Y-93559400D01*
X33651133Y-93592733D01*
X33667800Y-93609400D01*
X33701133Y-93626066D01*
X33834466Y-93626066D01*
X33534466Y-93442733D02*
X33334466Y-93442733D01*
X33434466Y-93792733D02*
X33434466Y-93442733D01*
X33234466Y-93476066D02*
X33217800Y-93459400D01*
X33184466Y-93442733D01*
X33101133Y-93442733D01*
X33067800Y-93459400D01*
X33051133Y-93476066D01*
X33034466Y-93509400D01*
X33034466Y-93542733D01*
X33051133Y-93592733D01*
X33251133Y-93792733D01*
X33034466Y-93792733D01*
X32901133Y-93692733D02*
X32734466Y-93692733D01*
X32934466Y-93792733D02*
X32817800Y-93442733D01*
X32701133Y-93792733D01*
X38659466Y-55567733D02*
X38776133Y-55401066D01*
X38859466Y-55567733D02*
X38859466Y-55217733D01*
X38726133Y-55217733D01*
X38692800Y-55234400D01*
X38676133Y-55251066D01*
X38659466Y-55284400D01*
X38659466Y-55334400D01*
X38676133Y-55367733D01*
X38692800Y-55384400D01*
X38726133Y-55401066D01*
X38859466Y-55401066D01*
X38559466Y-55217733D02*
X38359466Y-55217733D01*
X38459466Y-55567733D02*
X38459466Y-55217733D01*
X38259466Y-55251066D02*
X38242800Y-55234400D01*
X38209466Y-55217733D01*
X38126133Y-55217733D01*
X38092800Y-55234400D01*
X38076133Y-55251066D01*
X38059466Y-55284400D01*
X38059466Y-55317733D01*
X38076133Y-55367733D01*
X38276133Y-55567733D01*
X38059466Y-55567733D01*
X37792800Y-55384400D02*
X37742800Y-55401066D01*
X37726133Y-55417733D01*
X37709466Y-55451066D01*
X37709466Y-55501066D01*
X37726133Y-55534400D01*
X37742800Y-55551066D01*
X37776133Y-55567733D01*
X37909466Y-55567733D01*
X37909466Y-55217733D01*
X37792800Y-55217733D01*
X37759466Y-55234400D01*
X37742800Y-55251066D01*
X37726133Y-55284400D01*
X37726133Y-55317733D01*
X37742800Y-55351066D01*
X37759466Y-55367733D01*
X37792800Y-55384400D01*
X37909466Y-55384400D01*
X38250000Y-126641666D02*
X38200000Y-126658333D01*
X38116666Y-126658333D01*
X38083333Y-126641666D01*
X38066666Y-126625000D01*
X38050000Y-126591666D01*
X38050000Y-126558333D01*
X38066666Y-126525000D01*
X38083333Y-126508333D01*
X38116666Y-126491666D01*
X38183333Y-126475000D01*
X38216666Y-126458333D01*
X38233333Y-126441666D01*
X38250000Y-126408333D01*
X38250000Y-126375000D01*
X38233333Y-126341666D01*
X38216666Y-126325000D01*
X38183333Y-126308333D01*
X38100000Y-126308333D01*
X38050000Y-126325000D01*
X37933333Y-126308333D02*
X37850000Y-126658333D01*
X37783333Y-126408333D01*
X37716666Y-126658333D01*
X37633333Y-126308333D01*
X37500000Y-126658333D02*
X37500000Y-126308333D01*
X37416666Y-126308333D01*
X37366666Y-126325000D01*
X37333333Y-126358333D01*
X37316666Y-126391666D01*
X37300000Y-126458333D01*
X37300000Y-126508333D01*
X37316666Y-126575000D01*
X37333333Y-126608333D01*
X37366666Y-126641666D01*
X37416666Y-126658333D01*
X37500000Y-126658333D01*
X25758333Y-126318250D02*
X25791666Y-126301583D01*
X25841666Y-126301583D01*
X25891666Y-126318250D01*
X25925000Y-126351583D01*
X25941666Y-126384916D01*
X25958333Y-126451583D01*
X25958333Y-126501583D01*
X25941666Y-126568250D01*
X25925000Y-126601583D01*
X25891666Y-126634916D01*
X25841666Y-126651583D01*
X25808333Y-126651583D01*
X25758333Y-126634916D01*
X25741666Y-126618250D01*
X25741666Y-126501583D01*
X25808333Y-126501583D01*
X25591666Y-126651583D02*
X25591666Y-126301583D01*
X25458333Y-126301583D01*
X25425000Y-126318250D01*
X25408333Y-126334916D01*
X25391666Y-126368250D01*
X25391666Y-126418250D01*
X25408333Y-126451583D01*
X25425000Y-126468250D01*
X25458333Y-126484916D01*
X25591666Y-126484916D01*
X25241666Y-126651583D02*
X25241666Y-126301583D01*
X25008333Y-126301583D02*
X24941666Y-126301583D01*
X24908333Y-126318250D01*
X24875000Y-126351583D01*
X24858333Y-126418250D01*
X24858333Y-126534916D01*
X24875000Y-126601583D01*
X24908333Y-126634916D01*
X24941666Y-126651583D01*
X25008333Y-126651583D01*
X25041666Y-126634916D01*
X25075000Y-126601583D01*
X25091666Y-126534916D01*
X25091666Y-126418250D01*
X25075000Y-126351583D01*
X25041666Y-126318250D01*
X25008333Y-126301583D01*
X24725000Y-126334916D02*
X24708333Y-126318250D01*
X24675000Y-126301583D01*
X24591666Y-126301583D01*
X24558333Y-126318250D01*
X24541666Y-126334916D01*
X24525000Y-126368250D01*
X24525000Y-126401583D01*
X24541666Y-126451583D01*
X24741666Y-126651583D01*
X24525000Y-126651583D01*
X24408333Y-126301583D02*
X24175000Y-126301583D01*
X24325000Y-126651583D01*
X25675000Y-127115083D02*
X25508333Y-127115083D01*
X25708333Y-127215083D02*
X25591666Y-126865083D01*
X25475000Y-127215083D01*
X25358333Y-127215083D02*
X25358333Y-126865083D01*
X25275000Y-126865083D01*
X25225000Y-126881750D01*
X25191666Y-126915083D01*
X25175000Y-126948416D01*
X25158333Y-127015083D01*
X25158333Y-127065083D01*
X25175000Y-127131750D01*
X25191666Y-127165083D01*
X25225000Y-127198416D01*
X25275000Y-127215083D01*
X25358333Y-127215083D01*
X24808333Y-127181750D02*
X24825000Y-127198416D01*
X24875000Y-127215083D01*
X24908333Y-127215083D01*
X24958333Y-127198416D01*
X24991666Y-127165083D01*
X25008333Y-127131750D01*
X25025000Y-127065083D01*
X25025000Y-127015083D01*
X25008333Y-126948416D01*
X24991666Y-126915083D01*
X24958333Y-126881750D01*
X24908333Y-126865083D01*
X24875000Y-126865083D01*
X24825000Y-126881750D01*
X24808333Y-126898416D01*
X24475000Y-127215083D02*
X24675000Y-127215083D01*
X24575000Y-127215083D02*
X24575000Y-126865083D01*
X24608333Y-126915083D01*
X24641666Y-126948416D01*
X24675000Y-126965083D01*
X38659466Y-93792733D02*
X38776133Y-93626066D01*
X38859466Y-93792733D02*
X38859466Y-93442733D01*
X38726133Y-93442733D01*
X38692800Y-93459400D01*
X38676133Y-93476066D01*
X38659466Y-93509400D01*
X38659466Y-93559400D01*
X38676133Y-93592733D01*
X38692800Y-93609400D01*
X38726133Y-93626066D01*
X38859466Y-93626066D01*
X38559466Y-93442733D02*
X38359466Y-93442733D01*
X38459466Y-93792733D02*
X38459466Y-93442733D01*
X38259466Y-93476066D02*
X38242800Y-93459400D01*
X38209466Y-93442733D01*
X38126133Y-93442733D01*
X38092800Y-93459400D01*
X38076133Y-93476066D01*
X38059466Y-93509400D01*
X38059466Y-93542733D01*
X38076133Y-93592733D01*
X38276133Y-93792733D01*
X38059466Y-93792733D01*
X37792800Y-93609400D02*
X37742800Y-93626066D01*
X37726133Y-93642733D01*
X37709466Y-93676066D01*
X37709466Y-93726066D01*
X37726133Y-93759400D01*
X37742800Y-93776066D01*
X37776133Y-93792733D01*
X37909466Y-93792733D01*
X37909466Y-93442733D01*
X37792800Y-93442733D01*
X37759466Y-93459400D01*
X37742800Y-93476066D01*
X37726133Y-93509400D01*
X37726133Y-93542733D01*
X37742800Y-93576066D01*
X37759466Y-93592733D01*
X37792800Y-93609400D01*
X37909466Y-93609400D01*
X23058333Y-126308333D02*
X22841666Y-126308333D01*
X22958333Y-126441666D01*
X22908333Y-126441666D01*
X22875000Y-126458333D01*
X22858333Y-126475000D01*
X22841666Y-126508333D01*
X22841666Y-126591666D01*
X22858333Y-126625000D01*
X22875000Y-126641666D01*
X22908333Y-126658333D01*
X23008333Y-126658333D01*
X23041666Y-126641666D01*
X23058333Y-126625000D01*
X22741666Y-126308333D02*
X22625000Y-126658333D01*
X22508333Y-126308333D01*
X22425000Y-126308333D02*
X22208333Y-126308333D01*
X22325000Y-126441666D01*
X22275000Y-126441666D01*
X22241666Y-126458333D01*
X22225000Y-126475000D01*
X22208333Y-126508333D01*
X22208333Y-126591666D01*
X22225000Y-126625000D01*
X22241666Y-126641666D01*
X22275000Y-126658333D01*
X22375000Y-126658333D01*
X22408333Y-126641666D01*
X22425000Y-126625000D01*
X44125000Y-126308333D02*
X44125000Y-126591666D01*
X44108333Y-126625000D01*
X44091666Y-126641666D01*
X44058333Y-126658333D01*
X43991666Y-126658333D01*
X43958333Y-126641666D01*
X43941666Y-126625000D01*
X43925000Y-126591666D01*
X43925000Y-126308333D01*
X43775000Y-126641666D02*
X43725000Y-126658333D01*
X43641666Y-126658333D01*
X43608333Y-126641666D01*
X43591666Y-126625000D01*
X43575000Y-126591666D01*
X43575000Y-126558333D01*
X43591666Y-126525000D01*
X43608333Y-126508333D01*
X43641666Y-126491666D01*
X43708333Y-126475000D01*
X43741666Y-126458333D01*
X43758333Y-126441666D01*
X43775000Y-126408333D01*
X43775000Y-126375000D01*
X43758333Y-126341666D01*
X43741666Y-126325000D01*
X43708333Y-126308333D01*
X43625000Y-126308333D01*
X43575000Y-126325000D01*
X43308333Y-126475000D02*
X43258333Y-126491666D01*
X43241666Y-126508333D01*
X43225000Y-126541666D01*
X43225000Y-126591666D01*
X43241666Y-126625000D01*
X43258333Y-126641666D01*
X43291666Y-126658333D01*
X43425000Y-126658333D01*
X43425000Y-126308333D01*
X43308333Y-126308333D01*
X43275000Y-126325000D01*
X43258333Y-126341666D01*
X43241666Y-126375000D01*
X43241666Y-126408333D01*
X43258333Y-126441666D01*
X43275000Y-126458333D01*
X43308333Y-126475000D01*
X43425000Y-126475000D01*
X43158333Y-126691666D02*
X42891666Y-126691666D01*
X42691666Y-126475000D02*
X42641666Y-126491666D01*
X42625000Y-126508333D01*
X42608333Y-126541666D01*
X42608333Y-126591666D01*
X42625000Y-126625000D01*
X42641666Y-126641666D01*
X42675000Y-126658333D01*
X42808333Y-126658333D01*
X42808333Y-126308333D01*
X42691666Y-126308333D01*
X42658333Y-126325000D01*
X42641666Y-126341666D01*
X42625000Y-126375000D01*
X42625000Y-126408333D01*
X42641666Y-126441666D01*
X42658333Y-126458333D01*
X42691666Y-126475000D01*
X42808333Y-126475000D01*
X42391666Y-126308333D02*
X42325000Y-126308333D01*
X42291666Y-126325000D01*
X42258333Y-126358333D01*
X42241666Y-126425000D01*
X42241666Y-126541666D01*
X42258333Y-126608333D01*
X42291666Y-126641666D01*
X42325000Y-126658333D01*
X42391666Y-126658333D01*
X42425000Y-126641666D01*
X42458333Y-126608333D01*
X42475000Y-126541666D01*
X42475000Y-126425000D01*
X42458333Y-126358333D01*
X42425000Y-126325000D01*
X42391666Y-126308333D01*
X42025000Y-126308333D02*
X41958333Y-126308333D01*
X41925000Y-126325000D01*
X41891666Y-126358333D01*
X41875000Y-126425000D01*
X41875000Y-126541666D01*
X41891666Y-126608333D01*
X41925000Y-126641666D01*
X41958333Y-126658333D01*
X42025000Y-126658333D01*
X42058333Y-126641666D01*
X42091666Y-126608333D01*
X42108333Y-126541666D01*
X42108333Y-126425000D01*
X42091666Y-126358333D01*
X42058333Y-126325000D01*
X42025000Y-126308333D01*
X41775000Y-126308333D02*
X41575000Y-126308333D01*
X41675000Y-126658333D02*
X41675000Y-126308333D01*
X35458333Y-126658333D02*
X35575000Y-126491666D01*
X35658333Y-126658333D02*
X35658333Y-126308333D01*
X35525000Y-126308333D01*
X35491666Y-126325000D01*
X35475000Y-126341666D01*
X35458333Y-126375000D01*
X35458333Y-126425000D01*
X35475000Y-126458333D01*
X35491666Y-126475000D01*
X35525000Y-126491666D01*
X35658333Y-126491666D01*
X35308333Y-126308333D02*
X35308333Y-126591666D01*
X35291666Y-126625000D01*
X35275000Y-126641666D01*
X35241666Y-126658333D01*
X35175000Y-126658333D01*
X35141666Y-126641666D01*
X35125000Y-126625000D01*
X35108333Y-126591666D01*
X35108333Y-126308333D01*
X34941666Y-126658333D02*
X34941666Y-126308333D01*
X34741666Y-126658333D01*
X34741666Y-126308333D01*
X28308333Y-126318250D02*
X28341666Y-126301583D01*
X28391666Y-126301583D01*
X28441666Y-126318250D01*
X28475000Y-126351583D01*
X28491666Y-126384916D01*
X28508333Y-126451583D01*
X28508333Y-126501583D01*
X28491666Y-126568250D01*
X28475000Y-126601583D01*
X28441666Y-126634916D01*
X28391666Y-126651583D01*
X28358333Y-126651583D01*
X28308333Y-126634916D01*
X28291666Y-126618250D01*
X28291666Y-126501583D01*
X28358333Y-126501583D01*
X28141666Y-126651583D02*
X28141666Y-126301583D01*
X28008333Y-126301583D01*
X27975000Y-126318250D01*
X27958333Y-126334916D01*
X27941666Y-126368250D01*
X27941666Y-126418250D01*
X27958333Y-126451583D01*
X27975000Y-126468250D01*
X28008333Y-126484916D01*
X28141666Y-126484916D01*
X27791666Y-126651583D02*
X27791666Y-126301583D01*
X27558333Y-126301583D02*
X27491666Y-126301583D01*
X27458333Y-126318250D01*
X27425000Y-126351583D01*
X27408333Y-126418250D01*
X27408333Y-126534916D01*
X27425000Y-126601583D01*
X27458333Y-126634916D01*
X27491666Y-126651583D01*
X27558333Y-126651583D01*
X27591666Y-126634916D01*
X27625000Y-126601583D01*
X27641666Y-126534916D01*
X27641666Y-126418250D01*
X27625000Y-126351583D01*
X27591666Y-126318250D01*
X27558333Y-126301583D01*
X27275000Y-126334916D02*
X27258333Y-126318250D01*
X27225000Y-126301583D01*
X27141666Y-126301583D01*
X27108333Y-126318250D01*
X27091666Y-126334916D01*
X27075000Y-126368250D01*
X27075000Y-126401583D01*
X27091666Y-126451583D01*
X27291666Y-126651583D01*
X27075000Y-126651583D01*
X26775000Y-126301583D02*
X26841666Y-126301583D01*
X26875000Y-126318250D01*
X26891666Y-126334916D01*
X26925000Y-126384916D01*
X26941666Y-126451583D01*
X26941666Y-126584916D01*
X26925000Y-126618250D01*
X26908333Y-126634916D01*
X26875000Y-126651583D01*
X26808333Y-126651583D01*
X26775000Y-126634916D01*
X26758333Y-126618250D01*
X26741666Y-126584916D01*
X26741666Y-126501583D01*
X26758333Y-126468250D01*
X26775000Y-126451583D01*
X26808333Y-126434916D01*
X26875000Y-126434916D01*
X26908333Y-126451583D01*
X26925000Y-126468250D01*
X26941666Y-126501583D01*
X28225000Y-127115083D02*
X28058333Y-127115083D01*
X28258333Y-127215083D02*
X28141666Y-126865083D01*
X28025000Y-127215083D01*
X27908333Y-127215083D02*
X27908333Y-126865083D01*
X27825000Y-126865083D01*
X27775000Y-126881750D01*
X27741666Y-126915083D01*
X27725000Y-126948416D01*
X27708333Y-127015083D01*
X27708333Y-127065083D01*
X27725000Y-127131750D01*
X27741666Y-127165083D01*
X27775000Y-127198416D01*
X27825000Y-127215083D01*
X27908333Y-127215083D01*
X27358333Y-127181750D02*
X27375000Y-127198416D01*
X27425000Y-127215083D01*
X27458333Y-127215083D01*
X27508333Y-127198416D01*
X27541666Y-127165083D01*
X27558333Y-127131750D01*
X27575000Y-127065083D01*
X27575000Y-127015083D01*
X27558333Y-126948416D01*
X27541666Y-126915083D01*
X27508333Y-126881750D01*
X27458333Y-126865083D01*
X27425000Y-126865083D01*
X27375000Y-126881750D01*
X27358333Y-126898416D01*
X27141666Y-126865083D02*
X27108333Y-126865083D01*
X27075000Y-126881750D01*
X27058333Y-126898416D01*
X27041666Y-126931750D01*
X27025000Y-126998416D01*
X27025000Y-127081750D01*
X27041666Y-127148416D01*
X27058333Y-127181750D01*
X27075000Y-127198416D01*
X27108333Y-127215083D01*
X27141666Y-127215083D01*
X27175000Y-127198416D01*
X27191666Y-127181750D01*
X27208333Y-127148416D01*
X27225000Y-127081750D01*
X27225000Y-126998416D01*
X27208333Y-126931750D01*
X27191666Y-126898416D01*
X27175000Y-126881750D01*
X27141666Y-126865083D01*
D11*
X37381946Y-117841666D02*
X37262898Y-117841666D01*
X37405755Y-117913095D02*
X37322422Y-117663095D01*
X37239089Y-117913095D01*
X37120041Y-117913095D02*
X37143851Y-117901190D01*
X37155755Y-117877380D01*
X37155755Y-117663095D01*
X36989089Y-117913095D02*
X37012898Y-117901190D01*
X37024803Y-117877380D01*
X37024803Y-117663095D01*
X36596232Y-117913095D02*
X36596232Y-117663095D01*
X36596232Y-117901190D02*
X36620041Y-117913095D01*
X36667660Y-117913095D01*
X36691470Y-117901190D01*
X36703375Y-117889285D01*
X36715279Y-117865476D01*
X36715279Y-117794047D01*
X36703375Y-117770238D01*
X36691470Y-117758333D01*
X36667660Y-117746428D01*
X36620041Y-117746428D01*
X36596232Y-117758333D01*
X36477184Y-117913095D02*
X36477184Y-117746428D01*
X36477184Y-117663095D02*
X36489089Y-117675000D01*
X36477184Y-117686904D01*
X36465279Y-117675000D01*
X36477184Y-117663095D01*
X36477184Y-117686904D01*
X36322422Y-117913095D02*
X36346232Y-117901190D01*
X36358136Y-117889285D01*
X36370041Y-117865476D01*
X36370041Y-117794047D01*
X36358136Y-117770238D01*
X36346232Y-117758333D01*
X36322422Y-117746428D01*
X36286708Y-117746428D01*
X36262898Y-117758333D01*
X36250994Y-117770238D01*
X36239089Y-117794047D01*
X36239089Y-117865476D01*
X36250994Y-117889285D01*
X36262898Y-117901190D01*
X36286708Y-117913095D01*
X36322422Y-117913095D01*
X36024803Y-117913095D02*
X36024803Y-117663095D01*
X36024803Y-117901190D02*
X36048613Y-117913095D01*
X36096232Y-117913095D01*
X36120041Y-117901190D01*
X36131946Y-117889285D01*
X36143851Y-117865476D01*
X36143851Y-117794047D01*
X36131946Y-117770238D01*
X36120041Y-117758333D01*
X36096232Y-117746428D01*
X36048613Y-117746428D01*
X36024803Y-117758333D01*
X35810517Y-117901190D02*
X35834327Y-117913095D01*
X35881946Y-117913095D01*
X35905755Y-117901190D01*
X35917660Y-117877380D01*
X35917660Y-117782142D01*
X35905755Y-117758333D01*
X35881946Y-117746428D01*
X35834327Y-117746428D01*
X35810517Y-117758333D01*
X35798613Y-117782142D01*
X35798613Y-117805952D01*
X35917660Y-117829761D01*
X35703375Y-117901190D02*
X35679565Y-117913095D01*
X35631946Y-117913095D01*
X35608136Y-117901190D01*
X35596232Y-117877380D01*
X35596232Y-117865476D01*
X35608136Y-117841666D01*
X35631946Y-117829761D01*
X35667660Y-117829761D01*
X35691470Y-117817857D01*
X35703375Y-117794047D01*
X35703375Y-117782142D01*
X35691470Y-117758333D01*
X35667660Y-117746428D01*
X35631946Y-117746428D01*
X35608136Y-117758333D01*
X35191470Y-117913095D02*
X35191470Y-117782142D01*
X35203375Y-117758333D01*
X35227184Y-117746428D01*
X35274803Y-117746428D01*
X35298613Y-117758333D01*
X35191470Y-117901190D02*
X35215279Y-117913095D01*
X35274803Y-117913095D01*
X35298613Y-117901190D01*
X35310517Y-117877380D01*
X35310517Y-117853571D01*
X35298613Y-117829761D01*
X35274803Y-117817857D01*
X35215279Y-117817857D01*
X35191470Y-117805952D01*
X35072422Y-117913095D02*
X35072422Y-117746428D01*
X35072422Y-117794047D02*
X35060517Y-117770238D01*
X35048613Y-117758333D01*
X35024803Y-117746428D01*
X35000994Y-117746428D01*
X34822422Y-117901190D02*
X34846232Y-117913095D01*
X34893851Y-117913095D01*
X34917660Y-117901190D01*
X34929565Y-117877380D01*
X34929565Y-117782142D01*
X34917660Y-117758333D01*
X34893851Y-117746428D01*
X34846232Y-117746428D01*
X34822422Y-117758333D01*
X34810517Y-117782142D01*
X34810517Y-117805952D01*
X34929565Y-117829761D01*
X34381946Y-117913095D02*
X34524803Y-117913095D01*
X34453375Y-117913095D02*
X34453375Y-117663095D01*
X34477184Y-117698809D01*
X34500994Y-117722619D01*
X34524803Y-117734523D01*
X34274803Y-117913095D02*
X34274803Y-117663095D01*
X34131946Y-117913095D01*
X34131946Y-117663095D01*
X33905755Y-117746428D02*
X33905755Y-117913095D01*
X33965279Y-117651190D02*
X34024803Y-117829761D01*
X33870041Y-117829761D01*
X33643851Y-117913095D02*
X33786708Y-117913095D01*
X33715279Y-117913095D02*
X33715279Y-117663095D01*
X33739089Y-117698809D01*
X33762898Y-117722619D01*
X33786708Y-117734523D01*
X33429565Y-117746428D02*
X33429565Y-117913095D01*
X33489089Y-117651190D02*
X33548613Y-117829761D01*
X33393851Y-117829761D01*
X33262898Y-117770238D02*
X33286708Y-117758333D01*
X33298613Y-117746428D01*
X33310517Y-117722619D01*
X33310517Y-117710714D01*
X33298613Y-117686904D01*
X33286708Y-117675000D01*
X33262898Y-117663095D01*
X33215279Y-117663095D01*
X33191470Y-117675000D01*
X33179565Y-117686904D01*
X33167660Y-117710714D01*
X33167660Y-117722619D01*
X33179565Y-117746428D01*
X33191470Y-117758333D01*
X33215279Y-117770238D01*
X33262898Y-117770238D01*
X33286708Y-117782142D01*
X33298613Y-117794047D01*
X33310517Y-117817857D01*
X33310517Y-117865476D01*
X33298613Y-117889285D01*
X33286708Y-117901190D01*
X33262898Y-117913095D01*
X33215279Y-117913095D01*
X33191470Y-117901190D01*
X33179565Y-117889285D01*
X33167660Y-117865476D01*
X33167660Y-117817857D01*
X33179565Y-117794047D01*
X33191470Y-117782142D01*
X33215279Y-117770238D01*
X33048613Y-117901190D02*
X33048613Y-117913095D01*
X33060517Y-117936904D01*
X33072422Y-117948809D01*
X32631946Y-117913095D02*
X32750994Y-117913095D01*
X32750994Y-117663095D01*
X32405755Y-117889285D02*
X32417660Y-117901190D01*
X32453375Y-117913095D01*
X32477184Y-117913095D01*
X32512898Y-117901190D01*
X32536708Y-117877380D01*
X32548613Y-117853571D01*
X32560517Y-117805952D01*
X32560517Y-117770238D01*
X32548613Y-117722619D01*
X32536708Y-117698809D01*
X32512898Y-117675000D01*
X32477184Y-117663095D01*
X32453375Y-117663095D01*
X32417660Y-117675000D01*
X32405755Y-117686904D01*
X32310517Y-117901190D02*
X32274803Y-117913095D01*
X32215279Y-117913095D01*
X32191470Y-117901190D01*
X32179565Y-117889285D01*
X32167660Y-117865476D01*
X32167660Y-117841666D01*
X32179565Y-117817857D01*
X32191470Y-117805952D01*
X32215279Y-117794047D01*
X32262898Y-117782142D01*
X32286708Y-117770238D01*
X32298613Y-117758333D01*
X32310517Y-117734523D01*
X32310517Y-117710714D01*
X32298613Y-117686904D01*
X32286708Y-117675000D01*
X32262898Y-117663095D01*
X32203375Y-117663095D01*
X32167660Y-117675000D01*
X31917660Y-117889285D02*
X31929565Y-117901190D01*
X31965279Y-117913095D01*
X31989089Y-117913095D01*
X32024803Y-117901190D01*
X32048613Y-117877380D01*
X32060517Y-117853571D01*
X32072422Y-117805952D01*
X32072422Y-117770238D01*
X32060517Y-117722619D01*
X32048613Y-117698809D01*
X32024803Y-117675000D01*
X31989089Y-117663095D01*
X31965279Y-117663095D01*
X31929565Y-117675000D01*
X31917660Y-117686904D01*
X31477184Y-117889285D02*
X31489089Y-117901190D01*
X31524803Y-117913095D01*
X31548613Y-117913095D01*
X31584327Y-117901190D01*
X31608136Y-117877380D01*
X31620041Y-117853571D01*
X31631946Y-117805952D01*
X31631946Y-117770238D01*
X31620041Y-117722619D01*
X31608136Y-117698809D01*
X31584327Y-117675000D01*
X31548613Y-117663095D01*
X31524803Y-117663095D01*
X31489089Y-117675000D01*
X31477184Y-117686904D01*
X31381946Y-117686904D02*
X31370041Y-117675000D01*
X31346232Y-117663095D01*
X31286708Y-117663095D01*
X31262898Y-117675000D01*
X31250994Y-117686904D01*
X31239089Y-117710714D01*
X31239089Y-117734523D01*
X31250994Y-117770238D01*
X31393851Y-117913095D01*
X31239089Y-117913095D01*
X31000994Y-117913095D02*
X31143851Y-117913095D01*
X31072422Y-117913095D02*
X31072422Y-117663095D01*
X31096232Y-117698809D01*
X31120041Y-117722619D01*
X31143851Y-117734523D01*
X30905755Y-117686904D02*
X30893851Y-117675000D01*
X30870041Y-117663095D01*
X30810517Y-117663095D01*
X30786708Y-117675000D01*
X30774803Y-117686904D01*
X30762898Y-117710714D01*
X30762898Y-117734523D01*
X30774803Y-117770238D01*
X30917660Y-117913095D01*
X30762898Y-117913095D01*
X30620041Y-117770238D02*
X30643851Y-117758333D01*
X30655755Y-117746428D01*
X30667660Y-117722619D01*
X30667660Y-117710714D01*
X30655755Y-117686904D01*
X30643851Y-117675000D01*
X30620041Y-117663095D01*
X30572422Y-117663095D01*
X30548613Y-117675000D01*
X30536708Y-117686904D01*
X30524803Y-117710714D01*
X30524803Y-117722619D01*
X30536708Y-117746428D01*
X30548613Y-117758333D01*
X30572422Y-117770238D01*
X30620041Y-117770238D01*
X30643851Y-117782142D01*
X30655755Y-117794047D01*
X30667660Y-117817857D01*
X30667660Y-117865476D01*
X30655755Y-117889285D01*
X30643851Y-117901190D01*
X30620041Y-117913095D01*
X30572422Y-117913095D01*
X30548613Y-117901190D01*
X30536708Y-117889285D01*
X30524803Y-117865476D01*
X30524803Y-117817857D01*
X30536708Y-117794047D01*
X30548613Y-117782142D01*
X30572422Y-117770238D01*
D10*
X30833333Y-126325000D02*
X30866666Y-126308333D01*
X30916666Y-126308333D01*
X30966666Y-126325000D01*
X31000000Y-126358333D01*
X31016666Y-126391666D01*
X31033333Y-126458333D01*
X31033333Y-126508333D01*
X31016666Y-126575000D01*
X31000000Y-126608333D01*
X30966666Y-126641666D01*
X30916666Y-126658333D01*
X30883333Y-126658333D01*
X30833333Y-126641666D01*
X30816666Y-126625000D01*
X30816666Y-126508333D01*
X30883333Y-126508333D01*
X30666666Y-126658333D02*
X30666666Y-126308333D01*
X30533333Y-126308333D01*
X30500000Y-126325000D01*
X30483333Y-126341666D01*
X30466666Y-126375000D01*
X30466666Y-126425000D01*
X30483333Y-126458333D01*
X30500000Y-126475000D01*
X30533333Y-126491666D01*
X30666666Y-126491666D01*
X30316666Y-126658333D02*
X30316666Y-126308333D01*
X30083333Y-126308333D02*
X30016666Y-126308333D01*
X29983333Y-126325000D01*
X29950000Y-126358333D01*
X29933333Y-126425000D01*
X29933333Y-126541666D01*
X29950000Y-126608333D01*
X29983333Y-126641666D01*
X30016666Y-126658333D01*
X30083333Y-126658333D01*
X30116666Y-126641666D01*
X30150000Y-126608333D01*
X30166666Y-126541666D01*
X30166666Y-126425000D01*
X30150000Y-126358333D01*
X30116666Y-126325000D01*
X30083333Y-126308333D01*
X29600000Y-126658333D02*
X29800000Y-126658333D01*
X29700000Y-126658333D02*
X29700000Y-126308333D01*
X29733333Y-126358333D01*
X29766666Y-126391666D01*
X29800000Y-126408333D01*
X29483333Y-126308333D02*
X29250000Y-126308333D01*
X29400000Y-126658333D01*
X41066666Y-126641666D02*
X41016666Y-126658333D01*
X40933333Y-126658333D01*
X40900000Y-126641666D01*
X40883333Y-126625000D01*
X40866666Y-126591666D01*
X40866666Y-126558333D01*
X40883333Y-126525000D01*
X40900000Y-126508333D01*
X40933333Y-126491666D01*
X41000000Y-126475000D01*
X41033333Y-126458333D01*
X41050000Y-126441666D01*
X41066666Y-126408333D01*
X41066666Y-126375000D01*
X41050000Y-126341666D01*
X41033333Y-126325000D01*
X41000000Y-126308333D01*
X40916666Y-126308333D01*
X40866666Y-126325000D01*
X40750000Y-126308333D02*
X40666666Y-126658333D01*
X40600000Y-126408333D01*
X40533333Y-126658333D01*
X40450000Y-126308333D01*
X40116666Y-126625000D02*
X40133333Y-126641666D01*
X40183333Y-126658333D01*
X40216666Y-126658333D01*
X40266666Y-126641666D01*
X40300000Y-126608333D01*
X40316666Y-126575000D01*
X40333333Y-126508333D01*
X40333333Y-126458333D01*
X40316666Y-126391666D01*
X40300000Y-126358333D01*
X40266666Y-126325000D01*
X40216666Y-126308333D01*
X40183333Y-126308333D01*
X40133333Y-126325000D01*
X40116666Y-126341666D01*
X39800000Y-126658333D02*
X39966666Y-126658333D01*
X39966666Y-126308333D01*
X39683333Y-126658333D02*
X39683333Y-126308333D01*
X39483333Y-126658333D02*
X39633333Y-126458333D01*
X39483333Y-126308333D02*
X39683333Y-126508333D01*
D12*
X101428466Y-52196180D02*
X101357038Y-52219990D01*
X101237990Y-52219990D01*
X101190371Y-52196180D01*
X101166561Y-52172371D01*
X101142752Y-52124752D01*
X101142752Y-52077133D01*
X101166561Y-52029514D01*
X101190371Y-52005704D01*
X101237990Y-51981895D01*
X101333228Y-51958085D01*
X101380847Y-51934276D01*
X101404657Y-51910466D01*
X101428466Y-51862847D01*
X101428466Y-51815228D01*
X101404657Y-51767609D01*
X101380847Y-51743800D01*
X101333228Y-51719990D01*
X101214180Y-51719990D01*
X101142752Y-51743800D01*
X100976085Y-51719990D02*
X100857038Y-52219990D01*
X100761800Y-51862847D01*
X100666561Y-52219990D01*
X100547514Y-51719990D01*
X100285609Y-51934276D02*
X100333228Y-51910466D01*
X100357038Y-51886657D01*
X100380847Y-51839038D01*
X100380847Y-51815228D01*
X100357038Y-51767609D01*
X100333228Y-51743800D01*
X100285609Y-51719990D01*
X100190371Y-51719990D01*
X100142752Y-51743800D01*
X100118942Y-51767609D01*
X100095133Y-51815228D01*
X100095133Y-51839038D01*
X100118942Y-51886657D01*
X100142752Y-51910466D01*
X100190371Y-51934276D01*
X100285609Y-51934276D01*
X100333228Y-51958085D01*
X100357038Y-51981895D01*
X100380847Y-52029514D01*
X100380847Y-52124752D01*
X100357038Y-52172371D01*
X100333228Y-52196180D01*
X100285609Y-52219990D01*
X100190371Y-52219990D01*
X100142752Y-52196180D01*
X100118942Y-52172371D01*
X100095133Y-52124752D01*
X100095133Y-52029514D01*
X100118942Y-51981895D01*
X100142752Y-51958085D01*
X100190371Y-51934276D01*
X101428466Y-33146180D02*
X101357038Y-33169990D01*
X101237990Y-33169990D01*
X101190371Y-33146180D01*
X101166561Y-33122371D01*
X101142752Y-33074752D01*
X101142752Y-33027133D01*
X101166561Y-32979514D01*
X101190371Y-32955704D01*
X101237990Y-32931895D01*
X101333228Y-32908085D01*
X101380847Y-32884276D01*
X101404657Y-32860466D01*
X101428466Y-32812847D01*
X101428466Y-32765228D01*
X101404657Y-32717609D01*
X101380847Y-32693800D01*
X101333228Y-32669990D01*
X101214180Y-32669990D01*
X101142752Y-32693800D01*
X100976085Y-32669990D02*
X100857038Y-33169990D01*
X100761800Y-32812847D01*
X100666561Y-33169990D01*
X100547514Y-32669990D01*
X100118942Y-32669990D02*
X100357038Y-32669990D01*
X100380847Y-32908085D01*
X100357038Y-32884276D01*
X100309419Y-32860466D01*
X100190371Y-32860466D01*
X100142752Y-32884276D01*
X100118942Y-32908085D01*
X100095133Y-32955704D01*
X100095133Y-33074752D01*
X100118942Y-33122371D01*
X100142752Y-33146180D01*
X100190371Y-33169990D01*
X100309419Y-33169990D01*
X100357038Y-33146180D01*
X100380847Y-33122371D01*
D13*
X56508904Y-67288095D02*
X56366047Y-67288095D01*
X56437476Y-67538095D02*
X56437476Y-67288095D01*
X56282714Y-67538095D02*
X56282714Y-67288095D01*
X56187476Y-67288095D01*
X56163666Y-67300000D01*
X56151761Y-67311904D01*
X56139857Y-67335714D01*
X56139857Y-67371428D01*
X56151761Y-67395238D01*
X56163666Y-67407142D01*
X56187476Y-67419047D01*
X56282714Y-67419047D01*
X55901761Y-67538095D02*
X56044619Y-67538095D01*
X55973190Y-67538095D02*
X55973190Y-67288095D01*
X55997000Y-67323809D01*
X56020809Y-67347619D01*
X56044619Y-67359523D01*
X55604142Y-67442857D02*
X55413666Y-67442857D01*
X54961285Y-67514285D02*
X54973190Y-67526190D01*
X55008904Y-67538095D01*
X55032714Y-67538095D01*
X55068428Y-67526190D01*
X55092238Y-67502380D01*
X55104142Y-67478571D01*
X55116047Y-67430952D01*
X55116047Y-67395238D01*
X55104142Y-67347619D01*
X55092238Y-67323809D01*
X55068428Y-67300000D01*
X55032714Y-67288095D01*
X55008904Y-67288095D01*
X54973190Y-67300000D01*
X54961285Y-67311904D01*
X54806523Y-67288095D02*
X54758904Y-67288095D01*
X54735095Y-67300000D01*
X54711285Y-67323809D01*
X54699380Y-67371428D01*
X54699380Y-67454761D01*
X54711285Y-67502380D01*
X54735095Y-67526190D01*
X54758904Y-67538095D01*
X54806523Y-67538095D01*
X54830333Y-67526190D01*
X54854142Y-67502380D01*
X54866047Y-67454761D01*
X54866047Y-67371428D01*
X54854142Y-67323809D01*
X54830333Y-67300000D01*
X54806523Y-67288095D01*
X54473190Y-67538095D02*
X54592238Y-67538095D01*
X54592238Y-67288095D01*
X54258904Y-67538095D02*
X54401761Y-67538095D01*
X54330333Y-67538095D02*
X54330333Y-67288095D01*
X54354142Y-67323809D01*
X54377952Y-67347619D01*
X54401761Y-67359523D01*
D12*
X63566561Y-109346180D02*
X63495133Y-109369990D01*
X63376085Y-109369990D01*
X63328466Y-109346180D01*
X63304657Y-109322371D01*
X63280847Y-109274752D01*
X63280847Y-109227133D01*
X63304657Y-109179514D01*
X63328466Y-109155704D01*
X63376085Y-109131895D01*
X63471323Y-109108085D01*
X63518942Y-109084276D01*
X63542752Y-109060466D01*
X63566561Y-109012847D01*
X63566561Y-108965228D01*
X63542752Y-108917609D01*
X63518942Y-108893800D01*
X63471323Y-108869990D01*
X63352276Y-108869990D01*
X63280847Y-108893800D01*
X63114180Y-108869990D02*
X62995133Y-109369990D01*
X62899895Y-109012847D01*
X62804657Y-109369990D01*
X62685609Y-108869990D01*
X62233228Y-109369990D02*
X62518942Y-109369990D01*
X62376085Y-109369990D02*
X62376085Y-108869990D01*
X62423704Y-108941419D01*
X62471323Y-108989038D01*
X62518942Y-109012847D01*
X61780847Y-108869990D02*
X62018942Y-108869990D01*
X62042752Y-109108085D01*
X62018942Y-109084276D01*
X61971323Y-109060466D01*
X61852276Y-109060466D01*
X61804657Y-109084276D01*
X61780847Y-109108085D01*
X61757038Y-109155704D01*
X61757038Y-109274752D01*
X61780847Y-109322371D01*
X61804657Y-109346180D01*
X61852276Y-109369990D01*
X61971323Y-109369990D01*
X62018942Y-109346180D01*
X62042752Y-109322371D01*
D13*
X88953571Y-31113095D02*
X88810714Y-31113095D01*
X88882142Y-31363095D02*
X88882142Y-31113095D01*
X88727380Y-31363095D02*
X88727380Y-31113095D01*
X88632142Y-31113095D01*
X88608333Y-31125000D01*
X88596428Y-31136904D01*
X88584523Y-31160714D01*
X88584523Y-31196428D01*
X88596428Y-31220238D01*
X88608333Y-31232142D01*
X88632142Y-31244047D01*
X88727380Y-31244047D01*
X88441666Y-31220238D02*
X88465476Y-31208333D01*
X88477380Y-31196428D01*
X88489285Y-31172619D01*
X88489285Y-31160714D01*
X88477380Y-31136904D01*
X88465476Y-31125000D01*
X88441666Y-31113095D01*
X88394047Y-31113095D01*
X88370238Y-31125000D01*
X88358333Y-31136904D01*
X88346428Y-31160714D01*
X88346428Y-31172619D01*
X88358333Y-31196428D01*
X88370238Y-31208333D01*
X88394047Y-31220238D01*
X88441666Y-31220238D01*
X88465476Y-31232142D01*
X88477380Y-31244047D01*
X88489285Y-31267857D01*
X88489285Y-31315476D01*
X88477380Y-31339285D01*
X88465476Y-31351190D01*
X88441666Y-31363095D01*
X88394047Y-31363095D01*
X88370238Y-31351190D01*
X88358333Y-31339285D01*
X88346428Y-31315476D01*
X88346428Y-31267857D01*
X88358333Y-31244047D01*
X88370238Y-31232142D01*
X88394047Y-31220238D01*
X88048809Y-31267857D02*
X87858333Y-31267857D01*
X87405952Y-31363095D02*
X87489285Y-31244047D01*
X87548809Y-31363095D02*
X87548809Y-31113095D01*
X87453571Y-31113095D01*
X87429761Y-31125000D01*
X87417857Y-31136904D01*
X87405952Y-31160714D01*
X87405952Y-31196428D01*
X87417857Y-31220238D01*
X87429761Y-31232142D01*
X87453571Y-31244047D01*
X87548809Y-31244047D01*
X87251190Y-31113095D02*
X87203571Y-31113095D01*
X87179761Y-31125000D01*
X87155952Y-31148809D01*
X87144047Y-31196428D01*
X87144047Y-31279761D01*
X87155952Y-31327380D01*
X87179761Y-31351190D01*
X87203571Y-31363095D01*
X87251190Y-31363095D01*
X87275000Y-31351190D01*
X87298809Y-31327380D01*
X87310714Y-31279761D01*
X87310714Y-31196428D01*
X87298809Y-31148809D01*
X87275000Y-31125000D01*
X87251190Y-31113095D01*
X87060714Y-31113095D02*
X87001190Y-31363095D01*
X86953571Y-31184523D01*
X86905952Y-31363095D01*
X86846428Y-31113095D01*
X86703571Y-31113095D02*
X86679761Y-31113095D01*
X86655952Y-31125000D01*
X86644047Y-31136904D01*
X86632142Y-31160714D01*
X86620238Y-31208333D01*
X86620238Y-31267857D01*
X86632142Y-31315476D01*
X86644047Y-31339285D01*
X86655952Y-31351190D01*
X86679761Y-31363095D01*
X86703571Y-31363095D01*
X86727380Y-31351190D01*
X86739285Y-31339285D01*
X86751190Y-31315476D01*
X86763095Y-31267857D01*
X86763095Y-31208333D01*
X86751190Y-31160714D01*
X86739285Y-31136904D01*
X86727380Y-31125000D01*
X86703571Y-31113095D01*
D12*
X63566561Y-90296180D02*
X63495133Y-90319990D01*
X63376085Y-90319990D01*
X63328466Y-90296180D01*
X63304657Y-90272371D01*
X63280847Y-90224752D01*
X63280847Y-90177133D01*
X63304657Y-90129514D01*
X63328466Y-90105704D01*
X63376085Y-90081895D01*
X63471323Y-90058085D01*
X63518942Y-90034276D01*
X63542752Y-90010466D01*
X63566561Y-89962847D01*
X63566561Y-89915228D01*
X63542752Y-89867609D01*
X63518942Y-89843800D01*
X63471323Y-89819990D01*
X63352276Y-89819990D01*
X63280847Y-89843800D01*
X63114180Y-89819990D02*
X62995133Y-90319990D01*
X62899895Y-89962847D01*
X62804657Y-90319990D01*
X62685609Y-89819990D01*
X62233228Y-90319990D02*
X62518942Y-90319990D01*
X62376085Y-90319990D02*
X62376085Y-89819990D01*
X62423704Y-89891419D01*
X62471323Y-89939038D01*
X62518942Y-89962847D01*
X62042752Y-89867609D02*
X62018942Y-89843800D01*
X61971323Y-89819990D01*
X61852276Y-89819990D01*
X61804657Y-89843800D01*
X61780847Y-89867609D01*
X61757038Y-89915228D01*
X61757038Y-89962847D01*
X61780847Y-90034276D01*
X62066561Y-90319990D01*
X61757038Y-90319990D01*
X82378466Y-52196180D02*
X82307038Y-52219990D01*
X82187990Y-52219990D01*
X82140371Y-52196180D01*
X82116561Y-52172371D01*
X82092752Y-52124752D01*
X82092752Y-52077133D01*
X82116561Y-52029514D01*
X82140371Y-52005704D01*
X82187990Y-51981895D01*
X82283228Y-51958085D01*
X82330847Y-51934276D01*
X82354657Y-51910466D01*
X82378466Y-51862847D01*
X82378466Y-51815228D01*
X82354657Y-51767609D01*
X82330847Y-51743800D01*
X82283228Y-51719990D01*
X82164180Y-51719990D01*
X82092752Y-51743800D01*
X81926085Y-51719990D02*
X81807038Y-52219990D01*
X81711800Y-51862847D01*
X81616561Y-52219990D01*
X81497514Y-51719990D01*
X81354657Y-51719990D02*
X81021323Y-51719990D01*
X81235609Y-52219990D01*
X92141561Y-109346180D02*
X92070133Y-109369990D01*
X91951085Y-109369990D01*
X91903466Y-109346180D01*
X91879657Y-109322371D01*
X91855847Y-109274752D01*
X91855847Y-109227133D01*
X91879657Y-109179514D01*
X91903466Y-109155704D01*
X91951085Y-109131895D01*
X92046323Y-109108085D01*
X92093942Y-109084276D01*
X92117752Y-109060466D01*
X92141561Y-109012847D01*
X92141561Y-108965228D01*
X92117752Y-108917609D01*
X92093942Y-108893800D01*
X92046323Y-108869990D01*
X91927276Y-108869990D01*
X91855847Y-108893800D01*
X91689180Y-108869990D02*
X91570133Y-109369990D01*
X91474895Y-109012847D01*
X91379657Y-109369990D01*
X91260609Y-108869990D01*
X90808228Y-109369990D02*
X91093942Y-109369990D01*
X90951085Y-109369990D02*
X90951085Y-108869990D01*
X90998704Y-108941419D01*
X91046323Y-108989038D01*
X91093942Y-109012847D01*
X90379657Y-108869990D02*
X90474895Y-108869990D01*
X90522514Y-108893800D01*
X90546323Y-108917609D01*
X90593942Y-108989038D01*
X90617752Y-109084276D01*
X90617752Y-109274752D01*
X90593942Y-109322371D01*
X90570133Y-109346180D01*
X90522514Y-109369990D01*
X90427276Y-109369990D01*
X90379657Y-109346180D01*
X90355847Y-109322371D01*
X90332038Y-109274752D01*
X90332038Y-109155704D01*
X90355847Y-109108085D01*
X90379657Y-109084276D01*
X90427276Y-109060466D01*
X90522514Y-109060466D01*
X90570133Y-109084276D01*
X90593942Y-109108085D01*
X90617752Y-109155704D01*
X82378466Y-33146180D02*
X82307038Y-33169990D01*
X82187990Y-33169990D01*
X82140371Y-33146180D01*
X82116561Y-33122371D01*
X82092752Y-33074752D01*
X82092752Y-33027133D01*
X82116561Y-32979514D01*
X82140371Y-32955704D01*
X82187990Y-32931895D01*
X82283228Y-32908085D01*
X82330847Y-32884276D01*
X82354657Y-32860466D01*
X82378466Y-32812847D01*
X82378466Y-32765228D01*
X82354657Y-32717609D01*
X82330847Y-32693800D01*
X82283228Y-32669990D01*
X82164180Y-32669990D01*
X82092752Y-32693800D01*
X81926085Y-32669990D02*
X81807038Y-33169990D01*
X81711800Y-32812847D01*
X81616561Y-33169990D01*
X81497514Y-32669990D01*
X81092752Y-32836657D02*
X81092752Y-33169990D01*
X81211800Y-32646180D02*
X81330847Y-33003323D01*
X81021323Y-33003323D01*
X101666561Y-90296180D02*
X101595133Y-90319990D01*
X101476085Y-90319990D01*
X101428466Y-90296180D01*
X101404657Y-90272371D01*
X101380847Y-90224752D01*
X101380847Y-90177133D01*
X101404657Y-90129514D01*
X101428466Y-90105704D01*
X101476085Y-90081895D01*
X101571323Y-90058085D01*
X101618942Y-90034276D01*
X101642752Y-90010466D01*
X101666561Y-89962847D01*
X101666561Y-89915228D01*
X101642752Y-89867609D01*
X101618942Y-89843800D01*
X101571323Y-89819990D01*
X101452276Y-89819990D01*
X101380847Y-89843800D01*
X101214180Y-89819990D02*
X101095133Y-90319990D01*
X100999895Y-89962847D01*
X100904657Y-90319990D01*
X100785609Y-89819990D01*
X100333228Y-90319990D02*
X100618942Y-90319990D01*
X100476085Y-90319990D02*
X100476085Y-89819990D01*
X100523704Y-89891419D01*
X100571323Y-89939038D01*
X100618942Y-89962847D01*
X99904657Y-89986657D02*
X99904657Y-90319990D01*
X100023704Y-89796180D02*
X100142752Y-90153323D01*
X99833228Y-90153323D01*
X22116666Y-122376190D02*
X22116666Y-122733333D01*
X22140476Y-122804761D01*
X22188095Y-122852380D01*
X22259523Y-122876190D01*
X22307142Y-122876190D01*
X21902380Y-122423809D02*
X21878571Y-122400000D01*
X21830952Y-122376190D01*
X21711904Y-122376190D01*
X21664285Y-122400000D01*
X21640476Y-122423809D01*
X21616666Y-122471428D01*
X21616666Y-122519047D01*
X21640476Y-122590476D01*
X21926190Y-122876190D01*
X21616666Y-122876190D01*
X46302380Y-122614285D02*
X46135714Y-122614285D01*
X46064285Y-122876190D02*
X46302380Y-122876190D01*
X46302380Y-122376190D01*
X46064285Y-122376190D01*
X45897619Y-122376190D02*
X45564285Y-122876190D01*
X45564285Y-122376190D02*
X45897619Y-122876190D01*
X45373809Y-122876190D02*
X45373809Y-122376190D01*
X45183333Y-122376190D01*
X45135714Y-122400000D01*
X45111904Y-122423809D01*
X45088095Y-122471428D01*
X45088095Y-122542857D01*
X45111904Y-122590476D01*
X45135714Y-122614285D01*
X45183333Y-122638095D01*
X45373809Y-122638095D01*
X44897619Y-122733333D02*
X44659523Y-122733333D01*
X44945238Y-122876190D02*
X44778571Y-122376190D01*
X44611904Y-122876190D01*
X44445238Y-122876190D02*
X44445238Y-122376190D01*
X44159523Y-122876190D01*
X44159523Y-122376190D01*
X43945238Y-122852380D02*
X43873809Y-122876190D01*
X43754761Y-122876190D01*
X43707142Y-122852380D01*
X43683333Y-122828571D01*
X43659523Y-122780952D01*
X43659523Y-122733333D01*
X43683333Y-122685714D01*
X43707142Y-122661904D01*
X43754761Y-122638095D01*
X43850000Y-122614285D01*
X43897619Y-122590476D01*
X43921428Y-122566666D01*
X43945238Y-122519047D01*
X43945238Y-122471428D01*
X43921428Y-122423809D01*
X43897619Y-122400000D01*
X43850000Y-122376190D01*
X43730952Y-122376190D01*
X43659523Y-122400000D01*
X43445238Y-122876190D02*
X43445238Y-122376190D01*
X43111904Y-122376190D02*
X43016666Y-122376190D01*
X42969047Y-122400000D01*
X42921428Y-122447619D01*
X42897619Y-122542857D01*
X42897619Y-122709523D01*
X42921428Y-122804761D01*
X42969047Y-122852380D01*
X43016666Y-122876190D01*
X43111904Y-122876190D01*
X43159523Y-122852380D01*
X43207142Y-122804761D01*
X43230952Y-122709523D01*
X43230952Y-122542857D01*
X43207142Y-122447619D01*
X43159523Y-122400000D01*
X43111904Y-122376190D01*
X42683333Y-122876190D02*
X42683333Y-122376190D01*
X42397619Y-122876190D01*
X42397619Y-122376190D01*
X101666561Y-71246180D02*
X101595133Y-71269990D01*
X101476085Y-71269990D01*
X101428466Y-71246180D01*
X101404657Y-71222371D01*
X101380847Y-71174752D01*
X101380847Y-71127133D01*
X101404657Y-71079514D01*
X101428466Y-71055704D01*
X101476085Y-71031895D01*
X101571323Y-71008085D01*
X101618942Y-70984276D01*
X101642752Y-70960466D01*
X101666561Y-70912847D01*
X101666561Y-70865228D01*
X101642752Y-70817609D01*
X101618942Y-70793800D01*
X101571323Y-70769990D01*
X101452276Y-70769990D01*
X101380847Y-70793800D01*
X101214180Y-70769990D02*
X101095133Y-71269990D01*
X100999895Y-70912847D01*
X100904657Y-71269990D01*
X100785609Y-70769990D01*
X100333228Y-71269990D02*
X100618942Y-71269990D01*
X100476085Y-71269990D02*
X100476085Y-70769990D01*
X100523704Y-70841419D01*
X100571323Y-70889038D01*
X100618942Y-70912847D01*
X99857038Y-71269990D02*
X100142752Y-71269990D01*
X99999895Y-71269990D02*
X99999895Y-70769990D01*
X100047514Y-70841419D01*
X100095133Y-70889038D01*
X100142752Y-70912847D01*
X63328466Y-33146180D02*
X63257038Y-33169990D01*
X63137990Y-33169990D01*
X63090371Y-33146180D01*
X63066561Y-33122371D01*
X63042752Y-33074752D01*
X63042752Y-33027133D01*
X63066561Y-32979514D01*
X63090371Y-32955704D01*
X63137990Y-32931895D01*
X63233228Y-32908085D01*
X63280847Y-32884276D01*
X63304657Y-32860466D01*
X63328466Y-32812847D01*
X63328466Y-32765228D01*
X63304657Y-32717609D01*
X63280847Y-32693800D01*
X63233228Y-32669990D01*
X63114180Y-32669990D01*
X63042752Y-32693800D01*
X62876085Y-32669990D02*
X62757038Y-33169990D01*
X62661800Y-32812847D01*
X62566561Y-33169990D01*
X62447514Y-32669990D01*
X62304657Y-32669990D02*
X61995133Y-32669990D01*
X62161800Y-32860466D01*
X62090371Y-32860466D01*
X62042752Y-32884276D01*
X62018942Y-32908085D01*
X61995133Y-32955704D01*
X61995133Y-33074752D01*
X62018942Y-33122371D01*
X62042752Y-33146180D01*
X62090371Y-33169990D01*
X62233228Y-33169990D01*
X62280847Y-33146180D01*
X62304657Y-33122371D01*
X67752791Y-25542515D02*
X67752791Y-25899658D01*
X67776601Y-25971086D01*
X67824220Y-26018705D01*
X67895648Y-26042515D01*
X67943267Y-26042515D01*
X67252791Y-26042515D02*
X67538505Y-26042515D01*
X67395648Y-26042515D02*
X67395648Y-25542515D01*
X67443267Y-25613944D01*
X67490886Y-25661563D01*
X67538505Y-25685372D01*
X82616561Y-71246180D02*
X82545133Y-71269990D01*
X82426085Y-71269990D01*
X82378466Y-71246180D01*
X82354657Y-71222371D01*
X82330847Y-71174752D01*
X82330847Y-71127133D01*
X82354657Y-71079514D01*
X82378466Y-71055704D01*
X82426085Y-71031895D01*
X82521323Y-71008085D01*
X82568942Y-70984276D01*
X82592752Y-70960466D01*
X82616561Y-70912847D01*
X82616561Y-70865228D01*
X82592752Y-70817609D01*
X82568942Y-70793800D01*
X82521323Y-70769990D01*
X82402276Y-70769990D01*
X82330847Y-70793800D01*
X82164180Y-70769990D02*
X82045133Y-71269990D01*
X81949895Y-70912847D01*
X81854657Y-71269990D01*
X81735609Y-70769990D01*
X81283228Y-71269990D02*
X81568942Y-71269990D01*
X81426085Y-71269990D02*
X81426085Y-70769990D01*
X81473704Y-70841419D01*
X81521323Y-70889038D01*
X81568942Y-70912847D01*
X80973704Y-70769990D02*
X80926085Y-70769990D01*
X80878466Y-70793800D01*
X80854657Y-70817609D01*
X80830847Y-70865228D01*
X80807038Y-70960466D01*
X80807038Y-71079514D01*
X80830847Y-71174752D01*
X80854657Y-71222371D01*
X80878466Y-71246180D01*
X80926085Y-71269990D01*
X80973704Y-71269990D01*
X81021323Y-71246180D01*
X81045133Y-71222371D01*
X81068942Y-71174752D01*
X81092752Y-71079514D01*
X81092752Y-70960466D01*
X81068942Y-70865228D01*
X81045133Y-70817609D01*
X81021323Y-70793800D01*
X80973704Y-70769990D01*
X82616561Y-90296180D02*
X82545133Y-90319990D01*
X82426085Y-90319990D01*
X82378466Y-90296180D01*
X82354657Y-90272371D01*
X82330847Y-90224752D01*
X82330847Y-90177133D01*
X82354657Y-90129514D01*
X82378466Y-90105704D01*
X82426085Y-90081895D01*
X82521323Y-90058085D01*
X82568942Y-90034276D01*
X82592752Y-90010466D01*
X82616561Y-89962847D01*
X82616561Y-89915228D01*
X82592752Y-89867609D01*
X82568942Y-89843800D01*
X82521323Y-89819990D01*
X82402276Y-89819990D01*
X82330847Y-89843800D01*
X82164180Y-89819990D02*
X82045133Y-90319990D01*
X81949895Y-89962847D01*
X81854657Y-90319990D01*
X81735609Y-89819990D01*
X81283228Y-90319990D02*
X81568942Y-90319990D01*
X81426085Y-90319990D02*
X81426085Y-89819990D01*
X81473704Y-89891419D01*
X81521323Y-89939038D01*
X81568942Y-89962847D01*
X81116561Y-89819990D02*
X80807038Y-89819990D01*
X80973704Y-90010466D01*
X80902276Y-90010466D01*
X80854657Y-90034276D01*
X80830847Y-90058085D01*
X80807038Y-90105704D01*
X80807038Y-90224752D01*
X80830847Y-90272371D01*
X80854657Y-90296180D01*
X80902276Y-90319990D01*
X81045133Y-90319990D01*
X81092752Y-90296180D01*
X81116561Y-90272371D01*
D13*
X53791666Y-48288095D02*
X53648809Y-48288095D01*
X53720238Y-48538095D02*
X53720238Y-48288095D01*
X53565476Y-48538095D02*
X53565476Y-48288095D01*
X53470238Y-48288095D01*
X53446428Y-48300000D01*
X53434523Y-48311904D01*
X53422619Y-48335714D01*
X53422619Y-48371428D01*
X53434523Y-48395238D01*
X53446428Y-48407142D01*
X53470238Y-48419047D01*
X53565476Y-48419047D01*
X53303571Y-48538095D02*
X53255952Y-48538095D01*
X53232142Y-48526190D01*
X53220238Y-48514285D01*
X53196428Y-48478571D01*
X53184523Y-48430952D01*
X53184523Y-48335714D01*
X53196428Y-48311904D01*
X53208333Y-48300000D01*
X53232142Y-48288095D01*
X53279761Y-48288095D01*
X53303571Y-48300000D01*
X53315476Y-48311904D01*
X53327380Y-48335714D01*
X53327380Y-48395238D01*
X53315476Y-48419047D01*
X53303571Y-48430952D01*
X53279761Y-48442857D01*
X53232142Y-48442857D01*
X53208333Y-48430952D01*
X53196428Y-48419047D01*
X53184523Y-48395238D01*
X52886904Y-48442857D02*
X52696428Y-48442857D01*
X52386904Y-48442857D02*
X52196428Y-48442857D01*
X52291666Y-48538095D02*
X52291666Y-48347619D01*
X51958333Y-48288095D02*
X52077380Y-48288095D01*
X52089285Y-48407142D01*
X52077380Y-48395238D01*
X52053571Y-48383333D01*
X51994047Y-48383333D01*
X51970238Y-48395238D01*
X51958333Y-48407142D01*
X51946428Y-48430952D01*
X51946428Y-48490476D01*
X51958333Y-48514285D01*
X51970238Y-48526190D01*
X51994047Y-48538095D01*
X52053571Y-48538095D01*
X52077380Y-48526190D01*
X52089285Y-48514285D01*
X51875000Y-48288095D02*
X51791666Y-48538095D01*
X51708333Y-48288095D01*
X103903571Y-67313095D02*
X103760714Y-67313095D01*
X103832142Y-67563095D02*
X103832142Y-67313095D01*
X103677380Y-67563095D02*
X103677380Y-67313095D01*
X103582142Y-67313095D01*
X103558333Y-67325000D01*
X103546428Y-67336904D01*
X103534523Y-67360714D01*
X103534523Y-67396428D01*
X103546428Y-67420238D01*
X103558333Y-67432142D01*
X103582142Y-67444047D01*
X103677380Y-67444047D01*
X103320238Y-67313095D02*
X103367857Y-67313095D01*
X103391666Y-67325000D01*
X103403571Y-67336904D01*
X103427380Y-67372619D01*
X103439285Y-67420238D01*
X103439285Y-67515476D01*
X103427380Y-67539285D01*
X103415476Y-67551190D01*
X103391666Y-67563095D01*
X103344047Y-67563095D01*
X103320238Y-67551190D01*
X103308333Y-67539285D01*
X103296428Y-67515476D01*
X103296428Y-67455952D01*
X103308333Y-67432142D01*
X103320238Y-67420238D01*
X103344047Y-67408333D01*
X103391666Y-67408333D01*
X103415476Y-67420238D01*
X103427380Y-67432142D01*
X103439285Y-67455952D01*
X102998809Y-67467857D02*
X102808333Y-67467857D01*
X102355952Y-67563095D02*
X102439285Y-67444047D01*
X102498809Y-67563095D02*
X102498809Y-67313095D01*
X102403571Y-67313095D01*
X102379761Y-67325000D01*
X102367857Y-67336904D01*
X102355952Y-67360714D01*
X102355952Y-67396428D01*
X102367857Y-67420238D01*
X102379761Y-67432142D01*
X102403571Y-67444047D01*
X102498809Y-67444047D01*
X102201190Y-67313095D02*
X102153571Y-67313095D01*
X102129761Y-67325000D01*
X102105952Y-67348809D01*
X102094047Y-67396428D01*
X102094047Y-67479761D01*
X102105952Y-67527380D01*
X102129761Y-67551190D01*
X102153571Y-67563095D01*
X102201190Y-67563095D01*
X102225000Y-67551190D01*
X102248809Y-67527380D01*
X102260714Y-67479761D01*
X102260714Y-67396428D01*
X102248809Y-67348809D01*
X102225000Y-67325000D01*
X102201190Y-67313095D01*
X102010714Y-67313095D02*
X101951190Y-67563095D01*
X101903571Y-67384523D01*
X101855952Y-67563095D01*
X101796428Y-67313095D01*
X101713095Y-67336904D02*
X101701190Y-67325000D01*
X101677380Y-67313095D01*
X101617857Y-67313095D01*
X101594047Y-67325000D01*
X101582142Y-67336904D01*
X101570238Y-67360714D01*
X101570238Y-67384523D01*
X101582142Y-67420238D01*
X101725000Y-67563095D01*
X101570238Y-67563095D01*
X73636904Y-67288095D02*
X73494047Y-67288095D01*
X73565476Y-67538095D02*
X73565476Y-67288095D01*
X73410714Y-67538095D02*
X73410714Y-67288095D01*
X73315476Y-67288095D01*
X73291666Y-67300000D01*
X73279761Y-67311904D01*
X73267857Y-67335714D01*
X73267857Y-67371428D01*
X73279761Y-67395238D01*
X73291666Y-67407142D01*
X73315476Y-67419047D01*
X73410714Y-67419047D01*
X73172619Y-67311904D02*
X73160714Y-67300000D01*
X73136904Y-67288095D01*
X73077380Y-67288095D01*
X73053571Y-67300000D01*
X73041666Y-67311904D01*
X73029761Y-67335714D01*
X73029761Y-67359523D01*
X73041666Y-67395238D01*
X73184523Y-67538095D01*
X73029761Y-67538095D01*
X72732142Y-67442857D02*
X72541666Y-67442857D01*
X72089285Y-67514285D02*
X72101190Y-67526190D01*
X72136904Y-67538095D01*
X72160714Y-67538095D01*
X72196428Y-67526190D01*
X72220238Y-67502380D01*
X72232142Y-67478571D01*
X72244047Y-67430952D01*
X72244047Y-67395238D01*
X72232142Y-67347619D01*
X72220238Y-67323809D01*
X72196428Y-67300000D01*
X72160714Y-67288095D01*
X72136904Y-67288095D01*
X72101190Y-67300000D01*
X72089285Y-67311904D01*
X71934523Y-67288095D02*
X71886904Y-67288095D01*
X71863095Y-67300000D01*
X71839285Y-67323809D01*
X71827380Y-67371428D01*
X71827380Y-67454761D01*
X71839285Y-67502380D01*
X71863095Y-67526190D01*
X71886904Y-67538095D01*
X71934523Y-67538095D01*
X71958333Y-67526190D01*
X71982142Y-67502380D01*
X71994047Y-67454761D01*
X71994047Y-67371428D01*
X71982142Y-67323809D01*
X71958333Y-67300000D01*
X71934523Y-67288095D01*
X71601190Y-67538095D02*
X71720238Y-67538095D01*
X71720238Y-67288095D01*
X71529761Y-67311904D02*
X71517857Y-67300000D01*
X71494047Y-67288095D01*
X71434523Y-67288095D01*
X71410714Y-67300000D01*
X71398809Y-67311904D01*
X71386904Y-67335714D01*
X71386904Y-67359523D01*
X71398809Y-67395238D01*
X71541666Y-67538095D01*
X71386904Y-67538095D01*
X89578571Y-104638095D02*
X89435714Y-104638095D01*
X89507142Y-104888095D02*
X89507142Y-104638095D01*
X89352380Y-104888095D02*
X89352380Y-104638095D01*
X89257142Y-104638095D01*
X89233333Y-104650000D01*
X89221428Y-104661904D01*
X89209523Y-104685714D01*
X89209523Y-104721428D01*
X89221428Y-104745238D01*
X89233333Y-104757142D01*
X89257142Y-104769047D01*
X89352380Y-104769047D01*
X88995238Y-104721428D02*
X88995238Y-104888095D01*
X89054761Y-104626190D02*
X89114285Y-104804761D01*
X88959523Y-104804761D01*
X88673809Y-104792857D02*
X88483333Y-104792857D01*
X88030952Y-104888095D02*
X88114285Y-104769047D01*
X88173809Y-104888095D02*
X88173809Y-104638095D01*
X88078571Y-104638095D01*
X88054761Y-104650000D01*
X88042857Y-104661904D01*
X88030952Y-104685714D01*
X88030952Y-104721428D01*
X88042857Y-104745238D01*
X88054761Y-104757142D01*
X88078571Y-104769047D01*
X88173809Y-104769047D01*
X87876190Y-104638095D02*
X87828571Y-104638095D01*
X87804761Y-104650000D01*
X87780952Y-104673809D01*
X87769047Y-104721428D01*
X87769047Y-104804761D01*
X87780952Y-104852380D01*
X87804761Y-104876190D01*
X87828571Y-104888095D01*
X87876190Y-104888095D01*
X87900000Y-104876190D01*
X87923809Y-104852380D01*
X87935714Y-104804761D01*
X87935714Y-104721428D01*
X87923809Y-104673809D01*
X87900000Y-104650000D01*
X87876190Y-104638095D01*
X87685714Y-104638095D02*
X87626190Y-104888095D01*
X87578571Y-104709523D01*
X87530952Y-104888095D01*
X87471428Y-104638095D01*
X87269047Y-104721428D02*
X87269047Y-104888095D01*
X87328571Y-104626190D02*
X87388095Y-104804761D01*
X87233333Y-104804761D01*
D12*
X36455266Y-42417180D02*
X36383838Y-42440990D01*
X36264790Y-42440990D01*
X36217171Y-42417180D01*
X36193361Y-42393371D01*
X36169552Y-42345752D01*
X36169552Y-42298133D01*
X36193361Y-42250514D01*
X36217171Y-42226704D01*
X36264790Y-42202895D01*
X36360028Y-42179085D01*
X36407647Y-42155276D01*
X36431457Y-42131466D01*
X36455266Y-42083847D01*
X36455266Y-42036228D01*
X36431457Y-41988609D01*
X36407647Y-41964800D01*
X36360028Y-41940990D01*
X36240980Y-41940990D01*
X36169552Y-41964800D01*
X36002885Y-41940990D02*
X35883838Y-42440990D01*
X35788600Y-42083847D01*
X35693361Y-42440990D01*
X35574314Y-41940990D01*
X35121933Y-42440990D02*
X35407647Y-42440990D01*
X35264790Y-42440990D02*
X35264790Y-41940990D01*
X35312409Y-42012419D01*
X35360028Y-42060038D01*
X35407647Y-42083847D01*
D13*
X88686904Y-67288095D02*
X88544047Y-67288095D01*
X88615476Y-67538095D02*
X88615476Y-67288095D01*
X88460714Y-67538095D02*
X88460714Y-67288095D01*
X88365476Y-67288095D01*
X88341666Y-67300000D01*
X88329761Y-67311904D01*
X88317857Y-67335714D01*
X88317857Y-67371428D01*
X88329761Y-67395238D01*
X88341666Y-67407142D01*
X88365476Y-67419047D01*
X88460714Y-67419047D01*
X88234523Y-67288095D02*
X88079761Y-67288095D01*
X88163095Y-67383333D01*
X88127380Y-67383333D01*
X88103571Y-67395238D01*
X88091666Y-67407142D01*
X88079761Y-67430952D01*
X88079761Y-67490476D01*
X88091666Y-67514285D01*
X88103571Y-67526190D01*
X88127380Y-67538095D01*
X88198809Y-67538095D01*
X88222619Y-67526190D01*
X88234523Y-67514285D01*
X87782142Y-67442857D02*
X87591666Y-67442857D01*
X87139285Y-67514285D02*
X87151190Y-67526190D01*
X87186904Y-67538095D01*
X87210714Y-67538095D01*
X87246428Y-67526190D01*
X87270238Y-67502380D01*
X87282142Y-67478571D01*
X87294047Y-67430952D01*
X87294047Y-67395238D01*
X87282142Y-67347619D01*
X87270238Y-67323809D01*
X87246428Y-67300000D01*
X87210714Y-67288095D01*
X87186904Y-67288095D01*
X87151190Y-67300000D01*
X87139285Y-67311904D01*
X86984523Y-67288095D02*
X86936904Y-67288095D01*
X86913095Y-67300000D01*
X86889285Y-67323809D01*
X86877380Y-67371428D01*
X86877380Y-67454761D01*
X86889285Y-67502380D01*
X86913095Y-67526190D01*
X86936904Y-67538095D01*
X86984523Y-67538095D01*
X87008333Y-67526190D01*
X87032142Y-67502380D01*
X87044047Y-67454761D01*
X87044047Y-67371428D01*
X87032142Y-67323809D01*
X87008333Y-67300000D01*
X86984523Y-67288095D01*
X86651190Y-67538095D02*
X86770238Y-67538095D01*
X86770238Y-67288095D01*
X86591666Y-67288095D02*
X86436904Y-67288095D01*
X86520238Y-67383333D01*
X86484523Y-67383333D01*
X86460714Y-67395238D01*
X86448809Y-67407142D01*
X86436904Y-67430952D01*
X86436904Y-67490476D01*
X86448809Y-67514285D01*
X86460714Y-67526190D01*
X86484523Y-67538095D01*
X86555952Y-67538095D01*
X86579761Y-67526190D01*
X86591666Y-67514285D01*
X103928571Y-86363095D02*
X103785714Y-86363095D01*
X103857142Y-86613095D02*
X103857142Y-86363095D01*
X103702380Y-86613095D02*
X103702380Y-86363095D01*
X103607142Y-86363095D01*
X103583333Y-86375000D01*
X103571428Y-86386904D01*
X103559523Y-86410714D01*
X103559523Y-86446428D01*
X103571428Y-86470238D01*
X103583333Y-86482142D01*
X103607142Y-86494047D01*
X103702380Y-86494047D01*
X103333333Y-86363095D02*
X103452380Y-86363095D01*
X103464285Y-86482142D01*
X103452380Y-86470238D01*
X103428571Y-86458333D01*
X103369047Y-86458333D01*
X103345238Y-86470238D01*
X103333333Y-86482142D01*
X103321428Y-86505952D01*
X103321428Y-86565476D01*
X103333333Y-86589285D01*
X103345238Y-86601190D01*
X103369047Y-86613095D01*
X103428571Y-86613095D01*
X103452380Y-86601190D01*
X103464285Y-86589285D01*
X103023809Y-86517857D02*
X102833333Y-86517857D01*
X102380952Y-86613095D02*
X102464285Y-86494047D01*
X102523809Y-86613095D02*
X102523809Y-86363095D01*
X102428571Y-86363095D01*
X102404761Y-86375000D01*
X102392857Y-86386904D01*
X102380952Y-86410714D01*
X102380952Y-86446428D01*
X102392857Y-86470238D01*
X102404761Y-86482142D01*
X102428571Y-86494047D01*
X102523809Y-86494047D01*
X102226190Y-86363095D02*
X102178571Y-86363095D01*
X102154761Y-86375000D01*
X102130952Y-86398809D01*
X102119047Y-86446428D01*
X102119047Y-86529761D01*
X102130952Y-86577380D01*
X102154761Y-86601190D01*
X102178571Y-86613095D01*
X102226190Y-86613095D01*
X102250000Y-86601190D01*
X102273809Y-86577380D01*
X102285714Y-86529761D01*
X102285714Y-86446428D01*
X102273809Y-86398809D01*
X102250000Y-86375000D01*
X102226190Y-86363095D01*
X102035714Y-86363095D02*
X101976190Y-86613095D01*
X101928571Y-86434523D01*
X101880952Y-86613095D01*
X101821428Y-86363095D01*
X101750000Y-86363095D02*
X101595238Y-86363095D01*
X101678571Y-86458333D01*
X101642857Y-86458333D01*
X101619047Y-86470238D01*
X101607142Y-86482142D01*
X101595238Y-86505952D01*
X101595238Y-86565476D01*
X101607142Y-86589285D01*
X101619047Y-86601190D01*
X101642857Y-86613095D01*
X101714285Y-86613095D01*
X101738095Y-86601190D01*
X101750000Y-86589285D01*
X52361904Y-67313095D02*
X52219047Y-67313095D01*
X52290476Y-67563095D02*
X52290476Y-67313095D01*
X52135714Y-67563095D02*
X52135714Y-67313095D01*
X52040476Y-67313095D01*
X52016666Y-67325000D01*
X52004761Y-67336904D01*
X51992857Y-67360714D01*
X51992857Y-67396428D01*
X52004761Y-67420238D01*
X52016666Y-67432142D01*
X52040476Y-67444047D01*
X52135714Y-67444047D01*
X51838095Y-67313095D02*
X51814285Y-67313095D01*
X51790476Y-67325000D01*
X51778571Y-67336904D01*
X51766666Y-67360714D01*
X51754761Y-67408333D01*
X51754761Y-67467857D01*
X51766666Y-67515476D01*
X51778571Y-67539285D01*
X51790476Y-67551190D01*
X51814285Y-67563095D01*
X51838095Y-67563095D01*
X51861904Y-67551190D01*
X51873809Y-67539285D01*
X51885714Y-67515476D01*
X51897619Y-67467857D01*
X51897619Y-67408333D01*
X51885714Y-67360714D01*
X51873809Y-67336904D01*
X51861904Y-67325000D01*
X51838095Y-67313095D01*
X51457142Y-67467857D02*
X51266666Y-67467857D01*
X50814285Y-67539285D02*
X50826190Y-67551190D01*
X50861904Y-67563095D01*
X50885714Y-67563095D01*
X50921428Y-67551190D01*
X50945238Y-67527380D01*
X50957142Y-67503571D01*
X50969047Y-67455952D01*
X50969047Y-67420238D01*
X50957142Y-67372619D01*
X50945238Y-67348809D01*
X50921428Y-67325000D01*
X50885714Y-67313095D01*
X50861904Y-67313095D01*
X50826190Y-67325000D01*
X50814285Y-67336904D01*
X50659523Y-67313095D02*
X50611904Y-67313095D01*
X50588095Y-67325000D01*
X50564285Y-67348809D01*
X50552380Y-67396428D01*
X50552380Y-67479761D01*
X50564285Y-67527380D01*
X50588095Y-67551190D01*
X50611904Y-67563095D01*
X50659523Y-67563095D01*
X50683333Y-67551190D01*
X50707142Y-67527380D01*
X50719047Y-67479761D01*
X50719047Y-67396428D01*
X50707142Y-67348809D01*
X50683333Y-67325000D01*
X50659523Y-67313095D01*
X50326190Y-67563095D02*
X50445238Y-67563095D01*
X50445238Y-67313095D01*
X50195238Y-67313095D02*
X50171428Y-67313095D01*
X50147619Y-67325000D01*
X50135714Y-67336904D01*
X50123809Y-67360714D01*
X50111904Y-67408333D01*
X50111904Y-67467857D01*
X50123809Y-67515476D01*
X50135714Y-67539285D01*
X50147619Y-67551190D01*
X50171428Y-67563095D01*
X50195238Y-67563095D01*
X50219047Y-67551190D01*
X50230952Y-67539285D01*
X50242857Y-67515476D01*
X50254761Y-67467857D01*
X50254761Y-67408333D01*
X50242857Y-67360714D01*
X50230952Y-67336904D01*
X50219047Y-67325000D01*
X50195238Y-67313095D01*
D12*
X36455266Y-80618780D02*
X36383838Y-80642590D01*
X36264790Y-80642590D01*
X36217171Y-80618780D01*
X36193361Y-80594971D01*
X36169552Y-80547352D01*
X36169552Y-80499733D01*
X36193361Y-80452114D01*
X36217171Y-80428304D01*
X36264790Y-80404495D01*
X36360028Y-80380685D01*
X36407647Y-80356876D01*
X36431457Y-80333066D01*
X36455266Y-80285447D01*
X36455266Y-80237828D01*
X36431457Y-80190209D01*
X36407647Y-80166400D01*
X36360028Y-80142590D01*
X36240980Y-80142590D01*
X36169552Y-80166400D01*
X36002885Y-80142590D02*
X35883838Y-80642590D01*
X35788600Y-80285447D01*
X35693361Y-80642590D01*
X35574314Y-80142590D01*
X35407647Y-80190209D02*
X35383838Y-80166400D01*
X35336219Y-80142590D01*
X35217171Y-80142590D01*
X35169552Y-80166400D01*
X35145742Y-80190209D01*
X35121933Y-80237828D01*
X35121933Y-80285447D01*
X35145742Y-80356876D01*
X35431457Y-80642590D01*
X35121933Y-80642590D01*
X63328466Y-71246180D02*
X63257038Y-71269990D01*
X63137990Y-71269990D01*
X63090371Y-71246180D01*
X63066561Y-71222371D01*
X63042752Y-71174752D01*
X63042752Y-71127133D01*
X63066561Y-71079514D01*
X63090371Y-71055704D01*
X63137990Y-71031895D01*
X63233228Y-71008085D01*
X63280847Y-70984276D01*
X63304657Y-70960466D01*
X63328466Y-70912847D01*
X63328466Y-70865228D01*
X63304657Y-70817609D01*
X63280847Y-70793800D01*
X63233228Y-70769990D01*
X63114180Y-70769990D01*
X63042752Y-70793800D01*
X62876085Y-70769990D02*
X62757038Y-71269990D01*
X62661800Y-70912847D01*
X62566561Y-71269990D01*
X62447514Y-70769990D01*
X62233228Y-71269990D02*
X62137990Y-71269990D01*
X62090371Y-71246180D01*
X62066561Y-71222371D01*
X62018942Y-71150942D01*
X61995133Y-71055704D01*
X61995133Y-70865228D01*
X62018942Y-70817609D01*
X62042752Y-70793800D01*
X62090371Y-70769990D01*
X62185609Y-70769990D01*
X62233228Y-70793800D01*
X62257038Y-70817609D01*
X62280847Y-70865228D01*
X62280847Y-70984276D01*
X62257038Y-71031895D01*
X62233228Y-71055704D01*
X62185609Y-71079514D01*
X62090371Y-71079514D01*
X62042752Y-71055704D01*
X62018942Y-71031895D01*
X61995133Y-70984276D01*
D13*
X103928571Y-48263095D02*
X103785714Y-48263095D01*
X103857142Y-48513095D02*
X103857142Y-48263095D01*
X103702380Y-48513095D02*
X103702380Y-48263095D01*
X103607142Y-48263095D01*
X103583333Y-48275000D01*
X103571428Y-48286904D01*
X103559523Y-48310714D01*
X103559523Y-48346428D01*
X103571428Y-48370238D01*
X103583333Y-48382142D01*
X103607142Y-48394047D01*
X103702380Y-48394047D01*
X103476190Y-48263095D02*
X103309523Y-48263095D01*
X103416666Y-48513095D01*
X103023809Y-48417857D02*
X102833333Y-48417857D01*
X102380952Y-48513095D02*
X102464285Y-48394047D01*
X102523809Y-48513095D02*
X102523809Y-48263095D01*
X102428571Y-48263095D01*
X102404761Y-48275000D01*
X102392857Y-48286904D01*
X102380952Y-48310714D01*
X102380952Y-48346428D01*
X102392857Y-48370238D01*
X102404761Y-48382142D01*
X102428571Y-48394047D01*
X102523809Y-48394047D01*
X102226190Y-48263095D02*
X102178571Y-48263095D01*
X102154761Y-48275000D01*
X102130952Y-48298809D01*
X102119047Y-48346428D01*
X102119047Y-48429761D01*
X102130952Y-48477380D01*
X102154761Y-48501190D01*
X102178571Y-48513095D01*
X102226190Y-48513095D01*
X102250000Y-48501190D01*
X102273809Y-48477380D01*
X102285714Y-48429761D01*
X102285714Y-48346428D01*
X102273809Y-48298809D01*
X102250000Y-48275000D01*
X102226190Y-48263095D01*
X102035714Y-48263095D02*
X101976190Y-48513095D01*
X101928571Y-48334523D01*
X101880952Y-48513095D01*
X101821428Y-48263095D01*
X101595238Y-48513095D02*
X101738095Y-48513095D01*
X101666666Y-48513095D02*
X101666666Y-48263095D01*
X101690476Y-48298809D01*
X101714285Y-48322619D01*
X101738095Y-48334523D01*
D12*
X63328466Y-52196180D02*
X63257038Y-52219990D01*
X63137990Y-52219990D01*
X63090371Y-52196180D01*
X63066561Y-52172371D01*
X63042752Y-52124752D01*
X63042752Y-52077133D01*
X63066561Y-52029514D01*
X63090371Y-52005704D01*
X63137990Y-51981895D01*
X63233228Y-51958085D01*
X63280847Y-51934276D01*
X63304657Y-51910466D01*
X63328466Y-51862847D01*
X63328466Y-51815228D01*
X63304657Y-51767609D01*
X63280847Y-51743800D01*
X63233228Y-51719990D01*
X63114180Y-51719990D01*
X63042752Y-51743800D01*
X62876085Y-51719990D02*
X62757038Y-52219990D01*
X62661800Y-51862847D01*
X62566561Y-52219990D01*
X62447514Y-51719990D01*
X62042752Y-51719990D02*
X62137990Y-51719990D01*
X62185609Y-51743800D01*
X62209419Y-51767609D01*
X62257038Y-51839038D01*
X62280847Y-51934276D01*
X62280847Y-52124752D01*
X62257038Y-52172371D01*
X62233228Y-52196180D01*
X62185609Y-52219990D01*
X62090371Y-52219990D01*
X62042752Y-52196180D01*
X62018942Y-52172371D01*
X61995133Y-52124752D01*
X61995133Y-52005704D01*
X62018942Y-51958085D01*
X62042752Y-51934276D01*
X62090371Y-51910466D01*
X62185609Y-51910466D01*
X62233228Y-51934276D01*
X62257038Y-51958085D01*
X62280847Y-52005704D01*
D14*
X92800000Y-52425000D02*
X97900000Y-52425000D01*
X96700000Y-56625000D02*
X101800000Y-56625000D01*
X96700000Y-56625000D02*
G75*
G03*
X94700000Y-58625000I-1J-1999999D01*
G01*
X92800000Y-52425000D02*
G75*
G03*
X90800000Y-54425000I-1J-1999999D01*
G01*
X96700000Y-37575000D02*
X101800000Y-37575000D01*
X92800000Y-33375000D02*
X97900000Y-33375000D01*
X96700000Y-37575000D02*
G75*
G03*
X94700000Y-39575000I-1J-1999999D01*
G01*
X92800000Y-33375000D02*
G75*
G03*
X90800000Y-35375000I-1J-1999999D01*
G01*
X58600000Y-113775000D02*
X63700000Y-113775000D01*
X54700000Y-109575000D02*
X59800000Y-109575000D01*
X58600000Y-113775000D02*
G75*
G03*
X56600000Y-115775000I-1J-1999999D01*
G01*
X54700000Y-109575000D02*
G75*
G03*
X52700000Y-111575000I-1J-1999999D01*
G01*
X54700000Y-90525000D02*
X59800000Y-90525000D01*
X58600000Y-94725000D02*
X63700000Y-94725000D01*
X54700000Y-90525000D02*
G75*
G03*
X52700000Y-92525000I-1J-1999999D01*
G01*
X58600000Y-94725000D02*
G75*
G03*
X56600000Y-96725000I-1J-1999999D01*
G01*
X77650000Y-56625000D02*
X82750000Y-56625000D01*
X73750000Y-52425000D02*
X78850000Y-52425000D01*
X73750000Y-52425000D02*
G75*
G03*
X71750000Y-54425000I-1J-1999999D01*
G01*
X77650000Y-56625000D02*
G75*
G03*
X75650000Y-58625000I-1J-1999999D01*
G01*
X87175000Y-113775000D02*
X92275000Y-113775000D01*
X83275000Y-109575000D02*
X88375000Y-109575000D01*
X87175000Y-113775000D02*
G75*
G03*
X85175000Y-115775000I-1J-1999999D01*
G01*
X83275000Y-109575000D02*
G75*
G03*
X81275000Y-111575000I-1J-1999999D01*
G01*
X73750000Y-33375000D02*
X78850000Y-33375000D01*
X77650000Y-37575000D02*
X82750000Y-37575000D01*
X73750000Y-33375000D02*
G75*
G03*
X71750000Y-35375000I-1J-1999999D01*
G01*
X77650000Y-37575000D02*
G75*
G03*
X75650000Y-39575000I-1J-1999999D01*
G01*
X92800000Y-90525000D02*
X97900000Y-90525000D01*
X96700000Y-94725000D02*
X101800000Y-94725000D01*
X96700000Y-94725000D02*
G75*
G03*
X94700000Y-96725000I-1J-1999999D01*
G01*
X92800000Y-90525000D02*
G75*
G03*
X90800000Y-92525000I-1J-1999999D01*
G01*
X92800000Y-71475000D02*
X97900000Y-71475000D01*
X96700000Y-75675000D02*
X101800000Y-75675000D01*
X92800000Y-71475000D02*
G75*
G03*
X90800000Y-73475000I-1J-1999999D01*
G01*
X96700000Y-75675000D02*
G75*
G03*
X94700000Y-77675000I-1J-1999999D01*
G01*
X54700000Y-33375000D02*
X59800000Y-33375000D01*
X58600000Y-37575000D02*
X63700000Y-37575000D01*
X54700000Y-33375000D02*
G75*
G03*
X52700000Y-35375000I-1J-1999999D01*
G01*
X58600000Y-37575000D02*
G75*
G03*
X56600000Y-39575000I-1J-1999999D01*
G01*
X73750000Y-71475000D02*
X78850000Y-71475000D01*
X77650000Y-75675000D02*
X82750000Y-75675000D01*
X73750000Y-71475000D02*
G75*
G03*
X71750000Y-73475000I-1J-1999999D01*
G01*
X77650000Y-75675000D02*
G75*
G03*
X75650000Y-77675000I-1J-1999999D01*
G01*
X73750000Y-90525000D02*
X78850000Y-90525000D01*
X77650000Y-94725000D02*
X82750000Y-94725000D01*
X73750000Y-90525000D02*
G75*
G03*
X71750000Y-92525000I-1J-1999999D01*
G01*
X77650000Y-94725000D02*
G75*
G03*
X75650000Y-96725000I-1J-1999999D01*
G01*
X54700000Y-71475000D02*
X59800000Y-71475000D01*
X58600000Y-75675000D02*
X63700000Y-75675000D01*
X54700000Y-71475000D02*
G75*
G03*
X52700000Y-73475000I-1J-1999999D01*
G01*
X58600000Y-75675000D02*
G75*
G03*
X56600000Y-77675000I-1J-1999999D01*
G01*
X54700000Y-52425000D02*
X59800000Y-52425000D01*
X58600000Y-56625000D02*
X63700000Y-56625000D01*
X58600000Y-56625000D02*
G75*
G03*
X56600000Y-58625000I-1J-1999999D01*
G01*
X54700000Y-52425000D02*
G75*
G03*
X52700000Y-54425000I-1J-1999999D01*
G01*
G36*
X37765623Y-115480784D02*
G01*
X37849195Y-115504095D01*
X37915786Y-115541187D01*
X37936667Y-115561190D01*
X37940318Y-115582049D01*
X37928027Y-115616462D01*
X37907139Y-115665284D01*
X37841919Y-115627997D01*
X37774652Y-115599703D01*
X37696064Y-115590528D01*
X37683877Y-115590578D01*
X37636270Y-115594393D01*
X37603061Y-115607527D01*
X37571184Y-115634592D01*
X37558086Y-115648728D01*
X37534584Y-115687166D01*
X37524965Y-115735093D01*
X37526636Y-115802264D01*
X37534053Y-115838000D01*
X37563112Y-115901224D01*
X37614527Y-115977542D01*
X37689205Y-116068245D01*
X37788051Y-116174622D01*
X37792079Y-116178777D01*
X37861165Y-116251306D01*
X37910651Y-116306427D01*
X37942978Y-116347204D01*
X37960585Y-116376701D01*
X37965912Y-116397980D01*
X37965912Y-116438021D01*
X37360429Y-116438021D01*
X37360429Y-116316925D01*
X37758165Y-116316925D01*
X37638296Y-116192044D01*
X37622440Y-116175412D01*
X37531271Y-116073631D01*
X37463462Y-115984406D01*
X37417310Y-115904220D01*
X37391113Y-115829559D01*
X37383170Y-115756906D01*
X37391779Y-115682745D01*
X37391871Y-115682318D01*
X37419839Y-115600718D01*
X37465718Y-115540921D01*
X37533315Y-115497954D01*
X37589741Y-115480274D01*
X37675621Y-115472446D01*
X37765623Y-115480784D01*
G37*
G36*
X35952682Y-113804171D02*
G01*
X35649940Y-113804171D01*
X35649940Y-114682121D01*
X35514171Y-114682121D01*
X35510155Y-114246931D01*
X35506138Y-113811740D01*
X35358552Y-113807408D01*
X35210965Y-113803075D01*
X35210965Y-113698212D01*
X35952682Y-113698212D01*
X35952682Y-113804171D01*
G37*
G36*
X38636334Y-113698212D02*
G01*
X38720102Y-113698212D01*
X38903078Y-113925466D01*
X39086055Y-114152719D01*
X39086055Y-113698212D01*
X39222288Y-113698212D01*
X39222288Y-114682121D01*
X39086055Y-114682121D01*
X39086055Y-114496120D01*
X39085832Y-114422166D01*
X39084374Y-114366586D01*
X39080511Y-114328836D01*
X39073074Y-114302491D01*
X39060896Y-114281126D01*
X39042809Y-114258318D01*
X38999562Y-114206516D01*
X38842242Y-114443925D01*
X38684922Y-114681335D01*
X38605453Y-114681728D01*
X38574721Y-114681225D01*
X38539641Y-114678359D01*
X38525983Y-114673747D01*
X38526440Y-114672470D01*
X38538207Y-114652759D01*
X38563984Y-114612854D01*
X38601220Y-114556616D01*
X38647367Y-114487901D01*
X38699874Y-114410569D01*
X38710679Y-114394716D01*
X38763073Y-114317242D01*
X38809261Y-114247981D01*
X38846500Y-114191114D01*
X38872049Y-114150818D01*
X38883164Y-114131273D01*
X38883354Y-114130717D01*
X38877985Y-114108914D01*
X38853375Y-114069191D01*
X38808749Y-114010440D01*
X38743331Y-113931552D01*
X38715285Y-113898664D01*
X38654351Y-113827222D01*
X38610755Y-113775023D01*
X38583121Y-113739073D01*
X38570078Y-113716375D01*
X38570251Y-113703936D01*
X38582267Y-113698759D01*
X38604752Y-113697850D01*
X38636334Y-113698212D01*
G37*
G36*
X39968808Y-115475855D02*
G01*
X40031753Y-115490127D01*
X40092179Y-115511447D01*
X40140914Y-115536199D01*
X40168786Y-115560769D01*
X40170625Y-115584888D01*
X40160884Y-115620384D01*
X40142929Y-115663732D01*
X40073918Y-115627039D01*
X40033752Y-115608648D01*
X39955167Y-115589756D01*
X39884119Y-115594391D01*
X39824863Y-115621094D01*
X39781655Y-115668411D01*
X39758752Y-115734884D01*
X39756563Y-115755152D01*
X39759465Y-115806573D01*
X39776102Y-115860476D01*
X39808459Y-115920144D01*
X39858519Y-115988858D01*
X39928267Y-116069901D01*
X40019685Y-116166555D01*
X40037209Y-116184578D01*
X40104509Y-116255224D01*
X40152634Y-116308875D01*
X40184008Y-116348539D01*
X40201054Y-116377223D01*
X40206198Y-116397935D01*
X40206198Y-116438021D01*
X39600715Y-116438021D01*
X39600715Y-116316925D01*
X39997991Y-116316925D01*
X39854220Y-116167136D01*
X39797240Y-116105468D01*
X39716393Y-116005188D01*
X39660501Y-115914332D01*
X39628294Y-115830091D01*
X39618504Y-115749655D01*
X39629863Y-115670213D01*
X39646215Y-115624452D01*
X39693926Y-115553417D01*
X39761573Y-115503424D01*
X39846556Y-115476094D01*
X39946276Y-115473045D01*
X39968808Y-115475855D01*
G37*
G36*
X34361459Y-116331472D02*
G01*
X34317653Y-116388718D01*
X34251457Y-116431469D01*
X34187735Y-116448733D01*
X34102202Y-116447606D01*
X34017268Y-116422552D01*
X34007681Y-116418201D01*
X33967754Y-116400635D01*
X33947552Y-116394715D01*
X33940357Y-116399817D01*
X33939452Y-116415316D01*
X33935287Y-116425646D01*
X33917040Y-116433181D01*
X33879274Y-116436976D01*
X33816638Y-116438021D01*
X33693825Y-116438021D01*
X33700350Y-116176907D01*
X33700890Y-116158498D01*
X33969726Y-116158498D01*
X33969727Y-116158937D01*
X33976782Y-116201226D01*
X33993513Y-116232590D01*
X34000322Y-116238673D01*
X34038737Y-116255239D01*
X34078081Y-116251518D01*
X34108740Y-116230370D01*
X34121096Y-116194654D01*
X34115378Y-116171605D01*
X34083055Y-116141488D01*
X34023135Y-116120240D01*
X34011410Y-116117631D01*
X33982297Y-116114092D01*
X33971380Y-116125582D01*
X33969726Y-116158498D01*
X33700890Y-116158498D01*
X33702300Y-116110373D01*
X33706668Y-116015440D01*
X33712552Y-115944905D01*
X33720305Y-115895038D01*
X33730283Y-115862106D01*
X33765263Y-115804545D01*
X33829173Y-115749363D01*
X33913382Y-115714339D01*
X34016010Y-115700191D01*
X34135172Y-115707636D01*
X34141464Y-115708572D01*
X34203610Y-115719616D01*
X34257976Y-115732162D01*
X34293421Y-115743672D01*
X34317942Y-115757333D01*
X34329230Y-115777786D01*
X34325590Y-115814394D01*
X34314849Y-115861023D01*
X34302329Y-115901740D01*
X34298145Y-115912351D01*
X34287455Y-115927959D01*
X34268992Y-115927934D01*
X34232769Y-115914041D01*
X34198140Y-115902490D01*
X34136918Y-115891414D01*
X34075565Y-115888977D01*
X34023755Y-115895318D01*
X33991160Y-115910576D01*
X33982246Y-115920752D01*
X33982311Y-115930883D01*
X34002591Y-115937817D01*
X34048053Y-115944518D01*
X34072724Y-115948170D01*
X34139250Y-115961474D01*
X34197926Y-115977234D01*
X34266067Y-116009509D01*
X34325030Y-116061364D01*
X34364662Y-116124678D01*
X34384352Y-116194262D01*
X34384347Y-116194654D01*
X34383489Y-116264923D01*
X34361459Y-116331472D01*
G37*
G36*
X38184026Y-113980424D02*
G01*
X38255237Y-114027370D01*
X38294801Y-114063212D01*
X38304054Y-114016946D01*
X38305817Y-114008569D01*
X38315537Y-113983286D01*
X38335676Y-113972772D01*
X38376126Y-113970679D01*
X38399206Y-113970839D01*
X38426235Y-113974532D01*
X38433903Y-113988098D01*
X38429484Y-114017982D01*
X38429019Y-114020681D01*
X38426168Y-114054243D01*
X38423697Y-114111780D01*
X38421753Y-114187840D01*
X38420480Y-114276965D01*
X38420024Y-114373704D01*
X38420024Y-114682121D01*
X38283790Y-114682121D01*
X38283790Y-114446745D01*
X38283676Y-114405730D01*
X38281847Y-114311320D01*
X38276939Y-114240657D01*
X38267868Y-114188979D01*
X38253548Y-114151528D01*
X38232895Y-114123543D01*
X38204823Y-114100263D01*
X38170880Y-114084524D01*
X38114345Y-114076776D01*
X38057942Y-114084358D01*
X38014916Y-114106814D01*
X38000807Y-114122093D01*
X37980824Y-114156434D01*
X37966603Y-114203740D01*
X37957379Y-114268308D01*
X37952386Y-114354435D01*
X37950859Y-114466418D01*
X37950775Y-114682121D01*
X37812089Y-114682121D01*
X37817099Y-114413438D01*
X37817675Y-114383724D01*
X37819972Y-114291896D01*
X37822984Y-114223746D01*
X37827288Y-114174089D01*
X37833461Y-114137738D01*
X37842080Y-114109506D01*
X37853722Y-114084207D01*
X37891310Y-114031424D01*
X37953590Y-113984567D01*
X38027163Y-113959878D01*
X38105988Y-113958212D01*
X38184026Y-113980424D01*
G37*
G36*
X31323795Y-116192696D02*
G01*
X31300643Y-116245149D01*
X31258044Y-116314949D01*
X31187030Y-116384924D01*
X31097498Y-116431561D01*
X31032757Y-116448486D01*
X30931943Y-116452832D01*
X30834389Y-116432887D01*
X30745759Y-116390808D01*
X30671711Y-116328750D01*
X30617909Y-116248870D01*
X30600323Y-116191130D01*
X30592901Y-116123231D01*
X30867739Y-116123231D01*
X30876715Y-116175530D01*
X30903781Y-116219222D01*
X30906847Y-116222222D01*
X30937299Y-116246294D01*
X30960545Y-116255916D01*
X30961224Y-116255897D01*
X31004163Y-116240622D01*
X31041758Y-116202979D01*
X31068417Y-116150751D01*
X31078546Y-116091719D01*
X31075893Y-116072137D01*
X31052277Y-116029022D01*
X31011872Y-115996663D01*
X30964075Y-115983909D01*
X30929310Y-115992909D01*
X30896041Y-116024098D01*
X30874849Y-116070146D01*
X30867739Y-116123231D01*
X30592901Y-116123231D01*
X30592104Y-116115942D01*
X30594828Y-116039657D01*
X30608956Y-115976341D01*
X30616013Y-115959718D01*
X30664397Y-115888968D01*
X30732011Y-115835619D01*
X30812562Y-115802472D01*
X30899753Y-115792328D01*
X30987290Y-115807988D01*
X31009095Y-115815213D01*
X31043387Y-115825080D01*
X31058685Y-115827171D01*
X31055201Y-115815574D01*
X31039355Y-115789796D01*
X31016197Y-115764776D01*
X30957606Y-115727720D01*
X30880597Y-115699578D01*
X30792444Y-115683480D01*
X30692551Y-115673599D01*
X30692551Y-115476817D01*
X30798510Y-115478826D01*
X30858488Y-115481470D01*
X30947315Y-115494321D01*
X31026280Y-115520521D01*
X31107673Y-115563436D01*
X31150965Y-115594183D01*
X31224060Y-115667600D01*
X31284177Y-115755484D01*
X31323598Y-115847676D01*
X31324398Y-115850517D01*
X31334024Y-115901637D01*
X31340851Y-115968314D01*
X31343444Y-116036889D01*
X31342508Y-116089744D01*
X31342307Y-116091719D01*
X31336871Y-116145176D01*
X31323795Y-116192696D01*
G37*
G36*
X30317580Y-114577553D02*
G01*
X30280672Y-114635903D01*
X30226788Y-114675655D01*
X30186741Y-114688427D01*
X30109579Y-114693432D01*
X30029839Y-114679090D01*
X29959314Y-114646678D01*
X29897854Y-114606006D01*
X29897854Y-114644064D01*
X29897798Y-114649315D01*
X29893225Y-114670976D01*
X29875307Y-114680194D01*
X29835618Y-114682121D01*
X29773382Y-114682121D01*
X29779488Y-114413438D01*
X29780318Y-114386280D01*
X29912992Y-114386280D01*
X29922585Y-114462307D01*
X29953177Y-114525963D01*
X30003318Y-114568337D01*
X30046692Y-114584748D01*
X30105621Y-114587672D01*
X30154650Y-114568218D01*
X30188176Y-114529096D01*
X30200596Y-114473011D01*
X30200363Y-114464457D01*
X30185858Y-114413216D01*
X30147551Y-114374031D01*
X30083675Y-114345659D01*
X29992461Y-114326861D01*
X29912992Y-114315991D01*
X29912992Y-114386280D01*
X29780318Y-114386280D01*
X29782732Y-114307246D01*
X29788237Y-114216330D01*
X29796908Y-114147137D01*
X29809887Y-114095213D01*
X29828321Y-114056106D01*
X29853354Y-114025360D01*
X29886130Y-113998523D01*
X29909032Y-113985571D01*
X29973490Y-113966502D01*
X30051479Y-113959166D01*
X30133028Y-113964084D01*
X30208164Y-113981773D01*
X30229194Y-113989458D01*
X30263787Y-114005687D01*
X30278391Y-114022563D01*
X30279630Y-114046043D01*
X30277574Y-114060507D01*
X30265283Y-114090950D01*
X30240049Y-114098092D01*
X30196193Y-114084555D01*
X30163641Y-114073693D01*
X30098268Y-114063106D01*
X30034946Y-114064359D01*
X29986400Y-114077857D01*
X29968311Y-114093851D01*
X29942497Y-114131103D01*
X29921597Y-114174319D01*
X29912992Y-114210197D01*
X29926460Y-114218172D01*
X29962372Y-114226387D01*
X30012865Y-114232958D01*
X30018715Y-114233534D01*
X30112154Y-114250883D01*
X30195676Y-114280959D01*
X30262565Y-114320691D01*
X30306101Y-114367008D01*
X30306658Y-114367926D01*
X30332552Y-114435863D01*
X30334081Y-114473011D01*
X30335533Y-114508306D01*
X30317580Y-114577553D01*
G37*
G36*
X33662872Y-114577553D02*
G01*
X33625964Y-114635903D01*
X33572080Y-114675655D01*
X33532033Y-114688427D01*
X33454871Y-114693432D01*
X33375131Y-114679090D01*
X33304606Y-114646678D01*
X33243146Y-114606006D01*
X33243146Y-114644064D01*
X33243095Y-114649096D01*
X33238571Y-114670896D01*
X33220729Y-114680178D01*
X33181128Y-114682121D01*
X33119109Y-114682121D01*
X33124670Y-114413438D01*
X33125447Y-114386280D01*
X33258284Y-114386280D01*
X33267877Y-114462307D01*
X33298469Y-114525963D01*
X33348610Y-114568337D01*
X33391984Y-114584748D01*
X33450913Y-114587672D01*
X33499942Y-114568218D01*
X33533468Y-114529096D01*
X33545888Y-114473011D01*
X33545655Y-114464457D01*
X33531150Y-114413216D01*
X33492843Y-114374031D01*
X33428967Y-114345659D01*
X33337753Y-114326861D01*
X33258284Y-114315991D01*
X33258284Y-114386280D01*
X33125447Y-114386280D01*
X33127737Y-114306280D01*
X33133085Y-114215782D01*
X33141673Y-114146926D01*
X33154651Y-114095242D01*
X33173168Y-114056260D01*
X33198375Y-114025510D01*
X33231422Y-113998523D01*
X33254324Y-113985571D01*
X33318782Y-113966502D01*
X33396771Y-113959166D01*
X33478320Y-113964084D01*
X33553456Y-113981773D01*
X33574486Y-113989458D01*
X33609079Y-114005687D01*
X33623683Y-114022563D01*
X33624922Y-114046043D01*
X33622866Y-114060507D01*
X33610575Y-114090950D01*
X33585341Y-114098092D01*
X33541486Y-114084555D01*
X33508933Y-114073693D01*
X33443560Y-114063106D01*
X33380238Y-114064359D01*
X33331692Y-114077857D01*
X33313603Y-114093851D01*
X33287789Y-114131103D01*
X33266890Y-114174319D01*
X33258284Y-114210197D01*
X33271752Y-114218172D01*
X33307664Y-114226387D01*
X33358157Y-114232958D01*
X33364007Y-114233534D01*
X33457446Y-114250883D01*
X33540968Y-114280959D01*
X33607857Y-114320691D01*
X33651393Y-114367008D01*
X33651950Y-114367926D01*
X33677844Y-114435863D01*
X33679373Y-114473011D01*
X33680825Y-114508306D01*
X33662872Y-114577553D01*
G37*
G36*
X28111680Y-116438021D02*
G01*
X27839213Y-116438021D01*
X27839213Y-115393564D01*
X28111680Y-115393564D01*
X28111680Y-116438021D01*
G37*
G36*
X32656392Y-113962119D02*
G01*
X32723322Y-113975310D01*
X32782562Y-113997888D01*
X32864369Y-114053744D01*
X32925613Y-114129127D01*
X32962579Y-114222411D01*
X32975480Y-114333969D01*
X32973795Y-114378005D01*
X32952724Y-114478686D01*
X32909320Y-114564111D01*
X32845768Y-114630753D01*
X32764251Y-114675085D01*
X32683051Y-114692698D01*
X32587714Y-114694701D01*
X32492996Y-114680324D01*
X32468193Y-114673327D01*
X32435805Y-114656088D01*
X32426277Y-114628580D01*
X32434630Y-114582452D01*
X32439722Y-114567515D01*
X32450863Y-114558516D01*
X32474758Y-114559969D01*
X32519603Y-114570742D01*
X32576586Y-114580714D01*
X32661858Y-114575286D01*
X32733623Y-114544732D01*
X32788753Y-114491460D01*
X32824123Y-114417879D01*
X32836608Y-114326400D01*
X32830397Y-114263038D01*
X32800980Y-114183922D01*
X32750794Y-114122893D01*
X32683622Y-114082867D01*
X32603248Y-114066756D01*
X32513455Y-114077477D01*
X32491957Y-114082536D01*
X32452413Y-114083182D01*
X32431992Y-114063515D01*
X32425977Y-114020458D01*
X32437319Y-113995292D01*
X32472235Y-113974904D01*
X32524571Y-113962314D01*
X32588049Y-113957920D01*
X32656392Y-113962119D01*
G37*
G36*
X37220628Y-113692165D02*
G01*
X37337983Y-113718698D01*
X37440535Y-113763684D01*
X37449380Y-113769004D01*
X37537130Y-113840219D01*
X37603324Y-113930821D01*
X37646769Y-114037951D01*
X37666269Y-114158750D01*
X37660630Y-114290358D01*
X37659492Y-114298260D01*
X37628149Y-114413614D01*
X37572749Y-114511526D01*
X37495218Y-114590016D01*
X37397479Y-114647099D01*
X37281459Y-114680796D01*
X37228624Y-114686650D01*
X37133234Y-114687235D01*
X37031471Y-114678453D01*
X36936591Y-114661063D01*
X36868474Y-114644279D01*
X36864313Y-114397785D01*
X36860151Y-114151292D01*
X37186353Y-114159892D01*
X37191051Y-114216657D01*
X37195749Y-114273421D01*
X36997139Y-114273421D01*
X36997139Y-114559653D01*
X37051620Y-114569874D01*
X37076732Y-114572996D01*
X37133294Y-114574883D01*
X37192734Y-114572239D01*
X37280866Y-114555543D01*
X37371587Y-114513979D01*
X37442508Y-114450745D01*
X37492288Y-114367564D01*
X37519584Y-114266159D01*
X37523054Y-114148252D01*
X37518178Y-114105504D01*
X37488603Y-114005785D01*
X37434520Y-113923702D01*
X37355665Y-113858799D01*
X37329210Y-113843437D01*
X37284891Y-113824435D01*
X37234139Y-113813483D01*
X37165055Y-113807373D01*
X37113568Y-113805864D01*
X37042123Y-113809283D01*
X36990165Y-113819112D01*
X36970711Y-113824889D01*
X36931808Y-113827748D01*
X36910610Y-113808874D01*
X36901930Y-113765091D01*
X36901339Y-113752736D01*
X36905910Y-113730188D01*
X36925262Y-113716089D01*
X36966865Y-113703336D01*
X36982050Y-113699621D01*
X37098604Y-113685375D01*
X37220628Y-113692165D01*
G37*
G36*
X28713937Y-113973684D02*
G01*
X28783926Y-113978248D01*
X28825620Y-114122050D01*
X28831288Y-114141750D01*
X28855568Y-114228635D01*
X28880265Y-114320187D01*
X28900818Y-114399576D01*
X28934322Y-114533300D01*
X28974546Y-114392007D01*
X28978785Y-114377170D01*
X29004293Y-114289256D01*
X29032397Y-114194136D01*
X29057745Y-114109952D01*
X29100720Y-113969189D01*
X29161917Y-113973718D01*
X29223114Y-113978248D01*
X29258721Y-114091776D01*
X29269872Y-114127515D01*
X29293319Y-114203320D01*
X29319357Y-114288102D01*
X29344127Y-114369325D01*
X29393926Y-114533346D01*
X29449845Y-114308777D01*
X29458314Y-114274677D01*
X29483167Y-114174017D01*
X29502174Y-114098140D01*
X29516904Y-114043592D01*
X29528924Y-114006915D01*
X29539803Y-113984656D01*
X29551109Y-113973358D01*
X29564409Y-113969566D01*
X29581272Y-113969825D01*
X29603265Y-113970679D01*
X29623065Y-113971180D01*
X29657296Y-113975235D01*
X29670874Y-113982032D01*
X29669161Y-113989921D01*
X29660113Y-114023435D01*
X29644347Y-114079126D01*
X29623059Y-114152831D01*
X29597444Y-114240390D01*
X29568698Y-114337639D01*
X29466448Y-114681893D01*
X29341854Y-114682121D01*
X29280095Y-114504261D01*
X29257123Y-114436858D01*
X29230570Y-114356149D01*
X29207688Y-114283711D01*
X29191732Y-114229663D01*
X29191274Y-114228002D01*
X29177663Y-114181964D01*
X29167219Y-114152674D01*
X29162169Y-114146409D01*
X29157816Y-114161802D01*
X29145891Y-114202019D01*
X29127913Y-114261881D01*
X29105351Y-114336505D01*
X29079670Y-114421007D01*
X29000129Y-114682121D01*
X28872585Y-114682121D01*
X28825198Y-114534535D01*
X28824004Y-114530816D01*
X28800284Y-114456900D01*
X28771134Y-114366013D01*
X28740138Y-114269332D01*
X28710880Y-114178035D01*
X28643948Y-113969121D01*
X28713937Y-113973684D01*
G37*
G36*
X36766299Y-115396758D02*
G01*
X36898748Y-115401132D01*
X36902731Y-115919577D01*
X36906714Y-116438021D01*
X36633850Y-116438021D01*
X36633850Y-116334408D01*
X36633666Y-116311551D01*
X36630344Y-116259295D01*
X36621486Y-116226450D01*
X36605317Y-116204973D01*
X36602686Y-116202620D01*
X36589375Y-116193571D01*
X36577172Y-116195641D01*
X36562428Y-116212825D01*
X36541491Y-116249119D01*
X36510710Y-116308518D01*
X36444636Y-116437884D01*
X36281913Y-116437953D01*
X36227602Y-116437510D01*
X36171493Y-116435843D01*
X36133295Y-116433221D01*
X36119189Y-116429948D01*
X36119215Y-116429731D01*
X36127969Y-116413521D01*
X36150223Y-116377617D01*
X36182731Y-116327142D01*
X36222245Y-116267225D01*
X36262077Y-116207110D01*
X36303050Y-116144572D01*
X36336669Y-116092531D01*
X36358172Y-116058305D01*
X36391042Y-116004035D01*
X36269409Y-115861523D01*
X36147776Y-115719010D01*
X36302461Y-115714669D01*
X36348295Y-115713995D01*
X36407520Y-115715177D01*
X36450684Y-115718602D01*
X36470698Y-115723880D01*
X36476633Y-115731563D01*
X36496602Y-115761967D01*
X36525308Y-115808422D01*
X36558701Y-115864455D01*
X36633152Y-115991478D01*
X36633501Y-115691931D01*
X36633850Y-115392385D01*
X36766299Y-115396758D01*
G37*
G36*
X32017044Y-116439200D02*
G01*
X31884595Y-116434826D01*
X31752145Y-116430453D01*
X31752145Y-115719010D01*
X31884595Y-115714637D01*
X32017044Y-115710263D01*
X32017044Y-116439200D01*
G37*
G36*
X41197236Y-115958964D02*
G01*
X41193372Y-116024910D01*
X41180517Y-116079468D01*
X41155199Y-116138526D01*
X41121887Y-116194975D01*
X41057495Y-116271087D01*
X40982243Y-116331496D01*
X40903878Y-116369094D01*
X40894774Y-116371814D01*
X40777502Y-116391493D01*
X40665168Y-116382081D01*
X40560361Y-116344116D01*
X40465671Y-116278134D01*
X40449927Y-116263292D01*
X40380373Y-116174741D01*
X40335961Y-116074468D01*
X40317069Y-115967351D01*
X40318436Y-115946067D01*
X40403976Y-115946067D01*
X40404134Y-115958824D01*
X40419546Y-116059021D01*
X40457708Y-116150235D01*
X40515204Y-116226271D01*
X40588616Y-116280929D01*
X40656584Y-116307412D01*
X40753957Y-116319904D01*
X40851455Y-116306740D01*
X40942155Y-116269090D01*
X41019134Y-116208126D01*
X41051391Y-116165734D01*
X41089687Y-116082472D01*
X41110625Y-115987750D01*
X41112516Y-115890812D01*
X41093667Y-115800899D01*
X41087258Y-115784218D01*
X41036929Y-115697655D01*
X40967965Y-115630643D01*
X40885276Y-115585209D01*
X40793772Y-115563380D01*
X40698366Y-115567186D01*
X40603966Y-115598654D01*
X40599949Y-115600682D01*
X40515074Y-115659638D01*
X40453885Y-115737263D01*
X40416735Y-115832944D01*
X40403976Y-115946067D01*
X40318436Y-115946067D01*
X40324077Y-115858270D01*
X40357361Y-115752104D01*
X40417299Y-115653732D01*
X40444845Y-115622179D01*
X40528667Y-115554839D01*
X40624062Y-115511357D01*
X40726007Y-115491744D01*
X40829484Y-115496012D01*
X40929473Y-115524172D01*
X41020951Y-115576235D01*
X41098901Y-115652212D01*
X41134070Y-115700673D01*
X41171387Y-115772600D01*
X41191195Y-115850657D01*
X41193744Y-115890812D01*
X41197251Y-115946067D01*
X41197236Y-115958964D01*
G37*
G36*
X31923348Y-115398355D02*
G01*
X31977160Y-115424936D01*
X31996538Y-115442838D01*
X32012826Y-115474411D01*
X32017044Y-115522229D01*
X32015209Y-115557481D01*
X32003345Y-115592441D01*
X31975417Y-115620962D01*
X31964793Y-115628838D01*
X31924834Y-115646384D01*
X31874805Y-115645909D01*
X31863566Y-115644131D01*
X31803506Y-115621177D01*
X31766370Y-115579484D01*
X31753659Y-115520603D01*
X31755191Y-115500842D01*
X31776022Y-115449953D01*
X31815707Y-115413890D01*
X31867173Y-115395682D01*
X31923348Y-115398355D01*
G37*
G36*
X32894994Y-116438021D02*
G01*
X32622527Y-116438021D01*
X32622527Y-116205743D01*
X32622526Y-116201534D01*
X32622169Y-116112938D01*
X32620767Y-116049448D01*
X32617764Y-116006100D01*
X32612604Y-115977931D01*
X32604731Y-115959978D01*
X32593591Y-115947278D01*
X32568208Y-115932262D01*
X32521690Y-115926011D01*
X32496435Y-115933630D01*
X32474816Y-115954624D01*
X32459415Y-115992080D01*
X32449354Y-116049423D01*
X32443754Y-116130074D01*
X32441736Y-116237455D01*
X32440882Y-116438021D01*
X32168415Y-116438021D01*
X32168502Y-116229887D01*
X32169500Y-116139827D01*
X32175329Y-116016012D01*
X32186542Y-115919642D01*
X32203340Y-115849229D01*
X32225923Y-115803281D01*
X32239891Y-115785915D01*
X32306058Y-115730395D01*
X32382537Y-115702140D01*
X32465376Y-115702031D01*
X32550626Y-115730948D01*
X32622527Y-115767873D01*
X32622527Y-115393564D01*
X32894994Y-115393564D01*
X32894994Y-116438021D01*
G37*
G36*
X35251427Y-116197577D02*
G01*
X35221911Y-116281538D01*
X35200286Y-116318669D01*
X35137357Y-116389851D01*
X35057397Y-116436962D01*
X35057080Y-116437089D01*
X34986740Y-116451056D01*
X34907481Y-116445075D01*
X34830942Y-116421359D01*
X34768760Y-116382118D01*
X34753493Y-116369372D01*
X34743544Y-116370429D01*
X34741716Y-116397832D01*
X34740968Y-116416057D01*
X34734663Y-116428742D01*
X34716623Y-116435265D01*
X34680669Y-116437674D01*
X34620620Y-116438021D01*
X34499523Y-116438021D01*
X34499523Y-116068555D01*
X34771990Y-116068555D01*
X34772678Y-116094934D01*
X34780080Y-116152996D01*
X34794233Y-116190573D01*
X34815457Y-116213684D01*
X34857151Y-116232361D01*
X34900814Y-116227287D01*
X34940702Y-116201250D01*
X34971069Y-116157037D01*
X34986172Y-116097437D01*
X34986468Y-116093597D01*
X34982558Y-116024206D01*
X34962854Y-115968080D01*
X34931296Y-115928571D01*
X34891826Y-115909031D01*
X34848381Y-115912809D01*
X34804903Y-115943258D01*
X34803777Y-115944468D01*
X34784308Y-115973094D01*
X34774617Y-116011011D01*
X34771990Y-116068555D01*
X34499523Y-116068555D01*
X34499523Y-115393564D01*
X34771990Y-115393564D01*
X34771990Y-115757551D01*
X34806049Y-115735262D01*
X34825525Y-115723946D01*
X34900225Y-115701022D01*
X34980292Y-115702473D01*
X35059831Y-115725968D01*
X35132947Y-115769174D01*
X35193746Y-115829763D01*
X35236333Y-115905402D01*
X35237017Y-115907206D01*
X35259417Y-115999003D01*
X35263796Y-116093597D01*
X35264074Y-116099596D01*
X35251427Y-116197577D01*
G37*
G36*
X29273245Y-116081128D02*
G01*
X29276559Y-116108567D01*
X29277235Y-116138709D01*
X29277235Y-116226102D01*
X28868534Y-116226102D01*
X28868534Y-116438021D01*
X28611204Y-116438021D01*
X28611204Y-116226102D01*
X28505244Y-116226102D01*
X28505244Y-116031239D01*
X28554440Y-116026495D01*
X28603635Y-116021752D01*
X28607767Y-115752857D01*
X28863403Y-115752857D01*
X28864094Y-115805116D01*
X28865723Y-115870349D01*
X28870482Y-116029320D01*
X28945193Y-116029320D01*
X28971530Y-116028814D01*
X29006291Y-116025977D01*
X29019905Y-116021477D01*
X29019791Y-116020786D01*
X29011990Y-116002135D01*
X28994271Y-115964577D01*
X28969937Y-115914706D01*
X28942290Y-115859114D01*
X28914631Y-115804396D01*
X28890264Y-115757143D01*
X28872490Y-115723950D01*
X28864612Y-115711410D01*
X28863695Y-115719820D01*
X28863403Y-115752857D01*
X28607767Y-115752857D01*
X28607771Y-115752576D01*
X28611906Y-115483401D01*
X28781545Y-115487678D01*
X28951183Y-115491954D01*
X29114209Y-115771635D01*
X29149622Y-115832504D01*
X29195048Y-115911559D01*
X29228196Y-115971608D01*
X29250992Y-116016991D01*
X29252831Y-116021477D01*
X29265366Y-116052050D01*
X29273245Y-116081128D01*
G37*
G36*
X39461749Y-116094126D02*
G01*
X39437079Y-116205295D01*
X39397362Y-116299445D01*
X39343805Y-116372905D01*
X39277618Y-116422000D01*
X39266074Y-116427406D01*
X39180000Y-116450265D01*
X39093830Y-116445704D01*
X39013055Y-116415636D01*
X38943170Y-116361980D01*
X38889665Y-116286651D01*
X38859794Y-116209609D01*
X38837828Y-116105348D01*
X38828644Y-115991172D01*
X38829717Y-115953635D01*
X38972537Y-115953635D01*
X38972579Y-115982122D01*
X38973594Y-116061021D01*
X38976568Y-116118398D01*
X38982302Y-116160995D01*
X38991598Y-116195552D01*
X39005259Y-116228812D01*
X39005442Y-116229207D01*
X39041618Y-116287333D01*
X39083976Y-116323419D01*
X39142433Y-116343493D01*
X39195546Y-116337393D01*
X39242151Y-116302732D01*
X39284124Y-116238716D01*
X39289240Y-116227998D01*
X39313454Y-116150628D01*
X39327590Y-116055525D01*
X39331657Y-115951926D01*
X39325665Y-115849071D01*
X39309624Y-115756201D01*
X39283544Y-115682554D01*
X39251368Y-115636049D01*
X39202462Y-115597911D01*
X39148540Y-115580929D01*
X39096091Y-115586918D01*
X39051607Y-115617693D01*
X39029779Y-115644347D01*
X39005238Y-115683451D01*
X38988720Y-115727657D01*
X38978748Y-115783240D01*
X38973846Y-115856475D01*
X38972537Y-115953635D01*
X38829717Y-115953635D01*
X38831974Y-115874670D01*
X38847549Y-115763431D01*
X38875103Y-115665042D01*
X38914365Y-115587093D01*
X38941065Y-115554540D01*
X39009088Y-115503901D01*
X39089381Y-115476428D01*
X39175282Y-115473841D01*
X39260131Y-115497859D01*
X39272570Y-115503929D01*
X39345662Y-115557048D01*
X39401423Y-115632698D01*
X39440533Y-115732079D01*
X39463675Y-115856390D01*
X39469150Y-115951926D01*
X39470164Y-115969611D01*
X39461749Y-116094126D01*
G37*
G36*
X34763069Y-113746677D02*
G01*
X34764992Y-113762937D01*
X34769153Y-113809291D01*
X34774536Y-113877770D01*
X34780780Y-113963524D01*
X34787524Y-114061704D01*
X34794408Y-114167461D01*
X34798792Y-114235635D01*
X34805753Y-114339745D01*
X34812397Y-114434465D01*
X34818344Y-114514590D01*
X34823215Y-114574910D01*
X34826632Y-114610220D01*
X34835379Y-114682121D01*
X34700773Y-114682121D01*
X34691077Y-114542103D01*
X34686890Y-114475811D01*
X34681909Y-114386424D01*
X34677038Y-114289767D01*
X34672903Y-114197735D01*
X34671787Y-114170885D01*
X34667199Y-114067819D01*
X34662645Y-113993732D01*
X34657164Y-113947585D01*
X34649795Y-113928337D01*
X34639579Y-113934948D01*
X34625554Y-113966378D01*
X34606761Y-114021587D01*
X34582240Y-114099535D01*
X34551613Y-114195642D01*
X34516538Y-114302126D01*
X34481497Y-114405535D01*
X34450820Y-114492908D01*
X34385334Y-114674553D01*
X34283802Y-114674553D01*
X34195120Y-114432360D01*
X34180879Y-114393337D01*
X34144672Y-114293178D01*
X34108346Y-114191542D01*
X34075446Y-114098384D01*
X34049518Y-114023659D01*
X33992600Y-113857151D01*
X33983064Y-114109335D01*
X33981555Y-114147851D01*
X33977098Y-114251041D01*
X33972115Y-114354563D01*
X33967115Y-114448222D01*
X33962602Y-114521820D01*
X33951675Y-114682121D01*
X33816522Y-114682121D01*
X33825380Y-114579946D01*
X33826118Y-114571167D01*
X33829976Y-114520497D01*
X33834977Y-114449514D01*
X33840802Y-114363270D01*
X33847133Y-114266816D01*
X33853653Y-114165204D01*
X33860043Y-114063487D01*
X33865984Y-113966716D01*
X33871159Y-113879942D01*
X33875249Y-113808218D01*
X33877937Y-113756596D01*
X33878903Y-113730128D01*
X33880405Y-113715835D01*
X33890757Y-113704324D01*
X33917159Y-113699310D01*
X33966707Y-113698212D01*
X34054512Y-113698212D01*
X34089562Y-113792819D01*
X34090020Y-113794055D01*
X34106412Y-113839279D01*
X34130377Y-113906555D01*
X34159686Y-113989569D01*
X34192109Y-114082007D01*
X34225417Y-114177555D01*
X34326221Y-114467685D01*
X34454980Y-114086733D01*
X34583740Y-113705780D01*
X34669473Y-113701265D01*
X34755207Y-113696750D01*
X34763069Y-113746677D01*
G37*
G36*
X32010887Y-113963551D02*
G01*
X32070690Y-113993252D01*
X32120061Y-114038494D01*
X32135411Y-114057073D01*
X32155892Y-114073817D01*
X32165821Y-114063008D01*
X32168415Y-114023659D01*
X32168609Y-114005665D01*
X32173440Y-113981374D01*
X32191353Y-113972139D01*
X32230943Y-113970679D01*
X32293472Y-113970679D01*
X32284090Y-114027443D01*
X32283926Y-114028478D01*
X32281005Y-114062641D01*
X32278451Y-114120979D01*
X32276418Y-114197705D01*
X32275063Y-114287029D01*
X32274541Y-114383164D01*
X32274374Y-114682121D01*
X32138141Y-114682121D01*
X32138141Y-114462148D01*
X32136893Y-114360796D01*
X32132157Y-114277684D01*
X32122878Y-114216019D01*
X32108009Y-114171299D01*
X32086503Y-114139020D01*
X32057313Y-114114679D01*
X32020549Y-114097918D01*
X31972795Y-114088493D01*
X31957165Y-114087770D01*
X31936029Y-114081672D01*
X31927687Y-114062377D01*
X31926222Y-114021355D01*
X31926326Y-114005907D01*
X31929495Y-113972426D01*
X31940712Y-113958388D01*
X31964816Y-113955542D01*
X32010887Y-113963551D01*
G37*
G36*
X40731369Y-115684114D02*
G01*
X40791684Y-115690333D01*
X40844318Y-115702418D01*
X40882162Y-115720413D01*
X40927670Y-115762348D01*
X40973641Y-115833136D01*
X40996950Y-115911289D01*
X40997781Y-115991122D01*
X40976315Y-116066948D01*
X40932738Y-116133083D01*
X40867231Y-116183841D01*
X40836133Y-116196514D01*
X40779689Y-116207782D01*
X40717547Y-116210556D01*
X40656825Y-116205575D01*
X40604640Y-116193573D01*
X40568109Y-116175289D01*
X40554350Y-116151459D01*
X40556407Y-116130162D01*
X40567910Y-116117585D01*
X40595321Y-116117739D01*
X40645047Y-116129040D01*
X40661166Y-116132818D01*
X40744764Y-116138218D01*
X40815501Y-116118812D01*
X40870082Y-116076943D01*
X40905209Y-116014957D01*
X40917583Y-115935200D01*
X40917047Y-115922769D01*
X40898104Y-115857274D01*
X40856887Y-115800245D01*
X40799996Y-115761437D01*
X40796652Y-115760038D01*
X40756499Y-115747339D01*
X40716042Y-115745762D01*
X40661098Y-115754609D01*
X40630956Y-115760083D01*
X40585959Y-115762046D01*
X40562020Y-115749950D01*
X40554582Y-115722420D01*
X40555489Y-115717030D01*
X40575434Y-115700219D01*
X40616135Y-115689101D01*
X40670483Y-115683718D01*
X40731369Y-115684114D01*
G37*
G36*
X27687843Y-116438021D02*
G01*
X27415375Y-116438021D01*
X27415375Y-115393564D01*
X27687843Y-115393564D01*
X27687843Y-116438021D01*
G37*
G36*
X38498687Y-115478888D02*
G01*
X38586556Y-115502406D01*
X38660096Y-115542804D01*
X38663700Y-115545588D01*
X38684448Y-115565117D01*
X38686373Y-115584613D01*
X38671499Y-115617306D01*
X38647180Y-115664333D01*
X38582798Y-115627521D01*
X38516135Y-115599968D01*
X38442296Y-115589162D01*
X38374170Y-115597579D01*
X38320533Y-115625295D01*
X38300718Y-115645655D01*
X38281919Y-115683027D01*
X38272376Y-115738567D01*
X38271045Y-115757778D01*
X38274336Y-115814365D01*
X38290467Y-115870568D01*
X38321682Y-115930140D01*
X38370225Y-115996831D01*
X38438338Y-116074396D01*
X38528265Y-116166586D01*
X38584987Y-116223335D01*
X38637053Y-116277341D01*
X38672382Y-116317419D01*
X38693942Y-116347285D01*
X38704701Y-116370657D01*
X38707628Y-116391255D01*
X38707628Y-116438021D01*
X38102145Y-116438021D01*
X38102145Y-116316925D01*
X38517895Y-116316925D01*
X38441348Y-116249963D01*
X38432656Y-116242243D01*
X38369458Y-116180233D01*
X38304890Y-116108247D01*
X38245002Y-116033750D01*
X38195845Y-115964205D01*
X38163467Y-115907078D01*
X38158206Y-115894862D01*
X38134827Y-115807171D01*
X38133278Y-115718757D01*
X38152185Y-115636172D01*
X38190170Y-115565974D01*
X38245858Y-115514716D01*
X38317820Y-115485061D01*
X38405954Y-115472892D01*
X38498687Y-115478888D01*
G37*
G36*
X29711012Y-115486031D02*
G01*
X29763929Y-115493663D01*
X29818776Y-115510189D01*
X29887834Y-115538489D01*
X29912675Y-115549492D01*
X29965549Y-115573821D01*
X30004729Y-115593126D01*
X30023138Y-115603981D01*
X30025421Y-115609482D01*
X30025621Y-115638440D01*
X30020226Y-115681578D01*
X30011118Y-115728460D01*
X30000180Y-115768649D01*
X29989292Y-115791708D01*
X29974302Y-115793010D01*
X29938973Y-115784039D01*
X29892517Y-115766051D01*
X29807032Y-115728245D01*
X29807032Y-116438021D01*
X29549702Y-116438021D01*
X29549702Y-115484386D01*
X29656993Y-115484386D01*
X29711012Y-115486031D01*
G37*
G36*
X36366153Y-114077692D02*
G01*
X36578565Y-113698212D01*
X36661837Y-113698212D01*
X36708306Y-113698797D01*
X36730079Y-113702609D01*
X36732654Y-113712737D01*
X36721527Y-113732270D01*
X36714911Y-113742872D01*
X36692625Y-113779345D01*
X36659843Y-113833478D01*
X36619814Y-113899902D01*
X36575783Y-113973249D01*
X36451802Y-114180169D01*
X36587868Y-114406240D01*
X36624168Y-114466874D01*
X36665376Y-114536562D01*
X36699180Y-114594699D01*
X36722808Y-114636508D01*
X36733491Y-114657216D01*
X36734903Y-114661369D01*
X36732971Y-114674478D01*
X36713093Y-114680606D01*
X36669148Y-114682121D01*
X36595247Y-114682121D01*
X36501586Y-114511712D01*
X36460635Y-114436331D01*
X36424639Y-114371548D01*
X36397551Y-114331377D01*
X36375347Y-114315360D01*
X36354002Y-114323041D01*
X36329491Y-114353962D01*
X36297790Y-114407666D01*
X36254873Y-114483696D01*
X36141895Y-114680895D01*
X35980079Y-114682121D01*
X36022050Y-114610220D01*
X36024633Y-114605809D01*
X36050441Y-114562409D01*
X36086962Y-114501724D01*
X36129710Y-114431185D01*
X36174196Y-114358225D01*
X36212899Y-114293922D01*
X36245879Y-114235422D01*
X36265159Y-114194755D01*
X36272564Y-114167972D01*
X36269919Y-114151126D01*
X36264270Y-114141314D01*
X36243569Y-114107071D01*
X36211670Y-114055232D01*
X36171698Y-113990866D01*
X36126779Y-113919042D01*
X36098621Y-113873977D01*
X36058717Y-113809377D01*
X36026849Y-113756863D01*
X36005735Y-113720934D01*
X35998093Y-113706088D01*
X36002937Y-113703307D01*
X36029994Y-113699646D01*
X36072889Y-113698212D01*
X36147685Y-113698212D01*
X36366153Y-114077692D01*
G37*
G36*
X30386642Y-115910515D02*
G01*
X30437335Y-115930327D01*
X30468010Y-115960821D01*
X30493144Y-116015465D01*
X30498407Y-116076464D01*
X30483407Y-116134445D01*
X30447753Y-116180035D01*
X30414812Y-116199271D01*
X30353398Y-116212123D01*
X30291689Y-116202562D01*
X30240503Y-116171058D01*
X30238419Y-116168921D01*
X30208123Y-116117710D01*
X30197824Y-116056100D01*
X30207655Y-115995015D01*
X30237750Y-115945378D01*
X30269714Y-115923870D01*
X30326427Y-115908691D01*
X30386642Y-115910515D01*
G37*
G36*
X36110106Y-116213585D02*
G01*
X36093480Y-116255982D01*
X36066220Y-116294855D01*
X36021746Y-116341324D01*
X35993762Y-116366999D01*
X35934499Y-116411042D01*
X35883260Y-116435259D01*
X35840721Y-116442702D01*
X35779116Y-116447208D01*
X35714444Y-116447202D01*
X35672426Y-116443751D01*
X35571430Y-116417918D01*
X35486934Y-116367204D01*
X35417098Y-116290642D01*
X35395178Y-116256028D01*
X35379817Y-116218611D01*
X35370888Y-116171863D01*
X35365474Y-116105317D01*
X35365479Y-116097343D01*
X35638450Y-116097343D01*
X35649268Y-116165298D01*
X35670690Y-116217673D01*
X35696221Y-116244678D01*
X35737591Y-116258369D01*
X35780057Y-116245702D01*
X35816614Y-116207181D01*
X35837866Y-116155122D01*
X35846588Y-116091520D01*
X35842485Y-116026537D01*
X35826822Y-115967833D01*
X35800864Y-115923070D01*
X35765876Y-115899907D01*
X35718839Y-115899453D01*
X35677860Y-115925632D01*
X35649396Y-115977989D01*
X35639408Y-116026996D01*
X35638450Y-116097343D01*
X35365479Y-116097343D01*
X35365537Y-116010414D01*
X35381031Y-115926251D01*
X35414678Y-115856941D01*
X35468554Y-115796263D01*
X35498391Y-115772278D01*
X35582973Y-115727536D01*
X35676803Y-115704278D01*
X35774127Y-115701700D01*
X35869191Y-115718997D01*
X35956241Y-115755368D01*
X36029523Y-115810007D01*
X36083282Y-115882111D01*
X36093763Y-115904680D01*
X36118120Y-115990415D01*
X36126917Y-116085845D01*
X36126401Y-116091520D01*
X36118569Y-116177687D01*
X36110106Y-116213585D01*
G37*
G36*
X33203667Y-115705550D02*
G01*
X33320248Y-115723103D01*
X33415708Y-115762342D01*
X33490044Y-115823263D01*
X33543250Y-115905864D01*
X33575324Y-116010142D01*
X33579975Y-116040475D01*
X33579115Y-116147582D01*
X33551071Y-116243999D01*
X33497605Y-116326747D01*
X33420481Y-116392846D01*
X33321460Y-116439316D01*
X33313710Y-116441336D01*
X33272189Y-116446142D01*
X33215051Y-116447736D01*
X33151465Y-116446441D01*
X33090601Y-116442581D01*
X33041629Y-116436479D01*
X33013720Y-116428459D01*
X33009393Y-116425206D01*
X33000622Y-116408061D01*
X32999553Y-116375462D01*
X33005662Y-116320369D01*
X33018824Y-116225422D01*
X33090740Y-116234962D01*
X33125858Y-116237243D01*
X33196841Y-116225356D01*
X33253173Y-116192651D01*
X33290307Y-116142477D01*
X33303695Y-116078180D01*
X33302325Y-116052558D01*
X33282200Y-115986704D01*
X33239958Y-115940003D01*
X33178048Y-115914443D01*
X33098920Y-115912012D01*
X33078338Y-115914518D01*
X33052681Y-115916230D01*
X33036486Y-115909968D01*
X33025532Y-115890390D01*
X33015597Y-115852150D01*
X33002459Y-115789906D01*
X32997395Y-115762440D01*
X32997626Y-115735073D01*
X33010293Y-115717904D01*
X33039850Y-115708626D01*
X33090754Y-115704935D01*
X33167461Y-115704523D01*
X33203667Y-115705550D01*
G37*
G36*
X26879665Y-115705565D02*
G01*
X26945434Y-115709015D01*
X27005563Y-115715525D01*
X27052059Y-115724956D01*
X27073471Y-115732670D01*
X27137909Y-115770273D01*
X27199057Y-115823958D01*
X27248381Y-115885347D01*
X27277348Y-115946067D01*
X27289849Y-116014767D01*
X27293387Y-116096985D01*
X27286932Y-116175565D01*
X27270770Y-116237941D01*
X27258272Y-116264330D01*
X27200714Y-116342280D01*
X27122595Y-116402021D01*
X27029380Y-116439004D01*
X26976891Y-116447406D01*
X26899925Y-116451047D01*
X26822654Y-116447550D01*
X26759967Y-116437024D01*
X26739432Y-116430587D01*
X26712936Y-116415290D01*
X26709499Y-116395481D01*
X26711989Y-116384805D01*
X26719080Y-116345888D01*
X26726409Y-116297232D01*
X26736294Y-116224560D01*
X26800698Y-116234218D01*
X26867537Y-116234976D01*
X26931062Y-116215314D01*
X26979858Y-116178641D01*
X27010983Y-116129780D01*
X27021499Y-116073552D01*
X27008464Y-116014780D01*
X26968940Y-115958284D01*
X26941121Y-115931985D01*
X26913505Y-115914739D01*
X26880432Y-115909018D01*
X26829571Y-115910602D01*
X26743073Y-115915792D01*
X26724649Y-115824970D01*
X26719132Y-115794550D01*
X26714704Y-115744458D01*
X26720752Y-115719231D01*
X26728432Y-115714952D01*
X26763172Y-115708395D01*
X26816247Y-115705312D01*
X26879665Y-115705565D01*
G37*
G36*
X31862075Y-114412073D02*
G01*
X31851647Y-114455303D01*
X31831510Y-114504260D01*
X31796358Y-114565181D01*
X31729576Y-114634238D01*
X31646186Y-114678995D01*
X31643121Y-114680044D01*
X31555711Y-114695529D01*
X31461673Y-114688996D01*
X31373719Y-114661271D01*
X31331028Y-114638599D01*
X31261921Y-114584055D01*
X31215036Y-114515142D01*
X31188188Y-114428017D01*
X31180107Y-114329934D01*
X31320739Y-114329934D01*
X31320747Y-114332696D01*
X31332720Y-114426023D01*
X31367835Y-114500444D01*
X31426691Y-114557241D01*
X31438881Y-114565010D01*
X31504117Y-114589158D01*
X31567174Y-114586072D01*
X31624433Y-114558250D01*
X31672271Y-114508189D01*
X31707069Y-114438387D01*
X31725206Y-114351340D01*
X31726644Y-114316915D01*
X31715821Y-114235800D01*
X31687226Y-114166499D01*
X31644659Y-114112017D01*
X31591920Y-114075361D01*
X31532808Y-114059539D01*
X31471123Y-114067557D01*
X31410664Y-114102422D01*
X31403722Y-114108447D01*
X31356115Y-114166210D01*
X31329207Y-114238135D01*
X31320739Y-114329934D01*
X31180107Y-114329934D01*
X31179192Y-114318832D01*
X31179218Y-114306782D01*
X31190725Y-114202032D01*
X31223576Y-114116047D01*
X31279125Y-114045121D01*
X31331480Y-114005194D01*
X31416449Y-113969334D01*
X31509069Y-113956550D01*
X31602546Y-113966699D01*
X31690089Y-113999642D01*
X31764904Y-114055236D01*
X31798084Y-114092665D01*
X31832284Y-114149714D01*
X31852551Y-114217676D01*
X31862512Y-114305859D01*
X31862956Y-114316915D01*
X31864763Y-114361965D01*
X31862075Y-114412073D01*
G37*
G36*
X30881764Y-114682121D02*
G01*
X30881764Y-114287981D01*
X30844573Y-114297315D01*
X30812195Y-114299590D01*
X30760697Y-114296599D01*
X30702015Y-114288877D01*
X30608306Y-114265308D01*
X30521884Y-114221883D01*
X30460226Y-114161178D01*
X30423159Y-114083014D01*
X30414058Y-114014091D01*
X30546866Y-114014091D01*
X30567034Y-114078052D01*
X30606830Y-114131947D01*
X30664715Y-114168388D01*
X30687252Y-114174080D01*
X30736015Y-114180215D01*
X30791927Y-114182598D01*
X30881764Y-114182598D01*
X30881764Y-113808133D01*
X30831656Y-113800001D01*
X30770955Y-113797763D01*
X30703337Y-113807402D01*
X30642002Y-113826478D01*
X30598807Y-113852327D01*
X30571581Y-113885530D01*
X30547868Y-113947454D01*
X30546866Y-114014091D01*
X30414058Y-114014091D01*
X30410508Y-113987209D01*
X30411998Y-113947321D01*
X30431333Y-113858404D01*
X30473320Y-113788277D01*
X30538373Y-113736678D01*
X30626908Y-113703341D01*
X30739339Y-113688002D01*
X30876081Y-113690397D01*
X31017997Y-113701037D01*
X31017997Y-114682121D01*
X30881764Y-114682121D01*
G37*
%LPC*%
D15*
X96900000Y-59325000D03*
D16*
X99440000Y-54245000D03*
D17*
X101980000Y-59325000D03*
D16*
X93090000Y-56785000D03*
D17*
X91820000Y-59325000D03*
D18*
X89815000Y-56785000D03*
X102742000Y-54245000D03*
D16*
X93090000Y-37735000D03*
D17*
X91820000Y-40275000D03*
X101980000Y-40275000D03*
D16*
X99440000Y-35195000D03*
D15*
X96900000Y-40275000D03*
D18*
X89815000Y-37735000D03*
X102742000Y-35195000D03*
D19*
X55372000Y-68825000D03*
D16*
X54990000Y-113935000D03*
X61340000Y-111395000D03*
D17*
X63880000Y-116475000D03*
X53720000Y-116475000D03*
D15*
X58800000Y-116475000D03*
D18*
X51715000Y-113935000D03*
X64642000Y-111395000D03*
D19*
X87775000Y-32650000D03*
D17*
X63880000Y-97425000D03*
D15*
X58800000Y-97425000D03*
D17*
X53720000Y-97425000D03*
D16*
X54990000Y-94885000D03*
X61340000Y-92345000D03*
D18*
X51715000Y-94885000D03*
X64642000Y-92345000D03*
D17*
X72770000Y-59325000D03*
X82930000Y-59325000D03*
D15*
X77850000Y-59325000D03*
D16*
X74040000Y-56785000D03*
X80390000Y-54245000D03*
D18*
X70765000Y-56785000D03*
X83692000Y-54245000D03*
D15*
X87375000Y-116475000D03*
D16*
X89915000Y-111395000D03*
D17*
X82295000Y-116475000D03*
D16*
X83565000Y-113935000D03*
D17*
X92455000Y-116475000D03*
D18*
X80290000Y-113935000D03*
X93217000Y-111395000D03*
D17*
X82930000Y-40275000D03*
D16*
X74040000Y-37735000D03*
X80390000Y-35195000D03*
D17*
X72770000Y-40275000D03*
D15*
X77850000Y-40275000D03*
D18*
X70765000Y-37735000D03*
X83692000Y-35195000D03*
D16*
X93090000Y-94885000D03*
D17*
X91820000Y-97425000D03*
D16*
X99440000Y-92345000D03*
D17*
X101980000Y-97425000D03*
D15*
X96900000Y-97425000D03*
D18*
X89815000Y-94885000D03*
X102742000Y-92345000D03*
D20*
X45400000Y-124575000D03*
D21*
X42860000Y-124575000D03*
X40320000Y-124575000D03*
X37780000Y-124575000D03*
X35240000Y-124575000D03*
X32700000Y-124575000D03*
X30160000Y-124575000D03*
X27620000Y-124575000D03*
X25080000Y-124575000D03*
X22540000Y-124575000D03*
D16*
X99440000Y-73295000D03*
X93090000Y-75835000D03*
D17*
X101980000Y-78375000D03*
X91820000Y-78375000D03*
D15*
X96900000Y-78375000D03*
D18*
X89815000Y-75835000D03*
X102742000Y-73295000D03*
D16*
X61340000Y-35195000D03*
X54990000Y-37735000D03*
D17*
X53720000Y-40275000D03*
D15*
X58800000Y-40275000D03*
D17*
X63880000Y-40275000D03*
D18*
X51715000Y-37735000D03*
X64642000Y-35195000D03*
D22*
X64696125Y-28446325D03*
X70476125Y-28446325D03*
D23*
X71906125Y-24756325D03*
D24*
X63266125Y-28926325D03*
X71906125Y-28926325D03*
D23*
X63266125Y-24756325D03*
D15*
X77850000Y-78375000D03*
D17*
X82930000Y-78375000D03*
X72770000Y-78375000D03*
D16*
X80390000Y-73295000D03*
X74040000Y-75835000D03*
D18*
X70765000Y-75835000D03*
X83692000Y-73295000D03*
D16*
X74040000Y-94885000D03*
D17*
X82930000Y-97425000D03*
D16*
X80390000Y-92345000D03*
D17*
X72770000Y-97425000D03*
D15*
X77850000Y-97425000D03*
D18*
X70765000Y-94885000D03*
X83692000Y-92345000D03*
D19*
X52725000Y-49825000D03*
X102725000Y-68850000D03*
X72500000Y-68825000D03*
X88400000Y-106175000D03*
D25*
X33292800Y-56809400D03*
D19*
X38292800Y-56809400D03*
X35792800Y-56809400D03*
D26*
X30192800Y-49309400D03*
X41392800Y-49309400D03*
D19*
X33292800Y-42309400D03*
X38292800Y-42309400D03*
X87550000Y-68825000D03*
X102750000Y-87900000D03*
X51225000Y-68850000D03*
D25*
X33292800Y-95034400D03*
D19*
X38292800Y-95034400D03*
X35792800Y-95034400D03*
D26*
X41392800Y-87534400D03*
X30192800Y-87534400D03*
D19*
X33292800Y-80534400D03*
X38292800Y-80534400D03*
D15*
X58800000Y-78375000D03*
D17*
X53720000Y-78375000D03*
D16*
X54990000Y-75835000D03*
D17*
X63880000Y-78375000D03*
D16*
X61340000Y-73295000D03*
D18*
X51715000Y-75835000D03*
X64642000Y-73295000D03*
D19*
X102750000Y-49800000D03*
D17*
X53720000Y-59325000D03*
D16*
X61340000Y-54245000D03*
D15*
X58800000Y-59325000D03*
D17*
X63880000Y-59325000D03*
D16*
X54990000Y-56785000D03*
D18*
X51715000Y-56785000D03*
X64642000Y-54245000D03*
M02*
