G04 #@! TF.GenerationSoftware,KiCad,Pcbnew,(6.0.7-1)-1*
G04 #@! TF.CreationDate,2022-08-13T20:31:23-04:00*
G04 #@! TF.ProjectId,KnGXT,4b6e4758-542e-46b6-9963-61645f706362,rev?*
G04 #@! TF.SameCoordinates,Original*
G04 #@! TF.FileFunction,Paste,Top*
G04 #@! TF.FilePolarity,Positive*
%FSLAX46Y46*%
G04 Gerber Fmt 4.6, Leading zero omitted, Abs format (unit mm)*
G04 Created by KiCad (PCBNEW (6.0.7-1)-1) date 2022-08-13 20:31:23*
%MOMM*%
%LPD*%
G01*
G04 APERTURE LIST*
G04 Aperture macros list*
%AMRoundRect*
0 Rectangle with rounded corners*
0 $1 Rounding radius*
0 $2 $3 $4 $5 $6 $7 $8 $9 X,Y pos of 4 corners*
0 Add a 4 corners polygon primitive as box body*
4,1,4,$2,$3,$4,$5,$6,$7,$8,$9,$2,$3,0*
0 Add four circle primitives for the rounded corners*
1,1,$1+$1,$2,$3*
1,1,$1+$1,$4,$5*
1,1,$1+$1,$6,$7*
1,1,$1+$1,$8,$9*
0 Add four rect primitives between the rounded corners*
20,1,$1+$1,$2,$3,$4,$5,0*
20,1,$1+$1,$4,$5,$6,$7,0*
20,1,$1+$1,$6,$7,$8,$9,0*
20,1,$1+$1,$8,$9,$2,$3,0*%
%AMRotRect*
0 Rectangle, with rotation*
0 The origin of the aperture is its center*
0 $1 length*
0 $2 width*
0 $3 Rotation angle, in degrees counterclockwise*
0 Add horizontal line*
21,1,$1,$2,0,0,$3*%
G04 Aperture macros list end*
%ADD10RoundRect,0.140000X0.170000X-0.140000X0.170000X0.140000X-0.170000X0.140000X-0.170000X-0.140000X0*%
%ADD11RoundRect,0.135000X-0.185000X0.135000X-0.185000X-0.135000X0.185000X-0.135000X0.185000X0.135000X0*%
%ADD12R,0.900000X0.750000*%
%ADD13R,0.900000X0.760000*%
%ADD14R,0.500000X0.500000*%
%ADD15RoundRect,0.140000X-0.140000X-0.170000X0.140000X-0.170000X0.140000X0.170000X-0.140000X0.170000X0*%
%ADD16RotRect,0.900000X0.750000X20.000000*%
%ADD17RotRect,0.900000X0.760000X20.000000*%
%ADD18RoundRect,0.140000X-0.170000X0.140000X-0.170000X-0.140000X0.170000X-0.140000X0.170000X0.140000X0*%
%ADD19R,1.200000X1.400000*%
%ADD20RotRect,0.900000X0.750000X120.000000*%
%ADD21RotRect,0.900000X0.760000X120.000000*%
%ADD22RoundRect,0.140000X0.140000X0.170000X-0.140000X0.170000X-0.140000X-0.170000X0.140000X-0.170000X0*%
%ADD23RotRect,0.900000X0.750000X80.000000*%
%ADD24RotRect,0.900000X0.760000X80.000000*%
%ADD25RoundRect,0.150000X0.150000X-0.650000X0.150000X0.650000X-0.150000X0.650000X-0.150000X-0.650000X0*%
%ADD26RoundRect,0.100000X0.637500X0.100000X-0.637500X0.100000X-0.637500X-0.100000X0.637500X-0.100000X0*%
%ADD27RotRect,0.900000X0.750000X60.000000*%
%ADD28RotRect,0.900000X0.760000X60.000000*%
%ADD29R,0.600000X1.160000*%
%ADD30R,0.300000X1.160000*%
%ADD31RotRect,0.900000X0.750000X40.000000*%
%ADD32RotRect,0.900000X0.760000X40.000000*%
%ADD33RoundRect,0.135000X0.135000X0.185000X-0.135000X0.185000X-0.135000X-0.185000X0.135000X-0.185000X0*%
%ADD34RotRect,0.900000X0.750000X140.000000*%
%ADD35RotRect,0.900000X0.760000X140.000000*%
%ADD36RoundRect,0.250000X-0.292217X-0.292217X0.292217X-0.292217X0.292217X0.292217X-0.292217X0.292217X0*%
%ADD37RoundRect,0.050000X-0.387500X-0.050000X0.387500X-0.050000X0.387500X0.050000X-0.387500X0.050000X0*%
%ADD38RoundRect,0.050000X-0.050000X-0.387500X0.050000X-0.387500X0.050000X0.387500X-0.050000X0.387500X0*%
%ADD39RotRect,0.900000X0.750000X160.000000*%
%ADD40RotRect,0.900000X0.760000X160.000000*%
%ADD41R,2.000000X1.500000*%
%ADD42R,2.000000X3.800000*%
%ADD43RotRect,0.900000X0.750000X100.000000*%
%ADD44RotRect,0.900000X0.760000X100.000000*%
%ADD45R,1.700000X1.000000*%
G04 APERTURE END LIST*
D10*
X27742800Y-43855000D03*
X27742800Y-42895000D03*
D11*
X73507525Y-29122525D03*
X73507525Y-30142525D03*
D12*
X98250000Y-65200000D03*
X98250000Y-63700000D03*
D13*
X95550000Y-63700000D03*
D12*
X95550000Y-65200000D03*
D14*
X79950000Y-108125000D03*
X82150000Y-108125000D03*
X50500000Y-55450000D03*
X50500000Y-53250000D03*
D15*
X57720000Y-67450000D03*
X58680000Y-67450000D03*
D11*
X61650000Y-29140000D03*
X61650000Y-30160000D03*
D16*
X48135100Y-42638042D03*
X47622070Y-41228503D03*
D17*
X45084900Y-42151958D03*
D16*
X45597930Y-43561497D03*
D18*
X75650000Y-124845000D03*
X75650000Y-125805000D03*
D14*
X69550000Y-80000000D03*
X69550000Y-77800000D03*
D15*
X74870000Y-48400000D03*
X75830000Y-48400000D03*
D19*
X67450000Y-123050000D03*
X67450000Y-125250000D03*
X69150000Y-125250000D03*
X69150000Y-123050000D03*
D14*
X69550000Y-60950000D03*
X69550000Y-58750000D03*
D20*
X30024519Y-73045866D03*
X28725481Y-73795866D03*
D21*
X30075481Y-76134134D03*
D20*
X31374519Y-75384134D03*
D12*
X86025000Y-120850000D03*
X86025000Y-122350000D03*
D13*
X88725000Y-122350000D03*
D12*
X88725000Y-120850000D03*
D15*
X43842800Y-42895000D03*
X43842800Y-43855000D03*
D22*
X69614871Y-115675000D03*
X68654871Y-115675000D03*
X73480000Y-124100000D03*
X72520000Y-124100000D03*
D14*
X88600000Y-41900000D03*
X88600000Y-39700000D03*
X88600000Y-60950000D03*
X88600000Y-58750000D03*
D15*
X42092624Y-40145000D03*
X41132624Y-40145000D03*
D23*
X38763031Y-72020746D03*
X37285819Y-71760273D03*
D24*
X36816969Y-74419254D03*
D23*
X38294181Y-74679727D03*
D15*
X74870000Y-86500000D03*
X75830000Y-86500000D03*
D22*
X42092624Y-78370000D03*
X41132624Y-78370000D03*
D14*
X58675000Y-108075000D03*
X56475000Y-108075000D03*
D25*
X67117200Y-113063000D03*
X68387200Y-113063000D03*
X69657200Y-113063000D03*
X70927200Y-113063000D03*
X70927200Y-105863000D03*
X69657200Y-105863000D03*
X68387200Y-105863000D03*
X67117200Y-105863000D03*
D15*
X79520000Y-105400000D03*
X80480000Y-105400000D03*
D10*
X74700000Y-111950000D03*
X74700000Y-110990000D03*
D18*
X76650571Y-112710200D03*
X76650571Y-113670200D03*
D15*
X36987800Y-76050000D03*
X37947800Y-76050000D03*
D14*
X88600000Y-99050000D03*
X88600000Y-96850000D03*
X69550000Y-41900000D03*
X69550000Y-39700000D03*
D22*
X85880000Y-124300000D03*
X84920000Y-124300000D03*
D26*
X32650000Y-105250000D03*
X32650000Y-104600000D03*
X32650000Y-103950000D03*
X32650000Y-103300000D03*
X32650000Y-102650000D03*
X32650000Y-102000000D03*
X32650000Y-101350000D03*
X26925000Y-101350000D03*
X26925000Y-102000000D03*
X26925000Y-102650000D03*
X26925000Y-103300000D03*
X26925000Y-103950000D03*
X26925000Y-104600000D03*
X26925000Y-105250000D03*
D15*
X55820000Y-105550000D03*
X56780000Y-105550000D03*
X29512624Y-40145000D03*
X30472624Y-40145000D03*
X67120000Y-104175000D03*
X68080000Y-104175000D03*
D27*
X42874519Y-35570866D03*
X41575481Y-34820866D03*
D28*
X40225481Y-37159134D03*
D27*
X41524519Y-37909134D03*
D18*
X75700571Y-112710200D03*
X75700571Y-113670200D03*
D12*
X79200000Y-103300000D03*
X79200000Y-101800000D03*
D13*
X76500000Y-101800000D03*
D12*
X76500000Y-103300000D03*
D29*
X70786125Y-29506325D03*
X69986125Y-29506325D03*
D30*
X68836125Y-29506325D03*
X67836125Y-29506325D03*
X67336125Y-29506325D03*
X66336125Y-29506325D03*
D29*
X65186125Y-29506325D03*
X64386125Y-29506325D03*
X64386125Y-29506325D03*
X65186125Y-29506325D03*
D30*
X65836125Y-29506325D03*
X66836125Y-29506325D03*
X68336125Y-29506325D03*
X69336125Y-29506325D03*
D29*
X69986125Y-29506325D03*
X70786125Y-29506325D03*
D10*
X79600000Y-116330000D03*
X79600000Y-115370000D03*
D12*
X79200000Y-84250000D03*
X79200000Y-82750000D03*
D13*
X76500000Y-82750000D03*
D12*
X76500000Y-84250000D03*
D15*
X29512624Y-78370000D03*
X30472624Y-78370000D03*
D14*
X50500000Y-60950000D03*
X50500000Y-58750000D03*
D10*
X79050000Y-120280000D03*
X79050000Y-119320000D03*
D31*
X46126251Y-38641770D03*
X45162069Y-37492703D03*
D32*
X43093749Y-39228230D03*
D31*
X44057931Y-40377297D03*
D33*
X73635000Y-125325000D03*
X72615000Y-125325000D03*
D12*
X98250000Y-103300000D03*
X98250000Y-101800000D03*
D13*
X95550000Y-101800000D03*
D12*
X95550000Y-103300000D03*
D14*
X50500000Y-99050000D03*
X50500000Y-96850000D03*
D12*
X79200000Y-65200000D03*
X79200000Y-63700000D03*
D13*
X76500000Y-63700000D03*
D12*
X76500000Y-65200000D03*
D15*
X93920000Y-67450000D03*
X94880000Y-67450000D03*
D18*
X39992624Y-77440000D03*
X39992624Y-78400000D03*
D15*
X31542624Y-39215000D03*
X31542624Y-40175000D03*
D18*
X74675000Y-124495000D03*
X74675000Y-125455000D03*
D12*
X60150000Y-65200000D03*
X60150000Y-63700000D03*
D13*
X57450000Y-63700000D03*
D12*
X57450000Y-65200000D03*
D14*
X88600000Y-80000000D03*
X88600000Y-77800000D03*
D22*
X39992624Y-39215000D03*
X39992624Y-40175000D03*
D34*
X26437931Y-37492703D03*
X25473749Y-38641770D03*
D35*
X27542069Y-40377297D03*
D34*
X28506251Y-39228230D03*
D12*
X98250000Y-84250000D03*
X98250000Y-82750000D03*
D13*
X95550000Y-82750000D03*
D12*
X95550000Y-84250000D03*
X60150000Y-46150000D03*
X60150000Y-44650000D03*
D13*
X57450000Y-44650000D03*
D12*
X57450000Y-46150000D03*
D10*
X51000000Y-117150000D03*
X51000000Y-116190000D03*
D36*
X74897271Y-119926550D03*
X73622271Y-118651550D03*
X74897271Y-118651550D03*
X73622271Y-119926550D03*
D37*
X70822271Y-116689050D03*
X70822271Y-117089050D03*
X70822271Y-117489050D03*
X70822271Y-117889050D03*
X70822271Y-118289050D03*
X70822271Y-118689050D03*
X70822271Y-119089050D03*
X70822271Y-119489050D03*
X70822271Y-119889050D03*
X70822271Y-120289050D03*
X70822271Y-120689050D03*
X70822271Y-121089050D03*
X70822271Y-121489050D03*
X70822271Y-121889050D03*
D38*
X71659771Y-122726550D03*
X72059771Y-122726550D03*
X72459771Y-122726550D03*
X72859771Y-122726550D03*
X73259771Y-122726550D03*
X73659771Y-122726550D03*
X74059771Y-122726550D03*
X74459771Y-122726550D03*
X74859771Y-122726550D03*
X75259771Y-122726550D03*
X75659771Y-122726550D03*
X76059771Y-122726550D03*
X76459771Y-122726550D03*
X76859771Y-122726550D03*
D37*
X77697271Y-121889050D03*
X77697271Y-121489050D03*
X77697271Y-121089050D03*
X77697271Y-120689050D03*
X77697271Y-120289050D03*
X77697271Y-119889050D03*
X77697271Y-119489050D03*
X77697271Y-119089050D03*
X77697271Y-118689050D03*
X77697271Y-118289050D03*
X77697271Y-117889050D03*
X77697271Y-117489050D03*
X77697271Y-117089050D03*
X77697271Y-116689050D03*
D38*
X76859771Y-115851550D03*
X76459771Y-115851550D03*
X76059771Y-115851550D03*
X75659771Y-115851550D03*
X75259771Y-115851550D03*
X74859771Y-115851550D03*
X74459771Y-115851550D03*
X74059771Y-115851550D03*
X73659771Y-115851550D03*
X73259771Y-115851550D03*
X72859771Y-115851550D03*
X72459771Y-115851550D03*
X72059771Y-115851550D03*
X71659771Y-115851550D03*
D10*
X78650000Y-113455000D03*
X78650000Y-112495000D03*
X77650000Y-113005000D03*
X77650000Y-112045000D03*
D18*
X46843800Y-101782400D03*
X46843800Y-102742400D03*
D23*
X38763031Y-33795746D03*
X37285819Y-33535273D03*
D24*
X36816969Y-36194254D03*
D23*
X38294181Y-36454727D03*
D14*
X50500000Y-45150000D03*
X50500000Y-42950000D03*
D10*
X27742800Y-82080000D03*
X27742800Y-81120000D03*
D12*
X57450000Y-120850000D03*
X57450000Y-122350000D03*
D13*
X60150000Y-122350000D03*
D12*
X60150000Y-120850000D03*
D15*
X58320000Y-48400000D03*
X59280000Y-48400000D03*
X66720000Y-121500000D03*
X67680000Y-121500000D03*
D12*
X60150000Y-103300000D03*
X60150000Y-101800000D03*
D13*
X57450000Y-101800000D03*
D12*
X57450000Y-103300000D03*
D39*
X23977930Y-79453503D03*
X23464900Y-80863042D03*
D40*
X26002070Y-81786497D03*
D39*
X26515100Y-80376958D03*
D14*
X71090000Y-88420000D03*
X73290000Y-88420000D03*
D34*
X26437931Y-75717703D03*
X25473749Y-76866770D03*
D35*
X27542069Y-78602297D03*
D34*
X28506251Y-77453230D03*
D18*
X67354698Y-114701073D03*
X67354698Y-115661073D03*
D14*
X50500000Y-83050000D03*
X50500000Y-80850000D03*
D27*
X42874519Y-73795866D03*
X41575481Y-73045866D03*
D28*
X40225481Y-75384134D03*
D27*
X41524519Y-76134134D03*
D12*
X60150000Y-84250000D03*
X60150000Y-82750000D03*
D13*
X57450000Y-82750000D03*
D12*
X57450000Y-84250000D03*
D10*
X25162200Y-105198400D03*
X25162200Y-104238400D03*
D41*
X44750000Y-106432400D03*
X44750000Y-104132400D03*
D42*
X38450000Y-104132400D03*
D41*
X44750000Y-101832400D03*
D18*
X31542624Y-77440000D03*
X31542624Y-78400000D03*
D43*
X34304181Y-33535273D03*
X32826969Y-33795746D03*
D44*
X33295819Y-36454727D03*
D43*
X34773031Y-36194254D03*
D15*
X93920000Y-86500000D03*
X94880000Y-86500000D03*
D18*
X43842800Y-81120000D03*
X43842800Y-82080000D03*
D14*
X50425000Y-71800000D03*
X50425000Y-74000000D03*
D10*
X73300000Y-113275000D03*
X73300000Y-112315000D03*
D16*
X48135100Y-80863042D03*
X47622070Y-79453503D03*
D17*
X45084900Y-80376958D03*
D16*
X45597930Y-81786497D03*
D12*
X79200000Y-46150000D03*
X79200000Y-44650000D03*
D13*
X76500000Y-44650000D03*
D12*
X76500000Y-46150000D03*
D15*
X33637800Y-37825000D03*
X34597800Y-37825000D03*
D10*
X74375000Y-113855000D03*
X74375000Y-112895000D03*
D15*
X55820000Y-86500000D03*
X56780000Y-86500000D03*
D43*
X34304181Y-71760273D03*
X32826969Y-72020746D03*
D44*
X33295819Y-74679727D03*
D43*
X34773031Y-74419254D03*
D18*
X46843800Y-105163200D03*
X46843800Y-106123200D03*
D12*
X98250000Y-46150000D03*
X98250000Y-44650000D03*
D13*
X95550000Y-44650000D03*
D12*
X95550000Y-46150000D03*
D15*
X74870000Y-67450000D03*
X75830000Y-67450000D03*
D31*
X46126251Y-76866770D03*
X45162069Y-75717703D03*
D32*
X43093749Y-77453230D03*
D31*
X44057931Y-78602297D03*
D22*
X69580000Y-121500000D03*
X68620000Y-121500000D03*
D15*
X33637800Y-76050000D03*
X34597800Y-76050000D03*
D20*
X30024519Y-34820866D03*
X28725481Y-35570866D03*
D21*
X30075481Y-37909134D03*
D20*
X31374519Y-37159134D03*
D45*
X37125000Y-112125000D03*
X30825000Y-112125000D03*
X37125000Y-115925000D03*
X30825000Y-115925000D03*
D15*
X93920000Y-48400000D03*
X94880000Y-48400000D03*
X93920000Y-105550000D03*
X94880000Y-105550000D03*
X36987800Y-37825000D03*
X37947800Y-37825000D03*
D39*
X23977930Y-41228503D03*
X23464900Y-42638042D03*
D40*
X26002070Y-43561497D03*
D39*
X26515100Y-42151958D03*
D15*
X78670000Y-114425000D03*
X79630000Y-114425000D03*
M02*
