M48
; DRILL file {KiCad (6.0.7-1)-1} date Saturday, August 13, 2022 at 08:31:26 PM
; FORMAT={-:-/ absolute / metric / decimal}
; #@! TF.CreationDate,2022-08-13T20:31:26-04:00
; #@! TF.GenerationSoftware,Kicad,Pcbnew,(6.0.7-1)-1
; #@! TF.FileFunction,NonPlated,1,2,NPTH
FMAT,2
METRIC
; #@! TA.AperFunction,NonPlated,NPTH,ComponentDrill
T1C0.600
; #@! TA.AperFunction,NonPlated,NPTH,ComponentDrill
T2C1.750
; #@! TA.AperFunction,NonPlated,NPTH,ComponentDrill
T3C3.050
; #@! TA.AperFunction,NonPlated,NPTH,ComponentDrill
T4C4.000
%
G90
G05
T1
X64.696Y-28.446
X70.476Y-28.446
T2
X53.72Y-40.275
X53.72Y-59.325
X53.72Y-78.375
X53.72Y-97.425
X53.72Y-116.475
X63.88Y-40.275
X63.88Y-59.325
X63.88Y-78.375
X63.88Y-97.425
X63.88Y-116.475
X72.77Y-40.275
X72.77Y-59.325
X72.77Y-78.375
X72.77Y-97.425
X82.295Y-116.475
X82.93Y-40.275
X82.93Y-59.325
X82.93Y-78.375
X82.93Y-97.425
X91.82Y-40.275
X91.82Y-59.325
X91.82Y-78.375
X91.82Y-97.425
X92.455Y-116.475
X101.98Y-40.275
X101.98Y-59.325
X101.98Y-78.375
X101.98Y-97.425
T3
X54.99Y-37.735
X54.99Y-56.785
X54.99Y-75.835
X54.99Y-94.885
X54.99Y-113.935
X61.34Y-35.195
X61.34Y-54.245
X61.34Y-73.295
X61.34Y-92.345
X61.34Y-111.395
X74.04Y-37.735
X74.04Y-56.785
X74.04Y-75.835
X74.04Y-94.885
X80.39Y-35.195
X80.39Y-54.245
X80.39Y-73.295
X80.39Y-92.345
X83.565Y-113.935
X89.915Y-111.395
X93.09Y-37.735
X93.09Y-56.785
X93.09Y-75.835
X93.09Y-94.885
X99.44Y-35.195
X99.44Y-54.245
X99.44Y-73.295
X99.44Y-92.345
T4
X58.8Y-40.275
X58.8Y-59.325
X58.8Y-78.375
X58.8Y-97.425
X58.8Y-116.475
X77.85Y-40.275
X77.85Y-59.325
X77.85Y-78.375
X77.85Y-97.425
X87.375Y-116.475
X96.9Y-40.275
X96.9Y-59.325
X96.9Y-78.375
X96.9Y-97.425
T0
M30
