G04 #@! TF.GenerationSoftware,KiCad,Pcbnew,(6.0.7-1)-1*
G04 #@! TF.CreationDate,2022-08-13T20:31:23-04:00*
G04 #@! TF.ProjectId,KnGXT,4b6e4758-542e-46b6-9963-61645f706362,rev?*
G04 #@! TF.SameCoordinates,Original*
G04 #@! TF.FileFunction,Soldermask,Bot*
G04 #@! TF.FilePolarity,Negative*
%FSLAX46Y46*%
G04 Gerber Fmt 4.6, Leading zero omitted, Abs format (unit mm)*
G04 Created by KiCad (PCBNEW (6.0.7-1)-1) date 2022-08-13 20:31:23*
%MOMM*%
%LPD*%
G01*
G04 APERTURE LIST*
G04 Aperture macros list*
%AMRoundRect*
0 Rectangle with rounded corners*
0 $1 Rounding radius*
0 $2 $3 $4 $5 $6 $7 $8 $9 X,Y pos of 4 corners*
0 Add a 4 corners polygon primitive as box body*
4,1,4,$2,$3,$4,$5,$6,$7,$8,$9,$2,$3,0*
0 Add four circle primitives for the rounded corners*
1,1,$1+$1,$2,$3*
1,1,$1+$1,$4,$5*
1,1,$1+$1,$6,$7*
1,1,$1+$1,$8,$9*
0 Add four rect primitives between the rounded corners*
20,1,$1+$1,$2,$3,$4,$5,0*
20,1,$1+$1,$4,$5,$6,$7,0*
20,1,$1+$1,$6,$7,$8,$9,0*
20,1,$1+$1,$8,$9,$2,$3,0*%
G04 Aperture macros list end*
%ADD10C,4.000000*%
%ADD11C,3.050000*%
%ADD12C,1.750000*%
%ADD13RoundRect,0.250000X-1.025000X-1.000000X1.025000X-1.000000X1.025000X1.000000X-1.025000X1.000000X0*%
%ADD14C,2.000000*%
%ADD15R,1.700000X1.700000*%
%ADD16O,1.700000X1.700000*%
%ADD17C,0.600000*%
%ADD18O,0.900000X1.700000*%
%ADD19O,0.900000X2.000000*%
%ADD20R,2.000000X2.000000*%
%ADD21R,2.500000X3.000000*%
G04 APERTURE END LIST*
D10*
X96900000Y-59325000D03*
D11*
X99440000Y-54245000D03*
D12*
X101980000Y-59325000D03*
D11*
X93090000Y-56785000D03*
D12*
X91820000Y-59325000D03*
D13*
X89815000Y-56785000D03*
X102742000Y-54245000D03*
D11*
X93090000Y-37735000D03*
D12*
X91820000Y-40275000D03*
X101980000Y-40275000D03*
D11*
X99440000Y-35195000D03*
D10*
X96900000Y-40275000D03*
D13*
X89815000Y-37735000D03*
X102742000Y-35195000D03*
D14*
X55372000Y-68825000D03*
D11*
X54990000Y-113935000D03*
X61340000Y-111395000D03*
D12*
X63880000Y-116475000D03*
X53720000Y-116475000D03*
D10*
X58800000Y-116475000D03*
D13*
X51715000Y-113935000D03*
X64642000Y-111395000D03*
D14*
X87775000Y-32650000D03*
D12*
X63880000Y-97425000D03*
D10*
X58800000Y-97425000D03*
D12*
X53720000Y-97425000D03*
D11*
X54990000Y-94885000D03*
X61340000Y-92345000D03*
D13*
X51715000Y-94885000D03*
X64642000Y-92345000D03*
D12*
X72770000Y-59325000D03*
X82930000Y-59325000D03*
D10*
X77850000Y-59325000D03*
D11*
X74040000Y-56785000D03*
X80390000Y-54245000D03*
D13*
X70765000Y-56785000D03*
X83692000Y-54245000D03*
D10*
X87375000Y-116475000D03*
D11*
X89915000Y-111395000D03*
D12*
X82295000Y-116475000D03*
D11*
X83565000Y-113935000D03*
D12*
X92455000Y-116475000D03*
D13*
X80290000Y-113935000D03*
X93217000Y-111395000D03*
D12*
X82930000Y-40275000D03*
D11*
X74040000Y-37735000D03*
X80390000Y-35195000D03*
D12*
X72770000Y-40275000D03*
D10*
X77850000Y-40275000D03*
D13*
X70765000Y-37735000D03*
X83692000Y-35195000D03*
D11*
X93090000Y-94885000D03*
D12*
X91820000Y-97425000D03*
D11*
X99440000Y-92345000D03*
D12*
X101980000Y-97425000D03*
D10*
X96900000Y-97425000D03*
D13*
X89815000Y-94885000D03*
X102742000Y-92345000D03*
D15*
X45400000Y-124575000D03*
D16*
X42860000Y-124575000D03*
X40320000Y-124575000D03*
X37780000Y-124575000D03*
X35240000Y-124575000D03*
X32700000Y-124575000D03*
X30160000Y-124575000D03*
X27620000Y-124575000D03*
X25080000Y-124575000D03*
X22540000Y-124575000D03*
D11*
X99440000Y-73295000D03*
X93090000Y-75835000D03*
D12*
X101980000Y-78375000D03*
X91820000Y-78375000D03*
D10*
X96900000Y-78375000D03*
D13*
X89815000Y-75835000D03*
X102742000Y-73295000D03*
D11*
X61340000Y-35195000D03*
X54990000Y-37735000D03*
D12*
X53720000Y-40275000D03*
D10*
X58800000Y-40275000D03*
D12*
X63880000Y-40275000D03*
D13*
X51715000Y-37735000D03*
X64642000Y-35195000D03*
D17*
X64696125Y-28446325D03*
X70476125Y-28446325D03*
D18*
X71906125Y-24756325D03*
D19*
X63266125Y-28926325D03*
X71906125Y-28926325D03*
D18*
X63266125Y-24756325D03*
D10*
X77850000Y-78375000D03*
D12*
X82930000Y-78375000D03*
X72770000Y-78375000D03*
D11*
X80390000Y-73295000D03*
X74040000Y-75835000D03*
D13*
X70765000Y-75835000D03*
X83692000Y-73295000D03*
D11*
X74040000Y-94885000D03*
D12*
X82930000Y-97425000D03*
D11*
X80390000Y-92345000D03*
D12*
X72770000Y-97425000D03*
D10*
X77850000Y-97425000D03*
D13*
X70765000Y-94885000D03*
X83692000Y-92345000D03*
D14*
X52725000Y-49825000D03*
X102725000Y-68850000D03*
X72500000Y-68825000D03*
X88400000Y-106175000D03*
D20*
X33292800Y-56809400D03*
D14*
X38292800Y-56809400D03*
X35792800Y-56809400D03*
D21*
X30192800Y-49309400D03*
X41392800Y-49309400D03*
D14*
X33292800Y-42309400D03*
X38292800Y-42309400D03*
X87550000Y-68825000D03*
X102750000Y-87900000D03*
X51225000Y-68850000D03*
D20*
X33292800Y-95034400D03*
D14*
X38292800Y-95034400D03*
X35792800Y-95034400D03*
D21*
X41392800Y-87534400D03*
X30192800Y-87534400D03*
D14*
X33292800Y-80534400D03*
X38292800Y-80534400D03*
D10*
X58800000Y-78375000D03*
D12*
X53720000Y-78375000D03*
D11*
X54990000Y-75835000D03*
D12*
X63880000Y-78375000D03*
D11*
X61340000Y-73295000D03*
D13*
X51715000Y-75835000D03*
X64642000Y-73295000D03*
D14*
X102750000Y-49800000D03*
D12*
X53720000Y-59325000D03*
D11*
X61340000Y-54245000D03*
D10*
X58800000Y-59325000D03*
D12*
X63880000Y-59325000D03*
D11*
X54990000Y-56785000D03*
D13*
X51715000Y-56785000D03*
X64642000Y-54245000D03*
M02*
