%TF.GenerationSoftware,KiCad,Pcbnew,(6.0.7-1)-1*%
%TF.CreationDate,2022-08-13T20:31:30-04:00*%
%TF.ProjectId,KnGXT,4b6e4758-542e-46b6-9963-61645f706362,rev?*%
%TF.SameCoordinates,Original*%
%TF.FileFunction,Drillmap*%
%TF.FilePolarity,Positive*%
%FSLAX45Y45*%
G04 Gerber Fmt 4.5, Leading zero omitted, Abs format (unit mm)*
G04 Created by KiCad (PCBNEW (6.0.7-1)-1) date 2022-08-13 20:31:30*
%MOMM*%
%LPD*%
G01*
G04 APERTURE LIST*
%ADD10C,0.100000*%
%ADD11C,0.200000*%
%ADD12C,0.060000*%
%ADD13C,0.175000*%
%ADD14C,0.305000*%
%ADD15C,0.400000*%
G04 APERTURE END LIST*
D10*
X1740000Y-2265000D02*
X11140000Y-2265000D01*
X11140000Y-2265000D02*
X11140000Y-13100000D01*
X11140000Y-13100000D02*
X1740000Y-13100000D01*
X1740000Y-13100000D02*
X1740000Y-2265000D01*
D11*
D12*
X6439612Y-2814632D02*
X6499612Y-2874632D01*
X6499612Y-2814632D02*
X6439612Y-2874632D01*
X7017612Y-2814632D02*
X7077612Y-2874632D01*
X7077612Y-2814632D02*
X7017612Y-2874632D01*
D13*
X5459500Y-4027500D02*
G75*
G03*
X5459500Y-4027500I-87500J0D01*
G01*
X5459500Y-5932500D02*
G75*
G03*
X5459500Y-5932500I-87500J0D01*
G01*
X5459500Y-7837500D02*
G75*
G03*
X5459500Y-7837500I-87500J0D01*
G01*
X5459500Y-9742500D02*
G75*
G03*
X5459500Y-9742500I-87500J0D01*
G01*
X5459500Y-11647500D02*
G75*
G03*
X5459500Y-11647500I-87500J0D01*
G01*
X6475500Y-4027500D02*
G75*
G03*
X6475500Y-4027500I-87500J0D01*
G01*
X6475500Y-5932500D02*
G75*
G03*
X6475500Y-5932500I-87500J0D01*
G01*
X6475500Y-7837500D02*
G75*
G03*
X6475500Y-7837500I-87500J0D01*
G01*
X6475500Y-9742500D02*
G75*
G03*
X6475500Y-9742500I-87500J0D01*
G01*
X6475500Y-11647500D02*
G75*
G03*
X6475500Y-11647500I-87500J0D01*
G01*
X7364500Y-4027500D02*
G75*
G03*
X7364500Y-4027500I-87500J0D01*
G01*
X7364500Y-5932500D02*
G75*
G03*
X7364500Y-5932500I-87500J0D01*
G01*
X7364500Y-7837500D02*
G75*
G03*
X7364500Y-7837500I-87500J0D01*
G01*
X7364500Y-9742500D02*
G75*
G03*
X7364500Y-9742500I-87500J0D01*
G01*
X8317000Y-11647500D02*
G75*
G03*
X8317000Y-11647500I-87500J0D01*
G01*
X8380500Y-4027500D02*
G75*
G03*
X8380500Y-4027500I-87500J0D01*
G01*
X8380500Y-5932500D02*
G75*
G03*
X8380500Y-5932500I-87500J0D01*
G01*
X8380500Y-7837500D02*
G75*
G03*
X8380500Y-7837500I-87500J0D01*
G01*
X8380500Y-9742500D02*
G75*
G03*
X8380500Y-9742500I-87500J0D01*
G01*
X9269500Y-4027500D02*
G75*
G03*
X9269500Y-4027500I-87500J0D01*
G01*
X9269500Y-5932500D02*
G75*
G03*
X9269500Y-5932500I-87500J0D01*
G01*
X9269500Y-7837500D02*
G75*
G03*
X9269500Y-7837500I-87500J0D01*
G01*
X9269500Y-9742500D02*
G75*
G03*
X9269500Y-9742500I-87500J0D01*
G01*
X9333000Y-11647500D02*
G75*
G03*
X9333000Y-11647500I-87500J0D01*
G01*
X10285500Y-4027500D02*
G75*
G03*
X10285500Y-4027500I-87500J0D01*
G01*
X10285500Y-5932500D02*
G75*
G03*
X10285500Y-5932500I-87500J0D01*
G01*
X10285500Y-7837500D02*
G75*
G03*
X10285500Y-7837500I-87500J0D01*
G01*
X10285500Y-9742500D02*
G75*
G03*
X10285500Y-9742500I-87500J0D01*
G01*
D14*
X5499000Y-3621000D02*
X5499000Y-3926000D01*
X5346500Y-3773500D02*
X5651500Y-3773500D01*
X5499000Y-5526000D02*
X5499000Y-5831000D01*
X5346500Y-5678500D02*
X5651500Y-5678500D01*
X5499000Y-7431000D02*
X5499000Y-7736000D01*
X5346500Y-7583500D02*
X5651500Y-7583500D01*
X5499000Y-9336000D02*
X5499000Y-9641000D01*
X5346500Y-9488500D02*
X5651500Y-9488500D01*
X5499000Y-11241000D02*
X5499000Y-11546000D01*
X5346500Y-11393500D02*
X5651500Y-11393500D01*
X6134000Y-3367000D02*
X6134000Y-3672000D01*
X5981500Y-3519500D02*
X6286500Y-3519500D01*
X6134000Y-5272000D02*
X6134000Y-5577000D01*
X5981500Y-5424500D02*
X6286500Y-5424500D01*
X6134000Y-7177000D02*
X6134000Y-7482000D01*
X5981500Y-7329500D02*
X6286500Y-7329500D01*
X6134000Y-9082000D02*
X6134000Y-9387000D01*
X5981500Y-9234500D02*
X6286500Y-9234500D01*
X6134000Y-10987000D02*
X6134000Y-11292000D01*
X5981500Y-11139500D02*
X6286500Y-11139500D01*
X7404000Y-3621000D02*
X7404000Y-3926000D01*
X7251500Y-3773500D02*
X7556500Y-3773500D01*
X7404000Y-5526000D02*
X7404000Y-5831000D01*
X7251500Y-5678500D02*
X7556500Y-5678500D01*
X7404000Y-7431000D02*
X7404000Y-7736000D01*
X7251500Y-7583500D02*
X7556500Y-7583500D01*
X7404000Y-9336000D02*
X7404000Y-9641000D01*
X7251500Y-9488500D02*
X7556500Y-9488500D01*
X8039000Y-3367000D02*
X8039000Y-3672000D01*
X7886500Y-3519500D02*
X8191500Y-3519500D01*
X8039000Y-5272000D02*
X8039000Y-5577000D01*
X7886500Y-5424500D02*
X8191500Y-5424500D01*
X8039000Y-7177000D02*
X8039000Y-7482000D01*
X7886500Y-7329500D02*
X8191500Y-7329500D01*
X8039000Y-9082000D02*
X8039000Y-9387000D01*
X7886500Y-9234500D02*
X8191500Y-9234500D01*
X8356500Y-11241000D02*
X8356500Y-11546000D01*
X8204000Y-11393500D02*
X8509000Y-11393500D01*
X8991500Y-10987000D02*
X8991500Y-11292000D01*
X8839000Y-11139500D02*
X9144000Y-11139500D01*
X9309000Y-3621000D02*
X9309000Y-3926000D01*
X9156500Y-3773500D02*
X9461500Y-3773500D01*
X9309000Y-5526000D02*
X9309000Y-5831000D01*
X9156500Y-5678500D02*
X9461500Y-5678500D01*
X9309000Y-7431000D02*
X9309000Y-7736000D01*
X9156500Y-7583500D02*
X9461500Y-7583500D01*
X9309000Y-9336000D02*
X9309000Y-9641000D01*
X9156500Y-9488500D02*
X9461500Y-9488500D01*
X9944000Y-3367000D02*
X9944000Y-3672000D01*
X9791500Y-3519500D02*
X10096500Y-3519500D01*
X9944000Y-5272000D02*
X9944000Y-5577000D01*
X9791500Y-5424500D02*
X10096500Y-5424500D01*
X9944000Y-7177000D02*
X9944000Y-7482000D01*
X9791500Y-7329500D02*
X10096500Y-7329500D01*
X9944000Y-9082000D02*
X9944000Y-9387000D01*
X9791500Y-9234500D02*
X10096500Y-9234500D01*
D15*
X6021423Y-4168923D02*
X6021423Y-3886077D01*
X5738577Y-3886077D01*
X5738577Y-4168923D01*
X6021423Y-4168923D01*
X6021423Y-6073923D02*
X6021423Y-5791077D01*
X5738577Y-5791077D01*
X5738577Y-6073923D01*
X6021423Y-6073923D01*
X6021423Y-7978923D02*
X6021423Y-7696077D01*
X5738577Y-7696077D01*
X5738577Y-7978923D01*
X6021423Y-7978923D01*
X6021423Y-9883923D02*
X6021423Y-9601077D01*
X5738577Y-9601077D01*
X5738577Y-9883923D01*
X6021423Y-9883923D01*
X6021423Y-11788923D02*
X6021423Y-11506077D01*
X5738577Y-11506077D01*
X5738577Y-11788923D01*
X6021423Y-11788923D01*
X7926423Y-4168923D02*
X7926423Y-3886077D01*
X7643577Y-3886077D01*
X7643577Y-4168923D01*
X7926423Y-4168923D01*
X7926423Y-6073923D02*
X7926423Y-5791077D01*
X7643577Y-5791077D01*
X7643577Y-6073923D01*
X7926423Y-6073923D01*
X7926423Y-7978923D02*
X7926423Y-7696077D01*
X7643577Y-7696077D01*
X7643577Y-7978923D01*
X7926423Y-7978923D01*
X7926423Y-9883923D02*
X7926423Y-9601077D01*
X7643577Y-9601077D01*
X7643577Y-9883923D01*
X7926423Y-9883923D01*
X8878923Y-11788923D02*
X8878923Y-11506077D01*
X8596077Y-11506077D01*
X8596077Y-11788923D01*
X8878923Y-11788923D01*
X9831423Y-4168923D02*
X9831423Y-3886077D01*
X9548577Y-3886077D01*
X9548577Y-4168923D01*
X9831423Y-4168923D01*
X9831423Y-6073923D02*
X9831423Y-5791077D01*
X9548577Y-5791077D01*
X9548577Y-6073923D01*
X9831423Y-6073923D01*
X9831423Y-7978923D02*
X9831423Y-7696077D01*
X9548577Y-7696077D01*
X9548577Y-7978923D01*
X9831423Y-7978923D01*
X9831423Y-9883923D02*
X9831423Y-9601077D01*
X9548577Y-9601077D01*
X9548577Y-9883923D01*
X9831423Y-9883923D01*
D11*
X1992619Y-13415476D02*
X1992619Y-13215476D01*
X2040238Y-13215476D01*
X2068809Y-13225000D01*
X2087857Y-13244048D01*
X2097381Y-13263095D01*
X2106905Y-13301190D01*
X2106905Y-13329762D01*
X2097381Y-13367857D01*
X2087857Y-13386905D01*
X2068809Y-13405952D01*
X2040238Y-13415476D01*
X1992619Y-13415476D01*
X2192619Y-13415476D02*
X2192619Y-13282143D01*
X2192619Y-13320238D02*
X2202143Y-13301190D01*
X2211667Y-13291667D01*
X2230714Y-13282143D01*
X2249762Y-13282143D01*
X2316429Y-13415476D02*
X2316429Y-13282143D01*
X2316429Y-13215476D02*
X2306905Y-13225000D01*
X2316429Y-13234524D01*
X2325952Y-13225000D01*
X2316429Y-13215476D01*
X2316429Y-13234524D01*
X2440238Y-13415476D02*
X2421190Y-13405952D01*
X2411667Y-13386905D01*
X2411667Y-13215476D01*
X2545000Y-13415476D02*
X2525952Y-13405952D01*
X2516429Y-13386905D01*
X2516429Y-13215476D01*
X2773571Y-13415476D02*
X2773571Y-13215476D01*
X2840238Y-13358333D01*
X2906905Y-13215476D01*
X2906905Y-13415476D01*
X3087857Y-13415476D02*
X3087857Y-13310714D01*
X3078333Y-13291667D01*
X3059286Y-13282143D01*
X3021190Y-13282143D01*
X3002143Y-13291667D01*
X3087857Y-13405952D02*
X3068809Y-13415476D01*
X3021190Y-13415476D01*
X3002143Y-13405952D01*
X2992619Y-13386905D01*
X2992619Y-13367857D01*
X3002143Y-13348809D01*
X3021190Y-13339286D01*
X3068809Y-13339286D01*
X3087857Y-13329762D01*
X3183095Y-13282143D02*
X3183095Y-13482143D01*
X3183095Y-13291667D02*
X3202143Y-13282143D01*
X3240238Y-13282143D01*
X3259286Y-13291667D01*
X3268809Y-13301190D01*
X3278333Y-13320238D01*
X3278333Y-13377381D01*
X3268809Y-13396428D01*
X3259286Y-13405952D01*
X3240238Y-13415476D01*
X3202143Y-13415476D01*
X3183095Y-13405952D01*
X3364048Y-13396428D02*
X3373571Y-13405952D01*
X3364048Y-13415476D01*
X3354524Y-13405952D01*
X3364048Y-13396428D01*
X3364048Y-13415476D01*
X3364048Y-13291667D02*
X3373571Y-13301190D01*
X3364048Y-13310714D01*
X3354524Y-13301190D01*
X3364048Y-13291667D01*
X3364048Y-13310714D01*
D12*
X1675000Y-13715000D02*
X1735000Y-13775000D01*
X1735000Y-13715000D02*
X1675000Y-13775000D01*
D11*
X2030714Y-13635476D02*
X2049762Y-13635476D01*
X2068809Y-13645000D01*
X2078333Y-13654524D01*
X2087857Y-13673571D01*
X2097381Y-13711667D01*
X2097381Y-13759286D01*
X2087857Y-13797381D01*
X2078333Y-13816428D01*
X2068809Y-13825952D01*
X2049762Y-13835476D01*
X2030714Y-13835476D01*
X2011667Y-13825952D01*
X2002143Y-13816428D01*
X1992619Y-13797381D01*
X1983095Y-13759286D01*
X1983095Y-13711667D01*
X1992619Y-13673571D01*
X2002143Y-13654524D01*
X2011667Y-13645000D01*
X2030714Y-13635476D01*
X2183095Y-13816428D02*
X2192619Y-13825952D01*
X2183095Y-13835476D01*
X2173571Y-13825952D01*
X2183095Y-13816428D01*
X2183095Y-13835476D01*
X2364048Y-13635476D02*
X2325952Y-13635476D01*
X2306905Y-13645000D01*
X2297381Y-13654524D01*
X2278333Y-13683095D01*
X2268810Y-13721190D01*
X2268810Y-13797381D01*
X2278333Y-13816428D01*
X2287857Y-13825952D01*
X2306905Y-13835476D01*
X2345000Y-13835476D01*
X2364048Y-13825952D01*
X2373571Y-13816428D01*
X2383095Y-13797381D01*
X2383095Y-13749762D01*
X2373571Y-13730714D01*
X2364048Y-13721190D01*
X2345000Y-13711667D01*
X2306905Y-13711667D01*
X2287857Y-13721190D01*
X2278333Y-13730714D01*
X2268810Y-13749762D01*
X2506905Y-13635476D02*
X2525952Y-13635476D01*
X2545000Y-13645000D01*
X2554524Y-13654524D01*
X2564048Y-13673571D01*
X2573571Y-13711667D01*
X2573571Y-13759286D01*
X2564048Y-13797381D01*
X2554524Y-13816428D01*
X2545000Y-13825952D01*
X2525952Y-13835476D01*
X2506905Y-13835476D01*
X2487857Y-13825952D01*
X2478333Y-13816428D01*
X2468810Y-13797381D01*
X2459286Y-13759286D01*
X2459286Y-13711667D01*
X2468810Y-13673571D01*
X2478333Y-13654524D01*
X2487857Y-13645000D01*
X2506905Y-13635476D01*
X2697381Y-13635476D02*
X2716429Y-13635476D01*
X2735476Y-13645000D01*
X2745000Y-13654524D01*
X2754524Y-13673571D01*
X2764048Y-13711667D01*
X2764048Y-13759286D01*
X2754524Y-13797381D01*
X2745000Y-13816428D01*
X2735476Y-13825952D01*
X2716429Y-13835476D01*
X2697381Y-13835476D01*
X2678333Y-13825952D01*
X2668810Y-13816428D01*
X2659286Y-13797381D01*
X2649762Y-13759286D01*
X2649762Y-13711667D01*
X2659286Y-13673571D01*
X2668810Y-13654524D01*
X2678333Y-13645000D01*
X2697381Y-13635476D01*
X2849762Y-13835476D02*
X2849762Y-13702143D01*
X2849762Y-13721190D02*
X2859286Y-13711667D01*
X2878333Y-13702143D01*
X2906905Y-13702143D01*
X2925952Y-13711667D01*
X2935476Y-13730714D01*
X2935476Y-13835476D01*
X2935476Y-13730714D02*
X2945000Y-13711667D01*
X2964048Y-13702143D01*
X2992619Y-13702143D01*
X3011667Y-13711667D01*
X3021190Y-13730714D01*
X3021190Y-13835476D01*
X3116428Y-13835476D02*
X3116428Y-13702143D01*
X3116428Y-13721190D02*
X3125952Y-13711667D01*
X3145000Y-13702143D01*
X3173571Y-13702143D01*
X3192619Y-13711667D01*
X3202143Y-13730714D01*
X3202143Y-13835476D01*
X3202143Y-13730714D02*
X3211667Y-13711667D01*
X3230714Y-13702143D01*
X3259286Y-13702143D01*
X3278333Y-13711667D01*
X3287857Y-13730714D01*
X3287857Y-13835476D01*
X3678333Y-13625952D02*
X3506905Y-13883095D01*
X3935476Y-13635476D02*
X3954524Y-13635476D01*
X3973571Y-13645000D01*
X3983095Y-13654524D01*
X3992619Y-13673571D01*
X4002143Y-13711667D01*
X4002143Y-13759286D01*
X3992619Y-13797381D01*
X3983095Y-13816428D01*
X3973571Y-13825952D01*
X3954524Y-13835476D01*
X3935476Y-13835476D01*
X3916428Y-13825952D01*
X3906905Y-13816428D01*
X3897381Y-13797381D01*
X3887857Y-13759286D01*
X3887857Y-13711667D01*
X3897381Y-13673571D01*
X3906905Y-13654524D01*
X3916428Y-13645000D01*
X3935476Y-13635476D01*
X4087857Y-13816428D02*
X4097381Y-13825952D01*
X4087857Y-13835476D01*
X4078333Y-13825952D01*
X4087857Y-13816428D01*
X4087857Y-13835476D01*
X4221190Y-13635476D02*
X4240238Y-13635476D01*
X4259286Y-13645000D01*
X4268810Y-13654524D01*
X4278333Y-13673571D01*
X4287857Y-13711667D01*
X4287857Y-13759286D01*
X4278333Y-13797381D01*
X4268810Y-13816428D01*
X4259286Y-13825952D01*
X4240238Y-13835476D01*
X4221190Y-13835476D01*
X4202143Y-13825952D01*
X4192619Y-13816428D01*
X4183095Y-13797381D01*
X4173571Y-13759286D01*
X4173571Y-13711667D01*
X4183095Y-13673571D01*
X4192619Y-13654524D01*
X4202143Y-13645000D01*
X4221190Y-13635476D01*
X4364048Y-13654524D02*
X4373571Y-13645000D01*
X4392619Y-13635476D01*
X4440238Y-13635476D01*
X4459286Y-13645000D01*
X4468810Y-13654524D01*
X4478333Y-13673571D01*
X4478333Y-13692619D01*
X4468810Y-13721190D01*
X4354524Y-13835476D01*
X4478333Y-13835476D01*
X4545000Y-13635476D02*
X4668810Y-13635476D01*
X4602143Y-13711667D01*
X4630714Y-13711667D01*
X4649762Y-13721190D01*
X4659286Y-13730714D01*
X4668810Y-13749762D01*
X4668810Y-13797381D01*
X4659286Y-13816428D01*
X4649762Y-13825952D01*
X4630714Y-13835476D01*
X4573571Y-13835476D01*
X4554524Y-13825952D01*
X4545000Y-13816428D01*
X4840238Y-13635476D02*
X4802143Y-13635476D01*
X4783095Y-13645000D01*
X4773571Y-13654524D01*
X4754524Y-13683095D01*
X4745000Y-13721190D01*
X4745000Y-13797381D01*
X4754524Y-13816428D01*
X4764048Y-13825952D01*
X4783095Y-13835476D01*
X4821190Y-13835476D01*
X4840238Y-13825952D01*
X4849762Y-13816428D01*
X4859286Y-13797381D01*
X4859286Y-13749762D01*
X4849762Y-13730714D01*
X4840238Y-13721190D01*
X4821190Y-13711667D01*
X4783095Y-13711667D01*
X4764048Y-13721190D01*
X4754524Y-13730714D01*
X4745000Y-13749762D01*
X4935476Y-13635476D02*
X4935476Y-13673571D01*
X5011667Y-13635476D02*
X5011667Y-13673571D01*
X5306905Y-13911667D02*
X5297381Y-13902143D01*
X5278333Y-13873571D01*
X5268810Y-13854524D01*
X5259286Y-13825952D01*
X5249762Y-13778333D01*
X5249762Y-13740238D01*
X5259286Y-13692619D01*
X5268810Y-13664048D01*
X5278333Y-13645000D01*
X5297381Y-13616428D01*
X5306905Y-13606905D01*
X5373571Y-13654524D02*
X5383095Y-13645000D01*
X5402143Y-13635476D01*
X5449762Y-13635476D01*
X5468810Y-13645000D01*
X5478333Y-13654524D01*
X5487857Y-13673571D01*
X5487857Y-13692619D01*
X5478333Y-13721190D01*
X5364048Y-13835476D01*
X5487857Y-13835476D01*
X5725952Y-13835476D02*
X5725952Y-13635476D01*
X5811667Y-13835476D02*
X5811667Y-13730714D01*
X5802143Y-13711667D01*
X5783095Y-13702143D01*
X5754524Y-13702143D01*
X5735476Y-13711667D01*
X5725952Y-13721190D01*
X5935476Y-13835476D02*
X5916428Y-13825952D01*
X5906905Y-13816428D01*
X5897381Y-13797381D01*
X5897381Y-13740238D01*
X5906905Y-13721190D01*
X5916428Y-13711667D01*
X5935476Y-13702143D01*
X5964048Y-13702143D01*
X5983095Y-13711667D01*
X5992619Y-13721190D01*
X6002143Y-13740238D01*
X6002143Y-13797381D01*
X5992619Y-13816428D01*
X5983095Y-13825952D01*
X5964048Y-13835476D01*
X5935476Y-13835476D01*
X6116428Y-13835476D02*
X6097381Y-13825952D01*
X6087857Y-13806905D01*
X6087857Y-13635476D01*
X6268809Y-13825952D02*
X6249762Y-13835476D01*
X6211667Y-13835476D01*
X6192619Y-13825952D01*
X6183095Y-13806905D01*
X6183095Y-13730714D01*
X6192619Y-13711667D01*
X6211667Y-13702143D01*
X6249762Y-13702143D01*
X6268809Y-13711667D01*
X6278333Y-13730714D01*
X6278333Y-13749762D01*
X6183095Y-13768809D01*
X6354524Y-13825952D02*
X6373571Y-13835476D01*
X6411667Y-13835476D01*
X6430714Y-13825952D01*
X6440238Y-13806905D01*
X6440238Y-13797381D01*
X6430714Y-13778333D01*
X6411667Y-13768809D01*
X6383095Y-13768809D01*
X6364048Y-13759286D01*
X6354524Y-13740238D01*
X6354524Y-13730714D01*
X6364048Y-13711667D01*
X6383095Y-13702143D01*
X6411667Y-13702143D01*
X6430714Y-13711667D01*
X6506905Y-13911667D02*
X6516428Y-13902143D01*
X6535476Y-13873571D01*
X6545000Y-13854524D01*
X6554524Y-13825952D01*
X6564048Y-13778333D01*
X6564048Y-13740238D01*
X6554524Y-13692619D01*
X6545000Y-13664048D01*
X6535476Y-13645000D01*
X6516428Y-13616428D01*
X6506905Y-13606905D01*
X6868809Y-13911667D02*
X6859286Y-13902143D01*
X6840238Y-13873571D01*
X6830714Y-13854524D01*
X6821190Y-13825952D01*
X6811667Y-13778333D01*
X6811667Y-13740238D01*
X6821190Y-13692619D01*
X6830714Y-13664048D01*
X6840238Y-13645000D01*
X6859286Y-13616428D01*
X6868809Y-13606905D01*
X6945000Y-13702143D02*
X6945000Y-13835476D01*
X6945000Y-13721190D02*
X6954524Y-13711667D01*
X6973571Y-13702143D01*
X7002143Y-13702143D01*
X7021190Y-13711667D01*
X7030714Y-13730714D01*
X7030714Y-13835476D01*
X7154524Y-13835476D02*
X7135476Y-13825952D01*
X7125952Y-13816428D01*
X7116428Y-13797381D01*
X7116428Y-13740238D01*
X7125952Y-13721190D01*
X7135476Y-13711667D01*
X7154524Y-13702143D01*
X7183095Y-13702143D01*
X7202143Y-13711667D01*
X7211667Y-13721190D01*
X7221190Y-13740238D01*
X7221190Y-13797381D01*
X7211667Y-13816428D01*
X7202143Y-13825952D01*
X7183095Y-13835476D01*
X7154524Y-13835476D01*
X7278333Y-13702143D02*
X7354524Y-13702143D01*
X7306905Y-13635476D02*
X7306905Y-13806905D01*
X7316428Y-13825952D01*
X7335476Y-13835476D01*
X7354524Y-13835476D01*
X7573571Y-13702143D02*
X7573571Y-13902143D01*
X7573571Y-13711667D02*
X7592619Y-13702143D01*
X7630714Y-13702143D01*
X7649762Y-13711667D01*
X7659286Y-13721190D01*
X7668809Y-13740238D01*
X7668809Y-13797381D01*
X7659286Y-13816428D01*
X7649762Y-13825952D01*
X7630714Y-13835476D01*
X7592619Y-13835476D01*
X7573571Y-13825952D01*
X7783095Y-13835476D02*
X7764048Y-13825952D01*
X7754524Y-13806905D01*
X7754524Y-13635476D01*
X7945000Y-13835476D02*
X7945000Y-13730714D01*
X7935476Y-13711667D01*
X7916428Y-13702143D01*
X7878333Y-13702143D01*
X7859286Y-13711667D01*
X7945000Y-13825952D02*
X7925952Y-13835476D01*
X7878333Y-13835476D01*
X7859286Y-13825952D01*
X7849762Y-13806905D01*
X7849762Y-13787857D01*
X7859286Y-13768809D01*
X7878333Y-13759286D01*
X7925952Y-13759286D01*
X7945000Y-13749762D01*
X8011667Y-13702143D02*
X8087857Y-13702143D01*
X8040238Y-13635476D02*
X8040238Y-13806905D01*
X8049762Y-13825952D01*
X8068809Y-13835476D01*
X8087857Y-13835476D01*
X8230714Y-13825952D02*
X8211667Y-13835476D01*
X8173571Y-13835476D01*
X8154524Y-13825952D01*
X8145000Y-13806905D01*
X8145000Y-13730714D01*
X8154524Y-13711667D01*
X8173571Y-13702143D01*
X8211667Y-13702143D01*
X8230714Y-13711667D01*
X8240238Y-13730714D01*
X8240238Y-13749762D01*
X8145000Y-13768809D01*
X8411667Y-13835476D02*
X8411667Y-13635476D01*
X8411667Y-13825952D02*
X8392619Y-13835476D01*
X8354524Y-13835476D01*
X8335476Y-13825952D01*
X8325952Y-13816428D01*
X8316428Y-13797381D01*
X8316428Y-13740238D01*
X8325952Y-13721190D01*
X8335476Y-13711667D01*
X8354524Y-13702143D01*
X8392619Y-13702143D01*
X8411667Y-13711667D01*
X8487857Y-13911667D02*
X8497381Y-13902143D01*
X8516429Y-13873571D01*
X8525952Y-13854524D01*
X8535476Y-13825952D01*
X8545000Y-13778333D01*
X8545000Y-13740238D01*
X8535476Y-13692619D01*
X8525952Y-13664048D01*
X8516429Y-13645000D01*
X8497381Y-13616428D01*
X8487857Y-13606905D01*
D13*
X1735000Y-14009000D02*
G75*
G03*
X1735000Y-14009000I-87500J0D01*
G01*
D11*
X2097381Y-14099476D02*
X1983095Y-14099476D01*
X2040238Y-14099476D02*
X2040238Y-13899476D01*
X2021190Y-13928048D01*
X2002143Y-13947095D01*
X1983095Y-13956619D01*
X2183095Y-14080428D02*
X2192619Y-14089952D01*
X2183095Y-14099476D01*
X2173571Y-14089952D01*
X2183095Y-14080428D01*
X2183095Y-14099476D01*
X2259286Y-13899476D02*
X2392619Y-13899476D01*
X2306905Y-14099476D01*
X2564048Y-13899476D02*
X2468810Y-13899476D01*
X2459286Y-13994714D01*
X2468810Y-13985190D01*
X2487857Y-13975667D01*
X2535476Y-13975667D01*
X2554524Y-13985190D01*
X2564048Y-13994714D01*
X2573571Y-14013762D01*
X2573571Y-14061381D01*
X2564048Y-14080428D01*
X2554524Y-14089952D01*
X2535476Y-14099476D01*
X2487857Y-14099476D01*
X2468810Y-14089952D01*
X2459286Y-14080428D01*
X2697381Y-13899476D02*
X2716429Y-13899476D01*
X2735476Y-13909000D01*
X2745000Y-13918524D01*
X2754524Y-13937571D01*
X2764048Y-13975667D01*
X2764048Y-14023286D01*
X2754524Y-14061381D01*
X2745000Y-14080428D01*
X2735476Y-14089952D01*
X2716429Y-14099476D01*
X2697381Y-14099476D01*
X2678333Y-14089952D01*
X2668810Y-14080428D01*
X2659286Y-14061381D01*
X2649762Y-14023286D01*
X2649762Y-13975667D01*
X2659286Y-13937571D01*
X2668810Y-13918524D01*
X2678333Y-13909000D01*
X2697381Y-13899476D01*
X2849762Y-14099476D02*
X2849762Y-13966143D01*
X2849762Y-13985190D02*
X2859286Y-13975667D01*
X2878333Y-13966143D01*
X2906905Y-13966143D01*
X2925952Y-13975667D01*
X2935476Y-13994714D01*
X2935476Y-14099476D01*
X2935476Y-13994714D02*
X2945000Y-13975667D01*
X2964048Y-13966143D01*
X2992619Y-13966143D01*
X3011667Y-13975667D01*
X3021190Y-13994714D01*
X3021190Y-14099476D01*
X3116428Y-14099476D02*
X3116428Y-13966143D01*
X3116428Y-13985190D02*
X3125952Y-13975667D01*
X3145000Y-13966143D01*
X3173571Y-13966143D01*
X3192619Y-13975667D01*
X3202143Y-13994714D01*
X3202143Y-14099476D01*
X3202143Y-13994714D02*
X3211667Y-13975667D01*
X3230714Y-13966143D01*
X3259286Y-13966143D01*
X3278333Y-13975667D01*
X3287857Y-13994714D01*
X3287857Y-14099476D01*
X3678333Y-13889952D02*
X3506905Y-14147095D01*
X3935476Y-13899476D02*
X3954524Y-13899476D01*
X3973571Y-13909000D01*
X3983095Y-13918524D01*
X3992619Y-13937571D01*
X4002143Y-13975667D01*
X4002143Y-14023286D01*
X3992619Y-14061381D01*
X3983095Y-14080428D01*
X3973571Y-14089952D01*
X3954524Y-14099476D01*
X3935476Y-14099476D01*
X3916428Y-14089952D01*
X3906905Y-14080428D01*
X3897381Y-14061381D01*
X3887857Y-14023286D01*
X3887857Y-13975667D01*
X3897381Y-13937571D01*
X3906905Y-13918524D01*
X3916428Y-13909000D01*
X3935476Y-13899476D01*
X4087857Y-14080428D02*
X4097381Y-14089952D01*
X4087857Y-14099476D01*
X4078333Y-14089952D01*
X4087857Y-14080428D01*
X4087857Y-14099476D01*
X4221190Y-13899476D02*
X4240238Y-13899476D01*
X4259286Y-13909000D01*
X4268810Y-13918524D01*
X4278333Y-13937571D01*
X4287857Y-13975667D01*
X4287857Y-14023286D01*
X4278333Y-14061381D01*
X4268810Y-14080428D01*
X4259286Y-14089952D01*
X4240238Y-14099476D01*
X4221190Y-14099476D01*
X4202143Y-14089952D01*
X4192619Y-14080428D01*
X4183095Y-14061381D01*
X4173571Y-14023286D01*
X4173571Y-13975667D01*
X4183095Y-13937571D01*
X4192619Y-13918524D01*
X4202143Y-13909000D01*
X4221190Y-13899476D01*
X4459286Y-13899476D02*
X4421190Y-13899476D01*
X4402143Y-13909000D01*
X4392619Y-13918524D01*
X4373571Y-13947095D01*
X4364048Y-13985190D01*
X4364048Y-14061381D01*
X4373571Y-14080428D01*
X4383095Y-14089952D01*
X4402143Y-14099476D01*
X4440238Y-14099476D01*
X4459286Y-14089952D01*
X4468810Y-14080428D01*
X4478333Y-14061381D01*
X4478333Y-14013762D01*
X4468810Y-13994714D01*
X4459286Y-13985190D01*
X4440238Y-13975667D01*
X4402143Y-13975667D01*
X4383095Y-13985190D01*
X4373571Y-13994714D01*
X4364048Y-14013762D01*
X4592619Y-13985190D02*
X4573571Y-13975667D01*
X4564048Y-13966143D01*
X4554524Y-13947095D01*
X4554524Y-13937571D01*
X4564048Y-13918524D01*
X4573571Y-13909000D01*
X4592619Y-13899476D01*
X4630714Y-13899476D01*
X4649762Y-13909000D01*
X4659286Y-13918524D01*
X4668810Y-13937571D01*
X4668810Y-13947095D01*
X4659286Y-13966143D01*
X4649762Y-13975667D01*
X4630714Y-13985190D01*
X4592619Y-13985190D01*
X4573571Y-13994714D01*
X4564048Y-14004238D01*
X4554524Y-14023286D01*
X4554524Y-14061381D01*
X4564048Y-14080428D01*
X4573571Y-14089952D01*
X4592619Y-14099476D01*
X4630714Y-14099476D01*
X4649762Y-14089952D01*
X4659286Y-14080428D01*
X4668810Y-14061381D01*
X4668810Y-14023286D01*
X4659286Y-14004238D01*
X4649762Y-13994714D01*
X4630714Y-13985190D01*
X4764048Y-14099476D02*
X4802143Y-14099476D01*
X4821190Y-14089952D01*
X4830714Y-14080428D01*
X4849762Y-14051857D01*
X4859286Y-14013762D01*
X4859286Y-13937571D01*
X4849762Y-13918524D01*
X4840238Y-13909000D01*
X4821190Y-13899476D01*
X4783095Y-13899476D01*
X4764048Y-13909000D01*
X4754524Y-13918524D01*
X4745000Y-13937571D01*
X4745000Y-13985190D01*
X4754524Y-14004238D01*
X4764048Y-14013762D01*
X4783095Y-14023286D01*
X4821190Y-14023286D01*
X4840238Y-14013762D01*
X4849762Y-14004238D01*
X4859286Y-13985190D01*
X4935476Y-13899476D02*
X4935476Y-13937571D01*
X5011667Y-13899476D02*
X5011667Y-13937571D01*
X5306905Y-14175667D02*
X5297381Y-14166143D01*
X5278333Y-14137571D01*
X5268810Y-14118524D01*
X5259286Y-14089952D01*
X5249762Y-14042333D01*
X5249762Y-14004238D01*
X5259286Y-13956619D01*
X5268810Y-13928048D01*
X5278333Y-13909000D01*
X5297381Y-13880428D01*
X5306905Y-13870905D01*
X5373571Y-13918524D02*
X5383095Y-13909000D01*
X5402143Y-13899476D01*
X5449762Y-13899476D01*
X5468810Y-13909000D01*
X5478333Y-13918524D01*
X5487857Y-13937571D01*
X5487857Y-13956619D01*
X5478333Y-13985190D01*
X5364048Y-14099476D01*
X5487857Y-14099476D01*
X5602143Y-13985190D02*
X5583095Y-13975667D01*
X5573571Y-13966143D01*
X5564048Y-13947095D01*
X5564048Y-13937571D01*
X5573571Y-13918524D01*
X5583095Y-13909000D01*
X5602143Y-13899476D01*
X5640238Y-13899476D01*
X5659286Y-13909000D01*
X5668809Y-13918524D01*
X5678333Y-13937571D01*
X5678333Y-13947095D01*
X5668809Y-13966143D01*
X5659286Y-13975667D01*
X5640238Y-13985190D01*
X5602143Y-13985190D01*
X5583095Y-13994714D01*
X5573571Y-14004238D01*
X5564048Y-14023286D01*
X5564048Y-14061381D01*
X5573571Y-14080428D01*
X5583095Y-14089952D01*
X5602143Y-14099476D01*
X5640238Y-14099476D01*
X5659286Y-14089952D01*
X5668809Y-14080428D01*
X5678333Y-14061381D01*
X5678333Y-14023286D01*
X5668809Y-14004238D01*
X5659286Y-13994714D01*
X5640238Y-13985190D01*
X5916428Y-14099476D02*
X5916428Y-13899476D01*
X6002143Y-14099476D02*
X6002143Y-13994714D01*
X5992619Y-13975667D01*
X5973571Y-13966143D01*
X5945000Y-13966143D01*
X5925952Y-13975667D01*
X5916428Y-13985190D01*
X6125952Y-14099476D02*
X6106905Y-14089952D01*
X6097381Y-14080428D01*
X6087857Y-14061381D01*
X6087857Y-14004238D01*
X6097381Y-13985190D01*
X6106905Y-13975667D01*
X6125952Y-13966143D01*
X6154524Y-13966143D01*
X6173571Y-13975667D01*
X6183095Y-13985190D01*
X6192619Y-14004238D01*
X6192619Y-14061381D01*
X6183095Y-14080428D01*
X6173571Y-14089952D01*
X6154524Y-14099476D01*
X6125952Y-14099476D01*
X6306905Y-14099476D02*
X6287857Y-14089952D01*
X6278333Y-14070905D01*
X6278333Y-13899476D01*
X6459286Y-14089952D02*
X6440238Y-14099476D01*
X6402143Y-14099476D01*
X6383095Y-14089952D01*
X6373571Y-14070905D01*
X6373571Y-13994714D01*
X6383095Y-13975667D01*
X6402143Y-13966143D01*
X6440238Y-13966143D01*
X6459286Y-13975667D01*
X6468809Y-13994714D01*
X6468809Y-14013762D01*
X6373571Y-14032809D01*
X6545000Y-14089952D02*
X6564048Y-14099476D01*
X6602143Y-14099476D01*
X6621190Y-14089952D01*
X6630714Y-14070905D01*
X6630714Y-14061381D01*
X6621190Y-14042333D01*
X6602143Y-14032809D01*
X6573571Y-14032809D01*
X6554524Y-14023286D01*
X6545000Y-14004238D01*
X6545000Y-13994714D01*
X6554524Y-13975667D01*
X6573571Y-13966143D01*
X6602143Y-13966143D01*
X6621190Y-13975667D01*
X6697381Y-14175667D02*
X6706905Y-14166143D01*
X6725952Y-14137571D01*
X6735476Y-14118524D01*
X6745000Y-14089952D01*
X6754524Y-14042333D01*
X6754524Y-14004238D01*
X6745000Y-13956619D01*
X6735476Y-13928048D01*
X6725952Y-13909000D01*
X6706905Y-13880428D01*
X6697381Y-13870905D01*
X7059286Y-14175667D02*
X7049762Y-14166143D01*
X7030714Y-14137571D01*
X7021190Y-14118524D01*
X7011667Y-14089952D01*
X7002143Y-14042333D01*
X7002143Y-14004238D01*
X7011667Y-13956619D01*
X7021190Y-13928048D01*
X7030714Y-13909000D01*
X7049762Y-13880428D01*
X7059286Y-13870905D01*
X7135476Y-13966143D02*
X7135476Y-14099476D01*
X7135476Y-13985190D02*
X7145000Y-13975667D01*
X7164048Y-13966143D01*
X7192619Y-13966143D01*
X7211667Y-13975667D01*
X7221190Y-13994714D01*
X7221190Y-14099476D01*
X7345000Y-14099476D02*
X7325952Y-14089952D01*
X7316428Y-14080428D01*
X7306905Y-14061381D01*
X7306905Y-14004238D01*
X7316428Y-13985190D01*
X7325952Y-13975667D01*
X7345000Y-13966143D01*
X7373571Y-13966143D01*
X7392619Y-13975667D01*
X7402143Y-13985190D01*
X7411667Y-14004238D01*
X7411667Y-14061381D01*
X7402143Y-14080428D01*
X7392619Y-14089952D01*
X7373571Y-14099476D01*
X7345000Y-14099476D01*
X7468809Y-13966143D02*
X7545000Y-13966143D01*
X7497381Y-13899476D02*
X7497381Y-14070905D01*
X7506905Y-14089952D01*
X7525952Y-14099476D01*
X7545000Y-14099476D01*
X7764048Y-13966143D02*
X7764048Y-14166143D01*
X7764048Y-13975667D02*
X7783095Y-13966143D01*
X7821190Y-13966143D01*
X7840238Y-13975667D01*
X7849762Y-13985190D01*
X7859286Y-14004238D01*
X7859286Y-14061381D01*
X7849762Y-14080428D01*
X7840238Y-14089952D01*
X7821190Y-14099476D01*
X7783095Y-14099476D01*
X7764048Y-14089952D01*
X7973571Y-14099476D02*
X7954524Y-14089952D01*
X7945000Y-14070905D01*
X7945000Y-13899476D01*
X8135476Y-14099476D02*
X8135476Y-13994714D01*
X8125952Y-13975667D01*
X8106905Y-13966143D01*
X8068809Y-13966143D01*
X8049762Y-13975667D01*
X8135476Y-14089952D02*
X8116428Y-14099476D01*
X8068809Y-14099476D01*
X8049762Y-14089952D01*
X8040238Y-14070905D01*
X8040238Y-14051857D01*
X8049762Y-14032809D01*
X8068809Y-14023286D01*
X8116428Y-14023286D01*
X8135476Y-14013762D01*
X8202143Y-13966143D02*
X8278333Y-13966143D01*
X8230714Y-13899476D02*
X8230714Y-14070905D01*
X8240238Y-14089952D01*
X8259286Y-14099476D01*
X8278333Y-14099476D01*
X8421190Y-14089952D02*
X8402143Y-14099476D01*
X8364048Y-14099476D01*
X8345000Y-14089952D01*
X8335476Y-14070905D01*
X8335476Y-13994714D01*
X8345000Y-13975667D01*
X8364048Y-13966143D01*
X8402143Y-13966143D01*
X8421190Y-13975667D01*
X8430714Y-13994714D01*
X8430714Y-14013762D01*
X8335476Y-14032809D01*
X8602143Y-14099476D02*
X8602143Y-13899476D01*
X8602143Y-14089952D02*
X8583095Y-14099476D01*
X8545000Y-14099476D01*
X8525952Y-14089952D01*
X8516429Y-14080428D01*
X8506905Y-14061381D01*
X8506905Y-14004238D01*
X8516429Y-13985190D01*
X8525952Y-13975667D01*
X8545000Y-13966143D01*
X8583095Y-13966143D01*
X8602143Y-13975667D01*
X8678333Y-14175667D02*
X8687857Y-14166143D01*
X8706905Y-14137571D01*
X8716429Y-14118524D01*
X8725952Y-14089952D01*
X8735476Y-14042333D01*
X8735476Y-14004238D01*
X8725952Y-13956619D01*
X8716429Y-13928048D01*
X8706905Y-13909000D01*
X8687857Y-13880428D01*
X8678333Y-13870905D01*
X1635000Y-14204000D02*
X1635000Y-14404000D01*
X1535000Y-14304000D02*
X1735000Y-14304000D01*
X1973571Y-14194476D02*
X2097381Y-14194476D01*
X2030714Y-14270667D01*
X2059286Y-14270667D01*
X2078333Y-14280190D01*
X2087857Y-14289714D01*
X2097381Y-14308762D01*
X2097381Y-14356381D01*
X2087857Y-14375428D01*
X2078333Y-14384952D01*
X2059286Y-14394476D01*
X2002143Y-14394476D01*
X1983095Y-14384952D01*
X1973571Y-14375428D01*
X2183095Y-14375428D02*
X2192619Y-14384952D01*
X2183095Y-14394476D01*
X2173571Y-14384952D01*
X2183095Y-14375428D01*
X2183095Y-14394476D01*
X2316429Y-14194476D02*
X2335476Y-14194476D01*
X2354524Y-14204000D01*
X2364048Y-14213524D01*
X2373571Y-14232571D01*
X2383095Y-14270667D01*
X2383095Y-14318286D01*
X2373571Y-14356381D01*
X2364048Y-14375428D01*
X2354524Y-14384952D01*
X2335476Y-14394476D01*
X2316429Y-14394476D01*
X2297381Y-14384952D01*
X2287857Y-14375428D01*
X2278333Y-14356381D01*
X2268810Y-14318286D01*
X2268810Y-14270667D01*
X2278333Y-14232571D01*
X2287857Y-14213524D01*
X2297381Y-14204000D01*
X2316429Y-14194476D01*
X2564048Y-14194476D02*
X2468810Y-14194476D01*
X2459286Y-14289714D01*
X2468810Y-14280190D01*
X2487857Y-14270667D01*
X2535476Y-14270667D01*
X2554524Y-14280190D01*
X2564048Y-14289714D01*
X2573571Y-14308762D01*
X2573571Y-14356381D01*
X2564048Y-14375428D01*
X2554524Y-14384952D01*
X2535476Y-14394476D01*
X2487857Y-14394476D01*
X2468810Y-14384952D01*
X2459286Y-14375428D01*
X2697381Y-14194476D02*
X2716429Y-14194476D01*
X2735476Y-14204000D01*
X2745000Y-14213524D01*
X2754524Y-14232571D01*
X2764048Y-14270667D01*
X2764048Y-14318286D01*
X2754524Y-14356381D01*
X2745000Y-14375428D01*
X2735476Y-14384952D01*
X2716429Y-14394476D01*
X2697381Y-14394476D01*
X2678333Y-14384952D01*
X2668810Y-14375428D01*
X2659286Y-14356381D01*
X2649762Y-14318286D01*
X2649762Y-14270667D01*
X2659286Y-14232571D01*
X2668810Y-14213524D01*
X2678333Y-14204000D01*
X2697381Y-14194476D01*
X2849762Y-14394476D02*
X2849762Y-14261143D01*
X2849762Y-14280190D02*
X2859286Y-14270667D01*
X2878333Y-14261143D01*
X2906905Y-14261143D01*
X2925952Y-14270667D01*
X2935476Y-14289714D01*
X2935476Y-14394476D01*
X2935476Y-14289714D02*
X2945000Y-14270667D01*
X2964048Y-14261143D01*
X2992619Y-14261143D01*
X3011667Y-14270667D01*
X3021190Y-14289714D01*
X3021190Y-14394476D01*
X3116428Y-14394476D02*
X3116428Y-14261143D01*
X3116428Y-14280190D02*
X3125952Y-14270667D01*
X3145000Y-14261143D01*
X3173571Y-14261143D01*
X3192619Y-14270667D01*
X3202143Y-14289714D01*
X3202143Y-14394476D01*
X3202143Y-14289714D02*
X3211667Y-14270667D01*
X3230714Y-14261143D01*
X3259286Y-14261143D01*
X3278333Y-14270667D01*
X3287857Y-14289714D01*
X3287857Y-14394476D01*
X3678333Y-14184952D02*
X3506905Y-14442095D01*
X3935476Y-14194476D02*
X3954524Y-14194476D01*
X3973571Y-14204000D01*
X3983095Y-14213524D01*
X3992619Y-14232571D01*
X4002143Y-14270667D01*
X4002143Y-14318286D01*
X3992619Y-14356381D01*
X3983095Y-14375428D01*
X3973571Y-14384952D01*
X3954524Y-14394476D01*
X3935476Y-14394476D01*
X3916428Y-14384952D01*
X3906905Y-14375428D01*
X3897381Y-14356381D01*
X3887857Y-14318286D01*
X3887857Y-14270667D01*
X3897381Y-14232571D01*
X3906905Y-14213524D01*
X3916428Y-14204000D01*
X3935476Y-14194476D01*
X4087857Y-14375428D02*
X4097381Y-14384952D01*
X4087857Y-14394476D01*
X4078333Y-14384952D01*
X4087857Y-14375428D01*
X4087857Y-14394476D01*
X4287857Y-14394476D02*
X4173571Y-14394476D01*
X4230714Y-14394476D02*
X4230714Y-14194476D01*
X4211667Y-14223048D01*
X4192619Y-14242095D01*
X4173571Y-14251619D01*
X4364048Y-14213524D02*
X4373571Y-14204000D01*
X4392619Y-14194476D01*
X4440238Y-14194476D01*
X4459286Y-14204000D01*
X4468810Y-14213524D01*
X4478333Y-14232571D01*
X4478333Y-14251619D01*
X4468810Y-14280190D01*
X4354524Y-14394476D01*
X4478333Y-14394476D01*
X4602143Y-14194476D02*
X4621190Y-14194476D01*
X4640238Y-14204000D01*
X4649762Y-14213524D01*
X4659286Y-14232571D01*
X4668810Y-14270667D01*
X4668810Y-14318286D01*
X4659286Y-14356381D01*
X4649762Y-14375428D01*
X4640238Y-14384952D01*
X4621190Y-14394476D01*
X4602143Y-14394476D01*
X4583095Y-14384952D01*
X4573571Y-14375428D01*
X4564048Y-14356381D01*
X4554524Y-14318286D01*
X4554524Y-14270667D01*
X4564048Y-14232571D01*
X4573571Y-14213524D01*
X4583095Y-14204000D01*
X4602143Y-14194476D01*
X4859286Y-14394476D02*
X4745000Y-14394476D01*
X4802143Y-14394476D02*
X4802143Y-14194476D01*
X4783095Y-14223048D01*
X4764048Y-14242095D01*
X4745000Y-14251619D01*
X4935476Y-14194476D02*
X4935476Y-14232571D01*
X5011667Y-14194476D02*
X5011667Y-14232571D01*
X5306905Y-14470667D02*
X5297381Y-14461143D01*
X5278333Y-14432571D01*
X5268810Y-14413524D01*
X5259286Y-14384952D01*
X5249762Y-14337333D01*
X5249762Y-14299238D01*
X5259286Y-14251619D01*
X5268810Y-14223048D01*
X5278333Y-14204000D01*
X5297381Y-14175428D01*
X5306905Y-14165905D01*
X5373571Y-14213524D02*
X5383095Y-14204000D01*
X5402143Y-14194476D01*
X5449762Y-14194476D01*
X5468810Y-14204000D01*
X5478333Y-14213524D01*
X5487857Y-14232571D01*
X5487857Y-14251619D01*
X5478333Y-14280190D01*
X5364048Y-14394476D01*
X5487857Y-14394476D01*
X5602143Y-14280190D02*
X5583095Y-14270667D01*
X5573571Y-14261143D01*
X5564048Y-14242095D01*
X5564048Y-14232571D01*
X5573571Y-14213524D01*
X5583095Y-14204000D01*
X5602143Y-14194476D01*
X5640238Y-14194476D01*
X5659286Y-14204000D01*
X5668809Y-14213524D01*
X5678333Y-14232571D01*
X5678333Y-14242095D01*
X5668809Y-14261143D01*
X5659286Y-14270667D01*
X5640238Y-14280190D01*
X5602143Y-14280190D01*
X5583095Y-14289714D01*
X5573571Y-14299238D01*
X5564048Y-14318286D01*
X5564048Y-14356381D01*
X5573571Y-14375428D01*
X5583095Y-14384952D01*
X5602143Y-14394476D01*
X5640238Y-14394476D01*
X5659286Y-14384952D01*
X5668809Y-14375428D01*
X5678333Y-14356381D01*
X5678333Y-14318286D01*
X5668809Y-14299238D01*
X5659286Y-14289714D01*
X5640238Y-14280190D01*
X5916428Y-14394476D02*
X5916428Y-14194476D01*
X6002143Y-14394476D02*
X6002143Y-14289714D01*
X5992619Y-14270667D01*
X5973571Y-14261143D01*
X5945000Y-14261143D01*
X5925952Y-14270667D01*
X5916428Y-14280190D01*
X6125952Y-14394476D02*
X6106905Y-14384952D01*
X6097381Y-14375428D01*
X6087857Y-14356381D01*
X6087857Y-14299238D01*
X6097381Y-14280190D01*
X6106905Y-14270667D01*
X6125952Y-14261143D01*
X6154524Y-14261143D01*
X6173571Y-14270667D01*
X6183095Y-14280190D01*
X6192619Y-14299238D01*
X6192619Y-14356381D01*
X6183095Y-14375428D01*
X6173571Y-14384952D01*
X6154524Y-14394476D01*
X6125952Y-14394476D01*
X6306905Y-14394476D02*
X6287857Y-14384952D01*
X6278333Y-14365905D01*
X6278333Y-14194476D01*
X6459286Y-14384952D02*
X6440238Y-14394476D01*
X6402143Y-14394476D01*
X6383095Y-14384952D01*
X6373571Y-14365905D01*
X6373571Y-14289714D01*
X6383095Y-14270667D01*
X6402143Y-14261143D01*
X6440238Y-14261143D01*
X6459286Y-14270667D01*
X6468809Y-14289714D01*
X6468809Y-14308762D01*
X6373571Y-14327809D01*
X6545000Y-14384952D02*
X6564048Y-14394476D01*
X6602143Y-14394476D01*
X6621190Y-14384952D01*
X6630714Y-14365905D01*
X6630714Y-14356381D01*
X6621190Y-14337333D01*
X6602143Y-14327809D01*
X6573571Y-14327809D01*
X6554524Y-14318286D01*
X6545000Y-14299238D01*
X6545000Y-14289714D01*
X6554524Y-14270667D01*
X6573571Y-14261143D01*
X6602143Y-14261143D01*
X6621190Y-14270667D01*
X6697381Y-14470667D02*
X6706905Y-14461143D01*
X6725952Y-14432571D01*
X6735476Y-14413524D01*
X6745000Y-14384952D01*
X6754524Y-14337333D01*
X6754524Y-14299238D01*
X6745000Y-14251619D01*
X6735476Y-14223048D01*
X6725952Y-14204000D01*
X6706905Y-14175428D01*
X6697381Y-14165905D01*
X7059286Y-14470667D02*
X7049762Y-14461143D01*
X7030714Y-14432571D01*
X7021190Y-14413524D01*
X7011667Y-14384952D01*
X7002143Y-14337333D01*
X7002143Y-14299238D01*
X7011667Y-14251619D01*
X7021190Y-14223048D01*
X7030714Y-14204000D01*
X7049762Y-14175428D01*
X7059286Y-14165905D01*
X7135476Y-14261143D02*
X7135476Y-14394476D01*
X7135476Y-14280190D02*
X7145000Y-14270667D01*
X7164048Y-14261143D01*
X7192619Y-14261143D01*
X7211667Y-14270667D01*
X7221190Y-14289714D01*
X7221190Y-14394476D01*
X7345000Y-14394476D02*
X7325952Y-14384952D01*
X7316428Y-14375428D01*
X7306905Y-14356381D01*
X7306905Y-14299238D01*
X7316428Y-14280190D01*
X7325952Y-14270667D01*
X7345000Y-14261143D01*
X7373571Y-14261143D01*
X7392619Y-14270667D01*
X7402143Y-14280190D01*
X7411667Y-14299238D01*
X7411667Y-14356381D01*
X7402143Y-14375428D01*
X7392619Y-14384952D01*
X7373571Y-14394476D01*
X7345000Y-14394476D01*
X7468809Y-14261143D02*
X7545000Y-14261143D01*
X7497381Y-14194476D02*
X7497381Y-14365905D01*
X7506905Y-14384952D01*
X7525952Y-14394476D01*
X7545000Y-14394476D01*
X7764048Y-14261143D02*
X7764048Y-14461143D01*
X7764048Y-14270667D02*
X7783095Y-14261143D01*
X7821190Y-14261143D01*
X7840238Y-14270667D01*
X7849762Y-14280190D01*
X7859286Y-14299238D01*
X7859286Y-14356381D01*
X7849762Y-14375428D01*
X7840238Y-14384952D01*
X7821190Y-14394476D01*
X7783095Y-14394476D01*
X7764048Y-14384952D01*
X7973571Y-14394476D02*
X7954524Y-14384952D01*
X7945000Y-14365905D01*
X7945000Y-14194476D01*
X8135476Y-14394476D02*
X8135476Y-14289714D01*
X8125952Y-14270667D01*
X8106905Y-14261143D01*
X8068809Y-14261143D01*
X8049762Y-14270667D01*
X8135476Y-14384952D02*
X8116428Y-14394476D01*
X8068809Y-14394476D01*
X8049762Y-14384952D01*
X8040238Y-14365905D01*
X8040238Y-14346857D01*
X8049762Y-14327809D01*
X8068809Y-14318286D01*
X8116428Y-14318286D01*
X8135476Y-14308762D01*
X8202143Y-14261143D02*
X8278333Y-14261143D01*
X8230714Y-14194476D02*
X8230714Y-14365905D01*
X8240238Y-14384952D01*
X8259286Y-14394476D01*
X8278333Y-14394476D01*
X8421190Y-14384952D02*
X8402143Y-14394476D01*
X8364048Y-14394476D01*
X8345000Y-14384952D01*
X8335476Y-14365905D01*
X8335476Y-14289714D01*
X8345000Y-14270667D01*
X8364048Y-14261143D01*
X8402143Y-14261143D01*
X8421190Y-14270667D01*
X8430714Y-14289714D01*
X8430714Y-14308762D01*
X8335476Y-14327809D01*
X8602143Y-14394476D02*
X8602143Y-14194476D01*
X8602143Y-14384952D02*
X8583095Y-14394476D01*
X8545000Y-14394476D01*
X8525952Y-14384952D01*
X8516429Y-14375428D01*
X8506905Y-14356381D01*
X8506905Y-14299238D01*
X8516429Y-14280190D01*
X8525952Y-14270667D01*
X8545000Y-14261143D01*
X8583095Y-14261143D01*
X8602143Y-14270667D01*
X8678333Y-14470667D02*
X8687857Y-14461143D01*
X8706905Y-14432571D01*
X8716429Y-14413524D01*
X8725952Y-14384952D01*
X8735476Y-14337333D01*
X8735476Y-14299238D01*
X8725952Y-14251619D01*
X8716429Y-14223048D01*
X8706905Y-14204000D01*
X8687857Y-14175428D01*
X8678333Y-14165905D01*
X1705711Y-14694711D02*
X1705711Y-14553289D01*
X1564289Y-14553289D01*
X1564289Y-14694711D01*
X1705711Y-14694711D01*
X2078333Y-14581143D02*
X2078333Y-14714476D01*
X2030714Y-14504952D02*
X1983095Y-14647809D01*
X2106905Y-14647809D01*
X2183095Y-14695428D02*
X2192619Y-14704952D01*
X2183095Y-14714476D01*
X2173571Y-14704952D01*
X2183095Y-14695428D01*
X2183095Y-14714476D01*
X2316429Y-14514476D02*
X2335476Y-14514476D01*
X2354524Y-14524000D01*
X2364048Y-14533524D01*
X2373571Y-14552571D01*
X2383095Y-14590667D01*
X2383095Y-14638286D01*
X2373571Y-14676381D01*
X2364048Y-14695428D01*
X2354524Y-14704952D01*
X2335476Y-14714476D01*
X2316429Y-14714476D01*
X2297381Y-14704952D01*
X2287857Y-14695428D01*
X2278333Y-14676381D01*
X2268810Y-14638286D01*
X2268810Y-14590667D01*
X2278333Y-14552571D01*
X2287857Y-14533524D01*
X2297381Y-14524000D01*
X2316429Y-14514476D01*
X2506905Y-14514476D02*
X2525952Y-14514476D01*
X2545000Y-14524000D01*
X2554524Y-14533524D01*
X2564048Y-14552571D01*
X2573571Y-14590667D01*
X2573571Y-14638286D01*
X2564048Y-14676381D01*
X2554524Y-14695428D01*
X2545000Y-14704952D01*
X2525952Y-14714476D01*
X2506905Y-14714476D01*
X2487857Y-14704952D01*
X2478333Y-14695428D01*
X2468810Y-14676381D01*
X2459286Y-14638286D01*
X2459286Y-14590667D01*
X2468810Y-14552571D01*
X2478333Y-14533524D01*
X2487857Y-14524000D01*
X2506905Y-14514476D01*
X2697381Y-14514476D02*
X2716429Y-14514476D01*
X2735476Y-14524000D01*
X2745000Y-14533524D01*
X2754524Y-14552571D01*
X2764048Y-14590667D01*
X2764048Y-14638286D01*
X2754524Y-14676381D01*
X2745000Y-14695428D01*
X2735476Y-14704952D01*
X2716429Y-14714476D01*
X2697381Y-14714476D01*
X2678333Y-14704952D01*
X2668810Y-14695428D01*
X2659286Y-14676381D01*
X2649762Y-14638286D01*
X2649762Y-14590667D01*
X2659286Y-14552571D01*
X2668810Y-14533524D01*
X2678333Y-14524000D01*
X2697381Y-14514476D01*
X2849762Y-14714476D02*
X2849762Y-14581143D01*
X2849762Y-14600190D02*
X2859286Y-14590667D01*
X2878333Y-14581143D01*
X2906905Y-14581143D01*
X2925952Y-14590667D01*
X2935476Y-14609714D01*
X2935476Y-14714476D01*
X2935476Y-14609714D02*
X2945000Y-14590667D01*
X2964048Y-14581143D01*
X2992619Y-14581143D01*
X3011667Y-14590667D01*
X3021190Y-14609714D01*
X3021190Y-14714476D01*
X3116428Y-14714476D02*
X3116428Y-14581143D01*
X3116428Y-14600190D02*
X3125952Y-14590667D01*
X3145000Y-14581143D01*
X3173571Y-14581143D01*
X3192619Y-14590667D01*
X3202143Y-14609714D01*
X3202143Y-14714476D01*
X3202143Y-14609714D02*
X3211667Y-14590667D01*
X3230714Y-14581143D01*
X3259286Y-14581143D01*
X3278333Y-14590667D01*
X3287857Y-14609714D01*
X3287857Y-14714476D01*
X3678333Y-14504952D02*
X3506905Y-14762095D01*
X3935476Y-14514476D02*
X3954524Y-14514476D01*
X3973571Y-14524000D01*
X3983095Y-14533524D01*
X3992619Y-14552571D01*
X4002143Y-14590667D01*
X4002143Y-14638286D01*
X3992619Y-14676381D01*
X3983095Y-14695428D01*
X3973571Y-14704952D01*
X3954524Y-14714476D01*
X3935476Y-14714476D01*
X3916428Y-14704952D01*
X3906905Y-14695428D01*
X3897381Y-14676381D01*
X3887857Y-14638286D01*
X3887857Y-14590667D01*
X3897381Y-14552571D01*
X3906905Y-14533524D01*
X3916428Y-14524000D01*
X3935476Y-14514476D01*
X4087857Y-14695428D02*
X4097381Y-14704952D01*
X4087857Y-14714476D01*
X4078333Y-14704952D01*
X4087857Y-14695428D01*
X4087857Y-14714476D01*
X4287857Y-14714476D02*
X4173571Y-14714476D01*
X4230714Y-14714476D02*
X4230714Y-14514476D01*
X4211667Y-14543048D01*
X4192619Y-14562095D01*
X4173571Y-14571619D01*
X4468810Y-14514476D02*
X4373571Y-14514476D01*
X4364048Y-14609714D01*
X4373571Y-14600190D01*
X4392619Y-14590667D01*
X4440238Y-14590667D01*
X4459286Y-14600190D01*
X4468810Y-14609714D01*
X4478333Y-14628762D01*
X4478333Y-14676381D01*
X4468810Y-14695428D01*
X4459286Y-14704952D01*
X4440238Y-14714476D01*
X4392619Y-14714476D01*
X4373571Y-14704952D01*
X4364048Y-14695428D01*
X4545000Y-14514476D02*
X4678333Y-14514476D01*
X4592619Y-14714476D01*
X4849762Y-14514476D02*
X4754524Y-14514476D01*
X4745000Y-14609714D01*
X4754524Y-14600190D01*
X4773571Y-14590667D01*
X4821190Y-14590667D01*
X4840238Y-14600190D01*
X4849762Y-14609714D01*
X4859286Y-14628762D01*
X4859286Y-14676381D01*
X4849762Y-14695428D01*
X4840238Y-14704952D01*
X4821190Y-14714476D01*
X4773571Y-14714476D01*
X4754524Y-14704952D01*
X4745000Y-14695428D01*
X4935476Y-14514476D02*
X4935476Y-14552571D01*
X5011667Y-14514476D02*
X5011667Y-14552571D01*
X5306905Y-14790667D02*
X5297381Y-14781143D01*
X5278333Y-14752571D01*
X5268810Y-14733524D01*
X5259286Y-14704952D01*
X5249762Y-14657333D01*
X5249762Y-14619238D01*
X5259286Y-14571619D01*
X5268810Y-14543048D01*
X5278333Y-14524000D01*
X5297381Y-14495428D01*
X5306905Y-14485905D01*
X5487857Y-14714476D02*
X5373571Y-14714476D01*
X5430714Y-14714476D02*
X5430714Y-14514476D01*
X5411667Y-14543048D01*
X5392619Y-14562095D01*
X5373571Y-14571619D01*
X5659286Y-14581143D02*
X5659286Y-14714476D01*
X5611667Y-14504952D02*
X5564048Y-14647809D01*
X5687857Y-14647809D01*
X5916428Y-14714476D02*
X5916428Y-14514476D01*
X6002143Y-14714476D02*
X6002143Y-14609714D01*
X5992619Y-14590667D01*
X5973571Y-14581143D01*
X5945000Y-14581143D01*
X5925952Y-14590667D01*
X5916428Y-14600190D01*
X6125952Y-14714476D02*
X6106905Y-14704952D01*
X6097381Y-14695428D01*
X6087857Y-14676381D01*
X6087857Y-14619238D01*
X6097381Y-14600190D01*
X6106905Y-14590667D01*
X6125952Y-14581143D01*
X6154524Y-14581143D01*
X6173571Y-14590667D01*
X6183095Y-14600190D01*
X6192619Y-14619238D01*
X6192619Y-14676381D01*
X6183095Y-14695428D01*
X6173571Y-14704952D01*
X6154524Y-14714476D01*
X6125952Y-14714476D01*
X6306905Y-14714476D02*
X6287857Y-14704952D01*
X6278333Y-14685905D01*
X6278333Y-14514476D01*
X6459286Y-14704952D02*
X6440238Y-14714476D01*
X6402143Y-14714476D01*
X6383095Y-14704952D01*
X6373571Y-14685905D01*
X6373571Y-14609714D01*
X6383095Y-14590667D01*
X6402143Y-14581143D01*
X6440238Y-14581143D01*
X6459286Y-14590667D01*
X6468809Y-14609714D01*
X6468809Y-14628762D01*
X6373571Y-14647809D01*
X6545000Y-14704952D02*
X6564048Y-14714476D01*
X6602143Y-14714476D01*
X6621190Y-14704952D01*
X6630714Y-14685905D01*
X6630714Y-14676381D01*
X6621190Y-14657333D01*
X6602143Y-14647809D01*
X6573571Y-14647809D01*
X6554524Y-14638286D01*
X6545000Y-14619238D01*
X6545000Y-14609714D01*
X6554524Y-14590667D01*
X6573571Y-14581143D01*
X6602143Y-14581143D01*
X6621190Y-14590667D01*
X6697381Y-14790667D02*
X6706905Y-14781143D01*
X6725952Y-14752571D01*
X6735476Y-14733524D01*
X6745000Y-14704952D01*
X6754524Y-14657333D01*
X6754524Y-14619238D01*
X6745000Y-14571619D01*
X6735476Y-14543048D01*
X6725952Y-14524000D01*
X6706905Y-14495428D01*
X6697381Y-14485905D01*
X7059286Y-14790667D02*
X7049762Y-14781143D01*
X7030714Y-14752571D01*
X7021190Y-14733524D01*
X7011667Y-14704952D01*
X7002143Y-14657333D01*
X7002143Y-14619238D01*
X7011667Y-14571619D01*
X7021190Y-14543048D01*
X7030714Y-14524000D01*
X7049762Y-14495428D01*
X7059286Y-14485905D01*
X7135476Y-14581143D02*
X7135476Y-14714476D01*
X7135476Y-14600190D02*
X7145000Y-14590667D01*
X7164048Y-14581143D01*
X7192619Y-14581143D01*
X7211667Y-14590667D01*
X7221190Y-14609714D01*
X7221190Y-14714476D01*
X7345000Y-14714476D02*
X7325952Y-14704952D01*
X7316428Y-14695428D01*
X7306905Y-14676381D01*
X7306905Y-14619238D01*
X7316428Y-14600190D01*
X7325952Y-14590667D01*
X7345000Y-14581143D01*
X7373571Y-14581143D01*
X7392619Y-14590667D01*
X7402143Y-14600190D01*
X7411667Y-14619238D01*
X7411667Y-14676381D01*
X7402143Y-14695428D01*
X7392619Y-14704952D01*
X7373571Y-14714476D01*
X7345000Y-14714476D01*
X7468809Y-14581143D02*
X7545000Y-14581143D01*
X7497381Y-14514476D02*
X7497381Y-14685905D01*
X7506905Y-14704952D01*
X7525952Y-14714476D01*
X7545000Y-14714476D01*
X7764048Y-14581143D02*
X7764048Y-14781143D01*
X7764048Y-14590667D02*
X7783095Y-14581143D01*
X7821190Y-14581143D01*
X7840238Y-14590667D01*
X7849762Y-14600190D01*
X7859286Y-14619238D01*
X7859286Y-14676381D01*
X7849762Y-14695428D01*
X7840238Y-14704952D01*
X7821190Y-14714476D01*
X7783095Y-14714476D01*
X7764048Y-14704952D01*
X7973571Y-14714476D02*
X7954524Y-14704952D01*
X7945000Y-14685905D01*
X7945000Y-14514476D01*
X8135476Y-14714476D02*
X8135476Y-14609714D01*
X8125952Y-14590667D01*
X8106905Y-14581143D01*
X8068809Y-14581143D01*
X8049762Y-14590667D01*
X8135476Y-14704952D02*
X8116428Y-14714476D01*
X8068809Y-14714476D01*
X8049762Y-14704952D01*
X8040238Y-14685905D01*
X8040238Y-14666857D01*
X8049762Y-14647809D01*
X8068809Y-14638286D01*
X8116428Y-14638286D01*
X8135476Y-14628762D01*
X8202143Y-14581143D02*
X8278333Y-14581143D01*
X8230714Y-14514476D02*
X8230714Y-14685905D01*
X8240238Y-14704952D01*
X8259286Y-14714476D01*
X8278333Y-14714476D01*
X8421190Y-14704952D02*
X8402143Y-14714476D01*
X8364048Y-14714476D01*
X8345000Y-14704952D01*
X8335476Y-14685905D01*
X8335476Y-14609714D01*
X8345000Y-14590667D01*
X8364048Y-14581143D01*
X8402143Y-14581143D01*
X8421190Y-14590667D01*
X8430714Y-14609714D01*
X8430714Y-14628762D01*
X8335476Y-14647809D01*
X8602143Y-14714476D02*
X8602143Y-14514476D01*
X8602143Y-14704952D02*
X8583095Y-14714476D01*
X8545000Y-14714476D01*
X8525952Y-14704952D01*
X8516429Y-14695428D01*
X8506905Y-14676381D01*
X8506905Y-14619238D01*
X8516429Y-14600190D01*
X8525952Y-14590667D01*
X8545000Y-14581143D01*
X8583095Y-14581143D01*
X8602143Y-14590667D01*
X8678333Y-14790667D02*
X8687857Y-14781143D01*
X8706905Y-14752571D01*
X8716429Y-14733524D01*
X8725952Y-14704952D01*
X8735476Y-14657333D01*
X8735476Y-14619238D01*
X8725952Y-14571619D01*
X8716429Y-14543048D01*
X8706905Y-14524000D01*
X8687857Y-14495428D01*
X8678333Y-14485905D01*
M02*
