M48
; DRILL file {KiCad 9.0.1} date 2025-04-23T11:08:12-0400
; FORMAT={-:-/ absolute / metric / decimal}
; #@! TF.CreationDate,2025-04-23T11:08:12-04:00
; #@! TF.GenerationSoftware,Kicad,Pcbnew,9.0.1
; #@! TF.FileFunction,Plated,1,2,PTH
FMAT,2
METRIC
; #@! TA.AperFunction,Plated,PTH,ViaDrill
T1C0.300
; #@! TA.AperFunction,Plated,PTH,ComponentDrill
T2C0.350
; #@! TA.AperFunction,Plated,PTH,ComponentDrill
T3C0.600
; #@! TA.AperFunction,Plated,PTH,ComponentDrill
T4C0.750
; #@! TA.AperFunction,Plated,PTH,ComponentDrill
T5C1.000
%
G90
G05
T1
X25.182Y-33.96
X25.72Y-43.6
X26.81Y-42.57
X27.98Y-41.553
X28.53Y-67.17
X28.53Y-70.4
X29.12Y-40.53
X30.14Y-44.3
X30.36Y-115.18
X31.3Y-44.02
X33.152Y-31.12
X33.22Y-44.79
X33.98Y-44.81
X34.26Y-65.32
X35.05Y-24.56
X35.383Y-35.16
X37.002Y-45.05
X37.758Y-35.842
X43.84Y-34.17
X43.84Y-36.01
X44.87Y-114.6
T2
X34.533Y-39.015
X34.533Y-40.29
X34.533Y-41.565
X35.808Y-39.015
X35.808Y-40.29
X35.808Y-41.565
X37.083Y-39.015
X37.083Y-40.29
X37.083Y-41.565
T4
X61.0Y-27.0
X61.0Y-42.0
X61.0Y-57.0
X61.0Y-72.0
X61.0Y-87.0
X61.0Y-102.0
X61.0Y-117.0
X61.0Y-132.0
X63.0Y-27.0
X63.0Y-42.0
X63.0Y-57.0
X63.0Y-72.0
X63.0Y-87.0
X63.0Y-102.0
X63.0Y-117.0
X63.0Y-132.0
X76.0Y-27.0
X76.0Y-42.0
X76.0Y-57.0
X76.0Y-72.0
X76.0Y-87.0
X76.0Y-102.0
X76.0Y-117.0
X76.0Y-132.0
X78.0Y-27.0
X78.0Y-42.0
X78.0Y-57.0
X78.0Y-72.0
X78.0Y-87.0
X78.0Y-102.0
X78.0Y-117.0
X78.0Y-132.0
X91.0Y-27.0
X91.0Y-42.0
X91.0Y-57.0
X91.0Y-72.0
X91.0Y-87.0
X91.0Y-102.0
X91.0Y-117.0
X91.0Y-132.0
X93.0Y-27.0
X93.0Y-42.0
X93.0Y-57.0
X93.0Y-72.0
X93.0Y-87.0
X93.0Y-102.0
X93.0Y-117.0
X93.0Y-132.0
X106.0Y-27.0
X106.0Y-42.0
X106.0Y-57.0
X106.0Y-72.0
X106.0Y-87.0
X106.0Y-102.0
X106.0Y-117.0
X106.0Y-132.0
X108.0Y-27.0
X108.0Y-42.0
X108.0Y-57.0
X108.0Y-72.0
X108.0Y-87.0
X108.0Y-102.0
X108.0Y-117.0
X108.0Y-132.0
X121.0Y-27.0
X121.0Y-42.0
X121.0Y-57.0
X121.0Y-72.0
X121.0Y-87.0
X121.0Y-102.0
X121.0Y-117.0
X121.0Y-132.0
X123.0Y-27.0
X123.0Y-42.0
X123.0Y-57.0
X123.0Y-72.0
X123.0Y-87.0
X123.0Y-102.0
X123.0Y-117.0
X123.0Y-132.0
X136.0Y-27.0
X136.0Y-42.0
X136.0Y-57.0
X136.0Y-72.0
X136.0Y-87.0
X136.0Y-102.0
X136.0Y-117.0
X136.0Y-132.0
X138.0Y-27.0
X138.0Y-42.0
X138.0Y-57.0
X138.0Y-72.0
X138.0Y-87.0
X138.0Y-102.0
X138.0Y-117.0
X138.0Y-132.0
X151.0Y-27.0
X151.0Y-42.0
X151.0Y-57.0
X151.0Y-72.0
X151.0Y-87.0
X151.0Y-102.0
X151.0Y-117.0
X151.0Y-132.0
X153.0Y-27.0
X153.0Y-42.0
X153.0Y-57.0
X153.0Y-72.0
X153.0Y-87.0
X153.0Y-102.0
X153.0Y-117.0
X153.0Y-132.0
X166.0Y-27.0
X166.0Y-42.0
X166.0Y-57.0
X166.0Y-72.0
X166.0Y-87.0
X166.0Y-102.0
X166.0Y-117.0
X166.0Y-132.0
X168.0Y-27.0
X168.0Y-42.0
X168.0Y-57.0
X168.0Y-72.0
X168.0Y-87.0
X168.0Y-102.0
X168.0Y-117.0
X168.0Y-132.0
T5
X35.35Y-131.96
X37.89Y-131.96
X40.43Y-131.96
X42.97Y-131.96
X45.51Y-131.96
X48.05Y-131.96
T3
X34.57Y-21.68G85X34.57Y-22.48
G05
X34.57Y-25.7G85X34.57Y-26.8
G05
X43.21Y-21.68G85X43.21Y-22.48
G05
X43.21Y-25.7G85X43.21Y-26.8
G05
M30
