solid ASCII
  facet normal 1.000000e+00 -0.000000e+00 0.000000e+00
    outer loop
      vertex   2.164000e+02 2.575000e+01 -4.025000e+00
      vertex   2.164000e+02 2.575000e+01 -5.525000e+00
      vertex   2.164000e+02 2.675000e+01 -4.025000e+00
    endloop
  endfacet
  facet normal 1.000000e+00 0.000000e+00 0.000000e+00
    outer loop
      vertex   2.164000e+02 2.675000e+01 -4.025000e+00
      vertex   2.164000e+02 2.575000e+01 -5.525000e+00
      vertex   2.164000e+02 3.175000e+01 -5.525000e+00
    endloop
  endfacet
  facet normal 1.000000e+00 -0.000000e+00 0.000000e+00
    outer loop
      vertex   2.164000e+02 2.675000e+01 -4.025000e+00
      vertex   2.164000e+02 3.175000e+01 -5.525000e+00
      vertex   2.164000e+02 3.175000e+01 -1.525000e+00
    endloop
  endfacet
  facet normal 1.000000e+00 0.000000e+00 0.000000e+00
    outer loop
      vertex   2.164000e+02 3.175000e+01 -1.525000e+00
      vertex   2.164000e+02 2.675000e+01 -1.525000e+00
      vertex   2.164000e+02 2.675000e+01 -4.025000e+00
    endloop
  endfacet
  facet normal 0.000000e+00 -1.000000e+00 0.000000e+00
    outer loop
      vertex   2.294000e+02 3.175000e+01 -5.525000e+00
      vertex   2.294000e+02 3.175000e+01 -1.525000e+00
      vertex   2.164000e+02 3.175000e+01 -5.525000e+00
    endloop
  endfacet
  facet normal 0.000000e+00 -1.000000e+00 0.000000e+00
    outer loop
      vertex   2.164000e+02 3.175000e+01 -5.525000e+00
      vertex   2.294000e+02 3.175000e+01 -1.525000e+00
      vertex   2.164000e+02 3.175000e+01 -1.525000e+00
    endloop
  endfacet
  facet normal -1.000000e+00 0.000000e+00 -0.000000e+00
    outer loop
      vertex   2.294000e+02 3.175000e+01 -1.525000e+00
      vertex   2.294000e+02 3.175000e+01 -5.525000e+00
      vertex   2.294000e+02 2.675000e+01 -4.025000e+00
    endloop
  endfacet
  facet normal -1.000000e+00 0.000000e+00 -0.000000e+00
    outer loop
      vertex   2.294000e+02 2.675000e+01 -4.025000e+00
      vertex   2.294000e+02 3.175000e+01 -5.525000e+00
      vertex   2.294000e+02 2.575000e+01 -5.525000e+00
    endloop
  endfacet
  facet normal -1.000000e+00 -0.000000e+00 0.000000e+00
    outer loop
      vertex   2.294000e+02 2.675000e+01 -4.025000e+00
      vertex   2.294000e+02 2.575000e+01 -5.525000e+00
      vertex   2.294000e+02 2.575000e+01 -4.025000e+00
    endloop
  endfacet
  facet normal -1.000000e+00 0.000000e+00 0.000000e+00
    outer loop
      vertex   2.294000e+02 2.675000e+01 -4.025000e+00
      vertex   2.294000e+02 2.675000e+01 -1.525000e+00
      vertex   2.294000e+02 3.175000e+01 -1.525000e+00
    endloop
  endfacet
  facet normal -7.689856e-17 0.000000e+00 -1.000000e+00
    outer loop
      vertex   2.294000e+02 2.575000e+01 -5.525000e+00
      vertex   2.294000e+02 3.175000e+01 -5.525000e+00
      vertex   2.525000e+02 2.575000e+01 -5.525000e+00
    endloop
  endfacet
  facet normal -3.075943e-16 -8.881784e-16 -1.000000e+00
    outer loop
      vertex   2.525000e+02 2.575000e+01 -5.525000e+00
      vertex   2.294000e+02 3.175000e+01 -5.525000e+00
      vertex   2.525000e+02 3.375000e+01 -5.525000e+00
    endloop
  endfacet
  facet normal -0.000000e+00 -4.440892e-15 -1.000000e+00
    outer loop
      vertex   2.525000e+02 3.375000e+01 -5.525000e+00
      vertex   2.294000e+02 3.175000e+01 -5.525000e+00
      vertex   2.004000e+02 3.375000e+01 -5.525000e+00
    endloop
  endfacet
  facet normal 0.000000e+00 -4.440892e-15 -1.000000e+00
    outer loop
      vertex   2.004000e+02 3.375000e+01 -5.525000e+00
      vertex   2.294000e+02 3.175000e+01 -5.525000e+00
      vertex   2.164000e+02 3.175000e+01 -5.525000e+00
    endloop
  endfacet
  facet normal 4.440892e-16 -8.881784e-16 -1.000000e+00
    outer loop
      vertex   2.004000e+02 3.375000e+01 -5.525000e+00
      vertex   2.164000e+02 3.175000e+01 -5.525000e+00
      vertex   2.004000e+02 2.575000e+01 -5.525000e+00
    endloop
  endfacet
  facet normal 1.110223e-16 0.000000e+00 -1.000000e+00
    outer loop
      vertex   2.004000e+02 2.575000e+01 -5.525000e+00
      vertex   2.164000e+02 3.175000e+01 -5.525000e+00
      vertex   2.164000e+02 2.575000e+01 -5.525000e+00
    endloop
  endfacet
  facet normal 0.000000e+00 -1.000000e+00 0.000000e+00
    outer loop
      vertex   2.294000e+02 2.575000e+01 -4.025000e+00
      vertex   2.294000e+02 2.575000e+01 -5.525000e+00
      vertex   2.490000e+02 2.575000e+01 -4.025000e+00
    endloop
  endfacet
  facet normal 0.000000e+00 -1.000000e+00 -0.000000e+00
    outer loop
      vertex   2.490000e+02 2.575000e+01 -4.025000e+00
      vertex   2.294000e+02 2.575000e+01 -5.525000e+00
      vertex   2.525000e+02 2.575000e+01 -5.525000e+00
    endloop
  endfacet
  facet normal 0.000000e+00 -1.000000e+00 0.000000e+00
    outer loop
      vertex   2.490000e+02 2.575000e+01 -4.025000e+00
      vertex   2.525000e+02 2.575000e+01 -5.525000e+00
      vertex   2.525000e+02 2.575000e+01 9.972500e+01
    endloop
  endfacet
  facet normal 0.000000e+00 -1.000000e+00 0.000000e+00
    outer loop
      vertex   2.490000e+02 2.575000e+01 -4.025000e+00
      vertex   2.525000e+02 2.575000e+01 9.972500e+01
      vertex   2.490000e+02 2.575000e+01 9.822500e+01
    endloop
  endfacet
  facet normal 0.000000e+00 -1.000000e+00 0.000000e+00
    outer loop
      vertex   2.490000e+02 2.575000e+01 9.822500e+01
      vertex   2.525000e+02 2.575000e+01 9.972500e+01
      vertex   2.004000e+02 2.575000e+01 9.972500e+01
    endloop
  endfacet
  facet normal 0.000000e+00 -1.000000e+00 0.000000e+00
    outer loop
      vertex   2.490000e+02 2.575000e+01 9.822500e+01
      vertex   2.004000e+02 2.575000e+01 9.972500e+01
      vertex   2.039000e+02 2.575000e+01 9.822500e+01
    endloop
  endfacet
  facet normal -0.000000e+00 -1.000000e+00 0.000000e+00
    outer loop
      vertex   2.039000e+02 2.575000e+01 9.822500e+01
      vertex   2.004000e+02 2.575000e+01 9.972500e+01
      vertex   2.004000e+02 2.575000e+01 -5.525000e+00
    endloop
  endfacet
  facet normal 0.000000e+00 -1.000000e+00 -0.000000e+00
    outer loop
      vertex   2.039000e+02 2.575000e+01 9.822500e+01
      vertex   2.004000e+02 2.575000e+01 -5.525000e+00
      vertex   2.039000e+02 2.575000e+01 -4.025000e+00
    endloop
  endfacet
  facet normal 0.000000e+00 -1.000000e+00 -0.000000e+00
    outer loop
      vertex   2.039000e+02 2.575000e+01 -4.025000e+00
      vertex   2.004000e+02 2.575000e+01 -5.525000e+00
      vertex   2.164000e+02 2.575000e+01 -5.525000e+00
    endloop
  endfacet
  facet normal 0.000000e+00 -1.000000e+00 0.000000e+00
    outer loop
      vertex   2.039000e+02 2.575000e+01 -4.025000e+00
      vertex   2.164000e+02 2.575000e+01 -5.525000e+00
      vertex   2.164000e+02 2.575000e+01 -4.025000e+00
    endloop
  endfacet
  facet normal -7.105427e-17 0.000000e+00 1.000000e+00
    outer loop
      vertex   2.164000e+02 2.575000e+01 -4.025000e+00
      vertex   2.164000e+02 2.675000e+01 -4.025000e+00
      vertex   2.039000e+02 2.575000e+01 -4.025000e+00
    endloop
  endfacet
  facet normal -7.105427e-17 0.000000e+00 1.000000e+00
    outer loop
      vertex   2.039000e+02 2.575000e+01 -4.025000e+00
      vertex   2.164000e+02 2.675000e+01 -4.025000e+00
      vertex   2.039000e+02 2.675000e+01 -4.025000e+00
    endloop
  endfacet
  facet normal 0.000000e+00 -1.000000e+00 0.000000e+00
    outer loop
      vertex   2.465000e+02 3.275000e+01 -1.525000e+00
      vertex   2.465000e+02 3.275000e+01 9.572500e+01
      vertex   2.064000e+02 3.275000e+01 -1.525000e+00
    endloop
  endfacet
  facet normal 0.000000e+00 -1.000000e+00 0.000000e+00
    outer loop
      vertex   2.064000e+02 3.275000e+01 -1.525000e+00
      vertex   2.465000e+02 3.275000e+01 9.572500e+01
      vertex   2.064000e+02 3.275000e+01 9.572500e+01
    endloop
  endfacet
  facet normal 1.000000e+00 0.000000e+00 -0.000000e+00
    outer loop
      vertex   2.064000e+02 3.275000e+01 -1.525000e+00
      vertex   2.064000e+02 3.275000e+01 9.572500e+01
      vertex   2.064000e+02 2.675000e+01 -1.525000e+00
    endloop
  endfacet
  facet normal 1.000000e+00 0.000000e+00 0.000000e+00
    outer loop
      vertex   2.064000e+02 2.675000e+01 -1.525000e+00
      vertex   2.064000e+02 3.275000e+01 9.572500e+01
      vertex   2.064000e+02 2.675000e+01 9.572500e+01
    endloop
  endfacet
  facet normal 0.000000e+00 0.000000e+00 -1.000000e+00
    outer loop
      vertex   2.064000e+02 3.275000e+01 9.572500e+01
      vertex   2.465000e+02 3.275000e+01 9.572500e+01
      vertex   2.064000e+02 2.675000e+01 9.572500e+01
    endloop
  endfacet
  facet normal 0.000000e+00 0.000000e+00 -1.000000e+00
    outer loop
      vertex   2.064000e+02 2.675000e+01 9.572500e+01
      vertex   2.465000e+02 3.275000e+01 9.572500e+01
      vertex   2.465000e+02 2.675000e+01 9.572500e+01
    endloop
  endfacet
  facet normal 0.000000e+00 1.000000e+00 0.000000e+00
    outer loop
      vertex   2.525000e+02 3.375000e+01 9.972500e+01
      vertex   2.525000e+02 3.375000e+01 -5.525000e+00
      vertex   2.004000e+02 3.375000e+01 9.972500e+01
    endloop
  endfacet
  facet normal 0.000000e+00 1.000000e+00 0.000000e+00
    outer loop
      vertex   2.004000e+02 3.375000e+01 9.972500e+01
      vertex   2.525000e+02 3.375000e+01 -5.525000e+00
      vertex   2.004000e+02 3.375000e+01 -5.525000e+00
    endloop
  endfacet
  facet normal 0.000000e+00 -1.000000e+00 0.000000e+00
    outer loop
      vertex   2.294000e+02 2.675000e+01 -1.525000e+00
      vertex   2.294000e+02 2.675000e+01 -4.025000e+00
      vertex   2.465000e+02 2.675000e+01 -1.525000e+00
    endloop
  endfacet
  facet normal -3.625218e-16 -1.000000e+00 2.479649e-15
    outer loop
      vertex   2.465000e+02 2.675000e+01 -1.525000e+00
      vertex   2.294000e+02 2.675000e+01 -4.025000e+00
      vertex   2.490000e+02 2.675000e+01 -4.025000e+00
    endloop
  endfacet
  facet normal -2.842171e-15 -1.000000e+00 0.000000e+00
    outer loop
      vertex   2.465000e+02 2.675000e+01 -1.525000e+00
      vertex   2.490000e+02 2.675000e+01 -4.025000e+00
      vertex   2.490000e+02 2.675000e+01 9.822500e+01
    endloop
  endfacet
  facet normal -2.842171e-15 -1.000000e+00 0.000000e+00
    outer loop
      vertex   2.465000e+02 2.675000e+01 -1.525000e+00
      vertex   2.490000e+02 2.675000e+01 9.822500e+01
      vertex   2.465000e+02 2.675000e+01 9.572500e+01
    endloop
  endfacet
  facet normal 0.000000e+00 -1.000000e+00 -2.842171e-15
    outer loop
      vertex   2.465000e+02 2.675000e+01 9.572500e+01
      vertex   2.490000e+02 2.675000e+01 9.822500e+01
      vertex   2.039000e+02 2.675000e+01 9.822500e+01
    endloop
  endfacet
  facet normal -0.000000e+00 -1.000000e+00 -2.842171e-15
    outer loop
      vertex   2.465000e+02 2.675000e+01 9.572500e+01
      vertex   2.039000e+02 2.675000e+01 9.822500e+01
      vertex   2.064000e+02 2.675000e+01 9.572500e+01
    endloop
  endfacet
  facet normal 2.842171e-15 -1.000000e+00 0.000000e+00
    outer loop
      vertex   2.064000e+02 2.675000e+01 9.572500e+01
      vertex   2.039000e+02 2.675000e+01 9.822500e+01
      vertex   2.039000e+02 2.675000e+01 -4.025000e+00
    endloop
  endfacet
  facet normal 2.842171e-15 -1.000000e+00 0.000000e+00
    outer loop
      vertex   2.064000e+02 2.675000e+01 9.572500e+01
      vertex   2.039000e+02 2.675000e+01 -4.025000e+00
      vertex   2.064000e+02 2.675000e+01 -1.525000e+00
    endloop
  endfacet
  facet normal 5.684342e-16 -1.000000e+00 2.273737e-15
    outer loop
      vertex   2.064000e+02 2.675000e+01 -1.525000e+00
      vertex   2.039000e+02 2.675000e+01 -4.025000e+00
      vertex   2.164000e+02 2.675000e+01 -4.025000e+00
    endloop
  endfacet
  facet normal 0.000000e+00 -1.000000e+00 0.000000e+00
    outer loop
      vertex   2.064000e+02 2.675000e+01 -1.525000e+00
      vertex   2.164000e+02 2.675000e+01 -4.025000e+00
      vertex   2.164000e+02 2.675000e+01 -1.525000e+00
    endloop
  endfacet
  facet normal 1.000000e+00 0.000000e+00 0.000000e+00
    outer loop
      vertex   2.039000e+02 2.575000e+01 -4.025000e+00
      vertex   2.039000e+02 2.675000e+01 -4.025000e+00
      vertex   2.039000e+02 2.575000e+01 9.822500e+01
    endloop
  endfacet
  facet normal 1.000000e+00 -0.000000e+00 0.000000e+00
    outer loop
      vertex   2.039000e+02 2.575000e+01 9.822500e+01
      vertex   2.039000e+02 2.675000e+01 -4.025000e+00
      vertex   2.039000e+02 2.675000e+01 9.822500e+01
    endloop
  endfacet
  facet normal 4.531523e-17 0.000000e+00 1.000000e+00
    outer loop
      vertex   2.294000e+02 2.675000e+01 -4.025000e+00
      vertex   2.294000e+02 2.575000e+01 -4.025000e+00
      vertex   2.490000e+02 2.675000e+01 -4.025000e+00
    endloop
  endfacet
  facet normal 4.531523e-17 0.000000e+00 1.000000e+00
    outer loop
      vertex   2.490000e+02 2.675000e+01 -4.025000e+00
      vertex   2.294000e+02 2.575000e+01 -4.025000e+00
      vertex   2.490000e+02 2.575000e+01 -4.025000e+00
    endloop
  endfacet
  facet normal -1.000000e+00 0.000000e+00 0.000000e+00
    outer loop
      vertex   2.490000e+02 2.575000e+01 9.822500e+01
      vertex   2.490000e+02 2.675000e+01 9.822500e+01
      vertex   2.490000e+02 2.575000e+01 -4.025000e+00
    endloop
  endfacet
  facet normal -1.000000e+00 0.000000e+00 0.000000e+00
    outer loop
      vertex   2.490000e+02 2.575000e+01 -4.025000e+00
      vertex   2.490000e+02 2.675000e+01 9.822500e+01
      vertex   2.490000e+02 2.675000e+01 -4.025000e+00
    endloop
  endfacet
  facet normal 0.000000e+00 0.000000e+00 -1.000000e+00
    outer loop
      vertex   2.039000e+02 2.575000e+01 9.822500e+01
      vertex   2.039000e+02 2.675000e+01 9.822500e+01
      vertex   2.490000e+02 2.575000e+01 9.822500e+01
    endloop
  endfacet
  facet normal 0.000000e+00 0.000000e+00 -1.000000e+00
    outer loop
      vertex   2.490000e+02 2.575000e+01 9.822500e+01
      vertex   2.039000e+02 2.675000e+01 9.822500e+01
      vertex   2.490000e+02 2.675000e+01 9.822500e+01
    endloop
  endfacet
  facet normal -1.000000e+00 -0.000000e+00 -0.000000e+00
    outer loop
      vertex   2.465000e+02 3.275000e+01 9.572500e+01
      vertex   2.465000e+02 3.275000e+01 -1.525000e+00
      vertex   2.465000e+02 2.675000e+01 9.572500e+01
    endloop
  endfacet
  facet normal -1.000000e+00 0.000000e+00 0.000000e+00
    outer loop
      vertex   2.465000e+02 2.675000e+01 9.572500e+01
      vertex   2.465000e+02 3.275000e+01 -1.525000e+00
      vertex   2.465000e+02 2.675000e+01 -1.525000e+00
    endloop
  endfacet
  facet normal -1.000000e+00 0.000000e+00 0.000000e+00
    outer loop
      vertex   2.004000e+02 2.575000e+01 -5.525000e+00
      vertex   2.004000e+02 2.575000e+01 9.972500e+01
      vertex   2.004000e+02 3.375000e+01 -5.525000e+00
    endloop
  endfacet
  facet normal -1.000000e+00 0.000000e+00 0.000000e+00
    outer loop
      vertex   2.004000e+02 3.375000e+01 -5.525000e+00
      vertex   2.004000e+02 2.575000e+01 9.972500e+01
      vertex   2.004000e+02 3.375000e+01 9.972500e+01
    endloop
  endfacet
  facet normal 0.000000e+00 0.000000e+00 1.000000e+00
    outer loop
      vertex   2.004000e+02 2.575000e+01 9.972500e+01
      vertex   2.525000e+02 2.575000e+01 9.972500e+01
      vertex   2.004000e+02 3.375000e+01 9.972500e+01
    endloop
  endfacet
  facet normal -0.000000e+00 0.000000e+00 1.000000e+00
    outer loop
      vertex   2.004000e+02 3.375000e+01 9.972500e+01
      vertex   2.525000e+02 2.575000e+01 9.972500e+01
      vertex   2.525000e+02 3.375000e+01 9.972500e+01
    endloop
  endfacet
  facet normal 1.000000e+00 -0.000000e+00 0.000000e+00
    outer loop
      vertex   2.525000e+02 2.575000e+01 9.972500e+01
      vertex   2.525000e+02 2.575000e+01 -5.525000e+00
      vertex   2.525000e+02 3.375000e+01 9.972500e+01
    endloop
  endfacet
  facet normal 1.000000e+00 0.000000e+00 0.000000e+00
    outer loop
      vertex   2.525000e+02 3.375000e+01 9.972500e+01
      vertex   2.525000e+02 2.575000e+01 -5.525000e+00
      vertex   2.525000e+02 3.375000e+01 -5.525000e+00
    endloop
  endfacet
  facet normal 0.000000e+00 0.000000e+00 1.000000e+00
    outer loop
      vertex   2.294000e+02 2.675000e+01 -1.525000e+00
      vertex   2.465000e+02 2.675000e+01 -1.525000e+00
      vertex   2.294000e+02 3.175000e+01 -1.525000e+00
    endloop
  endfacet
  facet normal -0.000000e+00 0.000000e+00 1.000000e+00
    outer loop
      vertex   2.294000e+02 3.175000e+01 -1.525000e+00
      vertex   2.465000e+02 2.675000e+01 -1.525000e+00
      vertex   2.465000e+02 3.275000e+01 -1.525000e+00
    endloop
  endfacet
  facet normal 0.000000e+00 -0.000000e+00 1.000000e+00
    outer loop
      vertex   2.294000e+02 3.175000e+01 -1.525000e+00
      vertex   2.465000e+02 3.275000e+01 -1.525000e+00
      vertex   2.064000e+02 3.275000e+01 -1.525000e+00
    endloop
  endfacet
  facet normal 0.000000e+00 0.000000e+00 1.000000e+00
    outer loop
      vertex   2.294000e+02 3.175000e+01 -1.525000e+00
      vertex   2.064000e+02 3.275000e+01 -1.525000e+00
      vertex   2.164000e+02 3.175000e+01 -1.525000e+00
    endloop
  endfacet
  facet normal 0.000000e+00 0.000000e+00 1.000000e+00
    outer loop
      vertex   2.164000e+02 3.175000e+01 -1.525000e+00
      vertex   2.064000e+02 3.275000e+01 -1.525000e+00
      vertex   2.064000e+02 2.675000e+01 -1.525000e+00
    endloop
  endfacet
  facet normal 0.000000e+00 0.000000e+00 1.000000e+00
    outer loop
      vertex   2.164000e+02 3.175000e+01 -1.525000e+00
      vertex   2.064000e+02 2.675000e+01 -1.525000e+00
      vertex   2.164000e+02 2.675000e+01 -1.525000e+00
    endloop
  endfacet
endsolid
