solid ASCII
  facet normal -1.000000e+00 -0.000000e+00 -0.000000e+00
    outer loop
      vertex   2.470000e+02 -8.750000e+00 9.620000e+01
      vertex   2.470000e+02 -8.750000e+00 -2.000000e+00
      vertex   2.470000e+02 -9.750000e+00 9.620000e+01
    endloop
  endfacet
  facet normal -1.000000e+00 0.000000e+00 0.000000e+00
    outer loop
      vertex   2.470000e+02 -9.750000e+00 9.620000e+01
      vertex   2.470000e+02 -8.750000e+00 -2.000000e+00
      vertex   2.470000e+02 -9.750000e+00 -2.000000e+00
    endloop
  endfacet
  facet normal 0.000000e+00 0.000000e+00 1.000000e+00
    outer loop
      vertex   2.470000e+02 -8.750000e+00 -2.000000e+00
      vertex   2.059000e+02 -8.750000e+00 -2.000000e+00
      vertex   2.470000e+02 -9.750000e+00 -2.000000e+00
    endloop
  endfacet
  facet normal 0.000000e+00 0.000000e+00 1.000000e+00
    outer loop
      vertex   2.470000e+02 -9.750000e+00 -2.000000e+00
      vertex   2.059000e+02 -8.750000e+00 -2.000000e+00
      vertex   2.059000e+02 -9.750000e+00 -2.000000e+00
    endloop
  endfacet
  facet normal 0.000000e+00 0.000000e+00 -1.000000e+00
    outer loop
      vertex   2.470000e+02 -9.750000e+00 9.620000e+01
      vertex   2.059000e+02 -9.750000e+00 9.620000e+01
      vertex   2.470000e+02 -8.750000e+00 9.620000e+01
    endloop
  endfacet
  facet normal -0.000000e+00 0.000000e+00 -1.000000e+00
    outer loop
      vertex   2.470000e+02 -8.750000e+00 9.620000e+01
      vertex   2.059000e+02 -9.750000e+00 9.620000e+01
      vertex   2.059000e+02 -8.750000e+00 9.620000e+01
    endloop
  endfacet
  facet normal 1.000000e+00 -0.000000e+00 0.000000e+00
    outer loop
      vertex   2.059000e+02 -9.750000e+00 9.620000e+01
      vertex   2.059000e+02 -9.750000e+00 -2.000000e+00
      vertex   2.059000e+02 -8.750000e+00 9.620000e+01
    endloop
  endfacet
  facet normal 1.000000e+00 0.000000e+00 0.000000e+00
    outer loop
      vertex   2.059000e+02 -8.750000e+00 9.620000e+01
      vertex   2.059000e+02 -9.750000e+00 -2.000000e+00
      vertex   2.059000e+02 -8.750000e+00 -2.000000e+00
    endloop
  endfacet
  facet normal 0.000000e+00 1.000000e+00 0.000000e+00
    outer loop
      vertex   2.039000e+02 -8.750000e+00 9.822500e+01
      vertex   2.059000e+02 -8.750000e+00 -2.000000e+00
      vertex   2.039000e+02 -8.750000e+00 -4.025000e+00
    endloop
  endfacet
  facet normal 0.000000e+00 1.000000e+00 0.000000e+00
    outer loop
      vertex   2.039000e+02 -8.750000e+00 -4.025000e+00
      vertex   2.059000e+02 -8.750000e+00 -2.000000e+00
      vertex   2.470000e+02 -8.750000e+00 -2.000000e+00
    endloop
  endfacet
  facet normal 0.000000e+00 1.000000e+00 0.000000e+00
    outer loop
      vertex   2.039000e+02 -8.750000e+00 -4.025000e+00
      vertex   2.470000e+02 -8.750000e+00 -2.000000e+00
      vertex   2.490000e+02 -8.750000e+00 -4.025000e+00
    endloop
  endfacet
  facet normal 0.000000e+00 1.000000e+00 0.000000e+00
    outer loop
      vertex   2.490000e+02 -8.750000e+00 -4.025000e+00
      vertex   2.470000e+02 -8.750000e+00 -2.000000e+00
      vertex   2.470000e+02 -8.750000e+00 9.620000e+01
    endloop
  endfacet
  facet normal 0.000000e+00 1.000000e+00 -0.000000e+00
    outer loop
      vertex   2.490000e+02 -8.750000e+00 -4.025000e+00
      vertex   2.470000e+02 -8.750000e+00 9.620000e+01
      vertex   2.490000e+02 -8.750000e+00 9.822500e+01
    endloop
  endfacet
  facet normal 0.000000e+00 1.000000e+00 0.000000e+00
    outer loop
      vertex   2.490000e+02 -8.750000e+00 9.822500e+01
      vertex   2.470000e+02 -8.750000e+00 9.620000e+01
      vertex   2.039000e+02 -8.750000e+00 9.822500e+01
    endloop
  endfacet
  facet normal 0.000000e+00 1.000000e+00 0.000000e+00
    outer loop
      vertex   2.039000e+02 -8.750000e+00 9.822500e+01
      vertex   2.470000e+02 -8.750000e+00 9.620000e+01
      vertex   2.059000e+02 -8.750000e+00 9.620000e+01
    endloop
  endfacet
  facet normal 0.000000e+00 1.000000e+00 0.000000e+00
    outer loop
      vertex   2.039000e+02 -8.750000e+00 9.822500e+01
      vertex   2.059000e+02 -8.750000e+00 9.620000e+01
      vertex   2.059000e+02 -8.750000e+00 -2.000000e+00
    endloop
  endfacet
  facet normal 0.000000e+00 -1.000000e+00 0.000000e+00
    outer loop
      vertex   2.004000e+02 -9.750000e+00 -5.525000e+00
      vertex   2.059000e+02 -9.750000e+00 9.620000e+01
      vertex   2.004000e+02 -9.750000e+00 9.972500e+01
    endloop
  endfacet
  facet normal 0.000000e+00 -1.000000e+00 0.000000e+00
    outer loop
      vertex   2.004000e+02 -9.750000e+00 9.972500e+01
      vertex   2.059000e+02 -9.750000e+00 9.620000e+01
      vertex   2.470000e+02 -9.750000e+00 9.620000e+01
    endloop
  endfacet
  facet normal 0.000000e+00 -1.000000e+00 0.000000e+00
    outer loop
      vertex   2.004000e+02 -9.750000e+00 9.972500e+01
      vertex   2.470000e+02 -9.750000e+00 9.620000e+01
      vertex   2.525000e+02 -9.750000e+00 9.972500e+01
    endloop
  endfacet
  facet normal 0.000000e+00 -1.000000e+00 0.000000e+00
    outer loop
      vertex   2.525000e+02 -9.750000e+00 9.972500e+01
      vertex   2.470000e+02 -9.750000e+00 9.620000e+01
      vertex   2.470000e+02 -9.750000e+00 -2.000000e+00
    endloop
  endfacet
  facet normal 0.000000e+00 -1.000000e+00 -0.000000e+00
    outer loop
      vertex   2.525000e+02 -9.750000e+00 9.972500e+01
      vertex   2.470000e+02 -9.750000e+00 -2.000000e+00
      vertex   2.525000e+02 -9.750000e+00 -5.525000e+00
    endloop
  endfacet
  facet normal 0.000000e+00 -1.000000e+00 0.000000e+00
    outer loop
      vertex   2.525000e+02 -9.750000e+00 -5.525000e+00
      vertex   2.470000e+02 -9.750000e+00 -2.000000e+00
      vertex   2.004000e+02 -9.750000e+00 -5.525000e+00
    endloop
  endfacet
  facet normal 0.000000e+00 -1.000000e+00 0.000000e+00
    outer loop
      vertex   2.004000e+02 -9.750000e+00 -5.525000e+00
      vertex   2.470000e+02 -9.750000e+00 -2.000000e+00
      vertex   2.059000e+02 -9.750000e+00 -2.000000e+00
    endloop
  endfacet
  facet normal 0.000000e+00 -1.000000e+00 0.000000e+00
    outer loop
      vertex   2.004000e+02 -9.750000e+00 -5.525000e+00
      vertex   2.059000e+02 -9.750000e+00 -2.000000e+00
      vertex   2.059000e+02 -9.750000e+00 9.620000e+01
    endloop
  endfacet
  facet normal -1.000000e+00 0.000000e+00 0.000000e+00
    outer loop
      vertex   2.294000e+02 -4.250000e+00 -5.525000e+00
      vertex   2.294000e+02 -6.250000e+00 -5.525000e+00
      vertex   2.294000e+02 -4.250000e+00 -4.025000e+00
    endloop
  endfacet
  facet normal -1.000000e+00 -0.000000e+00 0.000000e+00
    outer loop
      vertex   2.294000e+02 -4.250000e+00 -4.025000e+00
      vertex   2.294000e+02 -6.250000e+00 -5.525000e+00
      vertex   2.294000e+02 -6.250000e+00 -4.025000e+00
    endloop
  endfacet
  facet normal 0.000000e+00 1.000000e+00 0.000000e+00
    outer loop
      vertex   2.164000e+02 -6.250000e+00 -5.525000e+00
      vertex   2.164000e+02 -6.250000e+00 -4.025000e+00
      vertex   2.294000e+02 -6.250000e+00 -5.525000e+00
    endloop
  endfacet
  facet normal 0.000000e+00 1.000000e+00 -0.000000e+00
    outer loop
      vertex   2.294000e+02 -6.250000e+00 -5.525000e+00
      vertex   2.164000e+02 -6.250000e+00 -4.025000e+00
      vertex   2.294000e+02 -6.250000e+00 -4.025000e+00
    endloop
  endfacet
  facet normal 1.000000e+00 0.000000e+00 0.000000e+00
    outer loop
      vertex   2.164000e+02 -6.250000e+00 -5.525000e+00
      vertex   2.164000e+02 -4.250000e+00 -5.525000e+00
      vertex   2.164000e+02 -6.250000e+00 -4.025000e+00
    endloop
  endfacet
  facet normal 1.000000e+00 -0.000000e+00 0.000000e+00
    outer loop
      vertex   2.164000e+02 -6.250000e+00 -4.025000e+00
      vertex   2.164000e+02 -4.250000e+00 -5.525000e+00
      vertex   2.164000e+02 -4.250000e+00 -4.025000e+00
    endloop
  endfacet
  facet normal -0.000000e+00 0.000000e+00 1.000000e+00
    outer loop
      vertex   2.294000e+02 -4.250000e+00 -4.025000e+00
      vertex   2.294000e+02 -6.250000e+00 -4.025000e+00
      vertex   2.490000e+02 -4.250000e+00 -4.025000e+00
    endloop
  endfacet
  facet normal 0.000000e+00 0.000000e+00 1.000000e+00
    outer loop
      vertex   2.490000e+02 -4.250000e+00 -4.025000e+00
      vertex   2.294000e+02 -6.250000e+00 -4.025000e+00
      vertex   2.490000e+02 -8.750000e+00 -4.025000e+00
    endloop
  endfacet
  facet normal 0.000000e+00 0.000000e+00 1.000000e+00
    outer loop
      vertex   2.490000e+02 -8.750000e+00 -4.025000e+00
      vertex   2.294000e+02 -6.250000e+00 -4.025000e+00
      vertex   2.039000e+02 -8.750000e+00 -4.025000e+00
    endloop
  endfacet
  facet normal 0.000000e+00 0.000000e+00 1.000000e+00
    outer loop
      vertex   2.039000e+02 -8.750000e+00 -4.025000e+00
      vertex   2.294000e+02 -6.250000e+00 -4.025000e+00
      vertex   2.164000e+02 -6.250000e+00 -4.025000e+00
    endloop
  endfacet
  facet normal 0.000000e+00 0.000000e+00 1.000000e+00
    outer loop
      vertex   2.039000e+02 -8.750000e+00 -4.025000e+00
      vertex   2.164000e+02 -6.250000e+00 -4.025000e+00
      vertex   2.039000e+02 -4.250000e+00 -4.025000e+00
    endloop
  endfacet
  facet normal -0.000000e+00 0.000000e+00 1.000000e+00
    outer loop
      vertex   2.039000e+02 -4.250000e+00 -4.025000e+00
      vertex   2.164000e+02 -6.250000e+00 -4.025000e+00
      vertex   2.164000e+02 -4.250000e+00 -4.025000e+00
    endloop
  endfacet
  facet normal -0.000000e+00 1.000000e+00 0.000000e+00
    outer loop
      vertex   2.294000e+02 -4.250000e+00 -4.025000e+00
      vertex   2.490000e+02 -4.250000e+00 -4.025000e+00
      vertex   2.294000e+02 -4.250000e+00 -5.525000e+00
    endloop
  endfacet
  facet normal -0.000000e+00 1.000000e+00 0.000000e+00
    outer loop
      vertex   2.294000e+02 -4.250000e+00 -5.525000e+00
      vertex   2.490000e+02 -4.250000e+00 -4.025000e+00
      vertex   2.525000e+02 -4.250000e+00 -5.525000e+00
    endloop
  endfacet
  facet normal 0.000000e+00 1.000000e+00 0.000000e+00
    outer loop
      vertex   2.525000e+02 -4.250000e+00 -5.525000e+00
      vertex   2.490000e+02 -4.250000e+00 -4.025000e+00
      vertex   2.490000e+02 -4.250000e+00 9.822500e+01
    endloop
  endfacet
  facet normal 0.000000e+00 1.000000e+00 -0.000000e+00
    outer loop
      vertex   2.525000e+02 -4.250000e+00 -5.525000e+00
      vertex   2.490000e+02 -4.250000e+00 9.822500e+01
      vertex   2.525000e+02 -4.250000e+00 9.972500e+01
    endloop
  endfacet
  facet normal 0.000000e+00 1.000000e+00 0.000000e+00
    outer loop
      vertex   2.525000e+02 -4.250000e+00 9.972500e+01
      vertex   2.490000e+02 -4.250000e+00 9.822500e+01
      vertex   2.004000e+02 -4.250000e+00 9.972500e+01
    endloop
  endfacet
  facet normal 0.000000e+00 1.000000e+00 0.000000e+00
    outer loop
      vertex   2.004000e+02 -4.250000e+00 9.972500e+01
      vertex   2.490000e+02 -4.250000e+00 9.822500e+01
      vertex   2.039000e+02 -4.250000e+00 9.822500e+01
    endloop
  endfacet
  facet normal 0.000000e+00 1.000000e+00 0.000000e+00
    outer loop
      vertex   2.004000e+02 -4.250000e+00 9.972500e+01
      vertex   2.039000e+02 -4.250000e+00 9.822500e+01
      vertex   2.039000e+02 -4.250000e+00 -4.025000e+00
    endloop
  endfacet
  facet normal 0.000000e+00 1.000000e+00 0.000000e+00
    outer loop
      vertex   2.164000e+02 -4.250000e+00 -4.025000e+00
      vertex   2.164000e+02 -4.250000e+00 -5.525000e+00
      vertex   2.039000e+02 -4.250000e+00 -4.025000e+00
    endloop
  endfacet
  facet normal 0.000000e+00 1.000000e+00 0.000000e+00
    outer loop
      vertex   2.039000e+02 -4.250000e+00 -4.025000e+00
      vertex   2.164000e+02 -4.250000e+00 -5.525000e+00
      vertex   2.004000e+02 -4.250000e+00 -5.525000e+00
    endloop
  endfacet
  facet normal 0.000000e+00 1.000000e+00 0.000000e+00
    outer loop
      vertex   2.039000e+02 -4.250000e+00 -4.025000e+00
      vertex   2.004000e+02 -4.250000e+00 -5.525000e+00
      vertex   2.004000e+02 -4.250000e+00 9.972500e+01
    endloop
  endfacet
  facet normal 1.000000e+00 0.000000e+00 -0.000000e+00
    outer loop
      vertex   2.039000e+02 -4.250000e+00 -4.025000e+00
      vertex   2.039000e+02 -4.250000e+00 9.822500e+01
      vertex   2.039000e+02 -8.750000e+00 -4.025000e+00
    endloop
  endfacet
  facet normal 1.000000e+00 0.000000e+00 0.000000e+00
    outer loop
      vertex   2.039000e+02 -8.750000e+00 -4.025000e+00
      vertex   2.039000e+02 -4.250000e+00 9.822500e+01
      vertex   2.039000e+02 -8.750000e+00 9.822500e+01
    endloop
  endfacet
  facet normal 0.000000e+00 0.000000e+00 -1.000000e+00
    outer loop
      vertex   2.039000e+02 -4.250000e+00 9.822500e+01
      vertex   2.490000e+02 -4.250000e+00 9.822500e+01
      vertex   2.039000e+02 -8.750000e+00 9.822500e+01
    endloop
  endfacet
  facet normal 0.000000e+00 0.000000e+00 -1.000000e+00
    outer loop
      vertex   2.039000e+02 -8.750000e+00 9.822500e+01
      vertex   2.490000e+02 -4.250000e+00 9.822500e+01
      vertex   2.490000e+02 -8.750000e+00 9.822500e+01
    endloop
  endfacet
  facet normal 0.000000e+00 0.000000e+00 1.000000e+00
    outer loop
      vertex   2.525000e+02 -4.250000e+00 9.972500e+01
      vertex   2.004000e+02 -4.250000e+00 9.972500e+01
      vertex   2.525000e+02 -9.750000e+00 9.972500e+01
    endloop
  endfacet
  facet normal 0.000000e+00 0.000000e+00 1.000000e+00
    outer loop
      vertex   2.525000e+02 -9.750000e+00 9.972500e+01
      vertex   2.004000e+02 -4.250000e+00 9.972500e+01
      vertex   2.004000e+02 -9.750000e+00 9.972500e+01
    endloop
  endfacet
  facet normal -1.000000e+00 -0.000000e+00 -0.000000e+00
    outer loop
      vertex   2.004000e+02 -4.250000e+00 9.972500e+01
      vertex   2.004000e+02 -4.250000e+00 -5.525000e+00
      vertex   2.004000e+02 -9.750000e+00 9.972500e+01
    endloop
  endfacet
  facet normal -1.000000e+00 0.000000e+00 0.000000e+00
    outer loop
      vertex   2.004000e+02 -9.750000e+00 9.972500e+01
      vertex   2.004000e+02 -4.250000e+00 -5.525000e+00
      vertex   2.004000e+02 -9.750000e+00 -5.525000e+00
    endloop
  endfacet
  facet normal -1.000000e+00 -0.000000e+00 -0.000000e+00
    outer loop
      vertex   2.490000e+02 -4.250000e+00 9.822500e+01
      vertex   2.490000e+02 -4.250000e+00 -4.025000e+00
      vertex   2.490000e+02 -8.750000e+00 9.822500e+01
    endloop
  endfacet
  facet normal -1.000000e+00 0.000000e+00 0.000000e+00
    outer loop
      vertex   2.490000e+02 -8.750000e+00 9.822500e+01
      vertex   2.490000e+02 -4.250000e+00 -4.025000e+00
      vertex   2.490000e+02 -8.750000e+00 -4.025000e+00
    endloop
  endfacet
  facet normal -7.689856e-17 -0.000000e+00 -1.000000e+00
    outer loop
      vertex   2.294000e+02 -4.250000e+00 -5.525000e+00
      vertex   2.525000e+02 -4.250000e+00 -5.525000e+00
      vertex   2.294000e+02 -6.250000e+00 -5.525000e+00
    endloop
  endfacet
  facet normal -7.689856e-17 0.000000e+00 -1.000000e+00
    outer loop
      vertex   2.294000e+02 -6.250000e+00 -5.525000e+00
      vertex   2.525000e+02 -4.250000e+00 -5.525000e+00
      vertex   2.525000e+02 -9.750000e+00 -5.525000e+00
    endloop
  endfacet
  facet normal 0.000000e+00 5.075305e-16 -1.000000e+00
    outer loop
      vertex   2.294000e+02 -6.250000e+00 -5.525000e+00
      vertex   2.525000e+02 -9.750000e+00 -5.525000e+00
      vertex   2.004000e+02 -9.750000e+00 -5.525000e+00
    endloop
  endfacet
  facet normal 0.000000e+00 5.075305e-16 -1.000000e+00
    outer loop
      vertex   2.294000e+02 -6.250000e+00 -5.525000e+00
      vertex   2.004000e+02 -9.750000e+00 -5.525000e+00
      vertex   2.164000e+02 -6.250000e+00 -5.525000e+00
    endloop
  endfacet
  facet normal 1.110223e-16 0.000000e+00 -1.000000e+00
    outer loop
      vertex   2.164000e+02 -6.250000e+00 -5.525000e+00
      vertex   2.004000e+02 -9.750000e+00 -5.525000e+00
      vertex   2.004000e+02 -4.250000e+00 -5.525000e+00
    endloop
  endfacet
  facet normal 1.110223e-16 0.000000e+00 -1.000000e+00
    outer loop
      vertex   2.164000e+02 -6.250000e+00 -5.525000e+00
      vertex   2.004000e+02 -4.250000e+00 -5.525000e+00
      vertex   2.164000e+02 -4.250000e+00 -5.525000e+00
    endloop
  endfacet
  facet normal 1.000000e+00 0.000000e+00 -0.000000e+00
    outer loop
      vertex   2.525000e+02 -4.250000e+00 -5.525000e+00
      vertex   2.525000e+02 -4.250000e+00 9.972500e+01
      vertex   2.525000e+02 -9.750000e+00 -5.525000e+00
    endloop
  endfacet
  facet normal 1.000000e+00 0.000000e+00 0.000000e+00
    outer loop
      vertex   2.525000e+02 -9.750000e+00 -5.525000e+00
      vertex   2.525000e+02 -4.250000e+00 9.972500e+01
      vertex   2.525000e+02 -9.750000e+00 9.972500e+01
    endloop
  endfacet
endsolid
