%TF.GenerationSoftware,KiCad,Pcbnew,(7.0.0-0)*%
%TF.CreationDate,2023-04-10T20:33:14-04:00*%
%TF.ProjectId,KnGYT,4b6e4759-542e-46b6-9963-61645f706362,rev?*%
%TF.SameCoordinates,Original*%
%TF.FileFunction,Copper,L2,Bot*%
%TF.FilePolarity,Positive*%
%FSLAX46Y46*%
G04 Gerber Fmt 4.6, Leading zero omitted, Abs format (unit mm)*
G04 Created by KiCad (PCBNEW (7.0.0-0)) date 2023-04-10 20:33:14*
%MOMM*%
%LPD*%
G01*
G04 APERTURE LIST*
G04 Aperture macros list*
%AMRoundRect*
0 Rectangle with rounded corners*
0 $1 Rounding radius*
0 $2 $3 $4 $5 $6 $7 $8 $9 X,Y pos of 4 corners*
0 Add a 4 corners polygon primitive as box body*
4,1,4,$2,$3,$4,$5,$6,$7,$8,$9,$2,$3,0*
0 Add four circle primitives for the rounded corners*
1,1,$1+$1,$2,$3*
1,1,$1+$1,$4,$5*
1,1,$1+$1,$6,$7*
1,1,$1+$1,$8,$9*
0 Add four rect primitives between the rounded corners*
20,1,$1+$1,$2,$3,$4,$5,0*
20,1,$1+$1,$4,$5,$6,$7,0*
20,1,$1+$1,$6,$7,$8,$9,0*
20,1,$1+$1,$8,$9,$2,$3,0*%
G04 Aperture macros list end*
%TA.AperFunction,SMDPad,CuDef*%
%ADD10R,1.500000X1.500000*%
%TD*%
%TA.AperFunction,SMDPad,CuDef*%
%ADD11RoundRect,0.250000X1.025000X1.000000X-1.025000X1.000000X-1.025000X-1.000000X1.025000X-1.000000X0*%
%TD*%
%TA.AperFunction,SMDPad,CuDef*%
%ADD12RoundRect,0.140000X0.140000X0.170000X-0.140000X0.170000X-0.140000X-0.170000X0.140000X-0.170000X0*%
%TD*%
%TA.AperFunction,SMDPad,CuDef*%
%ADD13RoundRect,0.140000X0.170000X-0.140000X0.170000X0.140000X-0.170000X0.140000X-0.170000X-0.140000X0*%
%TD*%
%TA.AperFunction,SMDPad,CuDef*%
%ADD14RoundRect,0.050000X-0.050000X0.387500X-0.050000X-0.387500X0.050000X-0.387500X0.050000X0.387500X0*%
%TD*%
%TA.AperFunction,SMDPad,CuDef*%
%ADD15RoundRect,0.050000X-0.387500X0.050000X-0.387500X-0.050000X0.387500X-0.050000X0.387500X0.050000X0*%
%TD*%
%TA.AperFunction,ComponentPad*%
%ADD16C,0.600000*%
%TD*%
%TA.AperFunction,SMDPad,CuDef*%
%ADD17RoundRect,0.144000X-1.456000X1.456000X-1.456000X-1.456000X1.456000X-1.456000X1.456000X1.456000X0*%
%TD*%
%TA.AperFunction,SMDPad,CuDef*%
%ADD18RoundRect,0.125000X-0.125000X0.125000X-0.125000X-0.125000X0.125000X-0.125000X0.125000X0.125000X0*%
%TD*%
%TA.AperFunction,SMDPad,CuDef*%
%ADD19R,1.160000X0.600000*%
%TD*%
%TA.AperFunction,SMDPad,CuDef*%
%ADD20R,1.160000X0.300000*%
%TD*%
%TA.AperFunction,ComponentPad*%
%ADD21O,1.700000X0.900000*%
%TD*%
%TA.AperFunction,ComponentPad*%
%ADD22O,2.000000X0.900000*%
%TD*%
%TA.AperFunction,SMDPad,CuDef*%
%ADD23R,1.000000X1.700000*%
%TD*%
%TA.AperFunction,SMDPad,CuDef*%
%ADD24RoundRect,0.125000X0.125000X-0.125000X0.125000X0.125000X-0.125000X0.125000X-0.125000X-0.125000X0*%
%TD*%
%TA.AperFunction,SMDPad,CuDef*%
%ADD25RoundRect,0.140000X-0.140000X-0.170000X0.140000X-0.170000X0.140000X0.170000X-0.140000X0.170000X0*%
%TD*%
%TA.AperFunction,SMDPad,CuDef*%
%ADD26RoundRect,0.135000X0.135000X0.185000X-0.135000X0.185000X-0.135000X-0.185000X0.135000X-0.185000X0*%
%TD*%
%TA.AperFunction,SMDPad,CuDef*%
%ADD27RoundRect,0.135000X0.185000X-0.135000X0.185000X0.135000X-0.185000X0.135000X-0.185000X-0.135000X0*%
%TD*%
%TA.AperFunction,SMDPad,CuDef*%
%ADD28RoundRect,0.150000X-0.150000X0.650000X-0.150000X-0.650000X0.150000X-0.650000X0.150000X0.650000X0*%
%TD*%
%TA.AperFunction,SMDPad,CuDef*%
%ADD29R,2.000000X1.500000*%
%TD*%
%TA.AperFunction,SMDPad,CuDef*%
%ADD30R,2.000000X3.800000*%
%TD*%
%TA.AperFunction,SMDPad,CuDef*%
%ADD31RoundRect,0.140000X-0.170000X0.140000X-0.170000X-0.140000X0.170000X-0.140000X0.170000X0.140000X0*%
%TD*%
%TA.AperFunction,SMDPad,CuDef*%
%ADD32R,1.200000X1.400000*%
%TD*%
%TA.AperFunction,ViaPad*%
%ADD33C,0.600000*%
%TD*%
%TA.AperFunction,Conductor*%
%ADD34C,0.300000*%
%TD*%
%TA.AperFunction,Conductor*%
%ADD35C,0.600000*%
%TD*%
%TA.AperFunction,Conductor*%
%ADD36C,0.250000*%
%TD*%
%TA.AperFunction,Conductor*%
%ADD37C,0.200000*%
%TD*%
%TA.AperFunction,Conductor*%
%ADD38C,0.500000*%
%TD*%
%TA.AperFunction,Conductor*%
%ADD39C,1.000000*%
%TD*%
%TA.AperFunction,Conductor*%
%ADD40C,0.800000*%
%TD*%
G04 APERTURE END LIST*
D10*
%TO.P,TP0,1,1*%
%TO.N,/COL0*%
X70249999Y-82249999D03*
%TD*%
D11*
%TO.P,SW1,1,1*%
%TO.N,Net-(D1-A)*%
X71840000Y-56610000D03*
%TO.P,SW1,2,2*%
%TO.N,/ROW0*%
X84767000Y-54070000D03*
%TD*%
D12*
%TO.P,C25,1*%
%TO.N,+3V3*%
X91770000Y-69877500D03*
%TO.P,C25,2*%
%TO.N,GND*%
X90810000Y-69877500D03*
%TD*%
D13*
%TO.P,C27,1*%
%TO.N,/XIN*%
X101600000Y-66127500D03*
%TO.P,C27,2*%
%TO.N,GND*%
X101600000Y-65167500D03*
%TD*%
D10*
%TO.P,TP4,1,1*%
%TO.N,/COL4*%
X145499999Y-68749999D03*
%TD*%
D12*
%TO.P,C18,1*%
%TO.N,+3V3*%
X96920000Y-62212500D03*
%TO.P,C18,2*%
%TO.N,GND*%
X95960000Y-62212500D03*
%TD*%
D14*
%TO.P,U4,1,IOVDD*%
%TO.N,+3V3*%
X94140000Y-63550000D03*
%TO.P,U4,2,GPIO0*%
%TO.N,unconnected-(U4-GPIO0-Pad2)*%
X94540000Y-63550000D03*
%TO.P,U4,3,GPIO1*%
%TO.N,unconnected-(U4-GPIO1-Pad3)*%
X94940000Y-63550000D03*
%TO.P,U4,4,GPIO2*%
%TO.N,unconnected-(U4-GPIO2-Pad4)*%
X95340000Y-63550000D03*
%TO.P,U4,5,GPIO3*%
%TO.N,unconnected-(U4-GPIO3-Pad5)*%
X95740000Y-63550000D03*
%TO.P,U4,6,GPIO4*%
%TO.N,unconnected-(U4-GPIO4-Pad6)*%
X96140000Y-63550000D03*
%TO.P,U4,7,GPIO5*%
%TO.N,unconnected-(U4-GPIO5-Pad7)*%
X96540000Y-63550000D03*
%TO.P,U4,8,GPIO6*%
%TO.N,unconnected-(U4-GPIO6-Pad8)*%
X96940000Y-63550000D03*
%TO.P,U4,9,GPIO7*%
%TO.N,unconnected-(U4-GPIO7-Pad9)*%
X97340000Y-63550000D03*
%TO.P,U4,10,IOVDD*%
%TO.N,+3V3*%
X97740000Y-63550000D03*
%TO.P,U4,11,GPIO8*%
%TO.N,/NEO3V3*%
X98140000Y-63550000D03*
%TO.P,U4,12,GPIO9*%
%TO.N,/ROW0*%
X98540000Y-63550000D03*
%TO.P,U4,13,GPIO10*%
%TO.N,/COL4*%
X98940000Y-63550000D03*
%TO.P,U4,14,GPIO11*%
%TO.N,/COL3*%
X99340000Y-63550000D03*
D15*
%TO.P,U4,15,GPIO12*%
%TO.N,unconnected-(U4-GPIO12-Pad15)*%
X100177500Y-64387500D03*
%TO.P,U4,16,GPIO13*%
%TO.N,unconnected-(U4-GPIO13-Pad16)*%
X100177500Y-64787500D03*
%TO.P,U4,17,GPIO14*%
%TO.N,unconnected-(U4-GPIO14-Pad17)*%
X100177500Y-65187500D03*
%TO.P,U4,18,GPIO15*%
%TO.N,unconnected-(U4-GPIO15-Pad18)*%
X100177500Y-65587500D03*
%TO.P,U4,19,TESTEN*%
%TO.N,GND*%
X100177500Y-65987500D03*
%TO.P,U4,20,XIN*%
%TO.N,/XIN*%
X100177500Y-66387500D03*
%TO.P,U4,21,XOUT*%
%TO.N,/XOUT*%
X100177500Y-66787500D03*
%TO.P,U4,22,IOVDD*%
%TO.N,+3V3*%
X100177500Y-67187500D03*
%TO.P,U4,23,DVDD*%
%TO.N,+1V1*%
X100177500Y-67587500D03*
%TO.P,U4,24,SWCLK*%
%TO.N,unconnected-(U4-SWCLK-Pad24)*%
X100177500Y-67987500D03*
%TO.P,U4,25,SWD*%
%TO.N,unconnected-(U4-SWD-Pad25)*%
X100177500Y-68387500D03*
%TO.P,U4,26,RUN*%
%TO.N,/RUN*%
X100177500Y-68787500D03*
%TO.P,U4,27,GPIO16*%
%TO.N,unconnected-(U4-GPIO16-Pad27)*%
X100177500Y-69187500D03*
%TO.P,U4,28,GPIO17*%
%TO.N,/COL2*%
X100177500Y-69587500D03*
D14*
%TO.P,U4,29,GPIO18*%
%TO.N,unconnected-(U4-GPIO18-Pad29)*%
X99340000Y-70425000D03*
%TO.P,U4,30,GPIO19*%
%TO.N,unconnected-(U4-GPIO19-Pad30)*%
X98940000Y-70425000D03*
%TO.P,U4,31,GPIO20*%
%TO.N,unconnected-(U4-GPIO20-Pad31)*%
X98540000Y-70425000D03*
%TO.P,U4,32,GPIO21*%
%TO.N,unconnected-(U4-GPIO21-Pad32)*%
X98140000Y-70425000D03*
%TO.P,U4,33,IOVDD*%
%TO.N,+3V3*%
X97740000Y-70425000D03*
%TO.P,U4,34,GPIO22*%
%TO.N,unconnected-(U4-GPIO22-Pad34)*%
X97340000Y-70425000D03*
%TO.P,U4,35,GPIO23*%
%TO.N,/ROW1*%
X96940000Y-70425000D03*
%TO.P,U4,36,GPIO24*%
%TO.N,/COL1*%
X96540000Y-70425000D03*
%TO.P,U4,37,GPIO25*%
%TO.N,/COL0*%
X96140000Y-70425000D03*
%TO.P,U4,38,GPIO26_ADC0*%
%TO.N,unconnected-(U4-GPIO26_ADC0-Pad38)*%
X95740000Y-70425000D03*
%TO.P,U4,39,GPIO27_ADC1*%
%TO.N,unconnected-(U4-GPIO27_ADC1-Pad39)*%
X95340000Y-70425000D03*
%TO.P,U4,40,GPIO28_ADC2*%
%TO.N,unconnected-(U4-GPIO28_ADC2-Pad40)*%
X94940000Y-70425000D03*
%TO.P,U4,41,GPIO29_ADC3*%
%TO.N,unconnected-(U4-GPIO29_ADC3-Pad41)*%
X94540000Y-70425000D03*
%TO.P,U4,42,IOVDD*%
%TO.N,+3V3*%
X94140000Y-70425000D03*
D15*
%TO.P,U4,43,ADC_AVDD*%
X93302500Y-69587500D03*
%TO.P,U4,44,VREG_IN*%
X93302500Y-69187500D03*
%TO.P,U4,45,VREG_VOUT*%
%TO.N,+1V1*%
X93302500Y-68787500D03*
%TO.P,U4,46,USB_DM*%
%TO.N,Net-(U4-USB_DM)*%
X93302500Y-68387500D03*
%TO.P,U4,47,USB_DP*%
%TO.N,Net-(U4-USB_DP)*%
X93302500Y-67987500D03*
%TO.P,U4,48,USB_VDD*%
%TO.N,+3V3*%
X93302500Y-67587500D03*
%TO.P,U4,49,IOVDD*%
X93302500Y-67187500D03*
%TO.P,U4,50,DVDD*%
%TO.N,+1V1*%
X93302500Y-66787500D03*
%TO.P,U4,51,QSPI_SD3*%
%TO.N,/QSPI_SD3*%
X93302500Y-66387500D03*
%TO.P,U4,52,QSPI_SCLK*%
%TO.N,/QSPI_SCLK*%
X93302500Y-65987500D03*
%TO.P,U4,53,QSPI_SD0*%
%TO.N,/QSPI_SD0*%
X93302500Y-65587500D03*
%TO.P,U4,54,QSPI_SD2*%
%TO.N,/QSPI_SD2*%
X93302500Y-65187500D03*
%TO.P,U4,55,QSPI_SD1*%
%TO.N,/QSPI_SD1*%
X93302500Y-64787500D03*
%TO.P,U4,56,QSPI_SS*%
%TO.N,/QSPI_SS*%
X93302500Y-64387500D03*
D16*
%TO.P,U4,57,GND*%
%TO.N,GND*%
X98015000Y-65712500D03*
X96740000Y-65712500D03*
X95465000Y-65712500D03*
X98015000Y-66987500D03*
X96740000Y-66987500D03*
D17*
X96740000Y-66987500D03*
D16*
X95465000Y-66987500D03*
X98015000Y-68262500D03*
X96740000Y-68262500D03*
X95465000Y-68262500D03*
%TD*%
D18*
%TO.P,D8,1,K*%
%TO.N,/COL2*%
X107500000Y-72550000D03*
%TO.P,D8,2,A*%
%TO.N,Net-(D8-A)*%
X107500000Y-74750000D03*
%TD*%
D19*
%TO.P,J1,A1,GND*%
%TO.N,GND*%
X73249999Y-69004999D03*
%TO.P,J1,A4,VBUS*%
%TO.N,+5V*%
X73249999Y-68204999D03*
D20*
%TO.P,J1,A5,CC1*%
%TO.N,/USB_CC1*%
X73249999Y-67054999D03*
%TO.P,J1,A6,D+*%
%TO.N,/USB_D+*%
X73249999Y-66054999D03*
%TO.P,J1,A7,D-*%
%TO.N,/USB_D-*%
X73249999Y-65554999D03*
%TO.P,J1,A8,SBU1*%
%TO.N,unconnected-(J1-SBU1-PadA8)*%
X73249999Y-64554999D03*
D19*
%TO.P,J1,A9,VBUS*%
%TO.N,+5V*%
X73249999Y-63404999D03*
%TO.P,J1,A12,GND*%
%TO.N,GND*%
X73249999Y-62604999D03*
%TO.P,J1,B1,GND*%
X73249999Y-62604999D03*
%TO.P,J1,B4,VBUS*%
%TO.N,+5V*%
X73249999Y-63404999D03*
D20*
%TO.P,J1,B5,CC2*%
%TO.N,/USB_CC2*%
X73249999Y-64054999D03*
%TO.P,J1,B6,D+*%
%TO.N,/USB_D+*%
X73249999Y-65054999D03*
%TO.P,J1,B7,D-*%
%TO.N,/USB_D-*%
X73249999Y-66554999D03*
%TO.P,J1,B8,SBU2*%
%TO.N,unconnected-(J1-SBU2-PadB8)*%
X73249999Y-67554999D03*
D19*
%TO.P,J1,B9,VBUS*%
%TO.N,+5V*%
X73249999Y-68204999D03*
%TO.P,J1,B12,GND*%
%TO.N,GND*%
X73249999Y-69004999D03*
D21*
%TO.P,J1,S1,SHIELD*%
X68499999Y-70124999D03*
D22*
X72669999Y-70124999D03*
D21*
X68499999Y-61484999D03*
D22*
X72669999Y-61484999D03*
%TD*%
D23*
%TO.P,SW12,1,1*%
%TO.N,GND*%
X114299999Y-69749999D03*
X114299999Y-63449999D03*
%TO.P,SW12,2,2*%
%TO.N,/RUN*%
X110499999Y-69749999D03*
X110499999Y-63449999D03*
%TD*%
D12*
%TO.P,C14,1*%
%TO.N,+3V3*%
X91694000Y-72025500D03*
%TO.P,C14,2*%
%TO.N,GND*%
X90734000Y-72025500D03*
%TD*%
D24*
%TO.P,D3,1,K*%
%TO.N,/COL2*%
X108500000Y-61100000D03*
%TO.P,D3,2,A*%
%TO.N,Net-(D3-A)*%
X108500000Y-58900000D03*
%TD*%
D10*
%TO.P,TP2,1,1*%
%TO.N,/COL2*%
X107749999Y-65499999D03*
%TD*%
D25*
%TO.P,C23,1*%
%TO.N,+3V3*%
X92750000Y-83000000D03*
%TO.P,C23,2*%
%TO.N,GND*%
X93710000Y-83000000D03*
%TD*%
D24*
%TO.P,D6,1,K*%
%TO.N,/COL0*%
X70250000Y-80000000D03*
%TO.P,D6,2,A*%
%TO.N,Net-(D6-A)*%
X70250000Y-77800000D03*
%TD*%
D13*
%TO.P,C26,1*%
%TO.N,+3V3*%
X83250000Y-64130000D03*
%TO.P,C26,2*%
%TO.N,GND*%
X83250000Y-63170000D03*
%TD*%
D26*
%TO.P,R4,1*%
%TO.N,GND*%
X76525000Y-69000000D03*
%TO.P,R4,2*%
%TO.N,/USB_CC1*%
X75505000Y-69000000D03*
%TD*%
D24*
%TO.P,D4,1,K*%
%TO.N,/COL3*%
X127750000Y-61200000D03*
%TO.P,D4,2,A*%
%TO.N,Net-(D4-A)*%
X127750000Y-59000000D03*
%TD*%
D18*
%TO.P,D7,1,K*%
%TO.N,/COL1*%
X88000000Y-73050000D03*
%TO.P,D7,2,A*%
%TO.N,Net-(D7-A)*%
X88000000Y-75250000D03*
%TD*%
D12*
%TO.P,C28,1*%
%TO.N,Net-(C28-Pad1)*%
X105862000Y-60087500D03*
%TO.P,C28,2*%
%TO.N,GND*%
X104902000Y-60087500D03*
%TD*%
D27*
%TO.P,R6,1*%
%TO.N,/XOUT*%
X102870000Y-66691500D03*
%TO.P,R6,2*%
%TO.N,Net-(C28-Pad1)*%
X102870000Y-65671500D03*
%TD*%
D25*
%TO.P,R2,1*%
%TO.N,/USB_D-*%
X88430000Y-68997500D03*
%TO.P,R2,2*%
%TO.N,Net-(U4-USB_DM)*%
X89390000Y-68997500D03*
%TD*%
%TO.P,C17,1*%
%TO.N,+3V3*%
X93140000Y-62207500D03*
%TO.P,C17,2*%
%TO.N,GND*%
X94100000Y-62207500D03*
%TD*%
D24*
%TO.P,D1,1,K*%
%TO.N,/COL0*%
X70250000Y-54350000D03*
%TO.P,D1,2,A*%
%TO.N,Net-(D1-A)*%
X70250000Y-52150000D03*
%TD*%
D10*
%TO.P,TP1,1,1*%
%TO.N,/COL1*%
X87499999Y-70999999D03*
%TD*%
D25*
%TO.P,C21,1*%
%TO.N,+3V3*%
X87815000Y-66975000D03*
%TO.P,C21,2*%
%TO.N,GND*%
X88775000Y-66975000D03*
%TD*%
D12*
%TO.P,C15,1*%
%TO.N,+3V3*%
X91666000Y-71009500D03*
%TO.P,C15,2*%
%TO.N,GND*%
X90706000Y-71009500D03*
%TD*%
%TO.P,C20,1*%
%TO.N,+3V3*%
X91355000Y-67375000D03*
%TO.P,C20,2*%
%TO.N,GND*%
X90395000Y-67375000D03*
%TD*%
D25*
%TO.P,R1,1*%
%TO.N,/USB_D+*%
X88425000Y-67972500D03*
%TO.P,R1,2*%
%TO.N,Net-(U4-USB_DP)*%
X89385000Y-67972500D03*
%TD*%
D28*
%TO.P,U3,1,~{CS}*%
%TO.N,/QSPI_SS*%
X84765000Y-57325000D03*
%TO.P,U3,2,DO(IO1)*%
%TO.N,/QSPI_SD1*%
X86035000Y-57325000D03*
%TO.P,U3,3,IO2*%
%TO.N,/QSPI_SD2*%
X87305000Y-57325000D03*
%TO.P,U3,4,GND*%
%TO.N,GND*%
X88575000Y-57325000D03*
%TO.P,U3,5,DI(IO0)*%
%TO.N,/QSPI_SD0*%
X88575000Y-64525000D03*
%TO.P,U3,6,CLK*%
%TO.N,/QSPI_SCLK*%
X87305000Y-64525000D03*
%TO.P,U3,7,IO3*%
%TO.N,/QSPI_SD3*%
X86035000Y-64525000D03*
%TO.P,U3,8,VCC*%
%TO.N,+3V3*%
X84765000Y-64525000D03*
%TD*%
D10*
%TO.P,TP3,1,1*%
%TO.N,/COL3*%
X126574999Y-68674999D03*
%TD*%
D11*
%TO.P,SW7,1,1*%
%TO.N,Net-(D7-A)*%
X90890000Y-75660000D03*
%TO.P,SW7,2,2*%
%TO.N,/ROW1*%
X103817000Y-73120000D03*
%TD*%
D12*
%TO.P,C24,1*%
%TO.N,+1V1*%
X91790000Y-68897500D03*
%TO.P,C24,2*%
%TO.N,GND*%
X90830000Y-68897500D03*
%TD*%
D11*
%TO.P,SW9,1,1*%
%TO.N,Net-(D9-A)*%
X128990000Y-75660000D03*
%TO.P,SW9,2,2*%
%TO.N,/ROW1*%
X141917000Y-73120000D03*
%TD*%
D29*
%TO.P,U2,1,GND*%
%TO.N,GND*%
X84649999Y-85349999D03*
%TO.P,U2,2,VO*%
%TO.N,+3V3*%
X84649999Y-83049999D03*
D30*
X90949999Y-83049999D03*
D29*
%TO.P,U2,3,VI*%
%TO.N,+5V*%
X84649999Y-80749999D03*
%TD*%
D25*
%TO.P,C16,1*%
%TO.N,+3V3*%
X101500000Y-70775000D03*
%TO.P,C16,2*%
%TO.N,GND*%
X102460000Y-70775000D03*
%TD*%
%TO.P,C13,1*%
%TO.N,+1V1*%
X102926000Y-68723500D03*
%TO.P,C13,2*%
%TO.N,GND*%
X103886000Y-68723500D03*
%TD*%
D11*
%TO.P,SW5,1,1*%
%TO.N,Net-(D5-A)*%
X148040000Y-56610000D03*
%TO.P,SW5,2,2*%
%TO.N,/ROW0*%
X160967000Y-54070000D03*
%TD*%
%TO.P,SW3,1,1*%
%TO.N,Net-(D3-A)*%
X109940000Y-56610000D03*
%TO.P,SW3,2,2*%
%TO.N,/ROW0*%
X122867000Y-54070000D03*
%TD*%
D25*
%TO.P,R5,1*%
%TO.N,/QSPI_SS*%
X91150000Y-62050000D03*
%TO.P,R5,2*%
%TO.N,/~{USB_BOOT}*%
X92110000Y-62050000D03*
%TD*%
D24*
%TO.P,D2,1,K*%
%TO.N,/COL1*%
X90750000Y-60950000D03*
%TO.P,D2,2,A*%
%TO.N,Net-(D2-A)*%
X90750000Y-58750000D03*
%TD*%
D25*
%TO.P,C19,1*%
%TO.N,+3V3*%
X102644000Y-67707500D03*
%TO.P,C19,2*%
%TO.N,GND*%
X103604000Y-67707500D03*
%TD*%
D24*
%TO.P,D5,1,K*%
%TO.N,/COL4*%
X145500000Y-61000000D03*
%TO.P,D5,2,A*%
%TO.N,Net-(D5-A)*%
X145500000Y-58800000D03*
%TD*%
D26*
%TO.P,R3,1*%
%TO.N,GND*%
X76275000Y-64000000D03*
%TO.P,R3,2*%
%TO.N,/USB_CC2*%
X75255000Y-64000000D03*
%TD*%
D11*
%TO.P,SW8,1,1*%
%TO.N,Net-(D8-A)*%
X109940000Y-75660000D03*
%TO.P,SW8,2,2*%
%TO.N,/ROW1*%
X122867000Y-73120000D03*
%TD*%
%TO.P,SW4,1,1*%
%TO.N,Net-(D4-A)*%
X128990000Y-56610000D03*
%TO.P,SW4,2,2*%
%TO.N,/ROW0*%
X141917000Y-54070000D03*
%TD*%
D18*
%TO.P,D9,1,K*%
%TO.N,/COL3*%
X126500000Y-72250000D03*
%TO.P,D9,2,A*%
%TO.N,Net-(D9-A)*%
X126500000Y-74450000D03*
%TD*%
D11*
%TO.P,SW2,1,1*%
%TO.N,Net-(D2-A)*%
X90890000Y-56610000D03*
%TO.P,SW2,2,2*%
%TO.N,/ROW0*%
X103817000Y-54070000D03*
%TD*%
D23*
%TO.P,SW11,1,1*%
%TO.N,GND*%
X137949999Y-69749999D03*
X137949999Y-63449999D03*
%TO.P,SW11,2,2*%
%TO.N,/~{USB_BOOT}*%
X134149999Y-69749999D03*
X134149999Y-63449999D03*
%TD*%
D11*
%TO.P,SW10,1,1*%
%TO.N,Net-(D10-A)*%
X148040000Y-75660000D03*
%TO.P,SW10,2,2*%
%TO.N,/ROW1*%
X160967000Y-73120000D03*
%TD*%
D31*
%TO.P,C22,1*%
%TO.N,+5V*%
X82750000Y-81250000D03*
%TO.P,C22,2*%
%TO.N,GND*%
X82750000Y-82210000D03*
%TD*%
D32*
%TO.P,Y1,1,1*%
%TO.N,/XIN*%
X103701999Y-63947499D03*
%TO.P,Y1,2,2*%
%TO.N,GND*%
X103701999Y-61747499D03*
%TO.P,Y1,3,3*%
%TO.N,Net-(C28-Pad1)*%
X105401999Y-61747499D03*
%TO.P,Y1,4,4*%
%TO.N,GND*%
X105401999Y-63947499D03*
%TD*%
D18*
%TO.P,D10,1,K*%
%TO.N,/COL4*%
X145500000Y-72000000D03*
%TO.P,D10,2,A*%
%TO.N,Net-(D10-A)*%
X145500000Y-74200000D03*
%TD*%
D13*
%TO.P,C12,1*%
%TO.N,+1V1*%
X90250000Y-65875000D03*
%TO.P,C12,2*%
%TO.N,GND*%
X90250000Y-64915000D03*
%TD*%
D11*
%TO.P,SW6,1,1*%
%TO.N,Net-(D6-A)*%
X71840000Y-75660000D03*
%TO.P,SW6,2,2*%
%TO.N,/ROW1*%
X84767000Y-73120000D03*
%TD*%
D33*
%TO.N,+5V*%
X78925000Y-81975000D03*
X79350000Y-64650000D03*
%TO.N,GND*%
X137950000Y-68200000D03*
X89750000Y-70897500D03*
X76000000Y-68025000D03*
X114310000Y-66752000D03*
X105410000Y-65271500D03*
X93750000Y-84250000D03*
X89703224Y-64221776D03*
X105725000Y-72275000D03*
X83000000Y-84500000D03*
X104422000Y-67811500D03*
X83250000Y-62275000D03*
X90000000Y-70147500D03*
X102108000Y-63389500D03*
X95000000Y-62147500D03*
X76115000Y-63025000D03*
X89600000Y-67050000D03*
X89425000Y-58225000D03*
%TO.N,+1V1*%
X94234000Y-68723500D03*
X91153504Y-65857276D03*
%TO.N,+3V3*%
X91250000Y-80500000D03*
X84775000Y-66825000D03*
X83450000Y-65050000D03*
X99060000Y-69231500D03*
X99060000Y-66437500D03*
%TO.N,/COL1*%
X88975000Y-73200000D03*
X91750000Y-61200500D03*
%TO.N,/~{USB_BOOT}*%
X129400000Y-63025000D03*
X97500000Y-55725000D03*
%TO.N,/NEO3V3*%
X94116056Y-60686056D03*
%TD*%
D34*
%TO.N,+5V*%
X77600000Y-62900000D02*
X79350000Y-64650000D01*
D35*
X84250000Y-80750000D02*
X84650000Y-80750000D01*
X82750000Y-81250000D02*
X79650000Y-81250000D01*
X79650000Y-81250000D02*
X78925000Y-81975000D01*
D34*
X72670000Y-68205000D02*
X73250000Y-68205000D01*
D35*
X74515000Y-68690000D02*
X74515000Y-69765000D01*
X84650000Y-80750000D02*
X83250000Y-80750000D01*
D34*
X75500000Y-62425000D02*
X77150000Y-62425000D01*
D35*
X74030000Y-68205000D02*
X74515000Y-68690000D01*
D34*
X77600000Y-62875000D02*
X77600000Y-62900000D01*
X77150000Y-62425000D02*
X77600000Y-62875000D01*
D35*
X73250000Y-68205000D02*
X74030000Y-68205000D01*
X82000000Y-77250000D02*
X82000000Y-78500000D01*
X82000000Y-78500000D02*
X84250000Y-80750000D01*
D34*
X71765000Y-67300000D02*
X72670000Y-68205000D01*
D35*
X74515000Y-69765000D02*
X82000000Y-77250000D01*
D34*
X73250000Y-63405000D02*
X74520000Y-63405000D01*
D35*
X83250000Y-80750000D02*
X82750000Y-81250000D01*
D34*
X72670000Y-63405000D02*
X71765000Y-64310000D01*
X74520000Y-63405000D02*
X75500000Y-62425000D01*
X73250000Y-63405000D02*
X72670000Y-63405000D01*
X71765000Y-64310000D02*
X71765000Y-67300000D01*
D36*
%TO.N,GND*%
X101600000Y-65167500D02*
X101600000Y-63897500D01*
D37*
X88775000Y-66975000D02*
X89525000Y-66975000D01*
D36*
X73250000Y-69545000D02*
X72670000Y-70125000D01*
D37*
X94940000Y-62207500D02*
X95000000Y-62147500D01*
X90830000Y-69857500D02*
X90810000Y-69877500D01*
X104525000Y-70775000D02*
X105725000Y-71975000D01*
D36*
X88575000Y-57325000D02*
X88575000Y-57375000D01*
D37*
X114300000Y-63450000D02*
X114300000Y-66742000D01*
X95065000Y-62212500D02*
X95000000Y-62147500D01*
D36*
X76525000Y-69000000D02*
X76525000Y-68550000D01*
D37*
X102460000Y-70775000D02*
X104525000Y-70775000D01*
X89862000Y-71009500D02*
X89750000Y-70897500D01*
D36*
X103702000Y-61350000D02*
X103702000Y-61398000D01*
D37*
X90250000Y-64768552D02*
X89703224Y-64221776D01*
D36*
X73250000Y-62605000D02*
X73250000Y-62065000D01*
D37*
X90706000Y-71009500D02*
X90706000Y-71997500D01*
D36*
X104902000Y-59937500D02*
X103702000Y-61137500D01*
D38*
X82750000Y-82210000D02*
X82750000Y-84250000D01*
D37*
X105725000Y-71975000D02*
X105725000Y-72275000D01*
X90395000Y-67375000D02*
X89925000Y-67375000D01*
X94100000Y-62207500D02*
X94940000Y-62207500D01*
X90810000Y-69877500D02*
X90270000Y-69877500D01*
X93710000Y-84210000D02*
X93750000Y-84250000D01*
X89925000Y-67375000D02*
X89600000Y-67050000D01*
D38*
X83850000Y-85350000D02*
X84650000Y-85350000D01*
D36*
X137950000Y-66450000D02*
X137950000Y-69750000D01*
D37*
X90706000Y-71009500D02*
X89862000Y-71009500D01*
D36*
X76525000Y-68550000D02*
X76000000Y-68025000D01*
D37*
X90250000Y-64915000D02*
X90250000Y-64768552D01*
D36*
X73250000Y-62065000D02*
X72670000Y-61485000D01*
D37*
X90270000Y-69877500D02*
X90000000Y-70147500D01*
D36*
X103886000Y-68723500D02*
X103886000Y-68497500D01*
D38*
X93710000Y-83000000D02*
X93710000Y-84210000D01*
D37*
X100780000Y-65987500D02*
X101600000Y-65167500D01*
X90810000Y-69877500D02*
X90810000Y-70905500D01*
D36*
X101600000Y-63897500D02*
X102108000Y-63389500D01*
X83250000Y-63170000D02*
X83250000Y-62275000D01*
D37*
X89525000Y-66975000D02*
X89600000Y-67050000D01*
D38*
X83000000Y-84500000D02*
X83850000Y-85350000D01*
D36*
X105402000Y-63797500D02*
X105402000Y-65263500D01*
X103604000Y-67707500D02*
X104168000Y-67707500D01*
X73250000Y-69005000D02*
X73250000Y-69545000D01*
X137950000Y-63450000D02*
X137950000Y-66450000D01*
D37*
X95960000Y-62212500D02*
X95065000Y-62212500D01*
X100177500Y-65987500D02*
X100780000Y-65987500D01*
X90810000Y-70905500D02*
X90706000Y-71009500D01*
D36*
X88575000Y-57375000D02*
X89425000Y-58225000D01*
X105402000Y-65263500D02*
X105410000Y-65271500D01*
D37*
X114300000Y-69750000D02*
X114300000Y-66762000D01*
X90830000Y-68897500D02*
X90830000Y-69857500D01*
D36*
X76275000Y-64000000D02*
X76275000Y-63185000D01*
D38*
X82750000Y-84250000D02*
X83000000Y-84500000D01*
D36*
X103702000Y-61795500D02*
X102108000Y-63389500D01*
X103886000Y-68497500D02*
X104422000Y-67961500D01*
%TO.N,+1V1*%
X90250000Y-65875000D02*
X91135780Y-65875000D01*
X91135780Y-65875000D02*
X91153504Y-65857276D01*
X94234000Y-68723500D02*
X94170000Y-68787500D01*
X94742000Y-68723500D02*
X94996000Y-68977500D01*
X99644555Y-67587500D02*
X100177500Y-67587500D01*
X91400286Y-65857276D02*
X91153504Y-65857276D01*
X94234000Y-68723500D02*
X94742000Y-68723500D01*
X93302500Y-68787500D02*
X91900000Y-68787500D01*
X101627101Y-67587500D02*
X102763101Y-68723500D01*
X91900000Y-68787500D02*
X91790000Y-68897500D01*
X100177500Y-67587500D02*
X101627101Y-67587500D01*
X91400286Y-65857276D02*
X92330510Y-66787500D01*
X94996000Y-68977500D02*
X98254555Y-68977500D01*
X102763101Y-68723500D02*
X102926000Y-68723500D01*
X93302500Y-66787500D02*
X92330510Y-66787500D01*
X98254555Y-68977500D02*
X99644555Y-67587500D01*
X94170000Y-68787500D02*
X93302500Y-68787500D01*
%TO.N,+3V3*%
X94140000Y-70425000D02*
X94140000Y-69927881D01*
X97790000Y-69485500D02*
X98044000Y-69485500D01*
X91987500Y-67587500D02*
X93302500Y-67587500D01*
X101500000Y-70775000D02*
X101172500Y-70775000D01*
X93302500Y-69587500D02*
X92862000Y-69587500D01*
X84925000Y-66975000D02*
X84775000Y-66825000D01*
D38*
X92750000Y-83000000D02*
X91000000Y-83000000D01*
D37*
X91000000Y-83000000D02*
X90950000Y-83050000D01*
D36*
X94582381Y-69485500D02*
X94742000Y-69485500D01*
X83250000Y-64130000D02*
X83250000Y-64850000D01*
X97740000Y-70425000D02*
X97740000Y-70922119D01*
D37*
X94140000Y-63550000D02*
X94140000Y-64537500D01*
D36*
X93302500Y-69187500D02*
X92460000Y-69187500D01*
D37*
X94140000Y-64537500D02*
X94500000Y-64897500D01*
D36*
X91775000Y-67375000D02*
X91987500Y-67587500D01*
X94234000Y-67453500D02*
X94234000Y-67199500D01*
X99060000Y-66437500D02*
X99060000Y-66567119D01*
D39*
X90950000Y-83050000D02*
X84650000Y-83050000D01*
D36*
X87815000Y-66975000D02*
X87815000Y-66890330D01*
X87815000Y-66890330D02*
X88430330Y-66275000D01*
X101172500Y-70775000D02*
X100800000Y-71147500D01*
X84765000Y-64525000D02*
X83975000Y-64525000D01*
X83975000Y-64525000D02*
X83450000Y-65050000D01*
X91409600Y-66432276D02*
X92164824Y-67187500D01*
X91694000Y-71009500D02*
X91666000Y-71009500D01*
X92456000Y-70247500D02*
X91694000Y-71009500D01*
X94140000Y-69927881D02*
X94582381Y-69485500D01*
X93800000Y-69187500D02*
X93302500Y-69187500D01*
X92164824Y-67187500D02*
X93302500Y-67187500D01*
D37*
X94140000Y-63207500D02*
X93140000Y-62207500D01*
D36*
X100177500Y-67187500D02*
X102124000Y-67187500D01*
X93314500Y-67199500D02*
X93302500Y-67187500D01*
X94100000Y-67587500D02*
X94234000Y-67453500D01*
X97740000Y-69535500D02*
X97790000Y-69485500D01*
X94234000Y-67199500D02*
X93314500Y-67199500D01*
X102124000Y-67187500D02*
X102644000Y-67707500D01*
X91355000Y-67375000D02*
X91775000Y-67375000D01*
X92202000Y-71367500D02*
X91694000Y-71875500D01*
X92456000Y-69993500D02*
X92456000Y-70247500D01*
X89675000Y-66275000D02*
X89832276Y-66432276D01*
X94140000Y-70425000D02*
X94140000Y-70910000D01*
X87815000Y-66975000D02*
X84925000Y-66975000D01*
X97740000Y-70425000D02*
X97740000Y-69535500D01*
X94472173Y-69298500D02*
X94183173Y-69587500D01*
X94183173Y-69587500D02*
X93302500Y-69587500D01*
D38*
X91250000Y-80500000D02*
X91250000Y-82750000D01*
D36*
X93911000Y-69298500D02*
X93800000Y-69187500D01*
X94555000Y-69298500D02*
X93911000Y-69298500D01*
X94140000Y-70910000D02*
X93682500Y-71367500D01*
D37*
X97740000Y-63032500D02*
X96920000Y-62212500D01*
D36*
X99060000Y-66567119D02*
X99680381Y-67187500D01*
D37*
X97740000Y-63550000D02*
X97740000Y-64637500D01*
D36*
X92460000Y-69187500D02*
X91770000Y-69877500D01*
X93682500Y-71367500D02*
X92202000Y-71367500D01*
X89832276Y-66432276D02*
X91409600Y-66432276D01*
X94472173Y-69298500D02*
X94555000Y-69298500D01*
X97740000Y-70922119D02*
X97965381Y-71147500D01*
X99680381Y-67187500D02*
X100177500Y-67187500D01*
D38*
X91250000Y-82750000D02*
X91000000Y-83000000D01*
D36*
X88430330Y-66275000D02*
X89675000Y-66275000D01*
X83250000Y-64850000D02*
X83450000Y-65050000D01*
X94555000Y-69298500D02*
X94742000Y-69485500D01*
X93302500Y-67587500D02*
X94100000Y-67587500D01*
X97965381Y-71147500D02*
X100800000Y-71147500D01*
D37*
X94140000Y-63550000D02*
X94140000Y-63207500D01*
D36*
X92862000Y-69587500D02*
X92456000Y-69993500D01*
D37*
%TO.N,/XIN*%
X101656000Y-66127500D02*
X102108000Y-65675500D01*
X102108000Y-65569028D02*
X102362000Y-65315028D01*
X103582000Y-63947500D02*
X103702000Y-63947500D01*
X101600000Y-66127500D02*
X101656000Y-66127500D01*
X102108000Y-65675500D02*
X102108000Y-65569028D01*
X101340000Y-66387500D02*
X100177500Y-66387500D01*
X102362000Y-65315028D02*
X102362000Y-65167500D01*
X101600000Y-66127500D02*
X101340000Y-66387500D01*
X102362000Y-65167500D02*
X103582000Y-63947500D01*
%TO.N,Net-(C28-Pad1)*%
X105862000Y-60890000D02*
X105402000Y-61350000D01*
X103953500Y-65671500D02*
X104552000Y-65073000D01*
X104552000Y-62447500D02*
X105402000Y-61597500D01*
X105862000Y-59937500D02*
X105862000Y-61137500D01*
X104552000Y-65073000D02*
X104552000Y-62447500D01*
X102870000Y-65671500D02*
X103953500Y-65671500D01*
%TO.N,/COL0*%
X95450000Y-72700000D02*
X89550000Y-72700000D01*
X94750000Y-85500000D02*
X92250000Y-88000000D01*
X70250000Y-54350000D02*
X69400000Y-54350000D01*
X67000000Y-56750000D02*
X67000000Y-76750000D01*
X85000000Y-75250000D02*
X89500000Y-79750000D01*
X89550000Y-72700000D02*
X88800000Y-71950000D01*
X81900000Y-69850000D02*
X79500000Y-72250000D01*
X76000000Y-88000000D02*
X70250000Y-82250000D01*
X70250000Y-80000000D02*
X70250000Y-82250000D01*
X69400000Y-54350000D02*
X67000000Y-56750000D01*
X67000000Y-76750000D02*
X70250000Y-80000000D01*
X88800000Y-71950000D02*
X88800000Y-70300000D01*
X96140000Y-70425000D02*
X96140000Y-72010000D01*
X79500000Y-72250000D02*
X79500000Y-73806650D01*
X92500000Y-79750000D02*
X94750000Y-82000000D01*
X94750000Y-82000000D02*
X94750000Y-85500000D01*
X80943350Y-75250000D02*
X85000000Y-75250000D01*
X88350000Y-69850000D02*
X81900000Y-69850000D01*
X79500000Y-73806650D02*
X80943350Y-75250000D01*
X88800000Y-70300000D02*
X88350000Y-69850000D01*
X89500000Y-79750000D02*
X92500000Y-79750000D01*
X96140000Y-72010000D02*
X95450000Y-72700000D01*
X92250000Y-88000000D02*
X76000000Y-88000000D01*
%TO.N,Net-(D1-A)*%
X70250000Y-52150000D02*
X70250000Y-52250000D01*
X70250000Y-52250000D02*
X71840000Y-53840000D01*
X71840000Y-53840000D02*
X71840000Y-56610000D01*
%TO.N,/COL1*%
X88975000Y-73200000D02*
X95450000Y-73200000D01*
X88000000Y-73050000D02*
X88825000Y-73050000D01*
X91499500Y-60950000D02*
X91750000Y-61200500D01*
X87500000Y-71000000D02*
X87500000Y-72550000D01*
X96540000Y-72110000D02*
X96540000Y-70425000D01*
X90750000Y-60950000D02*
X91499500Y-60950000D01*
X87500000Y-72550000D02*
X88000000Y-73050000D01*
X88825000Y-73050000D02*
X88975000Y-73200000D01*
X95450000Y-73200000D02*
X96540000Y-72110000D01*
%TO.N,Net-(D2-A)*%
X90750000Y-58750000D02*
X90750000Y-56750000D01*
X90750000Y-56750000D02*
X90890000Y-56610000D01*
%TO.N,/COL2*%
X107750000Y-61850000D02*
X107750000Y-65500000D01*
X108500000Y-61100000D02*
X110100000Y-61100000D01*
X110100000Y-61100000D02*
X112000000Y-63000000D01*
X109950000Y-72550000D02*
X107500000Y-72550000D01*
X102150000Y-70100000D02*
X104600000Y-70100000D01*
X100177500Y-69587500D02*
X101637500Y-69587500D01*
X104600000Y-70100000D02*
X107050000Y-72550000D01*
X112000000Y-70500000D02*
X109950000Y-72550000D01*
X108500000Y-61100000D02*
X107750000Y-61850000D01*
X107050000Y-72550000D02*
X107500000Y-72550000D01*
X112000000Y-63000000D02*
X112000000Y-70500000D01*
X101637500Y-69587500D02*
X102150000Y-70100000D01*
%TO.N,Net-(D3-A)*%
X109940000Y-57460000D02*
X108500000Y-58900000D01*
X109940000Y-56610000D02*
X109940000Y-57460000D01*
%TO.N,/COL3*%
X99340000Y-62760000D02*
X101750000Y-60350000D01*
X116000000Y-69500000D02*
X117000000Y-70500000D01*
X117000000Y-70500000D02*
X124750000Y-70500000D01*
X127750000Y-61200000D02*
X127750000Y-64150000D01*
X126575000Y-68675000D02*
X126575000Y-72175000D01*
X107750000Y-60500000D02*
X109994974Y-60500000D01*
X114750000Y-62000000D02*
X116000000Y-63250000D01*
X126575000Y-72175000D02*
X126500000Y-72250000D01*
X127750000Y-64150000D02*
X126575000Y-65325000D01*
X116000000Y-63250000D02*
X116000000Y-69500000D01*
X111494974Y-62000000D02*
X114750000Y-62000000D01*
X109994974Y-60500000D02*
X111494974Y-62000000D01*
X105000000Y-57750000D02*
X107750000Y-60500000D01*
X124750000Y-70500000D02*
X126500000Y-72250000D01*
X101750000Y-58500000D02*
X102500000Y-57750000D01*
X99340000Y-63550000D02*
X99340000Y-62760000D01*
X102500000Y-57750000D02*
X105000000Y-57750000D01*
X126575000Y-65325000D02*
X126575000Y-68675000D01*
X101750000Y-60350000D02*
X101750000Y-58500000D01*
%TO.N,Net-(D4-A)*%
X128990000Y-56610000D02*
X128990000Y-57760000D01*
X128990000Y-57760000D02*
X127750000Y-59000000D01*
%TO.N,/COL4*%
X145500000Y-68750000D02*
X145500000Y-72000000D01*
X130075000Y-61825000D02*
X144675000Y-61825000D01*
X126025000Y-61725000D02*
X127250000Y-60500000D01*
X144675000Y-61825000D02*
X145500000Y-61000000D01*
X102355025Y-57400000D02*
X105144974Y-57400000D01*
X110139948Y-60150000D02*
X111489948Y-61500000D01*
X128750000Y-60500000D02*
X130075000Y-61825000D01*
X115550000Y-61500000D02*
X115775000Y-61725000D01*
X98940000Y-62665026D02*
X101250000Y-60355026D01*
X98940000Y-63550000D02*
X98940000Y-62665026D01*
X105144974Y-57400000D02*
X107894974Y-60150000D01*
X107894974Y-60150000D02*
X110139948Y-60150000D01*
X101250000Y-60355026D02*
X101250000Y-58505025D01*
X145500000Y-61000000D02*
X145500000Y-68750000D01*
X127250000Y-60500000D02*
X128750000Y-60500000D01*
X101250000Y-58505025D02*
X102355025Y-57400000D01*
X115775000Y-61725000D02*
X126025000Y-61725000D01*
X111489948Y-61500000D02*
X115550000Y-61500000D01*
%TO.N,Net-(D5-A)*%
X148040000Y-56610000D02*
X147690000Y-56610000D01*
X147690000Y-56610000D02*
X145500000Y-58800000D01*
%TO.N,Net-(D6-A)*%
X70250000Y-77250000D02*
X70250000Y-77800000D01*
X71840000Y-75660000D02*
X70250000Y-77250000D01*
%TO.N,Net-(D7-A)*%
X90480000Y-75250000D02*
X90890000Y-75660000D01*
X88000000Y-75250000D02*
X90480000Y-75250000D01*
%TO.N,Net-(D8-A)*%
X107500000Y-74750000D02*
X108410000Y-75660000D01*
X108410000Y-75660000D02*
X109940000Y-75660000D01*
%TO.N,Net-(D9-A)*%
X128990000Y-75660000D02*
X127710000Y-75660000D01*
X127710000Y-75660000D02*
X126500000Y-74450000D01*
%TO.N,Net-(D10-A)*%
X145500000Y-74200000D02*
X146960000Y-75660000D01*
X146960000Y-75660000D02*
X148040000Y-75660000D01*
%TO.N,/USB_CC1*%
X73250000Y-67055000D02*
X74030000Y-67055000D01*
X75505000Y-68530000D02*
X75505000Y-69000000D01*
X74030000Y-67055000D02*
X75505000Y-68530000D01*
D34*
%TO.N,/USB_D+*%
X74723784Y-65583154D02*
X74763733Y-65583154D01*
D40*
X78779252Y-68007500D02*
X76354906Y-65583154D01*
D34*
X73250000Y-66055000D02*
X74251938Y-66055000D01*
X74251938Y-66055000D02*
X74723784Y-65583154D01*
D40*
X88425000Y-67972500D02*
X88390000Y-68007500D01*
D34*
X74235579Y-65055000D02*
X74763733Y-65583154D01*
D40*
X76354906Y-65583154D02*
X74763733Y-65583154D01*
D34*
X73250000Y-65055000D02*
X74235579Y-65055000D01*
D40*
X88390000Y-68007500D02*
X78779252Y-68007500D01*
D34*
%TO.N,/USB_D-*%
X72570000Y-66555000D02*
X72365000Y-66350000D01*
D40*
X88430000Y-68997500D02*
X88390000Y-68957500D01*
D34*
X73250000Y-66555000D02*
X74693684Y-66555000D01*
X73250000Y-65555000D02*
X72560000Y-65555000D01*
D40*
X88390000Y-68957500D02*
X78385748Y-68957500D01*
D34*
X72365000Y-65750000D02*
X72365000Y-66350000D01*
D40*
X75961402Y-66533154D02*
X74763733Y-66533154D01*
X78385748Y-68957500D02*
X75961402Y-66533154D01*
D34*
X72560000Y-65555000D02*
X72365000Y-65750000D01*
D37*
%TO.N,/USB_CC2*%
X75200000Y-64055000D02*
X75255000Y-64000000D01*
X73250000Y-64055000D02*
X75200000Y-64055000D01*
%TO.N,/~{USB_BOOT}*%
X129825000Y-63450000D02*
X134150000Y-63450000D01*
X94475000Y-59550000D02*
X92110000Y-61915000D01*
X134150000Y-63450000D02*
X134150000Y-69750000D01*
X92110000Y-61915000D02*
X92110000Y-62050000D01*
X96250000Y-56375000D02*
X96250000Y-57400000D01*
X96250000Y-57400000D02*
X94475000Y-59175000D01*
X129825000Y-63450000D02*
X129400000Y-63025000D01*
X97500000Y-55725000D02*
X96900000Y-55725000D01*
X94475000Y-59175000D02*
X94475000Y-59550000D01*
X96900000Y-55725000D02*
X96250000Y-56375000D01*
%TO.N,/RUN*%
X102675000Y-69750000D02*
X101712500Y-68787500D01*
X110500000Y-63450000D02*
X110500000Y-69750000D01*
X101712500Y-68787500D02*
X100177500Y-68787500D01*
X110500000Y-69750000D02*
X102675000Y-69750000D01*
%TO.N,Net-(U4-USB_DP)*%
X93302500Y-67987500D02*
X89400000Y-67987500D01*
%TO.N,Net-(U4-USB_DM)*%
X90390000Y-68337500D02*
X89730000Y-68997500D01*
X93302500Y-68387500D02*
X92650000Y-68387500D01*
X92600000Y-68337500D02*
X90390000Y-68337500D01*
X92650000Y-68387500D02*
X92600000Y-68337500D01*
X89730000Y-68997500D02*
X89390000Y-68997500D01*
%TO.N,/QSPI_SS*%
X85350000Y-59100000D02*
X87075000Y-60825000D01*
X91150000Y-62235000D02*
X93302500Y-64387500D01*
X87075000Y-60825000D02*
X89844670Y-60825000D01*
X89844670Y-60825000D02*
X91069670Y-62050000D01*
X91069670Y-62050000D02*
X91150000Y-62050000D01*
X84765000Y-57325000D02*
X84765000Y-58065000D01*
X85350000Y-58650000D02*
X85350000Y-59100000D01*
X84765000Y-58065000D02*
X85350000Y-58650000D01*
X91150000Y-62050000D02*
X91150000Y-62235000D01*
%TO.N,/XOUT*%
X102774000Y-66787500D02*
X100177500Y-66787500D01*
X102870000Y-66691500D02*
X102774000Y-66787500D01*
%TO.N,/ROW0*%
X103817000Y-54433000D02*
X103817000Y-54070000D01*
X160967000Y-54070000D02*
X159037000Y-56000000D01*
X96750000Y-53500000D02*
X100750000Y-57500000D01*
X98540000Y-63550000D02*
X98540000Y-62485000D01*
X153570000Y-54070000D02*
X141917000Y-54070000D01*
X122867000Y-54070000D02*
X134070000Y-54070000D01*
X139500000Y-56500000D02*
X139500000Y-56487000D01*
X84767000Y-54070000D02*
X85337000Y-53500000D01*
X100750000Y-60275000D02*
X100750000Y-57500000D01*
X139500000Y-56487000D02*
X141917000Y-54070000D01*
X100750000Y-57500000D02*
X103817000Y-54433000D01*
X103817000Y-54070000D02*
X115320000Y-54070000D01*
X134070000Y-54070000D02*
X136500000Y-56500000D01*
X98540000Y-62485000D02*
X100750000Y-60275000D01*
X85337000Y-53500000D02*
X96750000Y-53500000D01*
X136500000Y-56500000D02*
X139500000Y-56500000D01*
X115320000Y-54070000D02*
X117195000Y-55945000D01*
X155500000Y-56000000D02*
X153570000Y-54070000D01*
X120992000Y-55945000D02*
X122867000Y-54070000D01*
X117195000Y-55945000D02*
X120992000Y-55945000D01*
X159037000Y-56000000D02*
X155500000Y-56000000D01*
%TO.N,/ROW1*%
X139750000Y-75250000D02*
X135750000Y-75250000D01*
X123247000Y-73500000D02*
X122867000Y-73120000D01*
X135750000Y-75250000D02*
X134000000Y-73500000D01*
X103817000Y-73120000D02*
X101437000Y-75500000D01*
X96940000Y-70425000D02*
X96940000Y-72250000D01*
X141917000Y-73120000D02*
X141880000Y-73120000D01*
X96940000Y-72310000D02*
X95465000Y-73785000D01*
X120737000Y-75250000D02*
X117750000Y-75250000D01*
X96940000Y-72250000D02*
X96940000Y-72440000D01*
X96940000Y-72440000D02*
X100000000Y-75500000D01*
X156250000Y-75500000D02*
X154000000Y-73250000D01*
X95465000Y-73785000D02*
X89465000Y-73785000D01*
X96940000Y-72250000D02*
X96940000Y-72310000D01*
X159000000Y-75500000D02*
X156250000Y-75500000D01*
X115620000Y-73120000D02*
X103817000Y-73120000D01*
X154000000Y-73250000D02*
X142047000Y-73250000D01*
X134000000Y-73500000D02*
X123247000Y-73500000D01*
X89000000Y-74250000D02*
X89465000Y-73785000D01*
X89000000Y-74250000D02*
X85897000Y-74250000D01*
X117750000Y-75250000D02*
X115620000Y-73120000D01*
X142047000Y-73250000D02*
X141917000Y-73120000D01*
X160967000Y-73533000D02*
X159000000Y-75500000D01*
X160967000Y-73120000D02*
X160967000Y-73533000D01*
X85897000Y-74250000D02*
X84767000Y-73120000D01*
X141880000Y-73120000D02*
X139750000Y-75250000D01*
X101437000Y-75500000D02*
X100000000Y-75500000D01*
X122867000Y-73120000D02*
X120737000Y-75250000D01*
%TO.N,/NEO3V3*%
X98140000Y-62570957D02*
X98140000Y-63550000D01*
X94116056Y-60686056D02*
X94164612Y-60637500D01*
X97019043Y-61450000D02*
X98140000Y-62570957D01*
X96525000Y-61450000D02*
X97019043Y-61450000D01*
X94164612Y-60637500D02*
X95712500Y-60637500D01*
X95712500Y-60637500D02*
X96525000Y-61450000D01*
%TO.N,/QSPI_SD1*%
X82675000Y-57825000D02*
X84225000Y-56275000D01*
X90620000Y-62381543D02*
X90620000Y-62145000D01*
X83225000Y-60425000D02*
X82675000Y-59875000D01*
X86175000Y-60425000D02*
X83225000Y-60425000D01*
X86035000Y-57229315D02*
X86035000Y-57325000D01*
X90620000Y-62145000D02*
X89650000Y-61175000D01*
X92840736Y-64787500D02*
X92539118Y-64485882D01*
X93302500Y-64787500D02*
X92840736Y-64787500D01*
X92539118Y-64300662D02*
X90620000Y-62381543D01*
X82675000Y-59875000D02*
X82675000Y-57825000D01*
X89650000Y-61175000D02*
X86925000Y-61175000D01*
X84225000Y-56275000D02*
X85080685Y-56275000D01*
X92539118Y-64485882D02*
X92539118Y-64300662D01*
X86925000Y-61175000D02*
X86175000Y-60425000D01*
X85080685Y-56275000D02*
X86035000Y-57229315D01*
%TO.N,/QSPI_SD2*%
X92745762Y-65187500D02*
X93302500Y-65187500D01*
X83080026Y-60775000D02*
X86030026Y-60775000D01*
X92121741Y-64563479D02*
X92745762Y-65187500D01*
X86030026Y-60775000D02*
X86815013Y-61559987D01*
X90270000Y-62526517D02*
X92121741Y-64378259D01*
X86815013Y-61559987D02*
X89540013Y-61559987D01*
X86000685Y-55925000D02*
X84080026Y-55925000D01*
X87305000Y-57325000D02*
X87305000Y-57229315D01*
X82325000Y-57680026D02*
X82325000Y-60019974D01*
X92121741Y-64378259D02*
X92121741Y-64563479D01*
X87305000Y-57229315D02*
X86000685Y-55925000D01*
X82325000Y-60019974D02*
X83080026Y-60775000D01*
X90270000Y-62289974D02*
X90270000Y-62526517D01*
X84080026Y-55925000D02*
X82325000Y-57680026D01*
X89540013Y-61559987D02*
X90270000Y-62289974D01*
%TO.N,/QSPI_SD0*%
X91686754Y-64623467D02*
X91686754Y-64438246D01*
X88575000Y-65600000D02*
X88575000Y-64525000D01*
X92650788Y-65587500D02*
X91686754Y-64623467D01*
X88050000Y-66125000D02*
X88575000Y-65600000D01*
X82550000Y-61125000D02*
X82200000Y-61475000D01*
X89920000Y-62671491D02*
X89920000Y-62434948D01*
X93302500Y-65587500D02*
X92650788Y-65587500D01*
X86670039Y-61909987D02*
X85885052Y-61125000D01*
X82200000Y-65300000D02*
X83025000Y-66125000D01*
X83025000Y-66125000D02*
X88050000Y-66125000D01*
X89920000Y-62434948D02*
X89395039Y-61909987D01*
X82200000Y-61475000D02*
X82200000Y-65300000D01*
X89395039Y-61909987D02*
X86670039Y-61909987D01*
X91686754Y-64438246D02*
X89920000Y-62671491D01*
X85885052Y-61125000D02*
X82550000Y-61125000D01*
%TO.N,/QSPI_SCLK*%
X89034987Y-62259987D02*
X89300000Y-62525000D01*
X82550000Y-65155026D02*
X83169974Y-65775000D01*
X89300000Y-62525000D02*
X89300000Y-62546465D01*
X83169974Y-65775000D02*
X86375000Y-65775000D01*
X85700000Y-61475000D02*
X82700000Y-61475000D01*
X82700000Y-61475000D02*
X82550000Y-61625000D01*
X87305000Y-64845000D02*
X87305000Y-64525000D01*
X86375000Y-65775000D02*
X87305000Y-64845000D01*
X82550000Y-61625000D02*
X82550000Y-65155026D01*
X86484987Y-62259987D02*
X85700000Y-61475000D01*
X93302500Y-65987500D02*
X92555814Y-65987500D01*
X91276767Y-64523233D02*
X91276767Y-64708455D01*
X86484987Y-62259987D02*
X89034987Y-62259987D01*
X91276767Y-64708455D02*
X92555814Y-65987500D01*
X89300000Y-62546465D02*
X91276767Y-64523233D01*
%TO.N,/QSPI_SD3*%
X93302500Y-66387500D02*
X92460840Y-66387500D01*
X90926767Y-64668207D02*
X89383560Y-63125000D01*
X91186667Y-65113330D02*
X90926767Y-64853430D01*
X86400000Y-63125000D02*
X86035000Y-63490000D01*
X90926767Y-64853430D02*
X90926767Y-64668207D01*
X86035000Y-63490000D02*
X86035000Y-64525000D01*
X89383560Y-63125000D02*
X86400000Y-63125000D01*
X91186670Y-65113330D02*
X91186667Y-65113330D01*
X92460840Y-66387500D02*
X91186670Y-65113330D01*
%TD*%
%TA.AperFunction,Conductor*%
%TO.N,+3V3*%
G36*
X99538385Y-68231215D02*
G01*
X99575985Y-68275238D01*
X99589500Y-68331533D01*
X99589500Y-68457248D01*
X99589832Y-68458920D01*
X99590000Y-68462325D01*
X99590000Y-68712675D01*
X99589832Y-68716079D01*
X99589500Y-68717752D01*
X99589500Y-68857248D01*
X99589832Y-68858920D01*
X99590000Y-68862325D01*
X99590000Y-69112675D01*
X99589832Y-69116079D01*
X99589500Y-69117752D01*
X99589500Y-69257248D01*
X99589832Y-69258920D01*
X99590000Y-69262325D01*
X99590000Y-69512675D01*
X99589832Y-69516079D01*
X99589500Y-69517752D01*
X99589500Y-69657248D01*
X99589832Y-69658920D01*
X99590000Y-69662325D01*
X99590000Y-69707645D01*
X99572421Y-69771289D01*
X99524669Y-69816887D01*
X99460283Y-69831513D01*
X97980229Y-69763202D01*
X97980225Y-69763202D01*
X97965000Y-69762500D01*
X97964586Y-69765259D01*
X97933671Y-69766649D01*
X97897030Y-69756815D01*
X97868404Y-69744176D01*
X97850613Y-69739335D01*
X97838340Y-69737911D01*
X97831218Y-69737500D01*
X97648786Y-69737500D01*
X97641649Y-69737913D01*
X97629393Y-69739335D01*
X97611592Y-69744177D01*
X97528031Y-69781072D01*
X97513835Y-69790798D01*
X97480437Y-69806950D01*
X97443756Y-69812500D01*
X94436244Y-69812500D01*
X94399563Y-69806950D01*
X94366165Y-69790798D01*
X94351968Y-69781072D01*
X94268401Y-69744174D01*
X94250615Y-69739335D01*
X94238340Y-69737911D01*
X94231219Y-69737500D01*
X94113999Y-69737500D01*
X94051999Y-69720887D01*
X94006612Y-69675500D01*
X93989999Y-69613500D01*
X93989999Y-69496286D01*
X93989586Y-69489149D01*
X93988164Y-69476891D01*
X93983322Y-69459092D01*
X93973827Y-69437589D01*
X93963260Y-69387500D01*
X93973827Y-69337411D01*
X93983322Y-69315907D01*
X93988164Y-69298111D01*
X93989586Y-69285854D01*
X93989937Y-69279790D01*
X94005352Y-69226690D01*
X94042315Y-69185570D01*
X94093477Y-69164604D01*
X94148663Y-69167961D01*
X94169228Y-69174000D01*
X94289901Y-69174000D01*
X94298772Y-69174000D01*
X94423069Y-69137504D01*
X94532049Y-69067467D01*
X94534538Y-69064593D01*
X94586776Y-69038446D01*
X94648069Y-69040635D01*
X94700815Y-69071931D01*
X94773370Y-69144486D01*
X94788790Y-69163275D01*
X94790587Y-69165965D01*
X94790589Y-69165967D01*
X94797376Y-69176124D01*
X94820376Y-69191492D01*
X94820378Y-69191494D01*
X94820384Y-69191498D01*
X94878350Y-69230230D01*
X94878351Y-69230230D01*
X94888505Y-69237015D01*
X94996000Y-69258397D01*
X95011152Y-69255382D01*
X95035344Y-69253000D01*
X98215211Y-69253000D01*
X98239402Y-69255382D01*
X98254555Y-69258397D01*
X98281687Y-69253000D01*
X98281688Y-69253000D01*
X98362050Y-69237015D01*
X98404020Y-69208971D01*
X98430177Y-69191494D01*
X98430182Y-69191489D01*
X98453179Y-69176124D01*
X98461765Y-69163272D01*
X98477179Y-69144490D01*
X99377818Y-68243852D01*
X99427182Y-68213602D01*
X99484898Y-68209060D01*
X99538385Y-68231215D01*
G37*
%TD.AperFunction*%
%TA.AperFunction,Conductor*%
G36*
X94468425Y-64137725D02*
G01*
X94469032Y-64137757D01*
X94470252Y-64138000D01*
X94473581Y-64138000D01*
X94502522Y-64138000D01*
X94503501Y-64138003D01*
X97443039Y-64161333D01*
X97479196Y-64167024D01*
X97512124Y-64183030D01*
X97528031Y-64193927D01*
X97611598Y-64230825D01*
X97629384Y-64235664D01*
X97641659Y-64237088D01*
X97648781Y-64237499D01*
X97831213Y-64237499D01*
X97838350Y-64237086D01*
X97850606Y-64235664D01*
X97868413Y-64230820D01*
X97936071Y-64200947D01*
X97989800Y-64190435D01*
X99469146Y-64233945D01*
X99529593Y-64251740D01*
X99573490Y-64296946D01*
X99589500Y-64357891D01*
X99589500Y-64457248D01*
X99589832Y-64458920D01*
X99590000Y-64462325D01*
X99590000Y-64712675D01*
X99589832Y-64716079D01*
X99589500Y-64717752D01*
X99589500Y-64857248D01*
X99589832Y-64858920D01*
X99590000Y-64862325D01*
X99590000Y-65112675D01*
X99589832Y-65116079D01*
X99589500Y-65117752D01*
X99589500Y-65257248D01*
X99589832Y-65258920D01*
X99590000Y-65262325D01*
X99590000Y-65512675D01*
X99589832Y-65516079D01*
X99589500Y-65517752D01*
X99589500Y-65657248D01*
X99589832Y-65658920D01*
X99590000Y-65662325D01*
X99590000Y-65912675D01*
X99589832Y-65916079D01*
X99589500Y-65917752D01*
X99589500Y-66057248D01*
X99589832Y-66058920D01*
X99590000Y-66062325D01*
X99590000Y-66312675D01*
X99589832Y-66316079D01*
X99589500Y-66317752D01*
X99589500Y-66457248D01*
X99589832Y-66458920D01*
X99590000Y-66462325D01*
X99590000Y-66712675D01*
X99589832Y-66716079D01*
X99589500Y-66717752D01*
X99589500Y-66722853D01*
X99589500Y-66857248D01*
X99588440Y-66857248D01*
X99582709Y-66903691D01*
X99553643Y-66949591D01*
X99546339Y-66956894D01*
X99533572Y-66975532D01*
X99496674Y-67059098D01*
X99491835Y-67076884D01*
X99490411Y-67089159D01*
X99490000Y-67096281D01*
X99490000Y-67278706D01*
X99490588Y-67288867D01*
X99482677Y-67340146D01*
X99455084Y-67382759D01*
X99445931Y-67388876D01*
X99439149Y-67399024D01*
X99439148Y-67399026D01*
X99438246Y-67400375D01*
X99437341Y-67401729D01*
X99421928Y-67420509D01*
X98702181Y-68140258D01*
X98652818Y-68170508D01*
X98595102Y-68175050D01*
X98541615Y-68152895D01*
X98504015Y-68108872D01*
X98490500Y-68052577D01*
X98490500Y-65491107D01*
X98490500Y-65487532D01*
X98487643Y-65462906D01*
X98443170Y-65362185D01*
X98365315Y-65284330D01*
X98354804Y-65279689D01*
X98354803Y-65279688D01*
X98273127Y-65243624D01*
X98273122Y-65243622D01*
X98264594Y-65239857D01*
X98255329Y-65238782D01*
X98243517Y-65237411D01*
X98243504Y-65237410D01*
X98239968Y-65237000D01*
X95240032Y-65237000D01*
X95236496Y-65237410D01*
X95236482Y-65237411D01*
X95224670Y-65238782D01*
X95224668Y-65238782D01*
X95215406Y-65239857D01*
X95206878Y-65243622D01*
X95206872Y-65243624D01*
X95125196Y-65279688D01*
X95125192Y-65279690D01*
X95114685Y-65284330D01*
X95106562Y-65292452D01*
X95106559Y-65292455D01*
X95044955Y-65354059D01*
X95044952Y-65354062D01*
X95036830Y-65362185D01*
X95032190Y-65372692D01*
X95032188Y-65372696D01*
X94996124Y-65454372D01*
X94996122Y-65454378D01*
X94992357Y-65462906D01*
X94991282Y-65472168D01*
X94991282Y-65472170D01*
X94989911Y-65483982D01*
X94989910Y-65483996D01*
X94989500Y-65487532D01*
X94989500Y-65491107D01*
X94989500Y-68340740D01*
X94977595Y-68393757D01*
X94944165Y-68436593D01*
X94895629Y-68461024D01*
X94841310Y-68462356D01*
X94769133Y-68448000D01*
X94769132Y-68448000D01*
X94742000Y-68442603D01*
X94730020Y-68444986D01*
X94726848Y-68445617D01*
X94702656Y-68448000D01*
X94648005Y-68448000D01*
X94596493Y-68436794D01*
X94554291Y-68405202D01*
X94537856Y-68386235D01*
X94532049Y-68379533D01*
X94524589Y-68374738D01*
X94524587Y-68374737D01*
X94457359Y-68331533D01*
X94423069Y-68309496D01*
X94414555Y-68306996D01*
X94307284Y-68275499D01*
X94307282Y-68275498D01*
X94298772Y-68273000D01*
X94169228Y-68273000D01*
X94160719Y-68275498D01*
X94160714Y-68275499D01*
X94073934Y-68300980D01*
X94016983Y-68304033D01*
X93964689Y-68281270D01*
X93928116Y-68237507D01*
X93915000Y-68182003D01*
X93915000Y-67883744D01*
X93920550Y-67847063D01*
X93936702Y-67813665D01*
X93946427Y-67799468D01*
X93983325Y-67715901D01*
X93988164Y-67698115D01*
X93989588Y-67685840D01*
X93989999Y-67678718D01*
X93989999Y-67496286D01*
X93989586Y-67489149D01*
X93988164Y-67476891D01*
X93983322Y-67459092D01*
X93973827Y-67437589D01*
X93963260Y-67387500D01*
X93973827Y-67337411D01*
X93983322Y-67315907D01*
X93988164Y-67298111D01*
X93989588Y-67285840D01*
X93989999Y-67278718D01*
X93989999Y-67096286D01*
X93989586Y-67089149D01*
X93988164Y-67076893D01*
X93983322Y-67059092D01*
X93946427Y-66975531D01*
X93937960Y-66963171D01*
X93921650Y-66929258D01*
X93916265Y-66892022D01*
X93938279Y-64360413D01*
X93955246Y-64298878D01*
X94000584Y-64253933D01*
X94062272Y-64237499D01*
X94231214Y-64237499D01*
X94238350Y-64237086D01*
X94250606Y-64235664D01*
X94268407Y-64230822D01*
X94351967Y-64193927D01*
X94370601Y-64181162D01*
X94377737Y-64174027D01*
X94418425Y-64146956D01*
X94466408Y-64137709D01*
X94468425Y-64137725D01*
G37*
%TD.AperFunction*%
%TD*%
M02*
