%TF.GenerationSoftware,KiCad,Pcbnew,(7.0.0-0)*%
%TF.CreationDate,2023-04-10T20:33:14-04:00*%
%TF.ProjectId,KnGYT,4b6e4759-542e-46b6-9963-61645f706362,rev?*%
%TF.SameCoordinates,Original*%
%TF.FileFunction,Paste,Bot*%
%TF.FilePolarity,Positive*%
%FSLAX46Y46*%
G04 Gerber Fmt 4.6, Leading zero omitted, Abs format (unit mm)*
G04 Created by KiCad (PCBNEW (7.0.0-0)) date 2023-04-10 20:33:14*
%MOMM*%
%LPD*%
G01*
G04 APERTURE LIST*
G04 Aperture macros list*
%AMRoundRect*
0 Rectangle with rounded corners*
0 $1 Rounding radius*
0 $2 $3 $4 $5 $6 $7 $8 $9 X,Y pos of 4 corners*
0 Add a 4 corners polygon primitive as box body*
4,1,4,$2,$3,$4,$5,$6,$7,$8,$9,$2,$3,0*
0 Add four circle primitives for the rounded corners*
1,1,$1+$1,$2,$3*
1,1,$1+$1,$4,$5*
1,1,$1+$1,$6,$7*
1,1,$1+$1,$8,$9*
0 Add four rect primitives between the rounded corners*
20,1,$1+$1,$2,$3,$4,$5,0*
20,1,$1+$1,$4,$5,$6,$7,0*
20,1,$1+$1,$6,$7,$8,$9,0*
20,1,$1+$1,$8,$9,$2,$3,0*%
G04 Aperture macros list end*
%ADD10RoundRect,0.250000X1.025000X1.000000X-1.025000X1.000000X-1.025000X-1.000000X1.025000X-1.000000X0*%
%ADD11RoundRect,0.140000X0.140000X0.170000X-0.140000X0.170000X-0.140000X-0.170000X0.140000X-0.170000X0*%
%ADD12RoundRect,0.140000X0.170000X-0.140000X0.170000X0.140000X-0.170000X0.140000X-0.170000X-0.140000X0*%
%ADD13RoundRect,0.250000X-0.292217X0.292217X-0.292217X-0.292217X0.292217X-0.292217X0.292217X0.292217X0*%
%ADD14RoundRect,0.050000X-0.050000X0.387500X-0.050000X-0.387500X0.050000X-0.387500X0.050000X0.387500X0*%
%ADD15RoundRect,0.050000X-0.387500X0.050000X-0.387500X-0.050000X0.387500X-0.050000X0.387500X0.050000X0*%
%ADD16RoundRect,0.125000X-0.125000X0.125000X-0.125000X-0.125000X0.125000X-0.125000X0.125000X0.125000X0*%
%ADD17R,1.160000X0.600000*%
%ADD18R,1.160000X0.300000*%
%ADD19R,1.000000X1.700000*%
%ADD20RoundRect,0.125000X0.125000X-0.125000X0.125000X0.125000X-0.125000X0.125000X-0.125000X-0.125000X0*%
%ADD21RoundRect,0.140000X-0.140000X-0.170000X0.140000X-0.170000X0.140000X0.170000X-0.140000X0.170000X0*%
%ADD22RoundRect,0.135000X0.135000X0.185000X-0.135000X0.185000X-0.135000X-0.185000X0.135000X-0.185000X0*%
%ADD23RoundRect,0.135000X0.185000X-0.135000X0.185000X0.135000X-0.185000X0.135000X-0.185000X-0.135000X0*%
%ADD24RoundRect,0.150000X-0.150000X0.650000X-0.150000X-0.650000X0.150000X-0.650000X0.150000X0.650000X0*%
%ADD25R,2.000000X1.500000*%
%ADD26R,2.000000X3.800000*%
%ADD27RoundRect,0.140000X-0.170000X0.140000X-0.170000X-0.140000X0.170000X-0.140000X0.170000X0.140000X0*%
%ADD28R,1.200000X1.400000*%
G04 APERTURE END LIST*
D10*
%TO.C,SW1*%
X71840000Y-56610000D03*
X84767000Y-54070000D03*
%TD*%
D11*
%TO.C,C25*%
X91770000Y-69877500D03*
X90810000Y-69877500D03*
%TD*%
D12*
%TO.C,C27*%
X101600000Y-66127500D03*
X101600000Y-65167500D03*
%TD*%
D11*
%TO.C,C18*%
X96920000Y-62212500D03*
X95960000Y-62212500D03*
%TD*%
D13*
%TO.C,U4*%
X97377500Y-66350000D03*
X96102500Y-66350000D03*
X97377500Y-67625000D03*
X96102500Y-67625000D03*
D14*
X94140000Y-63550000D03*
X94540000Y-63550000D03*
X94940000Y-63550000D03*
X95340000Y-63550000D03*
X95740000Y-63550000D03*
X96140000Y-63550000D03*
X96540000Y-63550000D03*
X96940000Y-63550000D03*
X97340000Y-63550000D03*
X97740000Y-63550000D03*
X98140000Y-63550000D03*
X98540000Y-63550000D03*
X98940000Y-63550000D03*
X99340000Y-63550000D03*
D15*
X100177500Y-64387500D03*
X100177500Y-64787500D03*
X100177500Y-65187500D03*
X100177500Y-65587500D03*
X100177500Y-65987500D03*
X100177500Y-66387500D03*
X100177500Y-66787500D03*
X100177500Y-67187500D03*
X100177500Y-67587500D03*
X100177500Y-67987500D03*
X100177500Y-68387500D03*
X100177500Y-68787500D03*
X100177500Y-69187500D03*
X100177500Y-69587500D03*
D14*
X99340000Y-70425000D03*
X98940000Y-70425000D03*
X98540000Y-70425000D03*
X98140000Y-70425000D03*
X97740000Y-70425000D03*
X97340000Y-70425000D03*
X96940000Y-70425000D03*
X96540000Y-70425000D03*
X96140000Y-70425000D03*
X95740000Y-70425000D03*
X95340000Y-70425000D03*
X94940000Y-70425000D03*
X94540000Y-70425000D03*
X94140000Y-70425000D03*
D15*
X93302500Y-69587500D03*
X93302500Y-69187500D03*
X93302500Y-68787500D03*
X93302500Y-68387500D03*
X93302500Y-67987500D03*
X93302500Y-67587500D03*
X93302500Y-67187500D03*
X93302500Y-66787500D03*
X93302500Y-66387500D03*
X93302500Y-65987500D03*
X93302500Y-65587500D03*
X93302500Y-65187500D03*
X93302500Y-64787500D03*
X93302500Y-64387500D03*
%TD*%
D16*
%TO.C,D8*%
X107500000Y-72550000D03*
X107500000Y-74750000D03*
%TD*%
D17*
%TO.C,J1*%
X73249999Y-69004999D03*
X73249999Y-68204999D03*
D18*
X73249999Y-67054999D03*
X73249999Y-66054999D03*
X73249999Y-65554999D03*
X73249999Y-64554999D03*
D17*
X73249999Y-63404999D03*
X73249999Y-62604999D03*
X73249999Y-62604999D03*
X73249999Y-63404999D03*
D18*
X73249999Y-64054999D03*
X73249999Y-65054999D03*
X73249999Y-66554999D03*
X73249999Y-67554999D03*
D17*
X73249999Y-68204999D03*
X73249999Y-69004999D03*
%TD*%
D19*
%TO.C,SW12*%
X114299999Y-69749999D03*
X114299999Y-63449999D03*
X110499999Y-69749999D03*
X110499999Y-63449999D03*
%TD*%
D11*
%TO.C,C14*%
X91694000Y-72025500D03*
X90734000Y-72025500D03*
%TD*%
D20*
%TO.C,D3*%
X108500000Y-61100000D03*
X108500000Y-58900000D03*
%TD*%
D21*
%TO.C,C23*%
X92750000Y-83000000D03*
X93710000Y-83000000D03*
%TD*%
D20*
%TO.C,D6*%
X70250000Y-80000000D03*
X70250000Y-77800000D03*
%TD*%
D12*
%TO.C,C26*%
X83250000Y-64130000D03*
X83250000Y-63170000D03*
%TD*%
D22*
%TO.C,R4*%
X76525000Y-69000000D03*
X75505000Y-69000000D03*
%TD*%
D20*
%TO.C,D4*%
X127750000Y-61200000D03*
X127750000Y-59000000D03*
%TD*%
D16*
%TO.C,D7*%
X88000000Y-73050000D03*
X88000000Y-75250000D03*
%TD*%
D11*
%TO.C,C28*%
X105862000Y-60087500D03*
X104902000Y-60087500D03*
%TD*%
D23*
%TO.C,R6*%
X102870000Y-66691500D03*
X102870000Y-65671500D03*
%TD*%
D21*
%TO.C,R2*%
X88430000Y-68997500D03*
X89390000Y-68997500D03*
%TD*%
%TO.C,C17*%
X93140000Y-62207500D03*
X94100000Y-62207500D03*
%TD*%
D20*
%TO.C,D1*%
X70250000Y-54350000D03*
X70250000Y-52150000D03*
%TD*%
D21*
%TO.C,C21*%
X87815000Y-66975000D03*
X88775000Y-66975000D03*
%TD*%
D11*
%TO.C,C15*%
X91666000Y-71009500D03*
X90706000Y-71009500D03*
%TD*%
%TO.C,C20*%
X91355000Y-67375000D03*
X90395000Y-67375000D03*
%TD*%
D21*
%TO.C,R1*%
X88425000Y-67972500D03*
X89385000Y-67972500D03*
%TD*%
D24*
%TO.C,U3*%
X84765000Y-57325000D03*
X86035000Y-57325000D03*
X87305000Y-57325000D03*
X88575000Y-57325000D03*
X88575000Y-64525000D03*
X87305000Y-64525000D03*
X86035000Y-64525000D03*
X84765000Y-64525000D03*
%TD*%
D10*
%TO.C,SW7*%
X90890000Y-75660000D03*
X103817000Y-73120000D03*
%TD*%
D11*
%TO.C,C24*%
X91790000Y-68897500D03*
X90830000Y-68897500D03*
%TD*%
D10*
%TO.C,SW9*%
X128990000Y-75660000D03*
X141917000Y-73120000D03*
%TD*%
D25*
%TO.C,U2*%
X84649999Y-85349999D03*
X84649999Y-83049999D03*
D26*
X90949999Y-83049999D03*
D25*
X84649999Y-80749999D03*
%TD*%
D21*
%TO.C,C16*%
X101500000Y-70775000D03*
X102460000Y-70775000D03*
%TD*%
%TO.C,C13*%
X102926000Y-68723500D03*
X103886000Y-68723500D03*
%TD*%
D10*
%TO.C,SW5*%
X148040000Y-56610000D03*
X160967000Y-54070000D03*
%TD*%
%TO.C,SW3*%
X109940000Y-56610000D03*
X122867000Y-54070000D03*
%TD*%
D21*
%TO.C,R5*%
X91150000Y-62050000D03*
X92110000Y-62050000D03*
%TD*%
D20*
%TO.C,D2*%
X90750000Y-60950000D03*
X90750000Y-58750000D03*
%TD*%
D21*
%TO.C,C19*%
X102644000Y-67707500D03*
X103604000Y-67707500D03*
%TD*%
D20*
%TO.C,D5*%
X145500000Y-61000000D03*
X145500000Y-58800000D03*
%TD*%
D22*
%TO.C,R3*%
X76275000Y-64000000D03*
X75255000Y-64000000D03*
%TD*%
D10*
%TO.C,SW8*%
X109940000Y-75660000D03*
X122867000Y-73120000D03*
%TD*%
%TO.C,SW4*%
X128990000Y-56610000D03*
X141917000Y-54070000D03*
%TD*%
D16*
%TO.C,D9*%
X126500000Y-72250000D03*
X126500000Y-74450000D03*
%TD*%
D10*
%TO.C,SW2*%
X90890000Y-56610000D03*
X103817000Y-54070000D03*
%TD*%
D19*
%TO.C,SW11*%
X137949999Y-69749999D03*
X137949999Y-63449999D03*
X134149999Y-69749999D03*
X134149999Y-63449999D03*
%TD*%
D10*
%TO.C,SW10*%
X148040000Y-75660000D03*
X160967000Y-73120000D03*
%TD*%
D27*
%TO.C,C22*%
X82750000Y-81250000D03*
X82750000Y-82210000D03*
%TD*%
D28*
%TO.C,Y1*%
X103701999Y-63947499D03*
X103701999Y-61747499D03*
X105401999Y-61747499D03*
X105401999Y-63947499D03*
%TD*%
D16*
%TO.C,D10*%
X145500000Y-72000000D03*
X145500000Y-74200000D03*
%TD*%
D12*
%TO.C,C12*%
X90250000Y-65875000D03*
X90250000Y-64915000D03*
%TD*%
D10*
%TO.C,SW6*%
X71840000Y-75660000D03*
X84767000Y-73120000D03*
%TD*%
M02*
