%TF.GenerationSoftware,KiCad,Pcbnew,(7.0.0-0)*%
%TF.CreationDate,2023-04-10T20:33:14-04:00*%
%TF.ProjectId,KnGYT,4b6e4759-542e-46b6-9963-61645f706362,rev?*%
%TF.SameCoordinates,Original*%
%TF.FileFunction,Legend,Top*%
%TF.FilePolarity,Positive*%
%FSLAX46Y46*%
G04 Gerber Fmt 4.6, Leading zero omitted, Abs format (unit mm)*
G04 Created by KiCad (PCBNEW (7.0.0-0)) date 2023-04-10 20:33:14*
%MOMM*%
%LPD*%
G01*
G04 APERTURE LIST*
%ADD10C,0.300000*%
%ADD11C,0.150000*%
%ADD12C,0.125000*%
%ADD13C,0.120000*%
G04 APERTURE END LIST*
D10*
G36*
X147856646Y-89745000D02*
G01*
X148169521Y-89745000D01*
X148091852Y-88338161D01*
X147673831Y-88338161D01*
X147522522Y-88807473D01*
X147518188Y-88822190D01*
X147513844Y-88837071D01*
X147509490Y-88852107D01*
X147505129Y-88867287D01*
X147500763Y-88882603D01*
X147496394Y-88898043D01*
X147492024Y-88913599D01*
X147487655Y-88929261D01*
X147483288Y-88945019D01*
X147478926Y-88960863D01*
X147474570Y-88976784D01*
X147470223Y-88992771D01*
X147465886Y-89008816D01*
X147461562Y-89024908D01*
X147457252Y-89041038D01*
X147452959Y-89057196D01*
X147448683Y-89073373D01*
X147444428Y-89089557D01*
X147440195Y-89105741D01*
X147435987Y-89121913D01*
X147431804Y-89138065D01*
X147427649Y-89154187D01*
X147423524Y-89170268D01*
X147419431Y-89186300D01*
X147415371Y-89202272D01*
X147411348Y-89218174D01*
X147407362Y-89233998D01*
X147403416Y-89249733D01*
X147399511Y-89265369D01*
X147395650Y-89280898D01*
X147391835Y-89296308D01*
X147388066Y-89311591D01*
X147381838Y-89311591D01*
X147378848Y-89296132D01*
X147375788Y-89280604D01*
X147372658Y-89265012D01*
X147369463Y-89249361D01*
X147366203Y-89233656D01*
X147362881Y-89217904D01*
X147359500Y-89202109D01*
X147356061Y-89186277D01*
X147352567Y-89170413D01*
X147349020Y-89154523D01*
X147345422Y-89138612D01*
X147341775Y-89122686D01*
X147338082Y-89106750D01*
X147334345Y-89090809D01*
X147330565Y-89074870D01*
X147326746Y-89058937D01*
X147322890Y-89043015D01*
X147318998Y-89027111D01*
X147315072Y-89011229D01*
X147311116Y-88995376D01*
X147307132Y-88979556D01*
X147303120Y-88963775D01*
X147299085Y-88948039D01*
X147295027Y-88932352D01*
X147290950Y-88916721D01*
X147286855Y-88901150D01*
X147282744Y-88885645D01*
X147278620Y-88870212D01*
X147274485Y-88854857D01*
X147270342Y-88839583D01*
X147266192Y-88824397D01*
X147262037Y-88809305D01*
X147123551Y-88338161D01*
X146697103Y-88338161D01*
X146606978Y-89745000D01*
X146903000Y-89745000D01*
X146928279Y-89211573D01*
X146929263Y-89195036D01*
X146930222Y-89178269D01*
X146931157Y-89161285D01*
X146932070Y-89144095D01*
X146932963Y-89126712D01*
X146933835Y-89109150D01*
X146934690Y-89091419D01*
X146935526Y-89073534D01*
X146936347Y-89055506D01*
X146937153Y-89037347D01*
X146937945Y-89019071D01*
X146938725Y-89000689D01*
X146939493Y-88982214D01*
X146940252Y-88963660D01*
X146941001Y-88945037D01*
X146941743Y-88926359D01*
X146942479Y-88907637D01*
X146943209Y-88888886D01*
X146943935Y-88870116D01*
X146944658Y-88851341D01*
X146945380Y-88832573D01*
X146946101Y-88813824D01*
X146946824Y-88795108D01*
X146947548Y-88776435D01*
X146948275Y-88757820D01*
X146949007Y-88739274D01*
X146949744Y-88720810D01*
X146950489Y-88702440D01*
X146951241Y-88684177D01*
X146952003Y-88666033D01*
X146952775Y-88648021D01*
X146953558Y-88630153D01*
X146957588Y-88630153D01*
X146960791Y-88647407D01*
X146964076Y-88664749D01*
X146967441Y-88682170D01*
X146970882Y-88699659D01*
X146974397Y-88717209D01*
X146977982Y-88734809D01*
X146981635Y-88752452D01*
X146985352Y-88770127D01*
X146989130Y-88787826D01*
X146992966Y-88805539D01*
X146996858Y-88823258D01*
X147000801Y-88840973D01*
X147004793Y-88858675D01*
X147008831Y-88876355D01*
X147012911Y-88894004D01*
X147017031Y-88911612D01*
X147021188Y-88929172D01*
X147025377Y-88946672D01*
X147029598Y-88964106D01*
X147033845Y-88981462D01*
X147038117Y-88998733D01*
X147042409Y-89015908D01*
X147046720Y-89032980D01*
X147051046Y-89049938D01*
X147055383Y-89066774D01*
X147059729Y-89083478D01*
X147064081Y-89100042D01*
X147068435Y-89116456D01*
X147072789Y-89132711D01*
X147077139Y-89148798D01*
X147081482Y-89164708D01*
X147085816Y-89180432D01*
X147237124Y-89722285D01*
X147486985Y-89722285D01*
X147659176Y-89174204D01*
X147664305Y-89158647D01*
X147669454Y-89142894D01*
X147674620Y-89126955D01*
X147679800Y-89110841D01*
X147684990Y-89094562D01*
X147690186Y-89078128D01*
X147695386Y-89061550D01*
X147700587Y-89044837D01*
X147705784Y-89028001D01*
X147710974Y-89011051D01*
X147716155Y-88993997D01*
X147721322Y-88976850D01*
X147726473Y-88959621D01*
X147731603Y-88942318D01*
X147736711Y-88924953D01*
X147741791Y-88907537D01*
X147746842Y-88890078D01*
X147751859Y-88872588D01*
X147756839Y-88855076D01*
X147761780Y-88837553D01*
X147766676Y-88820030D01*
X147771526Y-88802516D01*
X147776326Y-88785021D01*
X147781072Y-88767557D01*
X147785762Y-88750133D01*
X147790391Y-88732759D01*
X147794956Y-88715446D01*
X147799455Y-88698204D01*
X147803883Y-88681044D01*
X147808238Y-88663975D01*
X147812515Y-88647008D01*
X147816713Y-88630153D01*
X147822941Y-88630153D01*
X147822959Y-88649316D01*
X147823012Y-88668471D01*
X147823100Y-88687611D01*
X147823221Y-88706730D01*
X147823373Y-88725821D01*
X147823557Y-88744878D01*
X147823770Y-88763894D01*
X147824011Y-88782864D01*
X147824280Y-88801781D01*
X147824575Y-88820638D01*
X147824896Y-88839429D01*
X147825240Y-88858148D01*
X147825607Y-88876789D01*
X147825996Y-88895344D01*
X147826405Y-88913808D01*
X147826834Y-88932175D01*
X147827280Y-88950437D01*
X147827744Y-88968589D01*
X147828224Y-88986623D01*
X147828719Y-89004535D01*
X147829227Y-89022317D01*
X147829748Y-89039963D01*
X147830281Y-89057467D01*
X147830823Y-89074822D01*
X147831375Y-89092022D01*
X147831935Y-89109060D01*
X147832502Y-89125931D01*
X147833074Y-89142627D01*
X147833651Y-89159143D01*
X147834231Y-89175472D01*
X147834814Y-89191607D01*
X147835397Y-89207543D01*
X147856646Y-89745000D01*
G37*
G36*
X148846823Y-88690457D02*
G01*
X148876881Y-88692196D01*
X148905619Y-88695058D01*
X148933060Y-88699012D01*
X148959227Y-88704028D01*
X148984142Y-88710077D01*
X149007827Y-88717127D01*
X149030306Y-88725150D01*
X149051601Y-88734115D01*
X149071734Y-88743991D01*
X149090730Y-88754749D01*
X149108609Y-88766358D01*
X149125395Y-88778789D01*
X149141111Y-88792011D01*
X149155779Y-88805994D01*
X149169421Y-88820708D01*
X149182061Y-88836123D01*
X149193722Y-88852209D01*
X149204425Y-88868935D01*
X149214193Y-88886272D01*
X149223050Y-88904190D01*
X149231018Y-88922657D01*
X149238119Y-88941645D01*
X149244377Y-88961123D01*
X149249813Y-88981061D01*
X149254451Y-89001428D01*
X149258314Y-89022196D01*
X149261423Y-89043332D01*
X149263802Y-89064809D01*
X149265473Y-89086594D01*
X149266459Y-89108659D01*
X149266782Y-89130973D01*
X149266782Y-89491475D01*
X149266794Y-89500871D01*
X149266891Y-89519555D01*
X149267087Y-89538054D01*
X149267388Y-89556320D01*
X149267796Y-89574302D01*
X149268315Y-89591954D01*
X149268950Y-89609225D01*
X149269703Y-89626067D01*
X149270579Y-89642431D01*
X149271581Y-89658268D01*
X149272714Y-89673530D01*
X149273980Y-89688168D01*
X149276139Y-89708846D01*
X149278621Y-89727845D01*
X149281437Y-89745000D01*
X148993841Y-89745000D01*
X148974790Y-89642784D01*
X148968562Y-89642784D01*
X148955550Y-89657659D01*
X148941676Y-89671640D01*
X148926971Y-89684719D01*
X148911466Y-89696886D01*
X148895193Y-89708132D01*
X148878183Y-89718447D01*
X148860466Y-89727824D01*
X148842075Y-89736253D01*
X148823039Y-89743724D01*
X148803390Y-89750228D01*
X148783160Y-89755757D01*
X148762379Y-89760301D01*
X148741079Y-89763851D01*
X148719290Y-89766398D01*
X148697044Y-89767933D01*
X148674371Y-89768447D01*
X148655144Y-89768009D01*
X148636415Y-89766711D01*
X148618193Y-89764577D01*
X148600484Y-89761632D01*
X148583296Y-89757900D01*
X148566636Y-89753406D01*
X148550511Y-89748174D01*
X148534930Y-89742229D01*
X148519898Y-89735594D01*
X148505424Y-89728295D01*
X148491514Y-89720356D01*
X148478177Y-89711801D01*
X148465419Y-89702654D01*
X148453247Y-89692940D01*
X148441670Y-89682684D01*
X148430693Y-89671910D01*
X148420326Y-89660642D01*
X148410574Y-89648904D01*
X148401445Y-89636722D01*
X148392947Y-89624119D01*
X148385087Y-89611121D01*
X148377872Y-89597750D01*
X148371309Y-89584032D01*
X148365406Y-89569992D01*
X148360170Y-89555653D01*
X148355609Y-89541040D01*
X148351729Y-89526178D01*
X148348538Y-89511090D01*
X148346044Y-89495802D01*
X148344253Y-89480337D01*
X148343173Y-89464721D01*
X148342812Y-89448977D01*
X148343509Y-89424112D01*
X148343957Y-89418935D01*
X148657885Y-89418935D01*
X148658516Y-89434164D01*
X148661739Y-89455130D01*
X148667531Y-89473850D01*
X148675703Y-89490334D01*
X148686071Y-89504590D01*
X148698446Y-89516629D01*
X148712643Y-89526458D01*
X148728475Y-89534087D01*
X148745755Y-89539526D01*
X148764297Y-89542782D01*
X148783914Y-89543866D01*
X148798646Y-89543244D01*
X148820019Y-89540078D01*
X148840392Y-89534409D01*
X148859614Y-89526441D01*
X148877539Y-89516377D01*
X148894017Y-89504419D01*
X148908900Y-89490771D01*
X148922040Y-89475636D01*
X148933287Y-89459215D01*
X148942494Y-89441713D01*
X148949511Y-89423332D01*
X148951411Y-89414961D01*
X148954019Y-89399352D01*
X148955584Y-89383254D01*
X148956106Y-89366912D01*
X148956106Y-89252606D01*
X148940455Y-89252560D01*
X148925044Y-89252771D01*
X148909891Y-89253248D01*
X148895011Y-89253998D01*
X148866140Y-89256350D01*
X148838566Y-89259893D01*
X148812423Y-89264692D01*
X148787848Y-89270812D01*
X148764973Y-89278317D01*
X148743935Y-89287273D01*
X148724867Y-89297745D01*
X148707905Y-89309797D01*
X148693182Y-89323494D01*
X148680834Y-89338902D01*
X148670996Y-89356085D01*
X148663802Y-89375108D01*
X148659387Y-89396037D01*
X148657885Y-89418935D01*
X148343957Y-89418935D01*
X148345587Y-89400073D01*
X148349025Y-89376859D01*
X148353801Y-89354468D01*
X148359895Y-89332897D01*
X148367285Y-89312145D01*
X148375951Y-89292209D01*
X148385871Y-89273088D01*
X148397024Y-89254779D01*
X148409390Y-89237281D01*
X148422946Y-89220591D01*
X148437673Y-89204708D01*
X148453549Y-89189629D01*
X148470552Y-89175353D01*
X148488663Y-89161877D01*
X148507859Y-89149200D01*
X148528120Y-89137319D01*
X148549425Y-89126232D01*
X148571752Y-89115938D01*
X148595081Y-89106434D01*
X148619390Y-89097718D01*
X148644659Y-89089789D01*
X148670866Y-89082644D01*
X148697990Y-89076282D01*
X148726011Y-89070699D01*
X148754907Y-89065896D01*
X148784657Y-89061868D01*
X148815240Y-89058615D01*
X148846635Y-89056134D01*
X148878821Y-89054423D01*
X148911777Y-89053480D01*
X148945481Y-89053304D01*
X148945481Y-89038649D01*
X148944627Y-89023079D01*
X148941738Y-89006784D01*
X148936325Y-88990257D01*
X148927900Y-88973992D01*
X148915973Y-88958479D01*
X148900055Y-88944213D01*
X148886984Y-88935638D01*
X148871778Y-88927981D01*
X148854291Y-88921390D01*
X148834378Y-88916009D01*
X148811894Y-88911984D01*
X148786695Y-88909463D01*
X148758635Y-88908590D01*
X148738860Y-88908995D01*
X148719012Y-88910182D01*
X148699167Y-88912109D01*
X148679398Y-88914732D01*
X148659779Y-88918011D01*
X148640384Y-88921901D01*
X148621288Y-88926362D01*
X148602564Y-88931350D01*
X148584287Y-88936824D01*
X148566530Y-88942740D01*
X148549368Y-88949056D01*
X148532875Y-88955731D01*
X148517124Y-88962721D01*
X148502190Y-88969984D01*
X148488147Y-88977478D01*
X148475069Y-88985160D01*
X148416085Y-88780362D01*
X148422984Y-88776589D01*
X148437984Y-88768901D01*
X148454557Y-88761099D01*
X148472670Y-88753271D01*
X148492289Y-88745508D01*
X148513382Y-88737900D01*
X148535914Y-88730535D01*
X148559853Y-88723504D01*
X148585165Y-88716896D01*
X148611817Y-88710801D01*
X148639776Y-88705308D01*
X148654235Y-88702815D01*
X148669008Y-88700507D01*
X148684092Y-88698394D01*
X148699481Y-88696488D01*
X148715172Y-88694799D01*
X148731160Y-88693340D01*
X148747443Y-88692121D01*
X148764014Y-88691153D01*
X148780870Y-88690448D01*
X148798008Y-88690017D01*
X148815422Y-88689870D01*
X148846823Y-88690457D01*
G37*
G36*
X150250837Y-89482683D02*
G01*
X150236951Y-89488433D01*
X150222475Y-89493718D01*
X150207381Y-89498514D01*
X150191640Y-89502801D01*
X150175223Y-89506557D01*
X150158101Y-89509760D01*
X150140244Y-89512388D01*
X150121625Y-89514419D01*
X150102213Y-89515832D01*
X150081980Y-89516605D01*
X150068021Y-89516755D01*
X150039262Y-89515589D01*
X150011332Y-89512100D01*
X149984372Y-89506300D01*
X149958524Y-89498202D01*
X149933930Y-89487817D01*
X149910731Y-89475159D01*
X149889069Y-89460239D01*
X149869085Y-89443070D01*
X149850922Y-89423664D01*
X149834722Y-89402033D01*
X149820624Y-89378191D01*
X149808773Y-89352148D01*
X149803733Y-89338306D01*
X149799308Y-89323918D01*
X149795515Y-89308987D01*
X149792372Y-89293513D01*
X149789897Y-89277499D01*
X149788107Y-89260946D01*
X149787020Y-89243855D01*
X149786653Y-89226228D01*
X149786772Y-89210470D01*
X149787534Y-89195011D01*
X149788929Y-89179864D01*
X149790947Y-89165043D01*
X149793580Y-89150559D01*
X149800651Y-89122661D01*
X149810063Y-89096274D01*
X149821740Y-89071505D01*
X149835605Y-89048460D01*
X149851582Y-89027243D01*
X149869594Y-89007962D01*
X149889563Y-88990722D01*
X149911414Y-88975627D01*
X149935070Y-88962785D01*
X149960453Y-88952301D01*
X149987487Y-88944281D01*
X150016096Y-88938829D01*
X150030967Y-88937100D01*
X150046202Y-88936053D01*
X150061793Y-88935701D01*
X150077208Y-88935874D01*
X150091999Y-88936379D01*
X150113043Y-88937719D01*
X150132750Y-88939699D01*
X150151160Y-88942254D01*
X150168313Y-88945318D01*
X150184249Y-88948826D01*
X150199008Y-88952714D01*
X150216924Y-88958375D01*
X150232912Y-88964439D01*
X150240212Y-88967575D01*
X150290771Y-88730170D01*
X150271182Y-88723335D01*
X150250444Y-88717064D01*
X150236062Y-88713209D01*
X150221292Y-88709622D01*
X150206181Y-88706310D01*
X150190780Y-88703281D01*
X150175137Y-88700541D01*
X150159300Y-88698097D01*
X150143320Y-88695956D01*
X150127243Y-88694126D01*
X150111120Y-88692612D01*
X150095000Y-88691423D01*
X150078930Y-88690565D01*
X150062960Y-88690045D01*
X150047138Y-88689870D01*
X150011800Y-88690585D01*
X149977503Y-88692705D01*
X149944254Y-88696197D01*
X149912057Y-88701026D01*
X149880918Y-88707157D01*
X149850842Y-88714557D01*
X149821835Y-88723189D01*
X149793901Y-88733021D01*
X149767045Y-88744018D01*
X149741273Y-88756144D01*
X149716591Y-88769366D01*
X149693003Y-88783650D01*
X149670515Y-88798960D01*
X149649131Y-88815262D01*
X149628858Y-88832521D01*
X149609699Y-88850704D01*
X149591662Y-88869776D01*
X149574750Y-88889702D01*
X149558969Y-88910448D01*
X149544325Y-88931979D01*
X149530822Y-88954260D01*
X149518466Y-88977258D01*
X149507261Y-89000938D01*
X149497214Y-89025265D01*
X149488329Y-89050206D01*
X149480612Y-89075724D01*
X149474068Y-89101786D01*
X149468702Y-89128358D01*
X149464519Y-89155405D01*
X149461525Y-89182892D01*
X149459725Y-89210786D01*
X149459124Y-89239050D01*
X149459742Y-89269225D01*
X149461587Y-89298669D01*
X149464640Y-89327369D01*
X149468886Y-89355309D01*
X149474307Y-89382474D01*
X149480885Y-89408850D01*
X149488605Y-89434421D01*
X149497449Y-89459172D01*
X149507400Y-89483089D01*
X149518441Y-89506157D01*
X149530555Y-89528360D01*
X149543726Y-89549684D01*
X149557936Y-89570113D01*
X149573168Y-89589633D01*
X149589405Y-89608229D01*
X149606631Y-89625885D01*
X149624828Y-89642588D01*
X149643980Y-89658321D01*
X149664069Y-89673070D01*
X149685078Y-89686820D01*
X149706991Y-89699556D01*
X149729790Y-89711263D01*
X149753459Y-89721926D01*
X149777981Y-89731530D01*
X149803338Y-89740060D01*
X149829514Y-89747502D01*
X149856491Y-89753839D01*
X149884253Y-89759058D01*
X149912783Y-89763143D01*
X149942063Y-89766080D01*
X149972077Y-89767853D01*
X150002808Y-89768447D01*
X150025499Y-89768182D01*
X150047785Y-89767406D01*
X150069617Y-89766153D01*
X150090942Y-89764451D01*
X150111709Y-89762333D01*
X150131866Y-89759830D01*
X150151362Y-89756973D01*
X150170145Y-89753792D01*
X150188164Y-89750320D01*
X150205368Y-89746587D01*
X150221704Y-89742624D01*
X150237121Y-89738462D01*
X150251568Y-89734133D01*
X150271307Y-89727394D01*
X150288572Y-89720453D01*
X150250837Y-89482683D01*
G37*
G36*
X150464427Y-89745000D02*
G01*
X150783897Y-89745000D01*
X150783897Y-89221831D01*
X150784095Y-89207129D01*
X150784853Y-89190424D01*
X150786222Y-89174376D01*
X150788249Y-89159169D01*
X150790125Y-89148925D01*
X150794727Y-89130736D01*
X150800680Y-89113430D01*
X150807953Y-89097045D01*
X150816515Y-89081623D01*
X150826335Y-89067203D01*
X150837382Y-89053825D01*
X150849624Y-89041531D01*
X150863032Y-89030360D01*
X150877572Y-89020353D01*
X150893215Y-89011549D01*
X150909929Y-89003989D01*
X150927683Y-88997714D01*
X150946447Y-88992763D01*
X150966187Y-88989176D01*
X150986875Y-88986995D01*
X151008478Y-88986259D01*
X151024560Y-88986549D01*
X151039545Y-88987395D01*
X151056197Y-88989098D01*
X151071536Y-88991497D01*
X151087963Y-88995098D01*
X151094574Y-88996884D01*
X151094574Y-88694267D01*
X151078477Y-88691725D01*
X151063341Y-88690420D01*
X151046969Y-88689939D01*
X151029902Y-88689871D01*
X151027163Y-88689870D01*
X151008387Y-88690614D01*
X150989115Y-88692869D01*
X150969496Y-88696669D01*
X150949677Y-88702046D01*
X150929806Y-88709036D01*
X150910032Y-88717672D01*
X150890503Y-88727987D01*
X150871366Y-88740017D01*
X150852771Y-88753793D01*
X150834864Y-88769351D01*
X150817795Y-88786723D01*
X150801711Y-88805945D01*
X150786761Y-88827049D01*
X150773092Y-88850070D01*
X150760853Y-88875040D01*
X150750191Y-88901995D01*
X150741765Y-88901995D01*
X150731140Y-88713318D01*
X150456001Y-88713318D01*
X150456820Y-88730076D01*
X150457625Y-88747146D01*
X150458411Y-88764587D01*
X150459172Y-88782463D01*
X150459903Y-88800835D01*
X150460599Y-88819764D01*
X150461254Y-88839313D01*
X150461863Y-88859543D01*
X150462420Y-88880515D01*
X150462920Y-88902292D01*
X150463358Y-88924935D01*
X150463729Y-88948506D01*
X150464026Y-88973067D01*
X150464246Y-88998679D01*
X150464381Y-89025404D01*
X150464427Y-89053304D01*
X150464427Y-89745000D01*
G37*
G36*
X151764205Y-88690501D02*
G01*
X151792797Y-88692378D01*
X151820734Y-88695479D01*
X151847998Y-88699782D01*
X151874568Y-88705265D01*
X151900427Y-88711905D01*
X151925554Y-88719680D01*
X151949931Y-88728568D01*
X151973539Y-88738546D01*
X151996357Y-88749592D01*
X152018368Y-88761685D01*
X152039552Y-88774801D01*
X152059889Y-88788919D01*
X152079361Y-88804015D01*
X152097948Y-88820069D01*
X152115631Y-88837057D01*
X152132391Y-88854958D01*
X152148209Y-88873748D01*
X152163065Y-88893407D01*
X152176941Y-88913911D01*
X152189817Y-88935238D01*
X152201674Y-88957366D01*
X152212493Y-88980273D01*
X152222254Y-89003936D01*
X152230939Y-89028334D01*
X152238529Y-89053443D01*
X152245003Y-89079242D01*
X152250343Y-89105708D01*
X152254530Y-89132820D01*
X152257544Y-89160554D01*
X152259367Y-89188888D01*
X152259979Y-89217801D01*
X152259205Y-89252678D01*
X152256916Y-89286353D01*
X152253159Y-89318831D01*
X152247981Y-89350120D01*
X152241429Y-89380225D01*
X152233551Y-89409152D01*
X152224394Y-89436909D01*
X152214006Y-89463500D01*
X152202432Y-89488933D01*
X152189722Y-89513213D01*
X152175922Y-89536348D01*
X152161080Y-89558342D01*
X152145242Y-89579203D01*
X152128456Y-89598936D01*
X152110769Y-89617548D01*
X152092230Y-89635044D01*
X152072884Y-89651433D01*
X152052779Y-89666718D01*
X152031963Y-89680908D01*
X152010482Y-89694007D01*
X151988385Y-89706022D01*
X151965718Y-89716960D01*
X151942529Y-89726827D01*
X151918865Y-89735629D01*
X151894773Y-89743371D01*
X151870301Y-89750061D01*
X151845495Y-89755705D01*
X151820404Y-89760309D01*
X151795074Y-89763879D01*
X151769553Y-89766421D01*
X151743888Y-89767941D01*
X151718126Y-89768447D01*
X151690170Y-89767871D01*
X151662652Y-89766152D01*
X151635601Y-89763299D01*
X151609047Y-89759324D01*
X151583018Y-89754238D01*
X151557544Y-89748052D01*
X151532656Y-89740777D01*
X151508382Y-89732423D01*
X151484752Y-89723002D01*
X151461796Y-89712524D01*
X151439543Y-89701001D01*
X151418022Y-89688443D01*
X151397263Y-89674861D01*
X151377296Y-89660267D01*
X151358150Y-89644671D01*
X151339855Y-89628084D01*
X151322439Y-89610516D01*
X151305934Y-89591980D01*
X151290367Y-89572486D01*
X151275770Y-89552045D01*
X151262170Y-89530668D01*
X151249598Y-89508365D01*
X151238084Y-89485148D01*
X151227656Y-89461027D01*
X151218344Y-89436014D01*
X151210178Y-89410120D01*
X151203188Y-89383354D01*
X151197402Y-89355730D01*
X151192851Y-89327256D01*
X151189563Y-89297945D01*
X151187569Y-89267806D01*
X151186898Y-89236852D01*
X151187071Y-89228426D01*
X151516625Y-89228426D01*
X151516840Y-89244952D01*
X151517482Y-89261205D01*
X151518549Y-89277167D01*
X151520041Y-89292822D01*
X151521954Y-89308154D01*
X151524288Y-89323146D01*
X151530210Y-89352045D01*
X151537790Y-89379388D01*
X151547016Y-89405043D01*
X151557872Y-89428878D01*
X151570344Y-89450763D01*
X151584417Y-89470566D01*
X151600077Y-89488155D01*
X151617310Y-89503398D01*
X151636100Y-89516165D01*
X151656434Y-89526324D01*
X151678297Y-89533743D01*
X151701675Y-89538290D01*
X151726552Y-89539836D01*
X151749247Y-89538387D01*
X151770858Y-89534103D01*
X151791334Y-89527077D01*
X151810621Y-89517401D01*
X151828668Y-89505169D01*
X151845422Y-89490473D01*
X151860829Y-89473406D01*
X151874838Y-89454060D01*
X151887396Y-89432530D01*
X151898450Y-89408907D01*
X151907948Y-89383284D01*
X151915837Y-89355755D01*
X151919161Y-89341304D01*
X151922064Y-89326411D01*
X151924538Y-89311088D01*
X151926577Y-89295347D01*
X151928174Y-89279198D01*
X151929324Y-89262654D01*
X151930018Y-89245726D01*
X151930251Y-89228426D01*
X151929553Y-89199450D01*
X151927434Y-89170656D01*
X151923853Y-89142276D01*
X151918773Y-89114544D01*
X151912154Y-89087691D01*
X151903956Y-89061952D01*
X151894141Y-89037559D01*
X151882669Y-89014744D01*
X151869501Y-88993741D01*
X151854599Y-88974783D01*
X151837922Y-88958103D01*
X151819431Y-88943933D01*
X151799088Y-88932506D01*
X151776854Y-88924056D01*
X151752688Y-88918815D01*
X151726552Y-88917016D01*
X151698897Y-88918835D01*
X151673459Y-88924131D01*
X151650176Y-88932663D01*
X151628991Y-88944190D01*
X151609842Y-88958471D01*
X151592671Y-88975266D01*
X151577418Y-88994333D01*
X151564024Y-89015431D01*
X151552428Y-89038319D01*
X151542572Y-89062757D01*
X151534396Y-89088503D01*
X151527840Y-89115317D01*
X151522844Y-89142957D01*
X151519350Y-89171182D01*
X151517297Y-89199752D01*
X151516625Y-89228426D01*
X151187071Y-89228426D01*
X151187534Y-89205822D01*
X151189430Y-89175527D01*
X151192567Y-89145983D01*
X151196924Y-89117209D01*
X151202482Y-89089218D01*
X151209222Y-89062029D01*
X151217123Y-89035657D01*
X151226167Y-89010119D01*
X151236334Y-88985430D01*
X151247604Y-88961609D01*
X151259957Y-88938670D01*
X151273374Y-88916630D01*
X151287835Y-88895506D01*
X151303322Y-88875313D01*
X151319813Y-88856069D01*
X151337290Y-88837790D01*
X151355733Y-88820492D01*
X151375123Y-88804191D01*
X151395439Y-88788904D01*
X151416662Y-88774647D01*
X151438774Y-88761436D01*
X151461753Y-88749288D01*
X151485580Y-88738220D01*
X151510237Y-88728247D01*
X151535703Y-88719386D01*
X151561958Y-88711654D01*
X151588984Y-88705066D01*
X151616760Y-88699639D01*
X151645267Y-88695390D01*
X151674486Y-88692334D01*
X151704396Y-88690489D01*
X151734979Y-88689870D01*
X151764205Y-88690501D01*
G37*
G36*
X152917631Y-88314825D02*
G01*
X152935647Y-88315160D01*
X152953334Y-88315717D01*
X152970694Y-88316498D01*
X152987730Y-88317501D01*
X153004442Y-88318727D01*
X153020833Y-88320175D01*
X153036906Y-88321846D01*
X153052660Y-88323739D01*
X153068100Y-88325854D01*
X153083227Y-88328190D01*
X153098042Y-88330749D01*
X153126746Y-88336531D01*
X153154228Y-88343198D01*
X153180504Y-88350750D01*
X153205588Y-88359185D01*
X153229498Y-88368503D01*
X153252248Y-88378701D01*
X153273853Y-88389780D01*
X153294330Y-88401738D01*
X153313694Y-88414574D01*
X153331960Y-88428286D01*
X153348508Y-88442216D01*
X153364322Y-88457191D01*
X153379357Y-88473174D01*
X153393567Y-88490127D01*
X153406905Y-88508015D01*
X153419325Y-88526799D01*
X153430782Y-88546443D01*
X153441229Y-88566909D01*
X153450619Y-88588162D01*
X153458907Y-88610163D01*
X153466047Y-88632875D01*
X153471992Y-88656262D01*
X153476696Y-88680287D01*
X153480113Y-88704912D01*
X153482197Y-88730101D01*
X153482903Y-88755816D01*
X153482364Y-88781529D01*
X153480755Y-88806721D01*
X153478089Y-88831367D01*
X153474379Y-88855444D01*
X153469636Y-88878929D01*
X153463872Y-88901798D01*
X153457101Y-88924027D01*
X153449334Y-88945593D01*
X153440584Y-88966471D01*
X153430864Y-88986640D01*
X153420185Y-89006074D01*
X153408559Y-89024750D01*
X153396000Y-89042645D01*
X153382519Y-89059735D01*
X153368130Y-89075997D01*
X153352843Y-89091406D01*
X153342454Y-89100891D01*
X153320768Y-89118871D01*
X153297902Y-89135544D01*
X153273895Y-89150925D01*
X153248785Y-89165029D01*
X153222610Y-89177872D01*
X153209135Y-89183826D01*
X153195408Y-89189470D01*
X153181433Y-89194807D01*
X153167217Y-89199839D01*
X153152762Y-89204566D01*
X153138075Y-89208993D01*
X153123160Y-89213119D01*
X153108021Y-89216948D01*
X153092664Y-89220481D01*
X153077092Y-89223720D01*
X153061312Y-89226668D01*
X153045327Y-89229325D01*
X153029143Y-89231695D01*
X153012764Y-89233778D01*
X152996195Y-89235577D01*
X152979441Y-89237094D01*
X152962506Y-89238331D01*
X152945395Y-89239290D01*
X152928113Y-89239972D01*
X152910665Y-89240380D01*
X152893056Y-89240516D01*
X152881325Y-89240458D01*
X152866076Y-89240204D01*
X152851315Y-89239752D01*
X152833613Y-89238913D01*
X152816824Y-89237779D01*
X152801032Y-89236359D01*
X152783513Y-89234288D01*
X152783513Y-89745000D01*
X152466608Y-89745000D01*
X152466608Y-88986625D01*
X152783513Y-88986625D01*
X152791410Y-88988263D01*
X152808314Y-88990894D01*
X152823675Y-88992490D01*
X152840348Y-88993607D01*
X152858475Y-88994302D01*
X152874119Y-88994595D01*
X152890858Y-88994685D01*
X152906603Y-88994435D01*
X152921962Y-88993687D01*
X152936925Y-88992447D01*
X152951487Y-88990719D01*
X152979374Y-88985820D01*
X153005564Y-88979029D01*
X153029998Y-88970386D01*
X153052618Y-88959929D01*
X153073363Y-88947698D01*
X153092175Y-88933732D01*
X153108995Y-88918070D01*
X153123764Y-88900751D01*
X153136423Y-88881815D01*
X153146912Y-88861300D01*
X153155173Y-88839247D01*
X153161147Y-88815693D01*
X153164775Y-88790678D01*
X153165997Y-88764242D01*
X153165733Y-88752204D01*
X153163629Y-88729065D01*
X153159452Y-88707211D01*
X153153233Y-88686676D01*
X153145004Y-88667500D01*
X153134797Y-88649717D01*
X153122643Y-88633367D01*
X153108573Y-88618485D01*
X153092621Y-88605108D01*
X153074816Y-88593274D01*
X153055192Y-88583020D01*
X153033779Y-88574383D01*
X153010609Y-88567399D01*
X152985714Y-88562106D01*
X152959125Y-88558541D01*
X152930875Y-88556741D01*
X152916137Y-88556514D01*
X152898347Y-88556673D01*
X152881660Y-88557130D01*
X152866077Y-88557853D01*
X152847023Y-88559180D01*
X152829940Y-88560853D01*
X152814833Y-88562800D01*
X152798735Y-88565508D01*
X152783513Y-88568970D01*
X152783513Y-88986625D01*
X152466608Y-88986625D01*
X152466608Y-88344389D01*
X152485563Y-88341278D01*
X152505486Y-88338275D01*
X152526400Y-88335392D01*
X152548330Y-88332642D01*
X152571299Y-88330038D01*
X152595331Y-88327593D01*
X152620448Y-88325320D01*
X152646676Y-88323231D01*
X152674037Y-88321340D01*
X152702555Y-88319659D01*
X152717256Y-88318902D01*
X152732254Y-88318202D01*
X152747553Y-88317561D01*
X152763157Y-88316980D01*
X152779067Y-88316462D01*
X152795288Y-88316008D01*
X152811821Y-88315619D01*
X152828670Y-88315297D01*
X152845838Y-88315044D01*
X152863328Y-88314862D01*
X152881142Y-88314751D01*
X152899284Y-88314713D01*
X152917631Y-88314825D01*
G37*
G36*
X154074108Y-88690457D02*
G01*
X154104166Y-88692196D01*
X154132905Y-88695058D01*
X154160346Y-88699012D01*
X154186512Y-88704028D01*
X154211427Y-88710077D01*
X154235112Y-88717127D01*
X154257591Y-88725150D01*
X154278886Y-88734115D01*
X154299020Y-88743991D01*
X154318015Y-88754749D01*
X154335894Y-88766358D01*
X154352681Y-88778789D01*
X154368396Y-88792011D01*
X154383064Y-88805994D01*
X154396707Y-88820708D01*
X154409347Y-88836123D01*
X154421007Y-88852209D01*
X154431710Y-88868935D01*
X154441479Y-88886272D01*
X154450336Y-88904190D01*
X154458304Y-88922657D01*
X154465405Y-88941645D01*
X154471662Y-88961123D01*
X154477099Y-88981061D01*
X154481737Y-89001428D01*
X154485599Y-89022196D01*
X154488708Y-89043332D01*
X154491087Y-89064809D01*
X154492758Y-89086594D01*
X154493744Y-89108659D01*
X154494068Y-89130973D01*
X154494068Y-89491475D01*
X154494080Y-89500871D01*
X154494176Y-89519555D01*
X154494373Y-89538054D01*
X154494673Y-89556320D01*
X154495081Y-89574302D01*
X154495601Y-89591954D01*
X154496235Y-89609225D01*
X154496989Y-89626067D01*
X154497865Y-89642431D01*
X154498867Y-89658268D01*
X154499999Y-89673530D01*
X154501266Y-89688168D01*
X154503425Y-89708846D01*
X154505906Y-89727845D01*
X154508722Y-89745000D01*
X154221127Y-89745000D01*
X154202076Y-89642784D01*
X154195847Y-89642784D01*
X154182835Y-89657659D01*
X154168961Y-89671640D01*
X154154256Y-89684719D01*
X154138752Y-89696886D01*
X154122479Y-89708132D01*
X154105468Y-89718447D01*
X154087752Y-89727824D01*
X154069360Y-89736253D01*
X154050324Y-89743724D01*
X154030676Y-89750228D01*
X154010445Y-89755757D01*
X153989664Y-89760301D01*
X153968364Y-89763851D01*
X153946575Y-89766398D01*
X153924329Y-89767933D01*
X153901657Y-89768447D01*
X153882429Y-89768009D01*
X153863701Y-89766711D01*
X153845478Y-89764577D01*
X153827769Y-89761632D01*
X153810581Y-89757900D01*
X153793921Y-89753406D01*
X153777797Y-89748174D01*
X153762215Y-89742229D01*
X153747184Y-89735594D01*
X153732709Y-89728295D01*
X153718800Y-89720356D01*
X153705462Y-89711801D01*
X153692704Y-89702654D01*
X153680533Y-89692940D01*
X153668955Y-89682684D01*
X153657979Y-89671910D01*
X153647611Y-89660642D01*
X153637859Y-89648904D01*
X153628731Y-89636722D01*
X153620233Y-89624119D01*
X153612372Y-89611121D01*
X153605157Y-89597750D01*
X153598594Y-89584032D01*
X153592692Y-89569992D01*
X153587456Y-89555653D01*
X153582894Y-89541040D01*
X153579015Y-89526178D01*
X153575824Y-89511090D01*
X153573329Y-89495802D01*
X153571539Y-89480337D01*
X153570459Y-89464721D01*
X153570097Y-89448977D01*
X153570795Y-89424112D01*
X153571243Y-89418935D01*
X153885170Y-89418935D01*
X153885801Y-89434164D01*
X153889025Y-89455130D01*
X153894816Y-89473850D01*
X153902989Y-89490334D01*
X153913356Y-89504590D01*
X153925731Y-89516629D01*
X153939928Y-89526458D01*
X153955760Y-89534087D01*
X153973040Y-89539526D01*
X153991582Y-89542782D01*
X154011200Y-89543866D01*
X154025931Y-89543244D01*
X154047305Y-89540078D01*
X154067677Y-89534409D01*
X154086900Y-89526441D01*
X154104825Y-89516377D01*
X154121303Y-89504419D01*
X154136186Y-89490771D01*
X154149325Y-89475636D01*
X154160572Y-89459215D01*
X154169779Y-89441713D01*
X154176796Y-89423332D01*
X154178696Y-89414961D01*
X154181304Y-89399352D01*
X154182869Y-89383254D01*
X154183391Y-89366912D01*
X154183391Y-89252606D01*
X154167740Y-89252560D01*
X154152330Y-89252771D01*
X154137176Y-89253248D01*
X154122296Y-89253998D01*
X154093425Y-89256350D01*
X154065851Y-89259893D01*
X154039709Y-89264692D01*
X154015133Y-89270812D01*
X153992259Y-89278317D01*
X153971220Y-89287273D01*
X153952152Y-89297745D01*
X153935190Y-89309797D01*
X153920467Y-89323494D01*
X153908120Y-89338902D01*
X153898281Y-89356085D01*
X153891087Y-89375108D01*
X153886672Y-89396037D01*
X153885170Y-89418935D01*
X153571243Y-89418935D01*
X153572873Y-89400073D01*
X153576310Y-89376859D01*
X153581087Y-89354468D01*
X153587181Y-89332897D01*
X153594571Y-89312145D01*
X153603236Y-89292209D01*
X153613156Y-89273088D01*
X153624310Y-89254779D01*
X153636675Y-89237281D01*
X153650232Y-89220591D01*
X153664958Y-89204708D01*
X153680834Y-89189629D01*
X153697838Y-89175353D01*
X153715948Y-89161877D01*
X153735144Y-89149200D01*
X153755405Y-89137319D01*
X153776710Y-89126232D01*
X153799037Y-89115938D01*
X153822366Y-89106434D01*
X153846676Y-89097718D01*
X153871944Y-89089789D01*
X153898151Y-89082644D01*
X153925276Y-89076282D01*
X153953297Y-89070699D01*
X153982192Y-89065896D01*
X154011942Y-89061868D01*
X154042525Y-89058615D01*
X154073920Y-89056134D01*
X154106106Y-89054423D01*
X154139062Y-89053480D01*
X154172766Y-89053304D01*
X154172766Y-89038649D01*
X154171912Y-89023079D01*
X154169023Y-89006784D01*
X154163611Y-88990257D01*
X154155185Y-88973992D01*
X154143258Y-88958479D01*
X154127340Y-88944213D01*
X154114270Y-88935638D01*
X154099063Y-88927981D01*
X154081576Y-88921390D01*
X154061663Y-88916009D01*
X154039179Y-88911984D01*
X154013980Y-88909463D01*
X153985921Y-88908590D01*
X153966145Y-88908995D01*
X153946297Y-88910182D01*
X153926452Y-88912109D01*
X153906683Y-88914732D01*
X153887064Y-88918011D01*
X153867669Y-88921901D01*
X153848573Y-88926362D01*
X153829849Y-88931350D01*
X153811572Y-88936824D01*
X153793816Y-88942740D01*
X153776653Y-88949056D01*
X153760160Y-88955731D01*
X153744409Y-88962721D01*
X153729476Y-88969984D01*
X153715433Y-88977478D01*
X153702355Y-88985160D01*
X153643370Y-88780362D01*
X153650270Y-88776589D01*
X153665270Y-88768901D01*
X153681843Y-88761099D01*
X153699956Y-88753271D01*
X153719575Y-88745508D01*
X153740667Y-88737900D01*
X153763199Y-88730535D01*
X153787138Y-88723504D01*
X153812450Y-88716896D01*
X153839102Y-88710801D01*
X153867061Y-88705308D01*
X153881520Y-88702815D01*
X153896294Y-88700507D01*
X153911377Y-88698394D01*
X153926766Y-88696488D01*
X153942457Y-88694799D01*
X153958446Y-88693340D01*
X153974728Y-88692121D01*
X153991299Y-88691153D01*
X154008156Y-88690448D01*
X154025293Y-88690017D01*
X154042707Y-88689870D01*
X154074108Y-88690457D01*
G37*
G36*
X154615334Y-88713318D02*
G01*
X154913555Y-89745000D01*
X155213607Y-89745000D01*
X155316556Y-89383398D01*
X155321632Y-89365372D01*
X155326560Y-89347258D01*
X155331348Y-89329014D01*
X155336002Y-89310595D01*
X155340529Y-89291956D01*
X155344937Y-89273055D01*
X155349232Y-89253847D01*
X155353421Y-89234288D01*
X155357512Y-89214334D01*
X155361510Y-89193940D01*
X155365424Y-89173064D01*
X155369261Y-89151661D01*
X155373026Y-89129687D01*
X155376727Y-89107098D01*
X155380372Y-89083850D01*
X155383967Y-89059898D01*
X155387997Y-89059898D01*
X155391893Y-89083777D01*
X155395758Y-89106827D01*
X155399603Y-89129119D01*
X155403441Y-89150728D01*
X155407284Y-89171725D01*
X155411142Y-89192182D01*
X155415028Y-89212173D01*
X155418954Y-89231769D01*
X155422932Y-89251043D01*
X155426973Y-89270068D01*
X155431089Y-89288915D01*
X155435292Y-89307658D01*
X155439594Y-89326368D01*
X155444006Y-89345119D01*
X155448541Y-89363983D01*
X155453210Y-89383032D01*
X155549563Y-89745000D01*
X155849982Y-89745000D01*
X156165055Y-88713318D01*
X155852180Y-88713318D01*
X155763886Y-89121814D01*
X155759586Y-89144050D01*
X155755342Y-89166249D01*
X155751162Y-89188417D01*
X155747051Y-89210560D01*
X155743015Y-89232683D01*
X155739060Y-89254793D01*
X155735192Y-89276896D01*
X155731417Y-89298997D01*
X155727741Y-89321102D01*
X155724170Y-89343217D01*
X155720709Y-89365349D01*
X155717364Y-89387502D01*
X155714142Y-89409684D01*
X155711048Y-89431899D01*
X155708088Y-89454154D01*
X155705268Y-89476454D01*
X155700872Y-89476454D01*
X155696881Y-89454154D01*
X155692745Y-89431903D01*
X155688476Y-89409696D01*
X155684082Y-89387531D01*
X155679575Y-89365405D01*
X155674964Y-89343314D01*
X155670259Y-89321255D01*
X155665472Y-89299226D01*
X155660611Y-89277222D01*
X155655688Y-89255241D01*
X155650712Y-89233279D01*
X155645694Y-89211333D01*
X155640643Y-89189400D01*
X155635571Y-89167476D01*
X155630487Y-89145559D01*
X155625401Y-89123646D01*
X155522452Y-88713318D01*
X155270394Y-88713318D01*
X155161217Y-89136468D01*
X155156433Y-89155763D01*
X155151573Y-89175435D01*
X155146655Y-89195461D01*
X155141697Y-89215815D01*
X155136718Y-89236471D01*
X155131735Y-89257405D01*
X155126767Y-89278591D01*
X155121833Y-89300004D01*
X155116950Y-89321619D01*
X155112137Y-89343411D01*
X155107412Y-89365353D01*
X155102794Y-89387422D01*
X155098299Y-89409592D01*
X155093948Y-89431837D01*
X155089757Y-89454133D01*
X155085746Y-89476454D01*
X155081350Y-89476454D01*
X155078144Y-89454157D01*
X155074849Y-89431923D01*
X155071472Y-89409766D01*
X155068018Y-89387697D01*
X155064493Y-89365729D01*
X155060903Y-89343874D01*
X155057254Y-89322145D01*
X155053552Y-89300554D01*
X155049803Y-89279113D01*
X155046012Y-89257834D01*
X155042186Y-89236731D01*
X155038331Y-89215815D01*
X155034452Y-89195098D01*
X155030555Y-89174594D01*
X155026646Y-89154314D01*
X155022732Y-89134270D01*
X154940666Y-88713318D01*
X154615334Y-88713318D01*
G37*
G36*
X156747208Y-89745000D02*
G01*
X157064113Y-89745000D01*
X157064113Y-89285945D01*
X157186113Y-89137934D01*
X157532693Y-89745000D01*
X157906385Y-89745000D01*
X157412892Y-88937533D01*
X157881106Y-88338161D01*
X157488363Y-88338161D01*
X157167062Y-88806008D01*
X157158155Y-88820034D01*
X157149170Y-88834098D01*
X157140124Y-88848217D01*
X157131036Y-88862409D01*
X157121924Y-88876694D01*
X157112806Y-88891088D01*
X157103700Y-88905611D01*
X157094625Y-88920279D01*
X157085597Y-88935112D01*
X157076636Y-88950127D01*
X157070708Y-88960247D01*
X157064113Y-88960247D01*
X157064113Y-88338161D01*
X156747208Y-88338161D01*
X156747208Y-89745000D01*
G37*
G36*
X158024720Y-89745000D02*
G01*
X158344190Y-89745000D01*
X158344190Y-89149291D01*
X158344617Y-89132657D01*
X158345909Y-89116370D01*
X158348081Y-89100779D01*
X158351145Y-89086231D01*
X158355869Y-89071041D01*
X158356646Y-89069057D01*
X158363363Y-89052369D01*
X158371776Y-89035895D01*
X158381903Y-89019947D01*
X158393760Y-89004838D01*
X158407363Y-88990878D01*
X158422728Y-88978379D01*
X158439872Y-88967653D01*
X158458811Y-88959011D01*
X158479560Y-88952764D01*
X158494408Y-88950085D01*
X158510073Y-88948701D01*
X158518213Y-88948524D01*
X158539110Y-88949576D01*
X158558410Y-88952687D01*
X158576147Y-88957785D01*
X158592356Y-88964798D01*
X158607071Y-88973655D01*
X158620326Y-88984285D01*
X158632155Y-88996616D01*
X158642594Y-89010577D01*
X158651676Y-89026096D01*
X158659435Y-89043102D01*
X158665906Y-89061524D01*
X158671124Y-89081291D01*
X158675123Y-89102330D01*
X158677936Y-89124571D01*
X158679599Y-89147942D01*
X158680146Y-89172372D01*
X158680146Y-89745000D01*
X158999249Y-89745000D01*
X158999249Y-89132438D01*
X158998791Y-89104447D01*
X158997429Y-89077417D01*
X158995182Y-89051344D01*
X158992070Y-89026222D01*
X158988112Y-89002047D01*
X158983327Y-88978815D01*
X158977735Y-88956520D01*
X158971354Y-88935157D01*
X158964204Y-88914722D01*
X158956305Y-88895211D01*
X158947675Y-88876618D01*
X158938333Y-88858938D01*
X158928300Y-88842168D01*
X158917594Y-88826301D01*
X158906234Y-88811334D01*
X158894240Y-88797261D01*
X158881631Y-88784078D01*
X158868426Y-88771780D01*
X158854645Y-88760362D01*
X158840307Y-88749820D01*
X158825430Y-88740149D01*
X158810035Y-88731344D01*
X158794140Y-88723399D01*
X158777765Y-88716312D01*
X158760929Y-88710076D01*
X158743651Y-88704686D01*
X158725951Y-88700139D01*
X158707847Y-88696430D01*
X158689360Y-88693553D01*
X158670508Y-88691504D01*
X158651310Y-88690278D01*
X158631786Y-88689870D01*
X158616039Y-88690156D01*
X158600672Y-88690997D01*
X158585684Y-88692369D01*
X158571075Y-88694248D01*
X158542992Y-88699429D01*
X158516421Y-88706345D01*
X158491360Y-88714803D01*
X158467804Y-88724608D01*
X158445753Y-88735565D01*
X158425202Y-88747481D01*
X158406150Y-88760161D01*
X158388594Y-88773411D01*
X158372530Y-88787037D01*
X158357957Y-88800844D01*
X158344872Y-88814639D01*
X158333271Y-88828226D01*
X158323153Y-88841412D01*
X158314515Y-88854002D01*
X158308286Y-88854002D01*
X158293632Y-88713318D01*
X158016294Y-88713318D01*
X158017113Y-88730577D01*
X158017918Y-88748282D01*
X158018704Y-88766432D01*
X158019465Y-88785028D01*
X158020196Y-88804068D01*
X158020892Y-88823551D01*
X158021547Y-88843478D01*
X158022156Y-88863848D01*
X158022713Y-88884659D01*
X158023213Y-88905913D01*
X158023652Y-88927608D01*
X158024022Y-88949743D01*
X158024319Y-88972318D01*
X158024539Y-88995333D01*
X158024674Y-89018787D01*
X158024720Y-89042679D01*
X158024720Y-89745000D01*
G37*
G36*
X160447121Y-88932404D02*
G01*
X159919923Y-88932404D01*
X159919923Y-89182264D01*
X160138642Y-89182264D01*
X160138642Y-89488545D01*
X160124398Y-89494364D01*
X160109746Y-89498461D01*
X160092447Y-89502015D01*
X160077872Y-89504298D01*
X160062031Y-89506234D01*
X160045020Y-89507803D01*
X160026936Y-89508989D01*
X160007875Y-89509772D01*
X159987932Y-89510135D01*
X159981106Y-89510160D01*
X159956716Y-89509640D01*
X159932814Y-89508088D01*
X159909417Y-89505514D01*
X159886544Y-89501930D01*
X159864215Y-89497345D01*
X159842448Y-89491772D01*
X159821263Y-89485221D01*
X159800677Y-89477702D01*
X159780710Y-89469228D01*
X159761380Y-89459807D01*
X159742708Y-89449452D01*
X159724710Y-89438174D01*
X159707407Y-89425982D01*
X159690816Y-89412889D01*
X159674958Y-89398904D01*
X159659850Y-89384039D01*
X159645512Y-89368305D01*
X159631962Y-89351712D01*
X159619219Y-89334271D01*
X159607303Y-89315994D01*
X159596232Y-89296891D01*
X159586024Y-89276973D01*
X159576699Y-89256250D01*
X159568276Y-89234734D01*
X159560773Y-89212436D01*
X159554209Y-89189366D01*
X159548604Y-89165535D01*
X159543975Y-89140955D01*
X159540342Y-89115636D01*
X159537724Y-89089588D01*
X159536139Y-89062823D01*
X159535607Y-89035352D01*
X159536194Y-89007162D01*
X159537939Y-88979881D01*
X159540816Y-88953508D01*
X159544802Y-88928043D01*
X159549869Y-88903484D01*
X159555994Y-88879831D01*
X159563151Y-88857082D01*
X159571316Y-88835237D01*
X159580462Y-88814294D01*
X159590566Y-88794254D01*
X159601601Y-88775114D01*
X159613543Y-88756874D01*
X159626367Y-88739532D01*
X159640048Y-88723089D01*
X159654560Y-88707543D01*
X159669879Y-88692893D01*
X159685979Y-88679138D01*
X159702836Y-88666277D01*
X159720423Y-88654310D01*
X159738717Y-88643235D01*
X159757692Y-88633051D01*
X159777322Y-88623758D01*
X159797584Y-88615354D01*
X159818451Y-88607839D01*
X159839899Y-88601212D01*
X159861903Y-88595471D01*
X159884437Y-88590616D01*
X159907476Y-88586646D01*
X159930996Y-88583560D01*
X159954971Y-88581356D01*
X159979376Y-88580035D01*
X160004187Y-88579595D01*
X160032635Y-88579907D01*
X160059768Y-88580825D01*
X160085643Y-88582316D01*
X160110318Y-88584352D01*
X160133850Y-88586900D01*
X160156299Y-88589931D01*
X160177722Y-88593414D01*
X160198176Y-88597318D01*
X160217721Y-88601612D01*
X160236413Y-88606267D01*
X160254311Y-88611251D01*
X160271472Y-88616535D01*
X160287955Y-88622086D01*
X160303818Y-88627875D01*
X160319118Y-88633872D01*
X160333914Y-88640045D01*
X160400959Y-88384323D01*
X160387146Y-88377986D01*
X160371701Y-88371654D01*
X160354668Y-88365383D01*
X160336090Y-88359227D01*
X160316008Y-88353242D01*
X160294467Y-88347486D01*
X160271509Y-88342013D01*
X160247178Y-88336878D01*
X160221515Y-88332139D01*
X160194564Y-88327851D01*
X160166369Y-88324069D01*
X160136971Y-88320850D01*
X160121834Y-88319469D01*
X160106414Y-88318249D01*
X160090714Y-88317198D01*
X160074740Y-88316322D01*
X160058498Y-88315629D01*
X160041994Y-88315125D01*
X160025231Y-88314817D01*
X160008217Y-88314713D01*
X159965063Y-88315499D01*
X159922665Y-88317848D01*
X159881061Y-88321747D01*
X159840292Y-88327183D01*
X159800398Y-88334145D01*
X159761417Y-88342619D01*
X159723391Y-88352592D01*
X159686360Y-88364052D01*
X159650362Y-88376987D01*
X159615439Y-88391383D01*
X159581629Y-88407228D01*
X159548974Y-88424509D01*
X159517512Y-88443213D01*
X159487284Y-88463329D01*
X159458330Y-88484843D01*
X159430689Y-88507742D01*
X159404402Y-88532013D01*
X159379508Y-88557645D01*
X159356047Y-88584625D01*
X159334060Y-88612939D01*
X159313585Y-88642575D01*
X159294664Y-88673521D01*
X159277336Y-88705763D01*
X159261641Y-88739290D01*
X159247618Y-88774087D01*
X159235308Y-88810144D01*
X159224751Y-88847446D01*
X159215986Y-88885982D01*
X159209054Y-88925738D01*
X159203994Y-88966703D01*
X159200846Y-89008862D01*
X159199651Y-89052205D01*
X159199660Y-89071895D01*
X159200098Y-89091460D01*
X159200962Y-89110892D01*
X159202249Y-89130182D01*
X159203958Y-89149322D01*
X159206084Y-89168303D01*
X159208626Y-89187115D01*
X159211580Y-89205751D01*
X159214945Y-89224202D01*
X159218717Y-89242460D01*
X159222893Y-89260514D01*
X159227471Y-89278358D01*
X159232449Y-89295982D01*
X159237823Y-89313377D01*
X159243591Y-89330536D01*
X159249751Y-89347448D01*
X159256299Y-89364107D01*
X159263233Y-89380502D01*
X159270550Y-89396626D01*
X159278247Y-89412469D01*
X159286322Y-89428023D01*
X159294773Y-89443280D01*
X159303596Y-89458230D01*
X159312788Y-89472865D01*
X159322348Y-89487177D01*
X159332272Y-89501156D01*
X159342558Y-89514795D01*
X159353203Y-89528084D01*
X159364204Y-89541015D01*
X159375559Y-89553579D01*
X159387265Y-89565767D01*
X159399319Y-89577571D01*
X159411679Y-89589207D01*
X159424374Y-89600484D01*
X159437408Y-89611401D01*
X159450782Y-89621957D01*
X159464499Y-89632152D01*
X159478563Y-89641985D01*
X159492976Y-89651456D01*
X159507740Y-89660564D01*
X159522858Y-89669308D01*
X159538334Y-89677687D01*
X159554168Y-89685701D01*
X159570365Y-89693349D01*
X159586927Y-89700631D01*
X159603857Y-89707545D01*
X159621157Y-89714092D01*
X159638830Y-89720270D01*
X159656878Y-89726079D01*
X159675305Y-89731518D01*
X159694113Y-89736586D01*
X159713305Y-89741283D01*
X159732883Y-89745608D01*
X159752850Y-89749561D01*
X159773209Y-89753140D01*
X159793962Y-89756345D01*
X159815113Y-89759176D01*
X159836663Y-89761632D01*
X159858616Y-89763711D01*
X159880974Y-89765414D01*
X159903739Y-89766740D01*
X159926916Y-89767688D01*
X159950505Y-89768257D01*
X159974511Y-89768447D01*
X159992058Y-89768313D01*
X160009588Y-89767920D01*
X160027082Y-89767278D01*
X160044527Y-89766398D01*
X160061904Y-89765291D01*
X160079200Y-89763967D01*
X160096396Y-89762437D01*
X160113478Y-89760713D01*
X160130428Y-89758805D01*
X160147232Y-89756723D01*
X160163872Y-89754479D01*
X160180333Y-89752083D01*
X160196599Y-89749546D01*
X160212654Y-89746879D01*
X160228480Y-89744093D01*
X160244064Y-89741198D01*
X160259387Y-89738206D01*
X160274435Y-89735127D01*
X160289190Y-89731972D01*
X160303638Y-89728751D01*
X160331544Y-89722158D01*
X160358026Y-89715433D01*
X160382953Y-89708663D01*
X160406197Y-89701934D01*
X160427629Y-89695333D01*
X160447121Y-89688946D01*
X160447121Y-88932404D01*
G37*
G36*
X161343248Y-89745000D02*
G01*
X161343248Y-89158817D01*
X161809630Y-88338161D01*
X161450593Y-88338161D01*
X161307711Y-88676315D01*
X161299912Y-88694920D01*
X161292310Y-88713115D01*
X161284893Y-88730938D01*
X161277652Y-88748426D01*
X161270576Y-88765615D01*
X161263655Y-88782543D01*
X161256879Y-88799246D01*
X161250237Y-88815762D01*
X161243720Y-88832128D01*
X161237318Y-88848381D01*
X161231019Y-88864557D01*
X161224815Y-88880695D01*
X161218694Y-88896830D01*
X161212647Y-88913000D01*
X161206663Y-88929242D01*
X161200732Y-88945593D01*
X161196336Y-88945593D01*
X161189736Y-88928602D01*
X161183245Y-88911933D01*
X161176832Y-88895522D01*
X161170467Y-88879304D01*
X161164122Y-88863214D01*
X161157767Y-88847190D01*
X161151372Y-88831165D01*
X161144907Y-88815075D01*
X161138344Y-88798857D01*
X161131653Y-88782446D01*
X161124804Y-88765777D01*
X161117768Y-88748786D01*
X161110515Y-88731409D01*
X161103015Y-88713581D01*
X161095240Y-88695238D01*
X161087159Y-88676315D01*
X160942445Y-88338161D01*
X160576814Y-88338161D01*
X161024145Y-89169075D01*
X161024145Y-89745000D01*
X161343248Y-89745000D01*
G37*
G36*
X162235711Y-89745000D02*
G01*
X162557013Y-89745000D01*
X162557013Y-88607072D01*
X162943527Y-88607072D01*
X162943527Y-88338161D01*
X161855425Y-88338161D01*
X161855425Y-88607072D01*
X162235711Y-88607072D01*
X162235711Y-89745000D01*
G37*
G36*
X163893510Y-89745000D02*
G01*
X164202355Y-89745000D01*
X164202355Y-88385055D01*
X163937840Y-88385055D01*
X163576605Y-88552484D01*
X163628995Y-88790987D01*
X163889480Y-88667522D01*
X163893510Y-88667522D01*
X163893510Y-89745000D01*
G37*
G36*
X164854849Y-89768447D02*
G01*
X164875689Y-89767502D01*
X164895580Y-89764719D01*
X164914469Y-89760173D01*
X164932301Y-89753941D01*
X164949021Y-89746099D01*
X164964574Y-89736723D01*
X164978906Y-89725890D01*
X164991961Y-89713675D01*
X165003686Y-89700155D01*
X165014025Y-89685407D01*
X165022923Y-89669505D01*
X165030327Y-89652527D01*
X165036180Y-89634548D01*
X165040429Y-89615646D01*
X165043018Y-89595895D01*
X165043893Y-89575373D01*
X165043019Y-89554162D01*
X165040433Y-89533848D01*
X165036194Y-89514498D01*
X165030361Y-89496175D01*
X165022990Y-89478945D01*
X165014141Y-89462873D01*
X165003870Y-89448023D01*
X164992236Y-89434460D01*
X164979297Y-89422250D01*
X164965111Y-89411457D01*
X164949735Y-89402146D01*
X164933229Y-89394383D01*
X164915648Y-89388232D01*
X164897053Y-89383758D01*
X164877500Y-89381026D01*
X164857048Y-89380101D01*
X164836571Y-89381050D01*
X164816948Y-89383848D01*
X164798244Y-89388420D01*
X164780523Y-89394692D01*
X164763850Y-89402589D01*
X164748289Y-89412037D01*
X164733904Y-89422960D01*
X164720760Y-89435284D01*
X164708921Y-89448935D01*
X164698452Y-89463839D01*
X164689417Y-89479919D01*
X164681880Y-89497103D01*
X164675906Y-89515314D01*
X164671559Y-89534480D01*
X164668903Y-89554524D01*
X164668004Y-89575373D01*
X164668902Y-89595895D01*
X164671551Y-89615646D01*
X164675879Y-89634548D01*
X164681817Y-89652527D01*
X164689294Y-89669505D01*
X164698239Y-89685407D01*
X164708584Y-89700155D01*
X164720256Y-89713675D01*
X164733187Y-89725890D01*
X164747305Y-89736723D01*
X164762541Y-89746099D01*
X164778823Y-89753941D01*
X164796082Y-89760173D01*
X164814248Y-89764719D01*
X164833250Y-89767502D01*
X164853018Y-89768447D01*
X164854849Y-89768447D01*
G37*
G36*
X165729983Y-88362553D02*
G01*
X165762289Y-88365352D01*
X165793321Y-88369956D01*
X165823094Y-88376313D01*
X165851622Y-88384372D01*
X165878919Y-88394083D01*
X165905002Y-88405392D01*
X165929882Y-88418251D01*
X165953577Y-88432608D01*
X165976099Y-88448412D01*
X165997464Y-88465611D01*
X166017686Y-88484155D01*
X166036780Y-88503992D01*
X166054760Y-88525072D01*
X166071640Y-88547344D01*
X166087436Y-88570756D01*
X166102162Y-88595258D01*
X166115832Y-88620798D01*
X166128462Y-88647325D01*
X166140065Y-88674789D01*
X166150656Y-88703137D01*
X166160249Y-88732320D01*
X166168860Y-88762287D01*
X166176503Y-88792985D01*
X166183192Y-88824364D01*
X166188942Y-88856373D01*
X166193767Y-88888961D01*
X166197683Y-88922077D01*
X166200703Y-88955670D01*
X166202842Y-88989689D01*
X166204114Y-89024082D01*
X166204535Y-89058799D01*
X166204036Y-89097807D01*
X166202537Y-89136019D01*
X166200037Y-89173407D01*
X166196535Y-89209941D01*
X166192029Y-89245593D01*
X166186517Y-89280333D01*
X166179999Y-89314132D01*
X166172473Y-89346962D01*
X166163937Y-89378793D01*
X166154391Y-89409596D01*
X166143832Y-89439343D01*
X166132259Y-89468003D01*
X166119672Y-89495549D01*
X166106068Y-89521950D01*
X166091446Y-89547179D01*
X166075804Y-89571205D01*
X166059142Y-89594001D01*
X166041458Y-89615536D01*
X166022750Y-89635782D01*
X166003017Y-89654710D01*
X165982258Y-89672291D01*
X165960471Y-89688495D01*
X165937655Y-89703293D01*
X165913808Y-89716658D01*
X165888929Y-89728559D01*
X165863017Y-89738967D01*
X165836070Y-89747854D01*
X165808087Y-89755190D01*
X165779066Y-89760946D01*
X165749006Y-89765094D01*
X165717906Y-89767604D01*
X165685764Y-89768447D01*
X165653265Y-89767527D01*
X165621915Y-89764798D01*
X165591706Y-89760305D01*
X165562630Y-89754094D01*
X165534679Y-89746210D01*
X165507843Y-89736699D01*
X165482117Y-89725606D01*
X165457490Y-89712977D01*
X165433956Y-89698857D01*
X165411505Y-89683291D01*
X165390131Y-89666326D01*
X165369824Y-89648006D01*
X165350577Y-89628377D01*
X165332381Y-89607485D01*
X165315229Y-89585375D01*
X165299112Y-89562092D01*
X165284022Y-89537682D01*
X165269952Y-89512191D01*
X165256892Y-89485664D01*
X165244835Y-89458146D01*
X165233773Y-89429683D01*
X165223697Y-89400321D01*
X165214600Y-89370104D01*
X165206473Y-89339079D01*
X165199309Y-89307291D01*
X165193098Y-89274785D01*
X165187834Y-89241607D01*
X165183508Y-89207802D01*
X165180111Y-89173416D01*
X165177636Y-89138494D01*
X165176074Y-89103082D01*
X165175418Y-89067226D01*
X165496720Y-89067226D01*
X165496741Y-89095943D01*
X165497215Y-89123708D01*
X165498134Y-89150523D01*
X165499495Y-89176391D01*
X165501290Y-89201314D01*
X165503515Y-89225295D01*
X165506165Y-89248338D01*
X165509233Y-89270443D01*
X165512715Y-89291615D01*
X165516604Y-89311856D01*
X165520896Y-89331168D01*
X165525584Y-89349555D01*
X165530663Y-89367019D01*
X165536128Y-89383562D01*
X165541974Y-89399187D01*
X165548194Y-89413898D01*
X165561736Y-89440584D01*
X165576712Y-89463643D01*
X165593076Y-89483096D01*
X165610785Y-89498963D01*
X165629795Y-89511267D01*
X165650062Y-89520029D01*
X165671541Y-89525270D01*
X165694190Y-89527013D01*
X165716740Y-89525201D01*
X165737945Y-89519766D01*
X165757788Y-89510707D01*
X165776256Y-89498024D01*
X165793332Y-89481718D01*
X165809002Y-89461788D01*
X165823251Y-89438235D01*
X165829838Y-89425100D01*
X165836065Y-89411058D01*
X165841928Y-89396111D01*
X165847427Y-89380258D01*
X165852559Y-89363499D01*
X165857322Y-89345834D01*
X165861716Y-89327263D01*
X165865737Y-89307787D01*
X165869384Y-89287404D01*
X165872655Y-89266116D01*
X165875549Y-89243921D01*
X165878062Y-89220821D01*
X165880194Y-89196815D01*
X165881943Y-89171903D01*
X165883306Y-89146085D01*
X165884283Y-89119361D01*
X165884870Y-89091731D01*
X165885066Y-89063196D01*
X165884876Y-89035381D01*
X165884306Y-89008404D01*
X165883357Y-88982268D01*
X165882029Y-88956976D01*
X165880322Y-88932531D01*
X165878236Y-88908935D01*
X165875772Y-88886192D01*
X165872930Y-88864306D01*
X165869710Y-88843277D01*
X165866113Y-88823111D01*
X165862138Y-88803809D01*
X165857786Y-88785374D01*
X165853057Y-88767810D01*
X165847952Y-88751119D01*
X165842471Y-88735305D01*
X165836614Y-88720370D01*
X165830381Y-88706318D01*
X165823773Y-88693150D01*
X165809432Y-88669483D01*
X165793592Y-88649392D01*
X165776256Y-88632901D01*
X165757425Y-88620033D01*
X165737103Y-88610813D01*
X165715291Y-88605264D01*
X165691992Y-88603408D01*
X165670394Y-88605152D01*
X165649746Y-88610400D01*
X165630112Y-88619181D01*
X165611558Y-88631521D01*
X165594147Y-88647449D01*
X165577946Y-88666991D01*
X165563019Y-88690174D01*
X165556053Y-88703140D01*
X165549430Y-88717027D01*
X165543159Y-88731838D01*
X165537246Y-88747577D01*
X165531701Y-88764246D01*
X165526530Y-88781850D01*
X165521744Y-88800392D01*
X165517349Y-88819875D01*
X165513353Y-88840302D01*
X165509766Y-88861678D01*
X165506594Y-88884005D01*
X165503846Y-88907287D01*
X165501531Y-88931528D01*
X165499656Y-88956730D01*
X165498229Y-88982898D01*
X165497258Y-89010034D01*
X165496753Y-89038142D01*
X165496720Y-89067226D01*
X165175418Y-89067226D01*
X165175911Y-89030647D01*
X165177393Y-88994579D01*
X165179866Y-88959065D01*
X165183333Y-88924146D01*
X165187798Y-88889866D01*
X165193263Y-88856267D01*
X165199731Y-88823393D01*
X165207206Y-88791285D01*
X165215690Y-88759986D01*
X165225187Y-88729539D01*
X165235700Y-88699987D01*
X165247231Y-88671372D01*
X165259783Y-88643737D01*
X165273360Y-88617125D01*
X165287965Y-88591577D01*
X165303600Y-88567138D01*
X165320269Y-88543850D01*
X165337974Y-88521755D01*
X165356719Y-88500895D01*
X165376507Y-88481315D01*
X165397341Y-88463055D01*
X165419223Y-88446160D01*
X165442157Y-88430671D01*
X165466145Y-88416631D01*
X165491192Y-88404084D01*
X165517299Y-88393071D01*
X165544470Y-88383635D01*
X165572708Y-88375819D01*
X165602016Y-88369666D01*
X165632396Y-88365218D01*
X165663853Y-88362518D01*
X165696388Y-88361608D01*
X165729983Y-88362553D01*
G37*
G36*
X68448685Y-88659915D02*
G01*
X68467565Y-88660586D01*
X68486327Y-88661887D01*
X68504855Y-88663774D01*
X68523037Y-88666202D01*
X68540758Y-88669128D01*
X68557906Y-88672507D01*
X68574365Y-88676296D01*
X68590022Y-88680450D01*
X68604764Y-88684925D01*
X68624911Y-88692145D01*
X68642358Y-88699841D01*
X68656721Y-88707864D01*
X68670411Y-88718813D01*
X68638904Y-88829455D01*
X68633510Y-88826526D01*
X68619002Y-88819787D01*
X68605134Y-88814238D01*
X68588962Y-88808525D01*
X68570715Y-88802885D01*
X68550624Y-88797553D01*
X68536318Y-88794286D01*
X68521364Y-88791330D01*
X68505828Y-88788754D01*
X68489779Y-88786630D01*
X68473285Y-88785026D01*
X68456415Y-88784013D01*
X68439235Y-88783660D01*
X68424273Y-88783939D01*
X68395476Y-88786156D01*
X68368228Y-88790550D01*
X68342580Y-88797076D01*
X68318587Y-88805691D01*
X68296301Y-88816351D01*
X68275776Y-88829014D01*
X68257064Y-88843635D01*
X68240220Y-88860171D01*
X68225295Y-88878578D01*
X68212343Y-88898814D01*
X68201417Y-88920835D01*
X68192571Y-88944597D01*
X68185857Y-88970056D01*
X68181329Y-88997170D01*
X68179039Y-89025895D01*
X68178750Y-89040847D01*
X68179944Y-89068627D01*
X68183477Y-89095298D01*
X68189275Y-89120768D01*
X68197263Y-89144941D01*
X68207368Y-89167722D01*
X68219516Y-89189019D01*
X68233631Y-89208735D01*
X68249642Y-89226777D01*
X68267473Y-89243050D01*
X68287050Y-89257460D01*
X68308299Y-89269912D01*
X68331146Y-89280312D01*
X68355518Y-89288565D01*
X68381340Y-89294578D01*
X68408538Y-89298254D01*
X68437037Y-89299501D01*
X68445083Y-89299441D01*
X68461011Y-89298968D01*
X68476691Y-89298036D01*
X68492090Y-89296659D01*
X68507175Y-89294852D01*
X68521914Y-89292629D01*
X68543297Y-89288548D01*
X68563712Y-89283613D01*
X68583046Y-89277873D01*
X68601187Y-89271377D01*
X68618023Y-89264174D01*
X68633442Y-89256313D01*
X68647330Y-89247843D01*
X68678838Y-89356287D01*
X68664791Y-89365014D01*
X68650289Y-89373068D01*
X68635365Y-89380466D01*
X68620053Y-89387222D01*
X68604387Y-89393351D01*
X68588401Y-89398868D01*
X68572128Y-89403789D01*
X68555602Y-89408128D01*
X68538857Y-89411900D01*
X68521927Y-89415120D01*
X68504846Y-89417804D01*
X68487647Y-89419966D01*
X68470364Y-89421621D01*
X68453032Y-89422785D01*
X68435683Y-89423472D01*
X68418353Y-89423698D01*
X68395609Y-89423217D01*
X68373476Y-89421787D01*
X68351960Y-89419431D01*
X68331070Y-89416170D01*
X68310812Y-89412028D01*
X68291194Y-89407025D01*
X68272223Y-89401184D01*
X68253907Y-89394526D01*
X68236252Y-89387075D01*
X68219266Y-89378851D01*
X68202956Y-89369876D01*
X68187331Y-89360174D01*
X68172396Y-89349765D01*
X68158159Y-89338672D01*
X68144628Y-89326917D01*
X68131810Y-89314521D01*
X68119712Y-89301508D01*
X68108342Y-89287898D01*
X68097706Y-89273714D01*
X68087813Y-89258977D01*
X68078669Y-89243711D01*
X68070281Y-89227936D01*
X68062658Y-89211675D01*
X68055807Y-89194949D01*
X68049733Y-89177782D01*
X68044446Y-89160194D01*
X68039953Y-89142208D01*
X68036260Y-89123846D01*
X68033375Y-89105130D01*
X68031305Y-89086081D01*
X68030057Y-89066722D01*
X68029640Y-89047076D01*
X68030202Y-89024981D01*
X68031865Y-89003422D01*
X68034600Y-88982412D01*
X68038374Y-88961960D01*
X68043157Y-88942076D01*
X68048917Y-88922773D01*
X68055622Y-88904061D01*
X68063243Y-88885950D01*
X68071746Y-88868451D01*
X68081102Y-88851576D01*
X68091279Y-88835334D01*
X68102245Y-88819737D01*
X68113969Y-88804796D01*
X68126421Y-88790521D01*
X68139568Y-88776923D01*
X68153380Y-88764013D01*
X68167825Y-88751802D01*
X68182872Y-88740301D01*
X68198490Y-88729519D01*
X68214647Y-88719469D01*
X68231312Y-88710161D01*
X68248455Y-88701606D01*
X68266043Y-88693814D01*
X68284046Y-88686796D01*
X68302432Y-88680564D01*
X68321169Y-88675128D01*
X68340228Y-88670498D01*
X68359575Y-88666686D01*
X68379181Y-88663702D01*
X68399014Y-88661557D01*
X68419043Y-88660263D01*
X68439235Y-88659829D01*
X68448685Y-88659915D01*
G37*
G36*
X68424135Y-88385915D02*
G01*
X68456912Y-88388466D01*
X68489170Y-88392664D01*
X68520871Y-88398466D01*
X68551977Y-88405827D01*
X68582450Y-88414704D01*
X68612253Y-88425054D01*
X68641348Y-88436833D01*
X68669698Y-88449997D01*
X68697265Y-88464502D01*
X68724011Y-88480305D01*
X68749899Y-88497362D01*
X68774890Y-88515630D01*
X68798949Y-88535065D01*
X68822036Y-88555622D01*
X68844114Y-88577259D01*
X68865145Y-88599932D01*
X68885093Y-88623597D01*
X68903918Y-88648210D01*
X68921585Y-88673728D01*
X68938054Y-88700107D01*
X68953289Y-88727304D01*
X68967251Y-88755274D01*
X68979903Y-88783974D01*
X68991208Y-88813361D01*
X69001128Y-88843391D01*
X69009624Y-88874019D01*
X69016661Y-88905203D01*
X69022199Y-88936899D01*
X69026201Y-88969062D01*
X69028630Y-89001650D01*
X69029448Y-89034619D01*
X69028630Y-89067923D01*
X69026201Y-89100762D01*
X69022197Y-89133098D01*
X69016657Y-89164893D01*
X69009617Y-89196107D01*
X69001115Y-89226702D01*
X68991189Y-89256638D01*
X68979875Y-89285876D01*
X68967210Y-89314379D01*
X68953233Y-89342106D01*
X68937980Y-89369019D01*
X68921488Y-89395079D01*
X68903796Y-89420247D01*
X68884939Y-89444484D01*
X68864957Y-89467751D01*
X68843885Y-89490010D01*
X68821761Y-89511221D01*
X68798623Y-89531346D01*
X68774507Y-89550345D01*
X68749451Y-89568180D01*
X68723493Y-89584812D01*
X68696670Y-89600202D01*
X68669018Y-89614310D01*
X68640575Y-89627099D01*
X68611379Y-89638529D01*
X68581467Y-89648561D01*
X68550876Y-89657156D01*
X68519644Y-89664276D01*
X68487807Y-89669882D01*
X68455403Y-89673934D01*
X68422469Y-89676394D01*
X68389043Y-89677222D01*
X68355405Y-89676394D01*
X68322248Y-89673934D01*
X68289609Y-89669882D01*
X68257529Y-89664276D01*
X68226044Y-89657156D01*
X68195195Y-89648561D01*
X68165018Y-89638529D01*
X68135554Y-89627099D01*
X68106839Y-89614310D01*
X68078914Y-89600202D01*
X68051815Y-89584812D01*
X68025583Y-89568180D01*
X68000255Y-89550345D01*
X67975869Y-89531346D01*
X67952465Y-89511221D01*
X67930081Y-89490010D01*
X67908755Y-89467751D01*
X67888525Y-89444484D01*
X67869431Y-89420247D01*
X67851511Y-89395079D01*
X67834803Y-89369019D01*
X67819346Y-89342106D01*
X67805179Y-89314379D01*
X67792339Y-89285876D01*
X67780866Y-89256638D01*
X67770797Y-89226702D01*
X67762172Y-89196107D01*
X67755029Y-89164893D01*
X67749406Y-89133098D01*
X67745342Y-89100762D01*
X67742875Y-89067923D01*
X67742090Y-89036451D01*
X67878698Y-89036451D01*
X67879357Y-89063507D01*
X67881314Y-89090179D01*
X67884536Y-89116437D01*
X67888992Y-89142249D01*
X67894651Y-89167585D01*
X67901481Y-89192412D01*
X67909451Y-89216701D01*
X67918529Y-89240419D01*
X67928683Y-89263535D01*
X67939882Y-89286018D01*
X67952095Y-89307838D01*
X67965290Y-89328962D01*
X67979436Y-89349360D01*
X67994500Y-89369000D01*
X68010451Y-89387852D01*
X68027259Y-89405884D01*
X68044890Y-89423064D01*
X68063315Y-89439362D01*
X68082501Y-89454747D01*
X68102416Y-89469187D01*
X68123030Y-89482651D01*
X68144311Y-89495107D01*
X68166226Y-89506526D01*
X68188745Y-89516875D01*
X68211837Y-89526123D01*
X68235468Y-89534239D01*
X68259609Y-89541193D01*
X68284228Y-89546952D01*
X68309292Y-89551485D01*
X68334771Y-89554762D01*
X68360632Y-89556751D01*
X68386845Y-89557421D01*
X68412859Y-89556944D01*
X68438533Y-89555124D01*
X68463837Y-89551993D01*
X68488737Y-89547583D01*
X68513204Y-89541926D01*
X68537203Y-89535056D01*
X68560704Y-89527004D01*
X68583674Y-89517802D01*
X68606082Y-89507484D01*
X68627896Y-89496081D01*
X68649084Y-89483627D01*
X68669613Y-89470153D01*
X68689452Y-89455691D01*
X68708569Y-89440275D01*
X68726931Y-89423936D01*
X68744508Y-89406708D01*
X68761267Y-89388622D01*
X68777177Y-89369710D01*
X68792204Y-89350006D01*
X68806318Y-89329542D01*
X68819486Y-89308349D01*
X68831677Y-89286461D01*
X68842858Y-89263910D01*
X68852998Y-89240728D01*
X68862065Y-89216947D01*
X68870026Y-89192601D01*
X68876850Y-89167721D01*
X68882505Y-89142340D01*
X68886958Y-89116490D01*
X68890179Y-89090203D01*
X68892135Y-89063513D01*
X68892794Y-89036451D01*
X68892135Y-89009365D01*
X68890179Y-88982604D01*
X68886958Y-88956202D01*
X68882505Y-88930196D01*
X68876850Y-88904620D01*
X68870026Y-88879509D01*
X68862065Y-88854899D01*
X68852998Y-88830823D01*
X68842858Y-88807319D01*
X68831677Y-88784419D01*
X68819486Y-88762161D01*
X68806318Y-88740578D01*
X68792204Y-88719706D01*
X68777177Y-88699580D01*
X68761267Y-88680235D01*
X68744508Y-88661706D01*
X68726931Y-88644028D01*
X68708569Y-88627237D01*
X68689452Y-88611366D01*
X68669613Y-88596453D01*
X68649084Y-88582530D01*
X68627896Y-88569634D01*
X68606082Y-88557800D01*
X68583674Y-88547063D01*
X68560704Y-88537457D01*
X68537203Y-88529019D01*
X68513204Y-88521782D01*
X68488737Y-88515782D01*
X68463837Y-88511055D01*
X68438533Y-88507635D01*
X68412859Y-88505557D01*
X68386845Y-88504856D01*
X68384647Y-88504856D01*
X68358634Y-88505557D01*
X68332959Y-88507635D01*
X68307656Y-88511055D01*
X68282755Y-88515782D01*
X68258289Y-88521782D01*
X68234289Y-88529019D01*
X68210788Y-88537457D01*
X68187818Y-88547063D01*
X68165410Y-88557800D01*
X68143596Y-88569634D01*
X68122409Y-88582530D01*
X68101880Y-88596453D01*
X68082041Y-88611366D01*
X68062924Y-88627237D01*
X68044561Y-88644028D01*
X68026984Y-88661706D01*
X68010225Y-88680235D01*
X67994316Y-88699580D01*
X67979288Y-88719706D01*
X67965174Y-88740578D01*
X67952006Y-88762161D01*
X67939815Y-88784419D01*
X67928634Y-88807319D01*
X67918494Y-88830823D01*
X67909428Y-88854899D01*
X67901467Y-88879509D01*
X67894643Y-88904620D01*
X67888988Y-88930196D01*
X67884534Y-88956202D01*
X67881313Y-88982604D01*
X67879357Y-89009365D01*
X67878698Y-89036451D01*
X67742090Y-89036451D01*
X67742044Y-89034619D01*
X67742875Y-89001650D01*
X67745342Y-88969062D01*
X67749406Y-88936899D01*
X67755029Y-88905203D01*
X67762172Y-88874019D01*
X67770797Y-88843391D01*
X67780866Y-88813361D01*
X67792339Y-88783974D01*
X67805179Y-88755274D01*
X67819346Y-88727304D01*
X67834803Y-88700107D01*
X67851511Y-88673728D01*
X67869431Y-88648210D01*
X67888525Y-88623597D01*
X67908755Y-88599932D01*
X67930081Y-88577259D01*
X67952465Y-88555622D01*
X67975869Y-88535065D01*
X68000255Y-88515630D01*
X68025583Y-88497362D01*
X68051815Y-88480305D01*
X68078914Y-88464502D01*
X68106839Y-88449997D01*
X68135554Y-88436833D01*
X68165018Y-88425054D01*
X68195195Y-88414704D01*
X68226044Y-88405827D01*
X68257529Y-88398466D01*
X68289609Y-88392664D01*
X68322248Y-88388466D01*
X68355405Y-88385915D01*
X68389043Y-88385055D01*
X68390875Y-88385055D01*
X68424135Y-88385915D01*
G37*
G36*
X70152721Y-89745000D02*
G01*
X70152721Y-89482683D01*
X69637979Y-89482683D01*
X69637979Y-89478653D01*
X69764009Y-89373872D01*
X69782425Y-89357434D01*
X69800632Y-89340950D01*
X69818606Y-89324413D01*
X69836320Y-89307815D01*
X69853752Y-89291150D01*
X69870876Y-89274410D01*
X69887668Y-89257588D01*
X69904103Y-89240676D01*
X69920156Y-89223668D01*
X69935803Y-89206556D01*
X69951019Y-89189333D01*
X69965780Y-89171991D01*
X69980061Y-89154524D01*
X69993837Y-89136925D01*
X70007084Y-89119185D01*
X70019777Y-89101297D01*
X70031891Y-89083256D01*
X70043402Y-89065052D01*
X70054286Y-89046679D01*
X70064517Y-89028131D01*
X70074071Y-89009398D01*
X70082923Y-88990475D01*
X70091049Y-88971353D01*
X70098425Y-88952027D01*
X70105025Y-88932488D01*
X70110824Y-88912729D01*
X70115799Y-88892743D01*
X70119925Y-88872523D01*
X70123177Y-88852061D01*
X70125530Y-88831351D01*
X70126960Y-88810385D01*
X70127442Y-88789155D01*
X70126945Y-88766203D01*
X70125457Y-88743661D01*
X70122985Y-88721549D01*
X70119534Y-88699888D01*
X70115110Y-88678700D01*
X70109718Y-88658005D01*
X70103365Y-88637824D01*
X70096055Y-88618177D01*
X70087795Y-88599087D01*
X70078590Y-88580574D01*
X70068446Y-88562659D01*
X70057368Y-88545363D01*
X70045363Y-88528706D01*
X70032436Y-88512710D01*
X70018593Y-88497395D01*
X70003840Y-88482783D01*
X69988181Y-88468894D01*
X69971624Y-88455750D01*
X69954173Y-88443371D01*
X69935834Y-88431778D01*
X69916613Y-88420993D01*
X69896516Y-88411035D01*
X69875549Y-88401926D01*
X69853716Y-88393688D01*
X69831025Y-88386340D01*
X69807479Y-88379904D01*
X69783086Y-88374401D01*
X69757851Y-88369851D01*
X69731780Y-88366276D01*
X69704878Y-88363697D01*
X69677150Y-88362134D01*
X69648604Y-88361608D01*
X69631367Y-88361791D01*
X69614282Y-88362335D01*
X69597355Y-88363230D01*
X69580591Y-88364468D01*
X69563997Y-88366040D01*
X69547577Y-88367938D01*
X69531339Y-88370152D01*
X69515287Y-88372673D01*
X69499428Y-88375494D01*
X69483768Y-88378605D01*
X69468312Y-88381997D01*
X69453066Y-88385661D01*
X69438036Y-88389590D01*
X69423228Y-88393773D01*
X69408648Y-88398203D01*
X69394301Y-88402870D01*
X69380194Y-88407765D01*
X69366332Y-88412881D01*
X69339366Y-88423736D01*
X69313451Y-88435365D01*
X69288634Y-88447698D01*
X69264961Y-88460664D01*
X69242478Y-88474193D01*
X69221234Y-88488214D01*
X69201273Y-88502658D01*
X69291765Y-88730903D01*
X69305521Y-88720640D01*
X69319984Y-88710382D01*
X69335129Y-88700219D01*
X69350933Y-88690242D01*
X69367372Y-88680543D01*
X69384424Y-88671211D01*
X69402063Y-88662337D01*
X69420267Y-88654012D01*
X69439012Y-88646328D01*
X69458275Y-88639373D01*
X69478031Y-88633239D01*
X69498257Y-88628018D01*
X69518930Y-88623799D01*
X69540025Y-88620673D01*
X69561520Y-88618731D01*
X69583391Y-88618063D01*
X69611878Y-88619073D01*
X69638287Y-88622041D01*
X69662650Y-88626873D01*
X69685000Y-88633473D01*
X69705371Y-88641748D01*
X69723796Y-88651603D01*
X69740308Y-88662943D01*
X69754941Y-88675674D01*
X69767728Y-88689702D01*
X69778702Y-88704931D01*
X69787896Y-88721269D01*
X69795344Y-88738620D01*
X69801079Y-88756889D01*
X69805134Y-88775983D01*
X69807543Y-88795807D01*
X69808339Y-88816266D01*
X69807515Y-88831157D01*
X69805867Y-88846031D01*
X69803392Y-88860910D01*
X69800087Y-88875816D01*
X69795950Y-88890771D01*
X69790980Y-88905797D01*
X69785172Y-88920915D01*
X69778526Y-88936147D01*
X69771038Y-88951516D01*
X69762706Y-88967043D01*
X69753528Y-88982751D01*
X69743501Y-88998660D01*
X69732623Y-89014793D01*
X69720891Y-89031171D01*
X69708303Y-89047817D01*
X69694857Y-89064753D01*
X69680550Y-89081999D01*
X69665380Y-89099579D01*
X69649345Y-89117514D01*
X69632441Y-89135826D01*
X69614667Y-89154536D01*
X69596019Y-89173667D01*
X69576497Y-89193241D01*
X69556097Y-89213279D01*
X69534817Y-89233803D01*
X69512654Y-89254835D01*
X69489606Y-89276398D01*
X69465671Y-89298512D01*
X69440846Y-89321199D01*
X69415129Y-89344483D01*
X69388517Y-89368383D01*
X69361008Y-89392923D01*
X69184420Y-89551926D01*
X69184420Y-89745000D01*
X70152721Y-89745000D01*
G37*
G36*
X70883140Y-88362553D02*
G01*
X70915446Y-88365352D01*
X70946479Y-88369956D01*
X70976251Y-88376313D01*
X71004779Y-88384372D01*
X71032077Y-88394083D01*
X71058159Y-88405392D01*
X71083040Y-88418251D01*
X71106735Y-88432608D01*
X71129257Y-88448412D01*
X71150622Y-88465611D01*
X71170844Y-88484155D01*
X71189937Y-88503992D01*
X71207917Y-88525072D01*
X71224798Y-88547344D01*
X71240594Y-88570756D01*
X71255320Y-88595258D01*
X71268990Y-88620798D01*
X71281619Y-88647325D01*
X71293222Y-88674789D01*
X71303813Y-88703137D01*
X71313407Y-88732320D01*
X71322018Y-88762287D01*
X71329661Y-88792985D01*
X71336350Y-88824364D01*
X71342100Y-88856373D01*
X71346925Y-88888961D01*
X71350840Y-88922077D01*
X71353860Y-88955670D01*
X71355999Y-88989689D01*
X71357272Y-89024082D01*
X71357693Y-89058799D01*
X71357194Y-89097807D01*
X71355695Y-89136019D01*
X71353195Y-89173407D01*
X71349693Y-89209941D01*
X71345186Y-89245593D01*
X71339675Y-89280333D01*
X71333157Y-89314132D01*
X71325631Y-89346962D01*
X71317095Y-89378793D01*
X71307548Y-89409596D01*
X71296990Y-89439343D01*
X71285417Y-89468003D01*
X71272829Y-89495549D01*
X71259225Y-89521950D01*
X71244603Y-89547179D01*
X71228962Y-89571205D01*
X71212300Y-89594001D01*
X71194616Y-89615536D01*
X71175908Y-89635782D01*
X71156175Y-89654710D01*
X71135416Y-89672291D01*
X71113629Y-89688495D01*
X71090813Y-89703293D01*
X71066966Y-89716658D01*
X71042087Y-89728559D01*
X71016175Y-89738967D01*
X70989228Y-89747854D01*
X70961245Y-89755190D01*
X70932224Y-89760946D01*
X70902164Y-89765094D01*
X70871064Y-89767604D01*
X70838921Y-89768447D01*
X70806423Y-89767527D01*
X70775073Y-89764798D01*
X70744864Y-89760305D01*
X70715788Y-89754094D01*
X70687836Y-89746210D01*
X70661001Y-89736699D01*
X70635274Y-89725606D01*
X70610648Y-89712977D01*
X70587113Y-89698857D01*
X70564663Y-89683291D01*
X70543288Y-89666326D01*
X70522982Y-89648006D01*
X70503734Y-89628377D01*
X70485539Y-89607485D01*
X70468387Y-89585375D01*
X70452270Y-89562092D01*
X70437180Y-89537682D01*
X70423109Y-89512191D01*
X70410050Y-89485664D01*
X70397993Y-89458146D01*
X70386930Y-89429683D01*
X70376855Y-89400321D01*
X70367758Y-89370104D01*
X70359631Y-89339079D01*
X70352467Y-89307291D01*
X70346256Y-89274785D01*
X70340992Y-89241607D01*
X70336665Y-89207802D01*
X70333269Y-89173416D01*
X70330794Y-89138494D01*
X70329232Y-89103082D01*
X70328576Y-89067226D01*
X70649877Y-89067226D01*
X70649899Y-89095943D01*
X70650372Y-89123708D01*
X70651292Y-89150523D01*
X70652652Y-89176391D01*
X70654448Y-89201314D01*
X70656673Y-89225295D01*
X70659323Y-89248338D01*
X70662391Y-89270443D01*
X70665873Y-89291615D01*
X70669762Y-89311856D01*
X70674053Y-89331168D01*
X70678741Y-89349555D01*
X70683821Y-89367019D01*
X70689286Y-89383562D01*
X70695131Y-89399187D01*
X70701352Y-89413898D01*
X70714894Y-89440584D01*
X70729869Y-89463643D01*
X70746234Y-89483096D01*
X70763943Y-89498963D01*
X70782953Y-89511267D01*
X70803219Y-89520029D01*
X70824699Y-89525270D01*
X70847348Y-89527013D01*
X70869898Y-89525201D01*
X70891102Y-89519766D01*
X70910946Y-89510707D01*
X70929413Y-89498024D01*
X70946490Y-89481718D01*
X70962160Y-89461788D01*
X70976409Y-89438235D01*
X70982996Y-89425100D01*
X70989222Y-89411058D01*
X70995086Y-89396111D01*
X71000584Y-89380258D01*
X71005716Y-89363499D01*
X71010480Y-89345834D01*
X71014873Y-89327263D01*
X71018895Y-89307787D01*
X71022542Y-89287404D01*
X71025813Y-89266116D01*
X71028706Y-89243921D01*
X71031220Y-89220821D01*
X71033352Y-89196815D01*
X71035101Y-89171903D01*
X71036464Y-89146085D01*
X71037440Y-89119361D01*
X71038027Y-89091731D01*
X71038224Y-89063196D01*
X71038034Y-89035381D01*
X71037464Y-89008404D01*
X71036515Y-88982268D01*
X71035187Y-88956976D01*
X71033480Y-88932531D01*
X71031394Y-88908935D01*
X71028930Y-88886192D01*
X71026088Y-88864306D01*
X71022868Y-88843277D01*
X71019270Y-88823111D01*
X71015295Y-88803809D01*
X71010944Y-88785374D01*
X71006215Y-88767810D01*
X71001110Y-88751119D01*
X70995629Y-88735305D01*
X70989772Y-88720370D01*
X70983539Y-88706318D01*
X70976931Y-88693150D01*
X70962589Y-88669483D01*
X70946749Y-88649392D01*
X70929413Y-88632901D01*
X70910583Y-88620033D01*
X70890261Y-88610813D01*
X70868449Y-88605264D01*
X70845150Y-88603408D01*
X70823552Y-88605152D01*
X70802904Y-88610400D01*
X70783270Y-88619181D01*
X70764715Y-88631521D01*
X70747305Y-88647449D01*
X70731104Y-88666991D01*
X70716176Y-88690174D01*
X70709211Y-88703140D01*
X70702588Y-88717027D01*
X70696316Y-88731838D01*
X70690404Y-88747577D01*
X70684858Y-88764246D01*
X70679688Y-88781850D01*
X70674901Y-88800392D01*
X70670506Y-88819875D01*
X70666511Y-88840302D01*
X70662923Y-88861678D01*
X70659752Y-88884005D01*
X70657004Y-88907287D01*
X70654689Y-88931528D01*
X70652813Y-88956730D01*
X70651386Y-88982898D01*
X70650416Y-89010034D01*
X70649910Y-89038142D01*
X70649877Y-89067226D01*
X70328576Y-89067226D01*
X70329069Y-89030647D01*
X70330551Y-88994579D01*
X70333023Y-88959065D01*
X70336491Y-88924146D01*
X70340955Y-88889866D01*
X70346420Y-88856267D01*
X70352889Y-88823393D01*
X70360364Y-88791285D01*
X70368848Y-88759986D01*
X70378345Y-88729539D01*
X70388857Y-88699987D01*
X70400388Y-88671372D01*
X70412941Y-88643737D01*
X70426518Y-88617125D01*
X70441122Y-88591577D01*
X70456758Y-88567138D01*
X70473426Y-88543850D01*
X70491132Y-88521755D01*
X70509877Y-88500895D01*
X70529665Y-88481315D01*
X70550498Y-88463055D01*
X70572381Y-88446160D01*
X70595314Y-88430671D01*
X70619303Y-88416631D01*
X70644350Y-88404084D01*
X70670457Y-88393071D01*
X70697628Y-88383635D01*
X70725866Y-88375819D01*
X70755173Y-88369666D01*
X70785554Y-88365218D01*
X70817011Y-88362518D01*
X70849546Y-88361608D01*
X70883140Y-88362553D01*
G37*
G36*
X72482798Y-89745000D02*
G01*
X72482798Y-89482683D01*
X71968056Y-89482683D01*
X71968056Y-89478653D01*
X72094085Y-89373872D01*
X72112502Y-89357434D01*
X72130709Y-89340950D01*
X72148682Y-89324413D01*
X72166397Y-89307815D01*
X72183829Y-89291150D01*
X72200953Y-89274410D01*
X72217745Y-89257588D01*
X72234180Y-89240676D01*
X72250233Y-89223668D01*
X72265880Y-89206556D01*
X72281096Y-89189333D01*
X72295857Y-89171991D01*
X72310138Y-89154524D01*
X72323914Y-89136925D01*
X72337161Y-89119185D01*
X72349853Y-89101297D01*
X72361968Y-89083256D01*
X72373479Y-89065052D01*
X72384362Y-89046679D01*
X72394593Y-89028131D01*
X72404148Y-89009398D01*
X72413000Y-88990475D01*
X72421126Y-88971353D01*
X72428501Y-88952027D01*
X72435101Y-88932488D01*
X72440901Y-88912729D01*
X72445876Y-88892743D01*
X72450002Y-88872523D01*
X72453254Y-88852061D01*
X72455607Y-88831351D01*
X72457037Y-88810385D01*
X72457519Y-88789155D01*
X72457022Y-88766203D01*
X72455534Y-88743661D01*
X72453062Y-88721549D01*
X72449611Y-88699888D01*
X72445187Y-88678700D01*
X72439795Y-88658005D01*
X72433441Y-88637824D01*
X72426132Y-88618177D01*
X72417871Y-88599087D01*
X72408666Y-88580574D01*
X72398522Y-88562659D01*
X72387445Y-88545363D01*
X72375440Y-88528706D01*
X72362513Y-88512710D01*
X72348670Y-88497395D01*
X72333917Y-88482783D01*
X72318258Y-88468894D01*
X72301701Y-88455750D01*
X72284250Y-88443371D01*
X72265911Y-88431778D01*
X72246690Y-88420993D01*
X72226593Y-88411035D01*
X72205626Y-88401926D01*
X72183793Y-88393688D01*
X72161101Y-88386340D01*
X72137556Y-88379904D01*
X72113163Y-88374401D01*
X72087928Y-88369851D01*
X72061856Y-88366276D01*
X72034954Y-88363697D01*
X72007227Y-88362134D01*
X71978681Y-88361608D01*
X71961444Y-88361791D01*
X71944359Y-88362335D01*
X71927432Y-88363230D01*
X71910668Y-88364468D01*
X71894073Y-88366040D01*
X71877654Y-88367938D01*
X71861416Y-88370152D01*
X71845364Y-88372673D01*
X71829505Y-88375494D01*
X71813845Y-88378605D01*
X71798389Y-88381997D01*
X71783143Y-88385661D01*
X71768113Y-88389590D01*
X71753305Y-88393773D01*
X71738725Y-88398203D01*
X71724378Y-88402870D01*
X71710271Y-88407765D01*
X71696408Y-88412881D01*
X71669443Y-88423736D01*
X71643528Y-88435365D01*
X71618711Y-88447698D01*
X71595037Y-88460664D01*
X71572555Y-88474193D01*
X71551310Y-88488214D01*
X71531350Y-88502658D01*
X71621842Y-88730903D01*
X71635598Y-88720640D01*
X71650060Y-88710382D01*
X71665206Y-88700219D01*
X71681010Y-88690242D01*
X71697449Y-88680543D01*
X71714500Y-88671211D01*
X71732140Y-88662337D01*
X71750344Y-88654012D01*
X71769089Y-88646328D01*
X71788351Y-88639373D01*
X71808108Y-88633239D01*
X71828334Y-88628018D01*
X71849007Y-88623799D01*
X71870102Y-88620673D01*
X71891597Y-88618731D01*
X71913468Y-88618063D01*
X71941955Y-88619073D01*
X71968364Y-88622041D01*
X71992726Y-88626873D01*
X72015077Y-88633473D01*
X72035448Y-88641748D01*
X72053873Y-88651603D01*
X72070385Y-88662943D01*
X72085018Y-88675674D01*
X72097805Y-88689702D01*
X72108779Y-88704931D01*
X72117973Y-88721269D01*
X72125421Y-88738620D01*
X72131156Y-88756889D01*
X72135211Y-88775983D01*
X72137620Y-88795807D01*
X72138415Y-88816266D01*
X72137592Y-88831157D01*
X72135944Y-88846031D01*
X72133468Y-88860910D01*
X72130164Y-88875816D01*
X72126027Y-88890771D01*
X72121056Y-88905797D01*
X72115249Y-88920915D01*
X72108603Y-88936147D01*
X72101115Y-88951516D01*
X72092783Y-88967043D01*
X72083604Y-88982751D01*
X72073578Y-88998660D01*
X72062699Y-89014793D01*
X72050968Y-89031171D01*
X72038380Y-89047817D01*
X72024934Y-89064753D01*
X72010627Y-89081999D01*
X71995457Y-89099579D01*
X71979421Y-89117514D01*
X71962518Y-89135826D01*
X71944743Y-89154536D01*
X71926096Y-89173667D01*
X71906574Y-89193241D01*
X71886174Y-89213279D01*
X71864893Y-89233803D01*
X71842730Y-89254835D01*
X71819683Y-89276398D01*
X71795747Y-89298512D01*
X71770922Y-89321199D01*
X71745205Y-89344483D01*
X71718593Y-89368383D01*
X71691085Y-89392923D01*
X71514497Y-89551926D01*
X71514497Y-89745000D01*
X72482798Y-89745000D01*
G37*
G36*
X72671109Y-89672093D02*
G01*
X72686885Y-89681446D01*
X72704224Y-89690644D01*
X72723062Y-89699623D01*
X72743340Y-89708323D01*
X72764996Y-89716681D01*
X72787969Y-89724637D01*
X72812198Y-89732128D01*
X72837622Y-89739092D01*
X72864179Y-89745468D01*
X72891808Y-89751194D01*
X72920448Y-89756209D01*
X72935128Y-89758430D01*
X72950038Y-89760450D01*
X72965170Y-89762261D01*
X72980517Y-89763856D01*
X72996071Y-89765227D01*
X73011824Y-89766365D01*
X73027768Y-89767264D01*
X73043896Y-89767916D01*
X73060201Y-89768313D01*
X73076674Y-89768447D01*
X73108770Y-89767934D01*
X73140064Y-89766408D01*
X73170541Y-89763891D01*
X73200188Y-89760400D01*
X73228990Y-89755958D01*
X73256933Y-89750583D01*
X73284003Y-89744296D01*
X73310186Y-89737117D01*
X73335467Y-89729066D01*
X73359832Y-89720162D01*
X73383267Y-89710427D01*
X73405758Y-89699880D01*
X73427291Y-89688541D01*
X73447850Y-89676430D01*
X73467423Y-89663568D01*
X73485995Y-89649974D01*
X73503551Y-89635668D01*
X73520078Y-89620671D01*
X73535561Y-89605002D01*
X73549985Y-89588681D01*
X73563338Y-89571730D01*
X73575604Y-89554167D01*
X73586770Y-89536012D01*
X73596820Y-89517287D01*
X73605741Y-89498010D01*
X73613519Y-89478203D01*
X73620140Y-89457884D01*
X73625588Y-89437074D01*
X73629851Y-89415793D01*
X73632913Y-89394062D01*
X73634761Y-89371899D01*
X73635380Y-89349326D01*
X73634994Y-89332626D01*
X73633850Y-89316260D01*
X73631967Y-89300234D01*
X73629361Y-89284556D01*
X73626053Y-89269233D01*
X73622061Y-89254273D01*
X73617403Y-89239681D01*
X73612099Y-89225466D01*
X73606165Y-89211635D01*
X73599622Y-89198195D01*
X73592488Y-89185153D01*
X73584781Y-89172516D01*
X73576520Y-89160292D01*
X73567723Y-89148487D01*
X73558409Y-89137109D01*
X73548597Y-89126164D01*
X73538306Y-89115661D01*
X73527553Y-89105607D01*
X73516357Y-89096008D01*
X73504737Y-89086871D01*
X73492712Y-89078205D01*
X73480300Y-89070015D01*
X73467520Y-89062310D01*
X73454390Y-89055096D01*
X73440929Y-89048380D01*
X73427155Y-89042170D01*
X73413088Y-89036474D01*
X73398745Y-89031297D01*
X73384145Y-89026647D01*
X73369307Y-89022532D01*
X73354250Y-89018959D01*
X73338991Y-89015935D01*
X73338991Y-89011538D01*
X73354503Y-89005888D01*
X73369509Y-88999930D01*
X73384011Y-88993670D01*
X73398008Y-88987112D01*
X73411502Y-88980260D01*
X73424494Y-88973117D01*
X73448975Y-88957980D01*
X73471457Y-88941736D01*
X73491947Y-88924418D01*
X73510453Y-88906061D01*
X73526982Y-88886700D01*
X73541539Y-88866368D01*
X73554134Y-88845100D01*
X73564771Y-88822931D01*
X73573459Y-88799894D01*
X73580203Y-88776025D01*
X73585013Y-88751357D01*
X73587893Y-88725924D01*
X73588852Y-88699762D01*
X73588379Y-88682546D01*
X73586966Y-88665536D01*
X73584617Y-88648752D01*
X73581339Y-88632218D01*
X73577137Y-88615956D01*
X73572017Y-88599989D01*
X73565984Y-88584339D01*
X73559044Y-88569027D01*
X73551204Y-88554078D01*
X73542468Y-88539513D01*
X73532842Y-88525354D01*
X73522333Y-88511624D01*
X73510945Y-88498346D01*
X73498685Y-88485541D01*
X73485558Y-88473232D01*
X73471569Y-88461442D01*
X73456725Y-88450193D01*
X73441032Y-88439507D01*
X73424494Y-88429408D01*
X73407118Y-88419916D01*
X73388910Y-88411055D01*
X73369874Y-88402846D01*
X73350018Y-88395314D01*
X73329345Y-88388479D01*
X73307863Y-88382364D01*
X73285577Y-88376992D01*
X73262493Y-88372384D01*
X73238615Y-88368565D01*
X73213951Y-88365555D01*
X73188505Y-88363377D01*
X73162284Y-88362054D01*
X73135293Y-88361608D01*
X73118810Y-88361755D01*
X73102414Y-88362189D01*
X73086116Y-88362901D01*
X73069929Y-88363883D01*
X73053865Y-88365125D01*
X73037938Y-88366619D01*
X73022160Y-88368356D01*
X73006544Y-88370326D01*
X72991102Y-88372522D01*
X72975848Y-88374933D01*
X72960793Y-88377551D01*
X72945950Y-88380368D01*
X72931333Y-88383373D01*
X72916953Y-88386559D01*
X72888958Y-88393436D01*
X72862067Y-88400927D01*
X72836380Y-88408960D01*
X72812000Y-88417464D01*
X72789027Y-88426369D01*
X72767563Y-88435601D01*
X72747710Y-88445091D01*
X72729569Y-88454767D01*
X72713241Y-88464556D01*
X72778454Y-88693534D01*
X72795880Y-88684028D01*
X72809125Y-88677413D01*
X72823557Y-88670680D01*
X72839078Y-88663922D01*
X72855588Y-88657229D01*
X72872989Y-88650690D01*
X72891182Y-88644398D01*
X72910068Y-88638443D01*
X72929550Y-88632915D01*
X72949527Y-88627905D01*
X72969901Y-88623504D01*
X72990573Y-88619803D01*
X73011446Y-88616892D01*
X73032419Y-88614862D01*
X73053394Y-88613803D01*
X73063852Y-88613667D01*
X73088276Y-88614357D01*
X73111129Y-88616389D01*
X73132409Y-88619704D01*
X73152117Y-88624245D01*
X73170251Y-88629954D01*
X73186810Y-88636773D01*
X73201796Y-88644644D01*
X73215206Y-88653509D01*
X73227040Y-88663309D01*
X73237299Y-88673988D01*
X73249729Y-88691525D01*
X73258611Y-88710712D01*
X73263941Y-88731353D01*
X73265718Y-88753251D01*
X73264157Y-88773486D01*
X73259637Y-88792050D01*
X73252402Y-88808995D01*
X73242695Y-88824378D01*
X73230759Y-88838251D01*
X73216839Y-88850669D01*
X73201178Y-88861687D01*
X73184019Y-88871358D01*
X73165607Y-88879737D01*
X73146185Y-88886878D01*
X73125996Y-88892835D01*
X73105285Y-88897662D01*
X73084295Y-88901414D01*
X73063269Y-88904144D01*
X73042452Y-88905908D01*
X73022086Y-88906758D01*
X72897889Y-88906758D01*
X72897889Y-89135369D01*
X73028314Y-89135369D01*
X73054588Y-89136094D01*
X73080528Y-89138279D01*
X73105947Y-89141943D01*
X73130656Y-89147104D01*
X73154468Y-89153781D01*
X73177194Y-89161992D01*
X73198648Y-89171755D01*
X73218640Y-89183088D01*
X73236985Y-89196010D01*
X73253492Y-89210538D01*
X73267976Y-89226692D01*
X73280247Y-89244489D01*
X73290118Y-89263947D01*
X73297402Y-89285085D01*
X73301909Y-89307921D01*
X73303454Y-89332473D01*
X73302467Y-89351629D01*
X73299510Y-89370159D01*
X73294586Y-89387980D01*
X73287700Y-89405008D01*
X73278857Y-89421157D01*
X73268060Y-89436344D01*
X73255313Y-89450485D01*
X73240622Y-89463494D01*
X73223991Y-89475289D01*
X73205423Y-89485785D01*
X73184923Y-89494897D01*
X73162495Y-89502541D01*
X73138144Y-89508633D01*
X73111874Y-89513089D01*
X73083689Y-89515824D01*
X73068880Y-89516520D01*
X73053593Y-89516755D01*
X73029161Y-89516126D01*
X73004843Y-89514320D01*
X72980748Y-89511454D01*
X72956982Y-89507647D01*
X72933652Y-89503018D01*
X72910864Y-89497686D01*
X72888725Y-89491768D01*
X72867343Y-89485385D01*
X72846824Y-89478653D01*
X72827274Y-89471692D01*
X72808801Y-89464621D01*
X72791511Y-89457558D01*
X72775512Y-89450622D01*
X72760909Y-89443930D01*
X72741858Y-89434613D01*
X72736322Y-89431758D01*
X72671109Y-89672093D01*
G37*
G36*
X74627494Y-88244371D02*
G01*
X74308025Y-88244371D01*
X74308025Y-89745000D01*
X74627494Y-89745000D01*
X74627494Y-89422233D01*
X74709193Y-89321116D01*
X74956856Y-89745000D01*
X75349598Y-89745000D01*
X74929745Y-89131339D01*
X75297208Y-88713318D01*
X74912892Y-88713318D01*
X74705163Y-89023628D01*
X74695688Y-89038718D01*
X74686238Y-89054014D01*
X74676840Y-89069481D01*
X74667520Y-89085086D01*
X74658302Y-89100794D01*
X74649213Y-89116570D01*
X74640278Y-89132381D01*
X74631524Y-89148192D01*
X74627494Y-89148192D01*
X74627494Y-88244371D01*
G37*
G36*
X75934600Y-88690501D02*
G01*
X75963191Y-88692378D01*
X75991128Y-88695479D01*
X76018392Y-88699782D01*
X76044963Y-88705265D01*
X76070821Y-88711905D01*
X76095949Y-88719680D01*
X76120326Y-88728568D01*
X76143933Y-88738546D01*
X76166752Y-88749592D01*
X76188762Y-88761685D01*
X76209946Y-88774801D01*
X76230283Y-88788919D01*
X76249755Y-88804015D01*
X76268342Y-88820069D01*
X76286025Y-88837057D01*
X76302785Y-88854958D01*
X76318603Y-88873748D01*
X76333460Y-88893407D01*
X76347336Y-88913911D01*
X76360212Y-88935238D01*
X76372069Y-88957366D01*
X76382887Y-88980273D01*
X76392649Y-89003936D01*
X76401334Y-89028334D01*
X76408923Y-89053443D01*
X76415397Y-89079242D01*
X76420737Y-89105708D01*
X76424924Y-89132820D01*
X76427938Y-89160554D01*
X76429761Y-89188888D01*
X76430373Y-89217801D01*
X76429599Y-89252678D01*
X76427310Y-89286353D01*
X76423553Y-89318831D01*
X76418375Y-89350120D01*
X76411823Y-89380225D01*
X76403946Y-89409152D01*
X76394789Y-89436909D01*
X76384400Y-89463500D01*
X76372827Y-89488933D01*
X76360117Y-89513213D01*
X76346316Y-89536348D01*
X76331474Y-89558342D01*
X76315636Y-89579203D01*
X76298850Y-89598936D01*
X76281164Y-89617548D01*
X76262624Y-89635044D01*
X76243278Y-89651433D01*
X76223173Y-89666718D01*
X76202357Y-89680908D01*
X76180877Y-89694007D01*
X76158779Y-89706022D01*
X76136112Y-89716960D01*
X76112923Y-89726827D01*
X76089259Y-89735629D01*
X76065167Y-89743371D01*
X76040695Y-89750061D01*
X76015889Y-89755705D01*
X75990798Y-89760309D01*
X75965468Y-89763879D01*
X75939947Y-89766421D01*
X75914282Y-89767941D01*
X75888520Y-89768447D01*
X75860565Y-89767871D01*
X75833047Y-89766152D01*
X75805996Y-89763299D01*
X75779441Y-89759324D01*
X75753412Y-89754238D01*
X75727939Y-89748052D01*
X75703050Y-89740777D01*
X75678777Y-89732423D01*
X75655147Y-89723002D01*
X75632190Y-89712524D01*
X75609937Y-89701001D01*
X75588416Y-89688443D01*
X75567658Y-89674861D01*
X75547690Y-89660267D01*
X75528544Y-89644671D01*
X75510249Y-89628084D01*
X75492834Y-89610516D01*
X75476328Y-89591980D01*
X75460762Y-89572486D01*
X75446164Y-89552045D01*
X75432564Y-89530668D01*
X75419992Y-89508365D01*
X75408478Y-89485148D01*
X75398050Y-89461027D01*
X75388738Y-89436014D01*
X75380572Y-89410120D01*
X75373582Y-89383354D01*
X75367796Y-89355730D01*
X75363245Y-89327256D01*
X75359957Y-89297945D01*
X75357963Y-89267806D01*
X75357292Y-89236852D01*
X75357465Y-89228426D01*
X75687020Y-89228426D01*
X75687234Y-89244952D01*
X75687876Y-89261205D01*
X75688944Y-89277167D01*
X75690435Y-89292822D01*
X75692349Y-89308154D01*
X75694683Y-89323146D01*
X75700604Y-89352045D01*
X75708185Y-89379388D01*
X75717410Y-89405043D01*
X75728266Y-89428878D01*
X75740738Y-89450763D01*
X75754811Y-89470566D01*
X75770471Y-89488155D01*
X75787704Y-89503398D01*
X75806495Y-89516165D01*
X75826829Y-89526324D01*
X75848692Y-89533743D01*
X75872069Y-89538290D01*
X75896946Y-89539836D01*
X75919641Y-89538387D01*
X75941252Y-89534103D01*
X75961728Y-89527077D01*
X75981016Y-89517401D01*
X75999062Y-89505169D01*
X76015816Y-89490473D01*
X76031223Y-89473406D01*
X76045232Y-89454060D01*
X76057790Y-89432530D01*
X76068844Y-89408907D01*
X76078342Y-89383284D01*
X76086231Y-89355755D01*
X76089555Y-89341304D01*
X76092458Y-89326411D01*
X76094932Y-89311088D01*
X76096971Y-89295347D01*
X76098569Y-89279198D01*
X76099718Y-89262654D01*
X76100412Y-89245726D01*
X76100645Y-89228426D01*
X76099947Y-89199450D01*
X76097828Y-89170656D01*
X76094248Y-89142276D01*
X76089167Y-89114544D01*
X76082548Y-89087691D01*
X76074350Y-89061952D01*
X76064535Y-89037559D01*
X76053063Y-89014744D01*
X76039896Y-88993741D01*
X76024993Y-88974783D01*
X76008316Y-88958103D01*
X75989826Y-88943933D01*
X75969483Y-88932506D01*
X75947248Y-88924056D01*
X75923082Y-88918815D01*
X75896946Y-88917016D01*
X75869292Y-88918835D01*
X75843853Y-88924131D01*
X75820571Y-88932663D01*
X75799385Y-88944190D01*
X75780236Y-88958471D01*
X75763065Y-88975266D01*
X75747813Y-88994333D01*
X75734418Y-89015431D01*
X75722823Y-89038319D01*
X75712966Y-89062757D01*
X75704790Y-89088503D01*
X75698234Y-89115317D01*
X75693238Y-89142957D01*
X75689744Y-89171182D01*
X75687691Y-89199752D01*
X75687020Y-89228426D01*
X75357465Y-89228426D01*
X75357928Y-89205822D01*
X75359825Y-89175527D01*
X75362961Y-89145983D01*
X75367318Y-89117209D01*
X75372876Y-89089218D01*
X75379616Y-89062029D01*
X75387518Y-89035657D01*
X75396562Y-89010119D01*
X75406728Y-88985430D01*
X75417998Y-88961609D01*
X75430351Y-88938670D01*
X75443768Y-88916630D01*
X75458230Y-88895506D01*
X75473716Y-88875313D01*
X75490207Y-88856069D01*
X75507684Y-88837790D01*
X75526127Y-88820492D01*
X75545517Y-88804191D01*
X75565833Y-88788904D01*
X75587057Y-88774647D01*
X75609168Y-88761436D01*
X75632147Y-88749288D01*
X75655975Y-88738220D01*
X75680631Y-88728247D01*
X75706097Y-88719386D01*
X75732353Y-88711654D01*
X75759378Y-88705066D01*
X75787155Y-88699639D01*
X75815662Y-88695390D01*
X75844880Y-88692334D01*
X75874790Y-88690489D01*
X75905373Y-88689870D01*
X75934600Y-88690501D01*
G37*
G36*
X77629117Y-89436521D02*
G01*
X77629129Y-89447458D01*
X77629229Y-89469394D01*
X77629421Y-89491338D01*
X77629698Y-89513204D01*
X77630054Y-89534908D01*
X77630482Y-89556362D01*
X77630974Y-89577482D01*
X77631524Y-89598181D01*
X77632125Y-89618373D01*
X77632769Y-89637973D01*
X77633451Y-89656894D01*
X77634162Y-89675051D01*
X77634896Y-89692359D01*
X77635645Y-89708730D01*
X77636404Y-89724079D01*
X77637543Y-89745000D01*
X77353977Y-89745000D01*
X77339323Y-89594424D01*
X77335293Y-89594424D01*
X77322391Y-89615396D01*
X77308188Y-89635035D01*
X77292759Y-89653338D01*
X77276176Y-89670301D01*
X77258514Y-89685923D01*
X77239845Y-89700201D01*
X77220244Y-89713131D01*
X77199784Y-89724712D01*
X77178537Y-89734940D01*
X77156579Y-89743814D01*
X77133982Y-89751329D01*
X77110820Y-89757485D01*
X77087166Y-89762276D01*
X77063095Y-89765703D01*
X77038678Y-89767760D01*
X77013991Y-89768447D01*
X76991297Y-89767841D01*
X76968913Y-89766035D01*
X76946866Y-89763046D01*
X76925183Y-89758891D01*
X76903891Y-89753586D01*
X76883017Y-89747149D01*
X76862588Y-89739597D01*
X76842630Y-89730946D01*
X76823171Y-89721214D01*
X76804237Y-89710418D01*
X76785856Y-89698574D01*
X76768054Y-89685699D01*
X76750858Y-89671811D01*
X76734296Y-89656927D01*
X76718393Y-89641063D01*
X76703177Y-89624237D01*
X76688675Y-89606465D01*
X76674913Y-89587764D01*
X76661919Y-89568151D01*
X76649720Y-89547644D01*
X76638342Y-89526260D01*
X76627812Y-89504014D01*
X76618157Y-89480925D01*
X76609405Y-89457009D01*
X76601581Y-89432283D01*
X76594713Y-89406764D01*
X76588828Y-89380469D01*
X76583953Y-89353415D01*
X76580114Y-89325620D01*
X76577339Y-89297099D01*
X76575654Y-89267871D01*
X76575087Y-89237951D01*
X76575214Y-89228426D01*
X76898220Y-89228426D01*
X76898471Y-89244719D01*
X76899219Y-89260619D01*
X76900458Y-89276119D01*
X76902178Y-89291210D01*
X76907040Y-89320133D01*
X76913745Y-89347323D01*
X76922236Y-89372713D01*
X76932455Y-89396239D01*
X76944344Y-89417836D01*
X76957846Y-89437437D01*
X76972901Y-89454977D01*
X76989453Y-89470391D01*
X77007443Y-89483613D01*
X77026814Y-89494578D01*
X77047507Y-89503220D01*
X77069464Y-89509475D01*
X77092627Y-89513275D01*
X77116939Y-89514556D01*
X77134018Y-89513818D01*
X77150599Y-89511639D01*
X77166631Y-89508072D01*
X77182061Y-89503170D01*
X77196838Y-89496987D01*
X77210912Y-89489576D01*
X77224230Y-89480989D01*
X77236741Y-89471280D01*
X77248393Y-89460501D01*
X77259135Y-89448707D01*
X77268915Y-89435951D01*
X77277682Y-89422284D01*
X77285384Y-89407761D01*
X77291970Y-89392435D01*
X77297388Y-89376358D01*
X77301587Y-89359584D01*
X77304677Y-89346531D01*
X77307305Y-89330954D01*
X77308989Y-89314715D01*
X77309770Y-89300044D01*
X77310013Y-89284480D01*
X77310013Y-89150024D01*
X77309725Y-89138005D01*
X77308829Y-89123153D01*
X77307559Y-89108164D01*
X77305983Y-89092505D01*
X77301828Y-89076410D01*
X77296527Y-89060743D01*
X77290109Y-89045589D01*
X77282605Y-89031030D01*
X77274045Y-89017152D01*
X77264458Y-89004038D01*
X77253876Y-88991774D01*
X77242328Y-88980443D01*
X77229843Y-88970129D01*
X77216453Y-88960918D01*
X77202187Y-88952892D01*
X77187075Y-88946136D01*
X77171148Y-88940736D01*
X77154435Y-88936773D01*
X77136966Y-88934334D01*
X77118771Y-88933503D01*
X77105406Y-88933885D01*
X77079892Y-88936888D01*
X77056008Y-88942756D01*
X77033763Y-88951341D01*
X77013169Y-88962497D01*
X76994234Y-88976079D01*
X76976970Y-88991941D01*
X76961386Y-89009937D01*
X76947494Y-89029921D01*
X76935302Y-89051747D01*
X76924821Y-89075268D01*
X76916062Y-89100339D01*
X76909034Y-89126814D01*
X76903748Y-89154547D01*
X76900214Y-89183393D01*
X76899107Y-89198187D01*
X76898442Y-89213204D01*
X76898220Y-89228426D01*
X76575214Y-89228426D01*
X76575515Y-89205725D01*
X76577187Y-89174380D01*
X76580070Y-89143924D01*
X76584129Y-89114369D01*
X76589329Y-89085722D01*
X76595636Y-89057993D01*
X76603015Y-89031192D01*
X76611431Y-89005327D01*
X76620851Y-88980409D01*
X76631239Y-88956446D01*
X76642560Y-88933448D01*
X76654782Y-88911424D01*
X76667868Y-88890384D01*
X76681784Y-88870336D01*
X76696496Y-88851290D01*
X76711970Y-88833256D01*
X76728170Y-88816243D01*
X76745062Y-88800259D01*
X76762611Y-88785315D01*
X76780784Y-88771420D01*
X76799545Y-88758583D01*
X76818860Y-88746813D01*
X76838694Y-88736120D01*
X76859013Y-88726513D01*
X76879783Y-88718001D01*
X76900968Y-88710594D01*
X76922534Y-88704300D01*
X76944447Y-88699130D01*
X76966672Y-88695093D01*
X76989175Y-88692198D01*
X77011920Y-88690454D01*
X77034874Y-88689870D01*
X77058176Y-88690386D01*
X77080799Y-88691915D01*
X77102706Y-88694432D01*
X77123860Y-88697913D01*
X77144227Y-88702332D01*
X77163770Y-88707664D01*
X77182454Y-88713884D01*
X77200242Y-88720966D01*
X77217098Y-88728885D01*
X77232986Y-88737616D01*
X77247871Y-88747134D01*
X77261716Y-88757413D01*
X77274486Y-88768429D01*
X77286145Y-88780156D01*
X77296656Y-88792568D01*
X77305983Y-88805642D01*
X77310013Y-88805642D01*
X77310013Y-88244371D01*
X77629117Y-88244371D01*
X77629117Y-89436521D01*
G37*
G36*
X78322172Y-88690457D02*
G01*
X78352230Y-88692196D01*
X78380968Y-88695058D01*
X78408409Y-88699012D01*
X78434576Y-88704028D01*
X78459490Y-88710077D01*
X78483176Y-88717127D01*
X78505655Y-88725150D01*
X78526950Y-88734115D01*
X78547083Y-88743991D01*
X78566079Y-88754749D01*
X78583958Y-88766358D01*
X78600744Y-88778789D01*
X78616460Y-88792011D01*
X78631127Y-88805994D01*
X78644770Y-88820708D01*
X78657410Y-88836123D01*
X78669071Y-88852209D01*
X78679774Y-88868935D01*
X78689542Y-88886272D01*
X78698399Y-88904190D01*
X78706367Y-88922657D01*
X78713468Y-88941645D01*
X78719726Y-88961123D01*
X78725162Y-88981061D01*
X78729800Y-89001428D01*
X78733663Y-89022196D01*
X78736772Y-89043332D01*
X78739151Y-89064809D01*
X78740822Y-89086594D01*
X78741808Y-89108659D01*
X78742131Y-89130973D01*
X78742131Y-89491475D01*
X78742143Y-89500871D01*
X78742240Y-89519555D01*
X78742436Y-89538054D01*
X78742737Y-89556320D01*
X78743145Y-89574302D01*
X78743664Y-89591954D01*
X78744299Y-89609225D01*
X78745052Y-89626067D01*
X78745928Y-89642431D01*
X78746930Y-89658268D01*
X78748063Y-89673530D01*
X78749329Y-89688168D01*
X78751488Y-89708846D01*
X78753970Y-89727845D01*
X78756786Y-89745000D01*
X78469190Y-89745000D01*
X78450139Y-89642784D01*
X78443911Y-89642784D01*
X78430899Y-89657659D01*
X78417025Y-89671640D01*
X78402320Y-89684719D01*
X78386815Y-89696886D01*
X78370542Y-89708132D01*
X78353532Y-89718447D01*
X78335815Y-89727824D01*
X78317424Y-89736253D01*
X78298388Y-89743724D01*
X78278739Y-89750228D01*
X78258509Y-89755757D01*
X78237728Y-89760301D01*
X78216427Y-89763851D01*
X78194639Y-89766398D01*
X78172393Y-89767933D01*
X78149720Y-89768447D01*
X78130493Y-89768009D01*
X78111764Y-89766711D01*
X78093542Y-89764577D01*
X78075833Y-89761632D01*
X78058645Y-89757900D01*
X78041985Y-89753406D01*
X78025860Y-89748174D01*
X78010279Y-89742229D01*
X77995247Y-89735594D01*
X77980773Y-89728295D01*
X77966863Y-89720356D01*
X77953526Y-89711801D01*
X77940768Y-89702654D01*
X77928596Y-89692940D01*
X77917019Y-89682684D01*
X77906042Y-89671910D01*
X77895675Y-89660642D01*
X77885923Y-89648904D01*
X77876794Y-89636722D01*
X77868296Y-89624119D01*
X77860436Y-89611121D01*
X77853221Y-89597750D01*
X77846658Y-89584032D01*
X77840755Y-89569992D01*
X77835519Y-89555653D01*
X77830958Y-89541040D01*
X77827078Y-89526178D01*
X77823887Y-89511090D01*
X77821393Y-89495802D01*
X77819602Y-89480337D01*
X77818522Y-89464721D01*
X77818161Y-89448977D01*
X77818858Y-89424112D01*
X77819306Y-89418935D01*
X78133234Y-89418935D01*
X78133864Y-89434164D01*
X78137088Y-89455130D01*
X78142880Y-89473850D01*
X78151052Y-89490334D01*
X78161420Y-89504590D01*
X78173795Y-89516629D01*
X78187992Y-89526458D01*
X78203824Y-89534087D01*
X78221104Y-89539526D01*
X78239646Y-89542782D01*
X78259263Y-89543866D01*
X78273995Y-89543244D01*
X78295368Y-89540078D01*
X78315741Y-89534409D01*
X78334963Y-89526441D01*
X78352888Y-89516377D01*
X78369366Y-89504419D01*
X78384249Y-89490771D01*
X78397389Y-89475636D01*
X78408636Y-89459215D01*
X78417843Y-89441713D01*
X78424860Y-89423332D01*
X78426760Y-89414961D01*
X78429368Y-89399352D01*
X78430933Y-89383254D01*
X78431454Y-89366912D01*
X78431454Y-89252606D01*
X78415804Y-89252560D01*
X78400393Y-89252771D01*
X78385240Y-89253248D01*
X78370360Y-89253998D01*
X78341489Y-89256350D01*
X78313915Y-89259893D01*
X78287772Y-89264692D01*
X78263197Y-89270812D01*
X78240322Y-89278317D01*
X78219284Y-89287273D01*
X78200216Y-89297745D01*
X78183253Y-89309797D01*
X78168531Y-89323494D01*
X78156183Y-89338902D01*
X78146345Y-89356085D01*
X78139151Y-89375108D01*
X78134736Y-89396037D01*
X78133234Y-89418935D01*
X77819306Y-89418935D01*
X77820936Y-89400073D01*
X77824374Y-89376859D01*
X77829150Y-89354468D01*
X77835244Y-89332897D01*
X77842634Y-89312145D01*
X77851300Y-89292209D01*
X77861220Y-89273088D01*
X77872373Y-89254779D01*
X77884739Y-89237281D01*
X77898295Y-89220591D01*
X77913022Y-89204708D01*
X77928897Y-89189629D01*
X77945901Y-89175353D01*
X77964012Y-89161877D01*
X77983208Y-89149200D01*
X78003469Y-89137319D01*
X78024774Y-89126232D01*
X78047101Y-89115938D01*
X78070430Y-89106434D01*
X78094739Y-89097718D01*
X78120008Y-89089789D01*
X78146215Y-89082644D01*
X78173339Y-89076282D01*
X78201360Y-89070699D01*
X78230256Y-89065896D01*
X78260006Y-89061868D01*
X78290589Y-89058615D01*
X78321984Y-89056134D01*
X78354170Y-89054423D01*
X78387125Y-89053480D01*
X78420830Y-89053304D01*
X78420830Y-89038649D01*
X78419976Y-89023079D01*
X78417087Y-89006784D01*
X78411674Y-88990257D01*
X78403249Y-88973992D01*
X78391322Y-88958479D01*
X78375404Y-88944213D01*
X78362333Y-88935638D01*
X78347127Y-88927981D01*
X78329640Y-88921390D01*
X78309727Y-88916009D01*
X78287243Y-88911984D01*
X78262044Y-88909463D01*
X78233984Y-88908590D01*
X78214209Y-88908995D01*
X78194361Y-88910182D01*
X78174516Y-88912109D01*
X78154746Y-88914732D01*
X78135128Y-88918011D01*
X78115733Y-88921901D01*
X78096637Y-88926362D01*
X78077913Y-88931350D01*
X78059636Y-88936824D01*
X78041879Y-88942740D01*
X78024717Y-88949056D01*
X78008224Y-88955731D01*
X77992473Y-88962721D01*
X77977539Y-88969984D01*
X77963496Y-88977478D01*
X77950418Y-88985160D01*
X77891434Y-88780362D01*
X77898333Y-88776589D01*
X77913333Y-88768901D01*
X77929906Y-88761099D01*
X77948019Y-88753271D01*
X77967638Y-88745508D01*
X77988731Y-88737900D01*
X78011263Y-88730535D01*
X78035201Y-88723504D01*
X78060514Y-88716896D01*
X78087166Y-88710801D01*
X78115125Y-88705308D01*
X78129584Y-88702815D01*
X78144357Y-88700507D01*
X78159440Y-88698394D01*
X78174830Y-88696488D01*
X78190521Y-88694799D01*
X78206509Y-88693340D01*
X78222791Y-88692121D01*
X78239363Y-88691153D01*
X78256219Y-88690448D01*
X78273356Y-88690017D01*
X78290771Y-88689870D01*
X78322172Y-88690457D01*
G37*
G36*
X79726186Y-89482683D02*
G01*
X79712300Y-89488433D01*
X79697824Y-89493718D01*
X79682730Y-89498514D01*
X79666989Y-89502801D01*
X79650572Y-89506557D01*
X79633450Y-89509760D01*
X79615593Y-89512388D01*
X79596974Y-89514419D01*
X79577562Y-89515832D01*
X79557329Y-89516605D01*
X79543370Y-89516755D01*
X79514611Y-89515589D01*
X79486681Y-89512100D01*
X79459721Y-89506300D01*
X79433873Y-89498202D01*
X79409279Y-89487817D01*
X79386080Y-89475159D01*
X79364418Y-89460239D01*
X79344434Y-89443070D01*
X79326271Y-89423664D01*
X79310070Y-89402033D01*
X79295973Y-89378191D01*
X79284122Y-89352148D01*
X79279082Y-89338306D01*
X79274657Y-89323918D01*
X79270864Y-89308987D01*
X79267721Y-89293513D01*
X79265246Y-89277499D01*
X79263456Y-89260946D01*
X79262369Y-89243855D01*
X79262002Y-89226228D01*
X79262121Y-89210470D01*
X79262883Y-89195011D01*
X79264278Y-89179864D01*
X79266296Y-89165043D01*
X79268929Y-89150559D01*
X79276000Y-89122661D01*
X79285412Y-89096274D01*
X79297089Y-89071505D01*
X79310954Y-89048460D01*
X79326931Y-89027243D01*
X79344943Y-89007962D01*
X79364912Y-88990722D01*
X79386763Y-88975627D01*
X79410419Y-88962785D01*
X79435802Y-88952301D01*
X79462836Y-88944281D01*
X79491445Y-88938829D01*
X79506316Y-88937100D01*
X79521551Y-88936053D01*
X79537142Y-88935701D01*
X79552557Y-88935874D01*
X79567348Y-88936379D01*
X79588392Y-88937719D01*
X79608099Y-88939699D01*
X79626509Y-88942254D01*
X79643662Y-88945318D01*
X79659598Y-88948826D01*
X79674357Y-88952714D01*
X79692273Y-88958375D01*
X79708261Y-88964439D01*
X79715561Y-88967575D01*
X79766120Y-88730170D01*
X79746531Y-88723335D01*
X79725793Y-88717064D01*
X79711411Y-88713209D01*
X79696640Y-88709622D01*
X79681530Y-88706310D01*
X79666129Y-88703281D01*
X79650486Y-88700541D01*
X79634649Y-88698097D01*
X79618669Y-88695956D01*
X79602592Y-88694126D01*
X79586469Y-88692612D01*
X79570349Y-88691423D01*
X79554279Y-88690565D01*
X79538309Y-88690045D01*
X79522487Y-88689870D01*
X79487149Y-88690585D01*
X79452852Y-88692705D01*
X79419603Y-88696197D01*
X79387406Y-88701026D01*
X79356267Y-88707157D01*
X79326191Y-88714557D01*
X79297184Y-88723189D01*
X79269249Y-88733021D01*
X79242394Y-88744018D01*
X79216622Y-88756144D01*
X79191940Y-88769366D01*
X79168352Y-88783650D01*
X79145863Y-88798960D01*
X79124480Y-88815262D01*
X79104206Y-88832521D01*
X79085048Y-88850704D01*
X79067011Y-88869776D01*
X79050099Y-88889702D01*
X79034318Y-88910448D01*
X79019674Y-88931979D01*
X79006171Y-88954260D01*
X78993815Y-88977258D01*
X78982610Y-89000938D01*
X78972563Y-89025265D01*
X78963678Y-89050206D01*
X78955961Y-89075724D01*
X78949417Y-89101786D01*
X78944051Y-89128358D01*
X78939868Y-89155405D01*
X78936874Y-89182892D01*
X78935074Y-89210786D01*
X78934473Y-89239050D01*
X78935091Y-89269225D01*
X78936936Y-89298669D01*
X78939989Y-89327369D01*
X78944235Y-89355309D01*
X78949656Y-89382474D01*
X78956234Y-89408850D01*
X78963954Y-89434421D01*
X78972798Y-89459172D01*
X78982749Y-89483089D01*
X78993790Y-89506157D01*
X79005904Y-89528360D01*
X79019075Y-89549684D01*
X79033285Y-89570113D01*
X79048517Y-89589633D01*
X79064754Y-89608229D01*
X79081980Y-89625885D01*
X79100177Y-89642588D01*
X79119329Y-89658321D01*
X79139418Y-89673070D01*
X79160427Y-89686820D01*
X79182340Y-89699556D01*
X79205139Y-89711263D01*
X79228808Y-89721926D01*
X79253330Y-89731530D01*
X79278687Y-89740060D01*
X79304863Y-89747502D01*
X79331840Y-89753839D01*
X79359602Y-89759058D01*
X79388132Y-89763143D01*
X79417412Y-89766080D01*
X79447426Y-89767853D01*
X79478157Y-89768447D01*
X79500847Y-89768182D01*
X79523134Y-89767406D01*
X79544966Y-89766153D01*
X79566291Y-89764451D01*
X79587058Y-89762333D01*
X79607215Y-89759830D01*
X79626711Y-89756973D01*
X79645494Y-89753792D01*
X79663513Y-89750320D01*
X79680717Y-89746587D01*
X79697053Y-89742624D01*
X79712470Y-89738462D01*
X79726917Y-89734133D01*
X79746656Y-89727394D01*
X79763921Y-89720453D01*
X79726186Y-89482683D01*
G37*
G36*
X79939776Y-89745000D02*
G01*
X80259246Y-89745000D01*
X80259246Y-89132438D01*
X80259559Y-89116580D01*
X80260697Y-89100209D01*
X80262959Y-89083969D01*
X80266644Y-89068505D01*
X80269504Y-89060265D01*
X80276779Y-89044386D01*
X80285627Y-89028866D01*
X80296053Y-89013968D01*
X80308067Y-88999954D01*
X80321674Y-88987088D01*
X80336883Y-88975631D01*
X80353699Y-88965847D01*
X80372132Y-88957998D01*
X80392187Y-88952346D01*
X80413873Y-88949155D01*
X80429239Y-88948524D01*
X80450845Y-88949602D01*
X80470766Y-88952786D01*
X80489041Y-88958002D01*
X80505712Y-88965176D01*
X80520817Y-88974232D01*
X80534398Y-88985096D01*
X80546494Y-88997694D01*
X80557146Y-89011950D01*
X80566394Y-89027791D01*
X80574278Y-89045141D01*
X80580839Y-89063927D01*
X80586117Y-89084073D01*
X80590152Y-89105504D01*
X80592984Y-89128147D01*
X80594654Y-89151927D01*
X80595202Y-89176769D01*
X80595202Y-89745000D01*
X80914305Y-89745000D01*
X80914305Y-89140865D01*
X80913853Y-89112302D01*
X80912511Y-89084723D01*
X80910297Y-89058123D01*
X80907233Y-89032498D01*
X80903336Y-89007842D01*
X80898627Y-88984151D01*
X80893125Y-88961418D01*
X80886851Y-88939639D01*
X80879823Y-88918809D01*
X80872061Y-88898923D01*
X80863584Y-88879975D01*
X80854413Y-88861961D01*
X80844567Y-88844876D01*
X80834065Y-88828714D01*
X80822928Y-88813469D01*
X80811174Y-88799139D01*
X80798823Y-88785716D01*
X80785895Y-88773196D01*
X80772409Y-88761574D01*
X80758386Y-88750844D01*
X80743844Y-88741003D01*
X80728803Y-88732043D01*
X80713283Y-88723962D01*
X80697303Y-88716752D01*
X80680883Y-88710410D01*
X80664043Y-88704930D01*
X80646802Y-88700307D01*
X80629179Y-88696537D01*
X80611195Y-88693612D01*
X80592869Y-88691530D01*
X80574220Y-88690284D01*
X80555268Y-88689870D01*
X80538697Y-88690262D01*
X80522193Y-88691421D01*
X80505807Y-88693321D01*
X80489587Y-88695937D01*
X80473581Y-88699244D01*
X80457840Y-88703216D01*
X80442411Y-88707828D01*
X80427344Y-88713054D01*
X80412688Y-88718870D01*
X80398490Y-88725250D01*
X80389305Y-88729804D01*
X80375317Y-88737192D01*
X80361789Y-88745127D01*
X80348717Y-88753598D01*
X80336098Y-88762590D01*
X80323928Y-88772092D01*
X80312204Y-88782091D01*
X80300922Y-88792574D01*
X80290078Y-88803529D01*
X80279668Y-88814943D01*
X80269690Y-88826803D01*
X80263276Y-88834951D01*
X80259246Y-88834951D01*
X80259246Y-88244371D01*
X79939776Y-88244371D01*
X79939776Y-89745000D01*
G37*
G36*
X81488764Y-89745000D02*
G01*
X81488764Y-88713318D01*
X81169295Y-88713318D01*
X81169295Y-89745000D01*
X81488764Y-89745000D01*
G37*
G36*
X81329030Y-88267819D02*
G01*
X81310155Y-88268623D01*
X81292171Y-88270990D01*
X81275125Y-88274851D01*
X81259065Y-88280138D01*
X81244040Y-88286781D01*
X81230098Y-88294712D01*
X81217288Y-88303863D01*
X81205656Y-88314164D01*
X81195253Y-88325547D01*
X81186126Y-88337943D01*
X81178323Y-88351284D01*
X81171894Y-88365501D01*
X81166885Y-88380524D01*
X81163346Y-88396287D01*
X81161324Y-88412719D01*
X81160868Y-88429752D01*
X81161323Y-88446096D01*
X81163341Y-88461965D01*
X81166870Y-88477280D01*
X81171859Y-88491959D01*
X81178256Y-88505924D01*
X81186010Y-88519094D01*
X81195069Y-88531389D01*
X81205382Y-88542729D01*
X81216896Y-88553035D01*
X81229562Y-88562226D01*
X81243326Y-88570223D01*
X81258138Y-88576944D01*
X81273946Y-88582312D01*
X81290699Y-88586244D01*
X81308344Y-88588663D01*
X81326831Y-88589487D01*
X81346093Y-88588663D01*
X81364419Y-88586244D01*
X81381767Y-88582312D01*
X81398095Y-88576944D01*
X81413360Y-88570223D01*
X81427521Y-88562226D01*
X81440534Y-88553035D01*
X81452357Y-88542729D01*
X81462948Y-88531389D01*
X81472264Y-88519094D01*
X81480264Y-88505924D01*
X81486904Y-88491959D01*
X81492142Y-88477280D01*
X81495936Y-88461965D01*
X81498244Y-88446096D01*
X81499023Y-88429752D01*
X81497882Y-88412719D01*
X81495310Y-88396287D01*
X81491340Y-88380524D01*
X81486011Y-88365501D01*
X81479357Y-88351284D01*
X81471414Y-88337943D01*
X81462219Y-88325547D01*
X81451807Y-88314164D01*
X81440215Y-88303863D01*
X81427478Y-88294712D01*
X81413632Y-88286781D01*
X81398713Y-88280138D01*
X81382758Y-88274851D01*
X81365801Y-88270990D01*
X81347880Y-88268623D01*
X81329030Y-88267819D01*
G37*
G36*
X82967108Y-88360494D02*
G01*
X82983637Y-88360892D01*
X82998918Y-88361608D01*
X82998918Y-88607438D01*
X82992226Y-88607440D01*
X82975170Y-88607484D01*
X82957451Y-88607670D01*
X82942635Y-88607988D01*
X82927115Y-88608512D01*
X82910767Y-88609293D01*
X82893466Y-88610384D01*
X82875087Y-88611835D01*
X82848962Y-88614354D01*
X82823748Y-88617570D01*
X82799432Y-88621464D01*
X82776003Y-88626015D01*
X82753448Y-88631204D01*
X82731754Y-88637011D01*
X82710910Y-88643417D01*
X82690903Y-88650400D01*
X82671721Y-88657943D01*
X82653351Y-88666024D01*
X82635782Y-88674625D01*
X82619000Y-88683724D01*
X82602995Y-88693304D01*
X82587753Y-88703343D01*
X82573262Y-88713822D01*
X82559510Y-88724721D01*
X82546484Y-88736020D01*
X82534173Y-88747700D01*
X82522565Y-88759741D01*
X82511646Y-88772123D01*
X82501404Y-88784826D01*
X82491828Y-88797830D01*
X82482904Y-88811116D01*
X82474622Y-88824664D01*
X82466968Y-88838454D01*
X82459930Y-88852466D01*
X82453496Y-88866680D01*
X82447653Y-88881077D01*
X82442390Y-88895638D01*
X82437694Y-88910341D01*
X82433553Y-88925167D01*
X82429954Y-88940097D01*
X82436182Y-88940097D01*
X82449077Y-88927396D01*
X82462624Y-88915405D01*
X82476834Y-88904139D01*
X82491715Y-88893615D01*
X82507277Y-88883846D01*
X82523528Y-88874847D01*
X82540478Y-88866634D01*
X82558136Y-88859222D01*
X82576511Y-88852626D01*
X82595612Y-88846860D01*
X82615448Y-88841941D01*
X82636028Y-88837882D01*
X82657362Y-88834698D01*
X82679459Y-88832406D01*
X82702327Y-88831020D01*
X82725976Y-88830554D01*
X82747333Y-88831027D01*
X82768451Y-88832442D01*
X82789300Y-88834790D01*
X82809853Y-88838065D01*
X82830081Y-88842259D01*
X82849954Y-88847365D01*
X82869444Y-88853375D01*
X82888522Y-88860281D01*
X82907160Y-88868077D01*
X82925328Y-88876755D01*
X82942998Y-88886306D01*
X82960141Y-88896725D01*
X82976729Y-88908004D01*
X82992732Y-88920134D01*
X83008121Y-88933109D01*
X83022869Y-88946921D01*
X83036946Y-88961562D01*
X83050323Y-88977026D01*
X83062972Y-88993305D01*
X83074863Y-89010391D01*
X83085969Y-89028277D01*
X83096260Y-89046956D01*
X83105707Y-89066419D01*
X83114283Y-89086660D01*
X83121957Y-89107671D01*
X83128701Y-89129445D01*
X83134487Y-89151974D01*
X83139285Y-89175251D01*
X83143067Y-89199268D01*
X83145804Y-89224018D01*
X83147467Y-89249493D01*
X83148028Y-89275687D01*
X83147423Y-89300889D01*
X83145623Y-89325778D01*
X83142649Y-89350321D01*
X83138523Y-89374488D01*
X83133268Y-89398246D01*
X83126904Y-89421562D01*
X83119454Y-89444407D01*
X83110939Y-89466746D01*
X83101382Y-89488548D01*
X83090804Y-89509783D01*
X83079226Y-89530416D01*
X83066672Y-89550417D01*
X83053161Y-89569754D01*
X83038717Y-89588394D01*
X83023361Y-89606306D01*
X83007115Y-89623458D01*
X82990001Y-89639818D01*
X82972040Y-89655354D01*
X82953254Y-89670033D01*
X82933666Y-89683825D01*
X82913296Y-89696697D01*
X82892167Y-89708617D01*
X82870300Y-89719554D01*
X82847718Y-89729475D01*
X82824442Y-89738348D01*
X82800494Y-89746142D01*
X82775895Y-89752824D01*
X82750668Y-89758363D01*
X82724834Y-89762727D01*
X82698416Y-89765883D01*
X82671434Y-89767801D01*
X82643911Y-89768447D01*
X82610413Y-89767660D01*
X82577994Y-89765327D01*
X82546653Y-89761486D01*
X82516388Y-89756179D01*
X82487199Y-89749443D01*
X82459085Y-89741319D01*
X82432045Y-89731847D01*
X82406077Y-89721066D01*
X82381182Y-89709015D01*
X82357357Y-89695735D01*
X82334601Y-89681265D01*
X82312914Y-89665645D01*
X82292295Y-89648914D01*
X82272743Y-89631113D01*
X82254256Y-89612279D01*
X82236834Y-89592455D01*
X82220476Y-89571678D01*
X82205180Y-89549988D01*
X82190946Y-89527426D01*
X82177773Y-89504031D01*
X82165659Y-89479843D01*
X82154604Y-89454900D01*
X82144607Y-89429244D01*
X82135666Y-89402913D01*
X82127781Y-89375947D01*
X82120951Y-89348385D01*
X82115174Y-89320269D01*
X82110449Y-89291636D01*
X82106777Y-89262527D01*
X82106449Y-89258834D01*
X82419330Y-89258834D01*
X82421239Y-89285764D01*
X82424644Y-89312174D01*
X82429564Y-89337896D01*
X82436016Y-89362761D01*
X82444021Y-89386603D01*
X82453597Y-89409253D01*
X82464762Y-89430543D01*
X82477536Y-89450305D01*
X82491937Y-89468371D01*
X82507983Y-89484574D01*
X82525695Y-89498744D01*
X82545090Y-89510715D01*
X82566187Y-89520318D01*
X82589006Y-89527386D01*
X82613564Y-89531749D01*
X82639881Y-89533241D01*
X82642079Y-89533241D01*
X82662482Y-89532055D01*
X82681895Y-89528563D01*
X82700274Y-89522861D01*
X82717573Y-89515049D01*
X82733747Y-89505222D01*
X82748751Y-89493480D01*
X82762540Y-89479920D01*
X82775069Y-89464639D01*
X82786293Y-89447736D01*
X82796167Y-89429307D01*
X82804645Y-89409450D01*
X82811683Y-89388264D01*
X82817235Y-89365845D01*
X82821257Y-89342292D01*
X82823703Y-89317702D01*
X82824528Y-89292173D01*
X82823742Y-89268831D01*
X82821381Y-89246019D01*
X82817440Y-89223871D01*
X82811918Y-89202523D01*
X82804808Y-89182108D01*
X82796109Y-89162762D01*
X82785815Y-89144618D01*
X82773924Y-89127813D01*
X82760432Y-89112480D01*
X82745334Y-89098755D01*
X82728628Y-89086772D01*
X82710309Y-89076665D01*
X82690373Y-89068570D01*
X82668817Y-89062621D01*
X82645637Y-89058953D01*
X82620830Y-89057700D01*
X82612802Y-89057853D01*
X82597023Y-89059052D01*
X82581642Y-89061402D01*
X82566698Y-89064849D01*
X82552227Y-89069342D01*
X82538266Y-89074829D01*
X82524852Y-89081257D01*
X82512022Y-89088574D01*
X82499813Y-89096730D01*
X82482746Y-89110419D01*
X82467284Y-89125699D01*
X82453554Y-89142396D01*
X82441680Y-89160332D01*
X82431786Y-89179333D01*
X82431041Y-89180905D01*
X82425871Y-89195412D01*
X82422535Y-89211115D01*
X82420595Y-89226995D01*
X82419649Y-89242044D01*
X82419330Y-89258834D01*
X82106449Y-89258834D01*
X82104155Y-89232981D01*
X82102582Y-89203039D01*
X82102058Y-89172739D01*
X82102334Y-89148886D01*
X82103156Y-89125280D01*
X82104516Y-89101929D01*
X82106407Y-89078838D01*
X82108822Y-89056015D01*
X82111752Y-89033466D01*
X82115190Y-89011199D01*
X82119128Y-88989219D01*
X82123559Y-88967533D01*
X82128476Y-88946149D01*
X82133869Y-88925074D01*
X82139732Y-88904313D01*
X82146057Y-88883874D01*
X82152837Y-88863763D01*
X82160063Y-88843988D01*
X82167729Y-88824555D01*
X82175826Y-88805471D01*
X82184347Y-88786742D01*
X82193284Y-88768376D01*
X82202629Y-88750378D01*
X82212376Y-88732757D01*
X82222516Y-88715519D01*
X82233041Y-88698670D01*
X82243944Y-88682217D01*
X82255218Y-88666167D01*
X82266854Y-88650527D01*
X82278845Y-88635304D01*
X82291184Y-88620504D01*
X82303862Y-88606134D01*
X82316872Y-88592201D01*
X82330207Y-88578712D01*
X82343859Y-88565673D01*
X82356753Y-88554197D01*
X82369884Y-88543055D01*
X82383250Y-88532249D01*
X82396850Y-88521776D01*
X82410685Y-88511639D01*
X82424754Y-88501835D01*
X82439056Y-88492365D01*
X82453590Y-88483230D01*
X82468357Y-88474428D01*
X82483356Y-88465959D01*
X82498587Y-88457825D01*
X82514048Y-88450023D01*
X82529740Y-88442555D01*
X82545662Y-88435421D01*
X82561814Y-88428619D01*
X82578194Y-88422150D01*
X82594803Y-88416013D01*
X82611641Y-88410210D01*
X82628706Y-88404739D01*
X82645998Y-88399600D01*
X82663517Y-88394793D01*
X82681262Y-88390318D01*
X82699233Y-88386176D01*
X82717430Y-88382365D01*
X82735851Y-88378886D01*
X82754497Y-88375738D01*
X82773366Y-88372922D01*
X82792459Y-88370437D01*
X82811775Y-88368283D01*
X82831314Y-88366460D01*
X82851075Y-88364968D01*
X82871057Y-88363806D01*
X82881807Y-88363097D01*
X82897060Y-88362204D01*
X82915886Y-88361313D01*
X82933141Y-88360743D01*
X82948996Y-88360466D01*
X82967108Y-88360494D01*
G37*
G36*
X83477390Y-89393290D02*
G01*
X83498169Y-89392369D01*
X83518015Y-89389652D01*
X83536873Y-89385204D01*
X83554687Y-89379093D01*
X83571399Y-89371385D01*
X83586953Y-89362146D01*
X83601294Y-89351443D01*
X83614364Y-89339343D01*
X83626108Y-89325911D01*
X83636468Y-89311216D01*
X83645390Y-89295322D01*
X83652815Y-89278297D01*
X83658689Y-89260208D01*
X83662954Y-89241120D01*
X83665554Y-89221100D01*
X83666434Y-89200216D01*
X83665172Y-89179005D01*
X83662248Y-89158691D01*
X83657715Y-89139341D01*
X83651630Y-89121018D01*
X83644047Y-89103788D01*
X83635019Y-89087716D01*
X83624603Y-89072866D01*
X83612853Y-89059303D01*
X83599823Y-89047093D01*
X83585569Y-89036300D01*
X83570144Y-89026989D01*
X83553605Y-89019226D01*
X83536005Y-89013075D01*
X83517399Y-89008601D01*
X83497842Y-89005869D01*
X83477390Y-89004944D01*
X83457275Y-89005893D01*
X83437921Y-89008691D01*
X83419402Y-89013263D01*
X83401793Y-89019535D01*
X83385166Y-89027432D01*
X83369597Y-89036880D01*
X83355159Y-89047803D01*
X83341926Y-89060127D01*
X83329973Y-89073778D01*
X83319374Y-89088682D01*
X83310201Y-89104762D01*
X83302531Y-89121946D01*
X83296436Y-89140157D01*
X83291991Y-89159323D01*
X83289269Y-89179367D01*
X83288346Y-89200216D01*
X83289245Y-89221100D01*
X83291896Y-89241120D01*
X83296233Y-89260208D01*
X83302187Y-89278297D01*
X83309692Y-89295322D01*
X83318678Y-89311216D01*
X83329079Y-89325911D01*
X83340827Y-89339343D01*
X83353855Y-89351443D01*
X83368094Y-89362146D01*
X83383478Y-89371385D01*
X83399938Y-89379093D01*
X83417407Y-89385204D01*
X83435817Y-89389652D01*
X83455101Y-89392369D01*
X83475191Y-89393290D01*
X83477390Y-89393290D01*
G37*
G36*
X84244923Y-89745000D02*
G01*
X84553768Y-89745000D01*
X84553768Y-88385055D01*
X84289253Y-88385055D01*
X83928018Y-88552484D01*
X83980408Y-88790987D01*
X84240893Y-88667522D01*
X84244923Y-88667522D01*
X84244923Y-89745000D01*
G37*
G36*
X85870115Y-89182264D02*
G01*
X86033879Y-89182264D01*
X86033879Y-89421866D01*
X85870115Y-89421866D01*
X85870115Y-89745000D01*
X85567498Y-89745000D01*
X85567498Y-89421866D01*
X84962630Y-89421866D01*
X84962630Y-89213771D01*
X84982284Y-89182264D01*
X85260851Y-89182264D01*
X85567498Y-89182264D01*
X85567498Y-88881479D01*
X85567549Y-88866203D01*
X85567699Y-88850872D01*
X85567945Y-88835483D01*
X85568282Y-88820033D01*
X85568707Y-88804518D01*
X85569217Y-88788936D01*
X85569807Y-88773283D01*
X85570474Y-88757556D01*
X85571214Y-88741752D01*
X85572024Y-88725867D01*
X85572898Y-88709899D01*
X85573835Y-88693843D01*
X85574829Y-88677698D01*
X85575878Y-88661459D01*
X85576977Y-88645123D01*
X85578122Y-88628688D01*
X85569696Y-88628688D01*
X85561543Y-88645079D01*
X85553552Y-88661293D01*
X85545696Y-88677352D01*
X85537948Y-88693276D01*
X85530282Y-88709087D01*
X85522671Y-88724805D01*
X85515088Y-88740450D01*
X85507506Y-88756045D01*
X85499898Y-88771610D01*
X85492237Y-88787165D01*
X85484497Y-88802733D01*
X85476651Y-88818333D01*
X85468672Y-88833986D01*
X85460532Y-88849715D01*
X85452206Y-88865539D01*
X85443667Y-88881479D01*
X85260851Y-89178234D01*
X85260851Y-89182264D01*
X84982284Y-89182264D01*
X85479570Y-88385055D01*
X85870115Y-88385055D01*
X85870115Y-89182264D01*
G37*
G36*
X86631053Y-89745000D02*
G01*
X86950523Y-89745000D01*
X86950523Y-88244371D01*
X86631053Y-88244371D01*
X86631053Y-89745000D01*
G37*
G36*
X87208443Y-89745000D02*
G01*
X87527913Y-89745000D01*
X87527913Y-88244371D01*
X87208443Y-88244371D01*
X87208443Y-89745000D01*
G37*
G36*
X88518928Y-89482683D02*
G01*
X88505042Y-89488433D01*
X88490567Y-89493718D01*
X88475473Y-89498514D01*
X88459732Y-89502801D01*
X88443315Y-89506557D01*
X88426192Y-89509760D01*
X88408336Y-89512388D01*
X88389716Y-89514419D01*
X88370304Y-89515832D01*
X88350072Y-89516605D01*
X88336113Y-89516755D01*
X88307354Y-89515589D01*
X88279423Y-89512100D01*
X88252463Y-89506300D01*
X88226615Y-89498202D01*
X88202021Y-89487817D01*
X88178822Y-89475159D01*
X88157160Y-89460239D01*
X88137177Y-89443070D01*
X88119014Y-89423664D01*
X88102813Y-89402033D01*
X88088716Y-89378191D01*
X88076864Y-89352148D01*
X88071824Y-89338306D01*
X88067399Y-89323918D01*
X88063606Y-89308987D01*
X88060464Y-89293513D01*
X88057988Y-89277499D01*
X88056198Y-89260946D01*
X88055111Y-89243855D01*
X88054745Y-89226228D01*
X88054863Y-89210470D01*
X88055625Y-89195011D01*
X88057020Y-89179864D01*
X88059039Y-89165043D01*
X88061672Y-89150559D01*
X88068742Y-89122661D01*
X88078154Y-89096274D01*
X88089831Y-89071505D01*
X88103697Y-89048460D01*
X88119674Y-89027243D01*
X88137685Y-89007962D01*
X88157655Y-88990722D01*
X88179506Y-88975627D01*
X88203161Y-88962785D01*
X88228544Y-88952301D01*
X88255579Y-88944281D01*
X88284187Y-88938829D01*
X88299058Y-88937100D01*
X88314294Y-88936053D01*
X88329884Y-88935701D01*
X88345299Y-88935874D01*
X88360091Y-88936379D01*
X88381135Y-88937719D01*
X88400841Y-88939699D01*
X88419252Y-88942254D01*
X88436405Y-88945318D01*
X88452341Y-88948826D01*
X88467099Y-88952714D01*
X88485015Y-88958375D01*
X88501003Y-88964439D01*
X88508304Y-88967575D01*
X88558862Y-88730170D01*
X88539273Y-88723335D01*
X88518536Y-88717064D01*
X88504154Y-88713209D01*
X88489383Y-88709622D01*
X88474273Y-88706310D01*
X88458872Y-88703281D01*
X88443228Y-88700541D01*
X88427392Y-88698097D01*
X88411411Y-88695956D01*
X88395335Y-88694126D01*
X88379212Y-88692612D01*
X88363091Y-88691423D01*
X88347021Y-88690565D01*
X88331051Y-88690045D01*
X88315230Y-88689870D01*
X88279891Y-88690585D01*
X88245595Y-88692705D01*
X88212345Y-88696197D01*
X88180149Y-88701026D01*
X88149010Y-88707157D01*
X88118934Y-88714557D01*
X88089926Y-88723189D01*
X88061992Y-88733021D01*
X88035136Y-88744018D01*
X88009365Y-88756144D01*
X87984682Y-88769366D01*
X87961094Y-88783650D01*
X87938606Y-88798960D01*
X87917222Y-88815262D01*
X87896949Y-88832521D01*
X87877791Y-88850704D01*
X87859753Y-88869776D01*
X87842842Y-88889702D01*
X87827061Y-88910448D01*
X87812416Y-88931979D01*
X87798913Y-88954260D01*
X87786557Y-88977258D01*
X87775353Y-89000938D01*
X87765306Y-89025265D01*
X87756421Y-89050206D01*
X87748704Y-89075724D01*
X87742160Y-89101786D01*
X87736794Y-89128358D01*
X87732611Y-89155405D01*
X87729617Y-89182892D01*
X87727816Y-89210786D01*
X87727215Y-89239050D01*
X87727834Y-89269225D01*
X87729678Y-89298669D01*
X87732732Y-89327369D01*
X87736977Y-89355309D01*
X87742398Y-89382474D01*
X87748977Y-89408850D01*
X87756696Y-89434421D01*
X87765540Y-89459172D01*
X87775491Y-89483089D01*
X87786532Y-89506157D01*
X87798647Y-89528360D01*
X87811817Y-89549684D01*
X87826027Y-89570113D01*
X87841259Y-89589633D01*
X87857497Y-89608229D01*
X87874723Y-89625885D01*
X87892920Y-89642588D01*
X87912071Y-89658321D01*
X87932160Y-89673070D01*
X87953170Y-89686820D01*
X87975082Y-89699556D01*
X87997882Y-89711263D01*
X88021551Y-89721926D01*
X88046072Y-89731530D01*
X88071429Y-89740060D01*
X88097605Y-89747502D01*
X88124582Y-89753839D01*
X88152344Y-89759058D01*
X88180874Y-89763143D01*
X88210155Y-89766080D01*
X88240169Y-89767853D01*
X88270900Y-89768447D01*
X88293590Y-89768182D01*
X88315877Y-89767406D01*
X88337708Y-89766153D01*
X88359033Y-89764451D01*
X88379800Y-89762333D01*
X88399957Y-89759830D01*
X88419453Y-89756973D01*
X88438237Y-89753792D01*
X88456256Y-89750320D01*
X88473459Y-89746587D01*
X88489795Y-89742624D01*
X88505213Y-89738462D01*
X88519660Y-89734133D01*
X88539398Y-89727394D01*
X88556664Y-89720453D01*
X88518928Y-89482683D01*
G37*
D11*
%TO.C,C4*%
X138658333Y-67497142D02*
X138610714Y-67544761D01*
X138610714Y-67544761D02*
X138467857Y-67592380D01*
X138467857Y-67592380D02*
X138372619Y-67592380D01*
X138372619Y-67592380D02*
X138229762Y-67544761D01*
X138229762Y-67544761D02*
X138134524Y-67449523D01*
X138134524Y-67449523D02*
X138086905Y-67354285D01*
X138086905Y-67354285D02*
X138039286Y-67163809D01*
X138039286Y-67163809D02*
X138039286Y-67020952D01*
X138039286Y-67020952D02*
X138086905Y-66830476D01*
X138086905Y-66830476D02*
X138134524Y-66735238D01*
X138134524Y-66735238D02*
X138229762Y-66640000D01*
X138229762Y-66640000D02*
X138372619Y-66592380D01*
X138372619Y-66592380D02*
X138467857Y-66592380D01*
X138467857Y-66592380D02*
X138610714Y-66640000D01*
X138610714Y-66640000D02*
X138658333Y-66687619D01*
X139515476Y-66925714D02*
X139515476Y-67592380D01*
X139277381Y-66544761D02*
X139039286Y-67259047D01*
X139039286Y-67259047D02*
X139658333Y-67259047D01*
%TO.C,NP10*%
X149461905Y-84317380D02*
X149461905Y-83317380D01*
X149461905Y-83317380D02*
X150033333Y-84317380D01*
X150033333Y-84317380D02*
X150033333Y-83317380D01*
X150509524Y-84317380D02*
X150509524Y-83317380D01*
X150509524Y-83317380D02*
X150890476Y-83317380D01*
X150890476Y-83317380D02*
X150985714Y-83365000D01*
X150985714Y-83365000D02*
X151033333Y-83412619D01*
X151033333Y-83412619D02*
X151080952Y-83507857D01*
X151080952Y-83507857D02*
X151080952Y-83650714D01*
X151080952Y-83650714D02*
X151033333Y-83745952D01*
X151033333Y-83745952D02*
X150985714Y-83793571D01*
X150985714Y-83793571D02*
X150890476Y-83841190D01*
X150890476Y-83841190D02*
X150509524Y-83841190D01*
X152033333Y-84317380D02*
X151461905Y-84317380D01*
X151747619Y-84317380D02*
X151747619Y-83317380D01*
X151747619Y-83317380D02*
X151652381Y-83460238D01*
X151652381Y-83460238D02*
X151557143Y-83555476D01*
X151557143Y-83555476D02*
X151461905Y-83603095D01*
X152652381Y-83317380D02*
X152747619Y-83317380D01*
X152747619Y-83317380D02*
X152842857Y-83365000D01*
X152842857Y-83365000D02*
X152890476Y-83412619D01*
X152890476Y-83412619D02*
X152938095Y-83507857D01*
X152938095Y-83507857D02*
X152985714Y-83698333D01*
X152985714Y-83698333D02*
X152985714Y-83936428D01*
X152985714Y-83936428D02*
X152938095Y-84126904D01*
X152938095Y-84126904D02*
X152890476Y-84222142D01*
X152890476Y-84222142D02*
X152842857Y-84269761D01*
X152842857Y-84269761D02*
X152747619Y-84317380D01*
X152747619Y-84317380D02*
X152652381Y-84317380D01*
X152652381Y-84317380D02*
X152557143Y-84269761D01*
X152557143Y-84269761D02*
X152509524Y-84222142D01*
X152509524Y-84222142D02*
X152461905Y-84126904D01*
X152461905Y-84126904D02*
X152414286Y-83936428D01*
X152414286Y-83936428D02*
X152414286Y-83698333D01*
X152414286Y-83698333D02*
X152461905Y-83507857D01*
X152461905Y-83507857D02*
X152509524Y-83412619D01*
X152509524Y-83412619D02*
X152557143Y-83365000D01*
X152557143Y-83365000D02*
X152652381Y-83317380D01*
D12*
X152981857Y-81990690D02*
X152696143Y-81990690D01*
X152839000Y-81990690D02*
X152839000Y-81490690D01*
X152839000Y-81490690D02*
X152791381Y-81562119D01*
X152791381Y-81562119D02*
X152743762Y-81609738D01*
X152743762Y-81609738D02*
X152696143Y-81633547D01*
D11*
%TO.C,NP8*%
X112263095Y-84317380D02*
X112263095Y-83317380D01*
X112263095Y-83317380D02*
X112834523Y-84317380D01*
X112834523Y-84317380D02*
X112834523Y-83317380D01*
X113310714Y-84317380D02*
X113310714Y-83317380D01*
X113310714Y-83317380D02*
X113691666Y-83317380D01*
X113691666Y-83317380D02*
X113786904Y-83365000D01*
X113786904Y-83365000D02*
X113834523Y-83412619D01*
X113834523Y-83412619D02*
X113882142Y-83507857D01*
X113882142Y-83507857D02*
X113882142Y-83650714D01*
X113882142Y-83650714D02*
X113834523Y-83745952D01*
X113834523Y-83745952D02*
X113786904Y-83793571D01*
X113786904Y-83793571D02*
X113691666Y-83841190D01*
X113691666Y-83841190D02*
X113310714Y-83841190D01*
X114453571Y-83745952D02*
X114358333Y-83698333D01*
X114358333Y-83698333D02*
X114310714Y-83650714D01*
X114310714Y-83650714D02*
X114263095Y-83555476D01*
X114263095Y-83555476D02*
X114263095Y-83507857D01*
X114263095Y-83507857D02*
X114310714Y-83412619D01*
X114310714Y-83412619D02*
X114358333Y-83365000D01*
X114358333Y-83365000D02*
X114453571Y-83317380D01*
X114453571Y-83317380D02*
X114644047Y-83317380D01*
X114644047Y-83317380D02*
X114739285Y-83365000D01*
X114739285Y-83365000D02*
X114786904Y-83412619D01*
X114786904Y-83412619D02*
X114834523Y-83507857D01*
X114834523Y-83507857D02*
X114834523Y-83555476D01*
X114834523Y-83555476D02*
X114786904Y-83650714D01*
X114786904Y-83650714D02*
X114739285Y-83698333D01*
X114739285Y-83698333D02*
X114644047Y-83745952D01*
X114644047Y-83745952D02*
X114453571Y-83745952D01*
X114453571Y-83745952D02*
X114358333Y-83793571D01*
X114358333Y-83793571D02*
X114310714Y-83841190D01*
X114310714Y-83841190D02*
X114263095Y-83936428D01*
X114263095Y-83936428D02*
X114263095Y-84126904D01*
X114263095Y-84126904D02*
X114310714Y-84222142D01*
X114310714Y-84222142D02*
X114358333Y-84269761D01*
X114358333Y-84269761D02*
X114453571Y-84317380D01*
X114453571Y-84317380D02*
X114644047Y-84317380D01*
X114644047Y-84317380D02*
X114739285Y-84269761D01*
X114739285Y-84269761D02*
X114786904Y-84222142D01*
X114786904Y-84222142D02*
X114834523Y-84126904D01*
X114834523Y-84126904D02*
X114834523Y-83936428D01*
X114834523Y-83936428D02*
X114786904Y-83841190D01*
X114786904Y-83841190D02*
X114739285Y-83793571D01*
X114739285Y-83793571D02*
X114644047Y-83745952D01*
D12*
X114881857Y-81990690D02*
X114596143Y-81990690D01*
X114739000Y-81990690D02*
X114739000Y-81490690D01*
X114739000Y-81490690D02*
X114691381Y-81562119D01*
X114691381Y-81562119D02*
X114643762Y-81609738D01*
X114643762Y-81609738D02*
X114596143Y-81633547D01*
D11*
%TO.C,C1*%
X82828333Y-67522142D02*
X82780714Y-67569761D01*
X82780714Y-67569761D02*
X82637857Y-67617380D01*
X82637857Y-67617380D02*
X82542619Y-67617380D01*
X82542619Y-67617380D02*
X82399762Y-67569761D01*
X82399762Y-67569761D02*
X82304524Y-67474523D01*
X82304524Y-67474523D02*
X82256905Y-67379285D01*
X82256905Y-67379285D02*
X82209286Y-67188809D01*
X82209286Y-67188809D02*
X82209286Y-67045952D01*
X82209286Y-67045952D02*
X82256905Y-66855476D01*
X82256905Y-66855476D02*
X82304524Y-66760238D01*
X82304524Y-66760238D02*
X82399762Y-66665000D01*
X82399762Y-66665000D02*
X82542619Y-66617380D01*
X82542619Y-66617380D02*
X82637857Y-66617380D01*
X82637857Y-66617380D02*
X82780714Y-66665000D01*
X82780714Y-66665000D02*
X82828333Y-66712619D01*
X83780714Y-67617380D02*
X83209286Y-67617380D01*
X83495000Y-67617380D02*
X83495000Y-66617380D01*
X83495000Y-66617380D02*
X83399762Y-66760238D01*
X83399762Y-66760238D02*
X83304524Y-66855476D01*
X83304524Y-66855476D02*
X83209286Y-66903095D01*
%TO.C,C11*%
X87857142Y-63922142D02*
X87809523Y-63969761D01*
X87809523Y-63969761D02*
X87666666Y-64017380D01*
X87666666Y-64017380D02*
X87571428Y-64017380D01*
X87571428Y-64017380D02*
X87428571Y-63969761D01*
X87428571Y-63969761D02*
X87333333Y-63874523D01*
X87333333Y-63874523D02*
X87285714Y-63779285D01*
X87285714Y-63779285D02*
X87238095Y-63588809D01*
X87238095Y-63588809D02*
X87238095Y-63445952D01*
X87238095Y-63445952D02*
X87285714Y-63255476D01*
X87285714Y-63255476D02*
X87333333Y-63160238D01*
X87333333Y-63160238D02*
X87428571Y-63065000D01*
X87428571Y-63065000D02*
X87571428Y-63017380D01*
X87571428Y-63017380D02*
X87666666Y-63017380D01*
X87666666Y-63017380D02*
X87809523Y-63065000D01*
X87809523Y-63065000D02*
X87857142Y-63112619D01*
X88809523Y-64017380D02*
X88238095Y-64017380D01*
X88523809Y-64017380D02*
X88523809Y-63017380D01*
X88523809Y-63017380D02*
X88428571Y-63160238D01*
X88428571Y-63160238D02*
X88333333Y-63255476D01*
X88333333Y-63255476D02*
X88238095Y-63303095D01*
X89761904Y-64017380D02*
X89190476Y-64017380D01*
X89476190Y-64017380D02*
X89476190Y-63017380D01*
X89476190Y-63017380D02*
X89380952Y-63160238D01*
X89380952Y-63160238D02*
X89285714Y-63255476D01*
X89285714Y-63255476D02*
X89190476Y-63303095D01*
%TO.C,C9*%
X138803333Y-86547142D02*
X138755714Y-86594761D01*
X138755714Y-86594761D02*
X138612857Y-86642380D01*
X138612857Y-86642380D02*
X138517619Y-86642380D01*
X138517619Y-86642380D02*
X138374762Y-86594761D01*
X138374762Y-86594761D02*
X138279524Y-86499523D01*
X138279524Y-86499523D02*
X138231905Y-86404285D01*
X138231905Y-86404285D02*
X138184286Y-86213809D01*
X138184286Y-86213809D02*
X138184286Y-86070952D01*
X138184286Y-86070952D02*
X138231905Y-85880476D01*
X138231905Y-85880476D02*
X138279524Y-85785238D01*
X138279524Y-85785238D02*
X138374762Y-85690000D01*
X138374762Y-85690000D02*
X138517619Y-85642380D01*
X138517619Y-85642380D02*
X138612857Y-85642380D01*
X138612857Y-85642380D02*
X138755714Y-85690000D01*
X138755714Y-85690000D02*
X138803333Y-85737619D01*
X139279524Y-86642380D02*
X139470000Y-86642380D01*
X139470000Y-86642380D02*
X139565238Y-86594761D01*
X139565238Y-86594761D02*
X139612857Y-86547142D01*
X139612857Y-86547142D02*
X139708095Y-86404285D01*
X139708095Y-86404285D02*
X139755714Y-86213809D01*
X139755714Y-86213809D02*
X139755714Y-85832857D01*
X139755714Y-85832857D02*
X139708095Y-85737619D01*
X139708095Y-85737619D02*
X139660476Y-85690000D01*
X139660476Y-85690000D02*
X139565238Y-85642380D01*
X139565238Y-85642380D02*
X139374762Y-85642380D01*
X139374762Y-85642380D02*
X139279524Y-85690000D01*
X139279524Y-85690000D02*
X139231905Y-85737619D01*
X139231905Y-85737619D02*
X139184286Y-85832857D01*
X139184286Y-85832857D02*
X139184286Y-86070952D01*
X139184286Y-86070952D02*
X139231905Y-86166190D01*
X139231905Y-86166190D02*
X139279524Y-86213809D01*
X139279524Y-86213809D02*
X139374762Y-86261428D01*
X139374762Y-86261428D02*
X139565238Y-86261428D01*
X139565238Y-86261428D02*
X139660476Y-86213809D01*
X139660476Y-86213809D02*
X139708095Y-86166190D01*
X139708095Y-86166190D02*
X139755714Y-86070952D01*
%TO.C,C8*%
X119758333Y-86572142D02*
X119710714Y-86619761D01*
X119710714Y-86619761D02*
X119567857Y-86667380D01*
X119567857Y-86667380D02*
X119472619Y-86667380D01*
X119472619Y-86667380D02*
X119329762Y-86619761D01*
X119329762Y-86619761D02*
X119234524Y-86524523D01*
X119234524Y-86524523D02*
X119186905Y-86429285D01*
X119186905Y-86429285D02*
X119139286Y-86238809D01*
X119139286Y-86238809D02*
X119139286Y-86095952D01*
X119139286Y-86095952D02*
X119186905Y-85905476D01*
X119186905Y-85905476D02*
X119234524Y-85810238D01*
X119234524Y-85810238D02*
X119329762Y-85715000D01*
X119329762Y-85715000D02*
X119472619Y-85667380D01*
X119472619Y-85667380D02*
X119567857Y-85667380D01*
X119567857Y-85667380D02*
X119710714Y-85715000D01*
X119710714Y-85715000D02*
X119758333Y-85762619D01*
X120329762Y-86095952D02*
X120234524Y-86048333D01*
X120234524Y-86048333D02*
X120186905Y-86000714D01*
X120186905Y-86000714D02*
X120139286Y-85905476D01*
X120139286Y-85905476D02*
X120139286Y-85857857D01*
X120139286Y-85857857D02*
X120186905Y-85762619D01*
X120186905Y-85762619D02*
X120234524Y-85715000D01*
X120234524Y-85715000D02*
X120329762Y-85667380D01*
X120329762Y-85667380D02*
X120520238Y-85667380D01*
X120520238Y-85667380D02*
X120615476Y-85715000D01*
X120615476Y-85715000D02*
X120663095Y-85762619D01*
X120663095Y-85762619D02*
X120710714Y-85857857D01*
X120710714Y-85857857D02*
X120710714Y-85905476D01*
X120710714Y-85905476D02*
X120663095Y-86000714D01*
X120663095Y-86000714D02*
X120615476Y-86048333D01*
X120615476Y-86048333D02*
X120520238Y-86095952D01*
X120520238Y-86095952D02*
X120329762Y-86095952D01*
X120329762Y-86095952D02*
X120234524Y-86143571D01*
X120234524Y-86143571D02*
X120186905Y-86191190D01*
X120186905Y-86191190D02*
X120139286Y-86286428D01*
X120139286Y-86286428D02*
X120139286Y-86476904D01*
X120139286Y-86476904D02*
X120186905Y-86572142D01*
X120186905Y-86572142D02*
X120234524Y-86619761D01*
X120234524Y-86619761D02*
X120329762Y-86667380D01*
X120329762Y-86667380D02*
X120520238Y-86667380D01*
X120520238Y-86667380D02*
X120615476Y-86619761D01*
X120615476Y-86619761D02*
X120663095Y-86572142D01*
X120663095Y-86572142D02*
X120710714Y-86476904D01*
X120710714Y-86476904D02*
X120710714Y-86286428D01*
X120710714Y-86286428D02*
X120663095Y-86191190D01*
X120663095Y-86191190D02*
X120615476Y-86143571D01*
X120615476Y-86143571D02*
X120520238Y-86095952D01*
%TO.C,NP3*%
X112263095Y-65267380D02*
X112263095Y-64267380D01*
X112263095Y-64267380D02*
X112834523Y-65267380D01*
X112834523Y-65267380D02*
X112834523Y-64267380D01*
X113310714Y-65267380D02*
X113310714Y-64267380D01*
X113310714Y-64267380D02*
X113691666Y-64267380D01*
X113691666Y-64267380D02*
X113786904Y-64315000D01*
X113786904Y-64315000D02*
X113834523Y-64362619D01*
X113834523Y-64362619D02*
X113882142Y-64457857D01*
X113882142Y-64457857D02*
X113882142Y-64600714D01*
X113882142Y-64600714D02*
X113834523Y-64695952D01*
X113834523Y-64695952D02*
X113786904Y-64743571D01*
X113786904Y-64743571D02*
X113691666Y-64791190D01*
X113691666Y-64791190D02*
X113310714Y-64791190D01*
X114215476Y-64267380D02*
X114834523Y-64267380D01*
X114834523Y-64267380D02*
X114501190Y-64648333D01*
X114501190Y-64648333D02*
X114644047Y-64648333D01*
X114644047Y-64648333D02*
X114739285Y-64695952D01*
X114739285Y-64695952D02*
X114786904Y-64743571D01*
X114786904Y-64743571D02*
X114834523Y-64838809D01*
X114834523Y-64838809D02*
X114834523Y-65076904D01*
X114834523Y-65076904D02*
X114786904Y-65172142D01*
X114786904Y-65172142D02*
X114739285Y-65219761D01*
X114739285Y-65219761D02*
X114644047Y-65267380D01*
X114644047Y-65267380D02*
X114358333Y-65267380D01*
X114358333Y-65267380D02*
X114263095Y-65219761D01*
X114263095Y-65219761D02*
X114215476Y-65172142D01*
D12*
X114881857Y-62940690D02*
X114596143Y-62940690D01*
X114739000Y-62940690D02*
X114739000Y-62440690D01*
X114739000Y-62440690D02*
X114691381Y-62512119D01*
X114691381Y-62512119D02*
X114643762Y-62559738D01*
X114643762Y-62559738D02*
X114596143Y-62583547D01*
D11*
%TO.C,C2*%
X102858333Y-67497142D02*
X102810714Y-67544761D01*
X102810714Y-67544761D02*
X102667857Y-67592380D01*
X102667857Y-67592380D02*
X102572619Y-67592380D01*
X102572619Y-67592380D02*
X102429762Y-67544761D01*
X102429762Y-67544761D02*
X102334524Y-67449523D01*
X102334524Y-67449523D02*
X102286905Y-67354285D01*
X102286905Y-67354285D02*
X102239286Y-67163809D01*
X102239286Y-67163809D02*
X102239286Y-67020952D01*
X102239286Y-67020952D02*
X102286905Y-66830476D01*
X102286905Y-66830476D02*
X102334524Y-66735238D01*
X102334524Y-66735238D02*
X102429762Y-66640000D01*
X102429762Y-66640000D02*
X102572619Y-66592380D01*
X102572619Y-66592380D02*
X102667857Y-66592380D01*
X102667857Y-66592380D02*
X102810714Y-66640000D01*
X102810714Y-66640000D02*
X102858333Y-66687619D01*
X103239286Y-66687619D02*
X103286905Y-66640000D01*
X103286905Y-66640000D02*
X103382143Y-66592380D01*
X103382143Y-66592380D02*
X103620238Y-66592380D01*
X103620238Y-66592380D02*
X103715476Y-66640000D01*
X103715476Y-66640000D02*
X103763095Y-66687619D01*
X103763095Y-66687619D02*
X103810714Y-66782857D01*
X103810714Y-66782857D02*
X103810714Y-66878095D01*
X103810714Y-66878095D02*
X103763095Y-67020952D01*
X103763095Y-67020952D02*
X103191667Y-67592380D01*
X103191667Y-67592380D02*
X103810714Y-67592380D01*
%TO.C,C5*%
X157808333Y-67497142D02*
X157760714Y-67544761D01*
X157760714Y-67544761D02*
X157617857Y-67592380D01*
X157617857Y-67592380D02*
X157522619Y-67592380D01*
X157522619Y-67592380D02*
X157379762Y-67544761D01*
X157379762Y-67544761D02*
X157284524Y-67449523D01*
X157284524Y-67449523D02*
X157236905Y-67354285D01*
X157236905Y-67354285D02*
X157189286Y-67163809D01*
X157189286Y-67163809D02*
X157189286Y-67020952D01*
X157189286Y-67020952D02*
X157236905Y-66830476D01*
X157236905Y-66830476D02*
X157284524Y-66735238D01*
X157284524Y-66735238D02*
X157379762Y-66640000D01*
X157379762Y-66640000D02*
X157522619Y-66592380D01*
X157522619Y-66592380D02*
X157617857Y-66592380D01*
X157617857Y-66592380D02*
X157760714Y-66640000D01*
X157760714Y-66640000D02*
X157808333Y-66687619D01*
X158713095Y-66592380D02*
X158236905Y-66592380D01*
X158236905Y-66592380D02*
X158189286Y-67068571D01*
X158189286Y-67068571D02*
X158236905Y-67020952D01*
X158236905Y-67020952D02*
X158332143Y-66973333D01*
X158332143Y-66973333D02*
X158570238Y-66973333D01*
X158570238Y-66973333D02*
X158665476Y-67020952D01*
X158665476Y-67020952D02*
X158713095Y-67068571D01*
X158713095Y-67068571D02*
X158760714Y-67163809D01*
X158760714Y-67163809D02*
X158760714Y-67401904D01*
X158760714Y-67401904D02*
X158713095Y-67497142D01*
X158713095Y-67497142D02*
X158665476Y-67544761D01*
X158665476Y-67544761D02*
X158570238Y-67592380D01*
X158570238Y-67592380D02*
X158332143Y-67592380D01*
X158332143Y-67592380D02*
X158236905Y-67544761D01*
X158236905Y-67544761D02*
X158189286Y-67497142D01*
%TO.C,C10*%
X157857142Y-86572142D02*
X157809523Y-86619761D01*
X157809523Y-86619761D02*
X157666666Y-86667380D01*
X157666666Y-86667380D02*
X157571428Y-86667380D01*
X157571428Y-86667380D02*
X157428571Y-86619761D01*
X157428571Y-86619761D02*
X157333333Y-86524523D01*
X157333333Y-86524523D02*
X157285714Y-86429285D01*
X157285714Y-86429285D02*
X157238095Y-86238809D01*
X157238095Y-86238809D02*
X157238095Y-86095952D01*
X157238095Y-86095952D02*
X157285714Y-85905476D01*
X157285714Y-85905476D02*
X157333333Y-85810238D01*
X157333333Y-85810238D02*
X157428571Y-85715000D01*
X157428571Y-85715000D02*
X157571428Y-85667380D01*
X157571428Y-85667380D02*
X157666666Y-85667380D01*
X157666666Y-85667380D02*
X157809523Y-85715000D01*
X157809523Y-85715000D02*
X157857142Y-85762619D01*
X158809523Y-86667380D02*
X158238095Y-86667380D01*
X158523809Y-86667380D02*
X158523809Y-85667380D01*
X158523809Y-85667380D02*
X158428571Y-85810238D01*
X158428571Y-85810238D02*
X158333333Y-85905476D01*
X158333333Y-85905476D02*
X158238095Y-85953095D01*
X159428571Y-85667380D02*
X159523809Y-85667380D01*
X159523809Y-85667380D02*
X159619047Y-85715000D01*
X159619047Y-85715000D02*
X159666666Y-85762619D01*
X159666666Y-85762619D02*
X159714285Y-85857857D01*
X159714285Y-85857857D02*
X159761904Y-86048333D01*
X159761904Y-86048333D02*
X159761904Y-86286428D01*
X159761904Y-86286428D02*
X159714285Y-86476904D01*
X159714285Y-86476904D02*
X159666666Y-86572142D01*
X159666666Y-86572142D02*
X159619047Y-86619761D01*
X159619047Y-86619761D02*
X159523809Y-86667380D01*
X159523809Y-86667380D02*
X159428571Y-86667380D01*
X159428571Y-86667380D02*
X159333333Y-86619761D01*
X159333333Y-86619761D02*
X159285714Y-86572142D01*
X159285714Y-86572142D02*
X159238095Y-86476904D01*
X159238095Y-86476904D02*
X159190476Y-86286428D01*
X159190476Y-86286428D02*
X159190476Y-86048333D01*
X159190476Y-86048333D02*
X159238095Y-85857857D01*
X159238095Y-85857857D02*
X159285714Y-85762619D01*
X159285714Y-85762619D02*
X159333333Y-85715000D01*
X159333333Y-85715000D02*
X159428571Y-85667380D01*
%TO.C,C6*%
X81628333Y-86547142D02*
X81580714Y-86594761D01*
X81580714Y-86594761D02*
X81437857Y-86642380D01*
X81437857Y-86642380D02*
X81342619Y-86642380D01*
X81342619Y-86642380D02*
X81199762Y-86594761D01*
X81199762Y-86594761D02*
X81104524Y-86499523D01*
X81104524Y-86499523D02*
X81056905Y-86404285D01*
X81056905Y-86404285D02*
X81009286Y-86213809D01*
X81009286Y-86213809D02*
X81009286Y-86070952D01*
X81009286Y-86070952D02*
X81056905Y-85880476D01*
X81056905Y-85880476D02*
X81104524Y-85785238D01*
X81104524Y-85785238D02*
X81199762Y-85690000D01*
X81199762Y-85690000D02*
X81342619Y-85642380D01*
X81342619Y-85642380D02*
X81437857Y-85642380D01*
X81437857Y-85642380D02*
X81580714Y-85690000D01*
X81580714Y-85690000D02*
X81628333Y-85737619D01*
X82485476Y-85642380D02*
X82295000Y-85642380D01*
X82295000Y-85642380D02*
X82199762Y-85690000D01*
X82199762Y-85690000D02*
X82152143Y-85737619D01*
X82152143Y-85737619D02*
X82056905Y-85880476D01*
X82056905Y-85880476D02*
X82009286Y-86070952D01*
X82009286Y-86070952D02*
X82009286Y-86451904D01*
X82009286Y-86451904D02*
X82056905Y-86547142D01*
X82056905Y-86547142D02*
X82104524Y-86594761D01*
X82104524Y-86594761D02*
X82199762Y-86642380D01*
X82199762Y-86642380D02*
X82390238Y-86642380D01*
X82390238Y-86642380D02*
X82485476Y-86594761D01*
X82485476Y-86594761D02*
X82533095Y-86547142D01*
X82533095Y-86547142D02*
X82580714Y-86451904D01*
X82580714Y-86451904D02*
X82580714Y-86213809D01*
X82580714Y-86213809D02*
X82533095Y-86118571D01*
X82533095Y-86118571D02*
X82485476Y-86070952D01*
X82485476Y-86070952D02*
X82390238Y-86023333D01*
X82390238Y-86023333D02*
X82199762Y-86023333D01*
X82199762Y-86023333D02*
X82104524Y-86070952D01*
X82104524Y-86070952D02*
X82056905Y-86118571D01*
X82056905Y-86118571D02*
X82009286Y-86213809D01*
%TO.C,C7*%
X100713333Y-86522142D02*
X100665714Y-86569761D01*
X100665714Y-86569761D02*
X100522857Y-86617380D01*
X100522857Y-86617380D02*
X100427619Y-86617380D01*
X100427619Y-86617380D02*
X100284762Y-86569761D01*
X100284762Y-86569761D02*
X100189524Y-86474523D01*
X100189524Y-86474523D02*
X100141905Y-86379285D01*
X100141905Y-86379285D02*
X100094286Y-86188809D01*
X100094286Y-86188809D02*
X100094286Y-86045952D01*
X100094286Y-86045952D02*
X100141905Y-85855476D01*
X100141905Y-85855476D02*
X100189524Y-85760238D01*
X100189524Y-85760238D02*
X100284762Y-85665000D01*
X100284762Y-85665000D02*
X100427619Y-85617380D01*
X100427619Y-85617380D02*
X100522857Y-85617380D01*
X100522857Y-85617380D02*
X100665714Y-85665000D01*
X100665714Y-85665000D02*
X100713333Y-85712619D01*
X101046667Y-85617380D02*
X101713333Y-85617380D01*
X101713333Y-85617380D02*
X101284762Y-86617380D01*
%TO.C,NP7*%
X93213095Y-84317380D02*
X93213095Y-83317380D01*
X93213095Y-83317380D02*
X93784523Y-84317380D01*
X93784523Y-84317380D02*
X93784523Y-83317380D01*
X94260714Y-84317380D02*
X94260714Y-83317380D01*
X94260714Y-83317380D02*
X94641666Y-83317380D01*
X94641666Y-83317380D02*
X94736904Y-83365000D01*
X94736904Y-83365000D02*
X94784523Y-83412619D01*
X94784523Y-83412619D02*
X94832142Y-83507857D01*
X94832142Y-83507857D02*
X94832142Y-83650714D01*
X94832142Y-83650714D02*
X94784523Y-83745952D01*
X94784523Y-83745952D02*
X94736904Y-83793571D01*
X94736904Y-83793571D02*
X94641666Y-83841190D01*
X94641666Y-83841190D02*
X94260714Y-83841190D01*
X95165476Y-83317380D02*
X95832142Y-83317380D01*
X95832142Y-83317380D02*
X95403571Y-84317380D01*
D12*
X95831857Y-81990690D02*
X95546143Y-81990690D01*
X95689000Y-81990690D02*
X95689000Y-81490690D01*
X95689000Y-81490690D02*
X95641381Y-81562119D01*
X95641381Y-81562119D02*
X95593762Y-81609738D01*
X95593762Y-81609738D02*
X95546143Y-81633547D01*
D11*
%TO.C,NP9*%
X131313095Y-84317380D02*
X131313095Y-83317380D01*
X131313095Y-83317380D02*
X131884523Y-84317380D01*
X131884523Y-84317380D02*
X131884523Y-83317380D01*
X132360714Y-84317380D02*
X132360714Y-83317380D01*
X132360714Y-83317380D02*
X132741666Y-83317380D01*
X132741666Y-83317380D02*
X132836904Y-83365000D01*
X132836904Y-83365000D02*
X132884523Y-83412619D01*
X132884523Y-83412619D02*
X132932142Y-83507857D01*
X132932142Y-83507857D02*
X132932142Y-83650714D01*
X132932142Y-83650714D02*
X132884523Y-83745952D01*
X132884523Y-83745952D02*
X132836904Y-83793571D01*
X132836904Y-83793571D02*
X132741666Y-83841190D01*
X132741666Y-83841190D02*
X132360714Y-83841190D01*
X133408333Y-84317380D02*
X133598809Y-84317380D01*
X133598809Y-84317380D02*
X133694047Y-84269761D01*
X133694047Y-84269761D02*
X133741666Y-84222142D01*
X133741666Y-84222142D02*
X133836904Y-84079285D01*
X133836904Y-84079285D02*
X133884523Y-83888809D01*
X133884523Y-83888809D02*
X133884523Y-83507857D01*
X133884523Y-83507857D02*
X133836904Y-83412619D01*
X133836904Y-83412619D02*
X133789285Y-83365000D01*
X133789285Y-83365000D02*
X133694047Y-83317380D01*
X133694047Y-83317380D02*
X133503571Y-83317380D01*
X133503571Y-83317380D02*
X133408333Y-83365000D01*
X133408333Y-83365000D02*
X133360714Y-83412619D01*
X133360714Y-83412619D02*
X133313095Y-83507857D01*
X133313095Y-83507857D02*
X133313095Y-83745952D01*
X133313095Y-83745952D02*
X133360714Y-83841190D01*
X133360714Y-83841190D02*
X133408333Y-83888809D01*
X133408333Y-83888809D02*
X133503571Y-83936428D01*
X133503571Y-83936428D02*
X133694047Y-83936428D01*
X133694047Y-83936428D02*
X133789285Y-83888809D01*
X133789285Y-83888809D02*
X133836904Y-83841190D01*
X133836904Y-83841190D02*
X133884523Y-83745952D01*
D12*
X133931857Y-81990690D02*
X133646143Y-81990690D01*
X133789000Y-81990690D02*
X133789000Y-81490690D01*
X133789000Y-81490690D02*
X133741381Y-81562119D01*
X133741381Y-81562119D02*
X133693762Y-81609738D01*
X133693762Y-81609738D02*
X133646143Y-81633547D01*
D11*
%TO.C,NP4*%
X131313095Y-65267380D02*
X131313095Y-64267380D01*
X131313095Y-64267380D02*
X131884523Y-65267380D01*
X131884523Y-65267380D02*
X131884523Y-64267380D01*
X132360714Y-65267380D02*
X132360714Y-64267380D01*
X132360714Y-64267380D02*
X132741666Y-64267380D01*
X132741666Y-64267380D02*
X132836904Y-64315000D01*
X132836904Y-64315000D02*
X132884523Y-64362619D01*
X132884523Y-64362619D02*
X132932142Y-64457857D01*
X132932142Y-64457857D02*
X132932142Y-64600714D01*
X132932142Y-64600714D02*
X132884523Y-64695952D01*
X132884523Y-64695952D02*
X132836904Y-64743571D01*
X132836904Y-64743571D02*
X132741666Y-64791190D01*
X132741666Y-64791190D02*
X132360714Y-64791190D01*
X133789285Y-64600714D02*
X133789285Y-65267380D01*
X133551190Y-64219761D02*
X133313095Y-64934047D01*
X133313095Y-64934047D02*
X133932142Y-64934047D01*
D12*
X133931857Y-62940690D02*
X133646143Y-62940690D01*
X133789000Y-62940690D02*
X133789000Y-62440690D01*
X133789000Y-62440690D02*
X133741381Y-62512119D01*
X133741381Y-62512119D02*
X133693762Y-62559738D01*
X133693762Y-62559738D02*
X133646143Y-62583547D01*
D11*
%TO.C,NP1*%
X74163095Y-65267380D02*
X74163095Y-64267380D01*
X74163095Y-64267380D02*
X74734523Y-65267380D01*
X74734523Y-65267380D02*
X74734523Y-64267380D01*
X75210714Y-65267380D02*
X75210714Y-64267380D01*
X75210714Y-64267380D02*
X75591666Y-64267380D01*
X75591666Y-64267380D02*
X75686904Y-64315000D01*
X75686904Y-64315000D02*
X75734523Y-64362619D01*
X75734523Y-64362619D02*
X75782142Y-64457857D01*
X75782142Y-64457857D02*
X75782142Y-64600714D01*
X75782142Y-64600714D02*
X75734523Y-64695952D01*
X75734523Y-64695952D02*
X75686904Y-64743571D01*
X75686904Y-64743571D02*
X75591666Y-64791190D01*
X75591666Y-64791190D02*
X75210714Y-64791190D01*
X76734523Y-65267380D02*
X76163095Y-65267380D01*
X76448809Y-65267380D02*
X76448809Y-64267380D01*
X76448809Y-64267380D02*
X76353571Y-64410238D01*
X76353571Y-64410238D02*
X76258333Y-64505476D01*
X76258333Y-64505476D02*
X76163095Y-64553095D01*
D12*
X76781857Y-62940690D02*
X76496143Y-62940690D01*
X76639000Y-62940690D02*
X76639000Y-62440690D01*
X76639000Y-62440690D02*
X76591381Y-62512119D01*
X76591381Y-62512119D02*
X76543762Y-62559738D01*
X76543762Y-62559738D02*
X76496143Y-62583547D01*
D11*
%TO.C,NP2*%
X93213095Y-65142380D02*
X93213095Y-64142380D01*
X93213095Y-64142380D02*
X93784523Y-65142380D01*
X93784523Y-65142380D02*
X93784523Y-64142380D01*
X94260714Y-65142380D02*
X94260714Y-64142380D01*
X94260714Y-64142380D02*
X94641666Y-64142380D01*
X94641666Y-64142380D02*
X94736904Y-64190000D01*
X94736904Y-64190000D02*
X94784523Y-64237619D01*
X94784523Y-64237619D02*
X94832142Y-64332857D01*
X94832142Y-64332857D02*
X94832142Y-64475714D01*
X94832142Y-64475714D02*
X94784523Y-64570952D01*
X94784523Y-64570952D02*
X94736904Y-64618571D01*
X94736904Y-64618571D02*
X94641666Y-64666190D01*
X94641666Y-64666190D02*
X94260714Y-64666190D01*
X95213095Y-64237619D02*
X95260714Y-64190000D01*
X95260714Y-64190000D02*
X95355952Y-64142380D01*
X95355952Y-64142380D02*
X95594047Y-64142380D01*
X95594047Y-64142380D02*
X95689285Y-64190000D01*
X95689285Y-64190000D02*
X95736904Y-64237619D01*
X95736904Y-64237619D02*
X95784523Y-64332857D01*
X95784523Y-64332857D02*
X95784523Y-64428095D01*
X95784523Y-64428095D02*
X95736904Y-64570952D01*
X95736904Y-64570952D02*
X95165476Y-65142380D01*
X95165476Y-65142380D02*
X95784523Y-65142380D01*
D12*
X95831857Y-62940690D02*
X95546143Y-62940690D01*
X95689000Y-62940690D02*
X95689000Y-62440690D01*
X95689000Y-62440690D02*
X95641381Y-62512119D01*
X95641381Y-62512119D02*
X95593762Y-62559738D01*
X95593762Y-62559738D02*
X95546143Y-62583547D01*
D11*
%TO.C,C3*%
X119608333Y-67472142D02*
X119560714Y-67519761D01*
X119560714Y-67519761D02*
X119417857Y-67567380D01*
X119417857Y-67567380D02*
X119322619Y-67567380D01*
X119322619Y-67567380D02*
X119179762Y-67519761D01*
X119179762Y-67519761D02*
X119084524Y-67424523D01*
X119084524Y-67424523D02*
X119036905Y-67329285D01*
X119036905Y-67329285D02*
X118989286Y-67138809D01*
X118989286Y-67138809D02*
X118989286Y-66995952D01*
X118989286Y-66995952D02*
X119036905Y-66805476D01*
X119036905Y-66805476D02*
X119084524Y-66710238D01*
X119084524Y-66710238D02*
X119179762Y-66615000D01*
X119179762Y-66615000D02*
X119322619Y-66567380D01*
X119322619Y-66567380D02*
X119417857Y-66567380D01*
X119417857Y-66567380D02*
X119560714Y-66615000D01*
X119560714Y-66615000D02*
X119608333Y-66662619D01*
X119941667Y-66567380D02*
X120560714Y-66567380D01*
X120560714Y-66567380D02*
X120227381Y-66948333D01*
X120227381Y-66948333D02*
X120370238Y-66948333D01*
X120370238Y-66948333D02*
X120465476Y-66995952D01*
X120465476Y-66995952D02*
X120513095Y-67043571D01*
X120513095Y-67043571D02*
X120560714Y-67138809D01*
X120560714Y-67138809D02*
X120560714Y-67376904D01*
X120560714Y-67376904D02*
X120513095Y-67472142D01*
X120513095Y-67472142D02*
X120465476Y-67519761D01*
X120465476Y-67519761D02*
X120370238Y-67567380D01*
X120370238Y-67567380D02*
X120084524Y-67567380D01*
X120084524Y-67567380D02*
X119989286Y-67519761D01*
X119989286Y-67519761D02*
X119941667Y-67472142D01*
%TO.C,NP6*%
X74163095Y-84317380D02*
X74163095Y-83317380D01*
X74163095Y-83317380D02*
X74734523Y-84317380D01*
X74734523Y-84317380D02*
X74734523Y-83317380D01*
X75210714Y-84317380D02*
X75210714Y-83317380D01*
X75210714Y-83317380D02*
X75591666Y-83317380D01*
X75591666Y-83317380D02*
X75686904Y-83365000D01*
X75686904Y-83365000D02*
X75734523Y-83412619D01*
X75734523Y-83412619D02*
X75782142Y-83507857D01*
X75782142Y-83507857D02*
X75782142Y-83650714D01*
X75782142Y-83650714D02*
X75734523Y-83745952D01*
X75734523Y-83745952D02*
X75686904Y-83793571D01*
X75686904Y-83793571D02*
X75591666Y-83841190D01*
X75591666Y-83841190D02*
X75210714Y-83841190D01*
X76639285Y-83317380D02*
X76448809Y-83317380D01*
X76448809Y-83317380D02*
X76353571Y-83365000D01*
X76353571Y-83365000D02*
X76305952Y-83412619D01*
X76305952Y-83412619D02*
X76210714Y-83555476D01*
X76210714Y-83555476D02*
X76163095Y-83745952D01*
X76163095Y-83745952D02*
X76163095Y-84126904D01*
X76163095Y-84126904D02*
X76210714Y-84222142D01*
X76210714Y-84222142D02*
X76258333Y-84269761D01*
X76258333Y-84269761D02*
X76353571Y-84317380D01*
X76353571Y-84317380D02*
X76544047Y-84317380D01*
X76544047Y-84317380D02*
X76639285Y-84269761D01*
X76639285Y-84269761D02*
X76686904Y-84222142D01*
X76686904Y-84222142D02*
X76734523Y-84126904D01*
X76734523Y-84126904D02*
X76734523Y-83888809D01*
X76734523Y-83888809D02*
X76686904Y-83793571D01*
X76686904Y-83793571D02*
X76639285Y-83745952D01*
X76639285Y-83745952D02*
X76544047Y-83698333D01*
X76544047Y-83698333D02*
X76353571Y-83698333D01*
X76353571Y-83698333D02*
X76258333Y-83745952D01*
X76258333Y-83745952D02*
X76210714Y-83793571D01*
X76210714Y-83793571D02*
X76163095Y-83888809D01*
D12*
X76781857Y-81990690D02*
X76496143Y-81990690D01*
X76639000Y-81990690D02*
X76639000Y-81490690D01*
X76639000Y-81490690D02*
X76591381Y-81562119D01*
X76591381Y-81562119D02*
X76543762Y-81609738D01*
X76543762Y-81609738D02*
X76496143Y-81633547D01*
D11*
%TO.C,U1*%
X87138095Y-57317380D02*
X87138095Y-58126904D01*
X87138095Y-58126904D02*
X87185714Y-58222142D01*
X87185714Y-58222142D02*
X87233333Y-58269761D01*
X87233333Y-58269761D02*
X87328571Y-58317380D01*
X87328571Y-58317380D02*
X87519047Y-58317380D01*
X87519047Y-58317380D02*
X87614285Y-58269761D01*
X87614285Y-58269761D02*
X87661904Y-58222142D01*
X87661904Y-58222142D02*
X87709523Y-58126904D01*
X87709523Y-58126904D02*
X87709523Y-57317380D01*
X88709523Y-58317380D02*
X88138095Y-58317380D01*
X88423809Y-58317380D02*
X88423809Y-57317380D01*
X88423809Y-57317380D02*
X88328571Y-57460238D01*
X88328571Y-57460238D02*
X88233333Y-57555476D01*
X88233333Y-57555476D02*
X88138095Y-57603095D01*
%TO.C,NP5*%
X150363095Y-65267380D02*
X150363095Y-64267380D01*
X150363095Y-64267380D02*
X150934523Y-65267380D01*
X150934523Y-65267380D02*
X150934523Y-64267380D01*
X151410714Y-65267380D02*
X151410714Y-64267380D01*
X151410714Y-64267380D02*
X151791666Y-64267380D01*
X151791666Y-64267380D02*
X151886904Y-64315000D01*
X151886904Y-64315000D02*
X151934523Y-64362619D01*
X151934523Y-64362619D02*
X151982142Y-64457857D01*
X151982142Y-64457857D02*
X151982142Y-64600714D01*
X151982142Y-64600714D02*
X151934523Y-64695952D01*
X151934523Y-64695952D02*
X151886904Y-64743571D01*
X151886904Y-64743571D02*
X151791666Y-64791190D01*
X151791666Y-64791190D02*
X151410714Y-64791190D01*
X152886904Y-64267380D02*
X152410714Y-64267380D01*
X152410714Y-64267380D02*
X152363095Y-64743571D01*
X152363095Y-64743571D02*
X152410714Y-64695952D01*
X152410714Y-64695952D02*
X152505952Y-64648333D01*
X152505952Y-64648333D02*
X152744047Y-64648333D01*
X152744047Y-64648333D02*
X152839285Y-64695952D01*
X152839285Y-64695952D02*
X152886904Y-64743571D01*
X152886904Y-64743571D02*
X152934523Y-64838809D01*
X152934523Y-64838809D02*
X152934523Y-65076904D01*
X152934523Y-65076904D02*
X152886904Y-65172142D01*
X152886904Y-65172142D02*
X152839285Y-65219761D01*
X152839285Y-65219761D02*
X152744047Y-65267380D01*
X152744047Y-65267380D02*
X152505952Y-65267380D01*
X152505952Y-65267380D02*
X152410714Y-65219761D01*
X152410714Y-65219761D02*
X152363095Y-65172142D01*
D12*
X152981857Y-62940690D02*
X152696143Y-62940690D01*
X152839000Y-62940690D02*
X152839000Y-62440690D01*
X152839000Y-62440690D02*
X152791381Y-62512119D01*
X152791381Y-62512119D02*
X152743762Y-62559738D01*
X152743762Y-62559738D02*
X152696143Y-62583547D01*
D11*
%TO.C,SW1*%
X77591667Y-51469761D02*
X77734524Y-51517380D01*
X77734524Y-51517380D02*
X77972619Y-51517380D01*
X77972619Y-51517380D02*
X78067857Y-51469761D01*
X78067857Y-51469761D02*
X78115476Y-51422142D01*
X78115476Y-51422142D02*
X78163095Y-51326904D01*
X78163095Y-51326904D02*
X78163095Y-51231666D01*
X78163095Y-51231666D02*
X78115476Y-51136428D01*
X78115476Y-51136428D02*
X78067857Y-51088809D01*
X78067857Y-51088809D02*
X77972619Y-51041190D01*
X77972619Y-51041190D02*
X77782143Y-50993571D01*
X77782143Y-50993571D02*
X77686905Y-50945952D01*
X77686905Y-50945952D02*
X77639286Y-50898333D01*
X77639286Y-50898333D02*
X77591667Y-50803095D01*
X77591667Y-50803095D02*
X77591667Y-50707857D01*
X77591667Y-50707857D02*
X77639286Y-50612619D01*
X77639286Y-50612619D02*
X77686905Y-50565000D01*
X77686905Y-50565000D02*
X77782143Y-50517380D01*
X77782143Y-50517380D02*
X78020238Y-50517380D01*
X78020238Y-50517380D02*
X78163095Y-50565000D01*
X78496429Y-50517380D02*
X78734524Y-51517380D01*
X78734524Y-51517380D02*
X78925000Y-50803095D01*
X78925000Y-50803095D02*
X79115476Y-51517380D01*
X79115476Y-51517380D02*
X79353572Y-50517380D01*
X80258333Y-51517380D02*
X79686905Y-51517380D01*
X79972619Y-51517380D02*
X79972619Y-50517380D01*
X79972619Y-50517380D02*
X79877381Y-50660238D01*
X79877381Y-50660238D02*
X79782143Y-50755476D01*
X79782143Y-50755476D02*
X79686905Y-50803095D01*
%TO.C,SW7*%
X96641667Y-70519761D02*
X96784524Y-70567380D01*
X96784524Y-70567380D02*
X97022619Y-70567380D01*
X97022619Y-70567380D02*
X97117857Y-70519761D01*
X97117857Y-70519761D02*
X97165476Y-70472142D01*
X97165476Y-70472142D02*
X97213095Y-70376904D01*
X97213095Y-70376904D02*
X97213095Y-70281666D01*
X97213095Y-70281666D02*
X97165476Y-70186428D01*
X97165476Y-70186428D02*
X97117857Y-70138809D01*
X97117857Y-70138809D02*
X97022619Y-70091190D01*
X97022619Y-70091190D02*
X96832143Y-70043571D01*
X96832143Y-70043571D02*
X96736905Y-69995952D01*
X96736905Y-69995952D02*
X96689286Y-69948333D01*
X96689286Y-69948333D02*
X96641667Y-69853095D01*
X96641667Y-69853095D02*
X96641667Y-69757857D01*
X96641667Y-69757857D02*
X96689286Y-69662619D01*
X96689286Y-69662619D02*
X96736905Y-69615000D01*
X96736905Y-69615000D02*
X96832143Y-69567380D01*
X96832143Y-69567380D02*
X97070238Y-69567380D01*
X97070238Y-69567380D02*
X97213095Y-69615000D01*
X97546429Y-69567380D02*
X97784524Y-70567380D01*
X97784524Y-70567380D02*
X97975000Y-69853095D01*
X97975000Y-69853095D02*
X98165476Y-70567380D01*
X98165476Y-70567380D02*
X98403572Y-69567380D01*
X98689286Y-69567380D02*
X99355952Y-69567380D01*
X99355952Y-69567380D02*
X98927381Y-70567380D01*
%TO.C,SW9*%
X134741667Y-70519761D02*
X134884524Y-70567380D01*
X134884524Y-70567380D02*
X135122619Y-70567380D01*
X135122619Y-70567380D02*
X135217857Y-70519761D01*
X135217857Y-70519761D02*
X135265476Y-70472142D01*
X135265476Y-70472142D02*
X135313095Y-70376904D01*
X135313095Y-70376904D02*
X135313095Y-70281666D01*
X135313095Y-70281666D02*
X135265476Y-70186428D01*
X135265476Y-70186428D02*
X135217857Y-70138809D01*
X135217857Y-70138809D02*
X135122619Y-70091190D01*
X135122619Y-70091190D02*
X134932143Y-70043571D01*
X134932143Y-70043571D02*
X134836905Y-69995952D01*
X134836905Y-69995952D02*
X134789286Y-69948333D01*
X134789286Y-69948333D02*
X134741667Y-69853095D01*
X134741667Y-69853095D02*
X134741667Y-69757857D01*
X134741667Y-69757857D02*
X134789286Y-69662619D01*
X134789286Y-69662619D02*
X134836905Y-69615000D01*
X134836905Y-69615000D02*
X134932143Y-69567380D01*
X134932143Y-69567380D02*
X135170238Y-69567380D01*
X135170238Y-69567380D02*
X135313095Y-69615000D01*
X135646429Y-69567380D02*
X135884524Y-70567380D01*
X135884524Y-70567380D02*
X136075000Y-69853095D01*
X136075000Y-69853095D02*
X136265476Y-70567380D01*
X136265476Y-70567380D02*
X136503572Y-69567380D01*
X136932143Y-70567380D02*
X137122619Y-70567380D01*
X137122619Y-70567380D02*
X137217857Y-70519761D01*
X137217857Y-70519761D02*
X137265476Y-70472142D01*
X137265476Y-70472142D02*
X137360714Y-70329285D01*
X137360714Y-70329285D02*
X137408333Y-70138809D01*
X137408333Y-70138809D02*
X137408333Y-69757857D01*
X137408333Y-69757857D02*
X137360714Y-69662619D01*
X137360714Y-69662619D02*
X137313095Y-69615000D01*
X137313095Y-69615000D02*
X137217857Y-69567380D01*
X137217857Y-69567380D02*
X137027381Y-69567380D01*
X137027381Y-69567380D02*
X136932143Y-69615000D01*
X136932143Y-69615000D02*
X136884524Y-69662619D01*
X136884524Y-69662619D02*
X136836905Y-69757857D01*
X136836905Y-69757857D02*
X136836905Y-69995952D01*
X136836905Y-69995952D02*
X136884524Y-70091190D01*
X136884524Y-70091190D02*
X136932143Y-70138809D01*
X136932143Y-70138809D02*
X137027381Y-70186428D01*
X137027381Y-70186428D02*
X137217857Y-70186428D01*
X137217857Y-70186428D02*
X137313095Y-70138809D01*
X137313095Y-70138809D02*
X137360714Y-70091190D01*
X137360714Y-70091190D02*
X137408333Y-69995952D01*
%TO.C,SW5*%
X153791667Y-51469761D02*
X153934524Y-51517380D01*
X153934524Y-51517380D02*
X154172619Y-51517380D01*
X154172619Y-51517380D02*
X154267857Y-51469761D01*
X154267857Y-51469761D02*
X154315476Y-51422142D01*
X154315476Y-51422142D02*
X154363095Y-51326904D01*
X154363095Y-51326904D02*
X154363095Y-51231666D01*
X154363095Y-51231666D02*
X154315476Y-51136428D01*
X154315476Y-51136428D02*
X154267857Y-51088809D01*
X154267857Y-51088809D02*
X154172619Y-51041190D01*
X154172619Y-51041190D02*
X153982143Y-50993571D01*
X153982143Y-50993571D02*
X153886905Y-50945952D01*
X153886905Y-50945952D02*
X153839286Y-50898333D01*
X153839286Y-50898333D02*
X153791667Y-50803095D01*
X153791667Y-50803095D02*
X153791667Y-50707857D01*
X153791667Y-50707857D02*
X153839286Y-50612619D01*
X153839286Y-50612619D02*
X153886905Y-50565000D01*
X153886905Y-50565000D02*
X153982143Y-50517380D01*
X153982143Y-50517380D02*
X154220238Y-50517380D01*
X154220238Y-50517380D02*
X154363095Y-50565000D01*
X154696429Y-50517380D02*
X154934524Y-51517380D01*
X154934524Y-51517380D02*
X155125000Y-50803095D01*
X155125000Y-50803095D02*
X155315476Y-51517380D01*
X155315476Y-51517380D02*
X155553572Y-50517380D01*
X156410714Y-50517380D02*
X155934524Y-50517380D01*
X155934524Y-50517380D02*
X155886905Y-50993571D01*
X155886905Y-50993571D02*
X155934524Y-50945952D01*
X155934524Y-50945952D02*
X156029762Y-50898333D01*
X156029762Y-50898333D02*
X156267857Y-50898333D01*
X156267857Y-50898333D02*
X156363095Y-50945952D01*
X156363095Y-50945952D02*
X156410714Y-50993571D01*
X156410714Y-50993571D02*
X156458333Y-51088809D01*
X156458333Y-51088809D02*
X156458333Y-51326904D01*
X156458333Y-51326904D02*
X156410714Y-51422142D01*
X156410714Y-51422142D02*
X156363095Y-51469761D01*
X156363095Y-51469761D02*
X156267857Y-51517380D01*
X156267857Y-51517380D02*
X156029762Y-51517380D01*
X156029762Y-51517380D02*
X155934524Y-51469761D01*
X155934524Y-51469761D02*
X155886905Y-51422142D01*
%TO.C,SW3*%
X115691667Y-51469761D02*
X115834524Y-51517380D01*
X115834524Y-51517380D02*
X116072619Y-51517380D01*
X116072619Y-51517380D02*
X116167857Y-51469761D01*
X116167857Y-51469761D02*
X116215476Y-51422142D01*
X116215476Y-51422142D02*
X116263095Y-51326904D01*
X116263095Y-51326904D02*
X116263095Y-51231666D01*
X116263095Y-51231666D02*
X116215476Y-51136428D01*
X116215476Y-51136428D02*
X116167857Y-51088809D01*
X116167857Y-51088809D02*
X116072619Y-51041190D01*
X116072619Y-51041190D02*
X115882143Y-50993571D01*
X115882143Y-50993571D02*
X115786905Y-50945952D01*
X115786905Y-50945952D02*
X115739286Y-50898333D01*
X115739286Y-50898333D02*
X115691667Y-50803095D01*
X115691667Y-50803095D02*
X115691667Y-50707857D01*
X115691667Y-50707857D02*
X115739286Y-50612619D01*
X115739286Y-50612619D02*
X115786905Y-50565000D01*
X115786905Y-50565000D02*
X115882143Y-50517380D01*
X115882143Y-50517380D02*
X116120238Y-50517380D01*
X116120238Y-50517380D02*
X116263095Y-50565000D01*
X116596429Y-50517380D02*
X116834524Y-51517380D01*
X116834524Y-51517380D02*
X117025000Y-50803095D01*
X117025000Y-50803095D02*
X117215476Y-51517380D01*
X117215476Y-51517380D02*
X117453572Y-50517380D01*
X117739286Y-50517380D02*
X118358333Y-50517380D01*
X118358333Y-50517380D02*
X118025000Y-50898333D01*
X118025000Y-50898333D02*
X118167857Y-50898333D01*
X118167857Y-50898333D02*
X118263095Y-50945952D01*
X118263095Y-50945952D02*
X118310714Y-50993571D01*
X118310714Y-50993571D02*
X118358333Y-51088809D01*
X118358333Y-51088809D02*
X118358333Y-51326904D01*
X118358333Y-51326904D02*
X118310714Y-51422142D01*
X118310714Y-51422142D02*
X118263095Y-51469761D01*
X118263095Y-51469761D02*
X118167857Y-51517380D01*
X118167857Y-51517380D02*
X117882143Y-51517380D01*
X117882143Y-51517380D02*
X117786905Y-51469761D01*
X117786905Y-51469761D02*
X117739286Y-51422142D01*
%TO.C,SW8*%
X115691667Y-70519761D02*
X115834524Y-70567380D01*
X115834524Y-70567380D02*
X116072619Y-70567380D01*
X116072619Y-70567380D02*
X116167857Y-70519761D01*
X116167857Y-70519761D02*
X116215476Y-70472142D01*
X116215476Y-70472142D02*
X116263095Y-70376904D01*
X116263095Y-70376904D02*
X116263095Y-70281666D01*
X116263095Y-70281666D02*
X116215476Y-70186428D01*
X116215476Y-70186428D02*
X116167857Y-70138809D01*
X116167857Y-70138809D02*
X116072619Y-70091190D01*
X116072619Y-70091190D02*
X115882143Y-70043571D01*
X115882143Y-70043571D02*
X115786905Y-69995952D01*
X115786905Y-69995952D02*
X115739286Y-69948333D01*
X115739286Y-69948333D02*
X115691667Y-69853095D01*
X115691667Y-69853095D02*
X115691667Y-69757857D01*
X115691667Y-69757857D02*
X115739286Y-69662619D01*
X115739286Y-69662619D02*
X115786905Y-69615000D01*
X115786905Y-69615000D02*
X115882143Y-69567380D01*
X115882143Y-69567380D02*
X116120238Y-69567380D01*
X116120238Y-69567380D02*
X116263095Y-69615000D01*
X116596429Y-69567380D02*
X116834524Y-70567380D01*
X116834524Y-70567380D02*
X117025000Y-69853095D01*
X117025000Y-69853095D02*
X117215476Y-70567380D01*
X117215476Y-70567380D02*
X117453572Y-69567380D01*
X117977381Y-69995952D02*
X117882143Y-69948333D01*
X117882143Y-69948333D02*
X117834524Y-69900714D01*
X117834524Y-69900714D02*
X117786905Y-69805476D01*
X117786905Y-69805476D02*
X117786905Y-69757857D01*
X117786905Y-69757857D02*
X117834524Y-69662619D01*
X117834524Y-69662619D02*
X117882143Y-69615000D01*
X117882143Y-69615000D02*
X117977381Y-69567380D01*
X117977381Y-69567380D02*
X118167857Y-69567380D01*
X118167857Y-69567380D02*
X118263095Y-69615000D01*
X118263095Y-69615000D02*
X118310714Y-69662619D01*
X118310714Y-69662619D02*
X118358333Y-69757857D01*
X118358333Y-69757857D02*
X118358333Y-69805476D01*
X118358333Y-69805476D02*
X118310714Y-69900714D01*
X118310714Y-69900714D02*
X118263095Y-69948333D01*
X118263095Y-69948333D02*
X118167857Y-69995952D01*
X118167857Y-69995952D02*
X117977381Y-69995952D01*
X117977381Y-69995952D02*
X117882143Y-70043571D01*
X117882143Y-70043571D02*
X117834524Y-70091190D01*
X117834524Y-70091190D02*
X117786905Y-70186428D01*
X117786905Y-70186428D02*
X117786905Y-70376904D01*
X117786905Y-70376904D02*
X117834524Y-70472142D01*
X117834524Y-70472142D02*
X117882143Y-70519761D01*
X117882143Y-70519761D02*
X117977381Y-70567380D01*
X117977381Y-70567380D02*
X118167857Y-70567380D01*
X118167857Y-70567380D02*
X118263095Y-70519761D01*
X118263095Y-70519761D02*
X118310714Y-70472142D01*
X118310714Y-70472142D02*
X118358333Y-70376904D01*
X118358333Y-70376904D02*
X118358333Y-70186428D01*
X118358333Y-70186428D02*
X118310714Y-70091190D01*
X118310714Y-70091190D02*
X118263095Y-70043571D01*
X118263095Y-70043571D02*
X118167857Y-69995952D01*
%TO.C,SW4*%
X134741667Y-51469761D02*
X134884524Y-51517380D01*
X134884524Y-51517380D02*
X135122619Y-51517380D01*
X135122619Y-51517380D02*
X135217857Y-51469761D01*
X135217857Y-51469761D02*
X135265476Y-51422142D01*
X135265476Y-51422142D02*
X135313095Y-51326904D01*
X135313095Y-51326904D02*
X135313095Y-51231666D01*
X135313095Y-51231666D02*
X135265476Y-51136428D01*
X135265476Y-51136428D02*
X135217857Y-51088809D01*
X135217857Y-51088809D02*
X135122619Y-51041190D01*
X135122619Y-51041190D02*
X134932143Y-50993571D01*
X134932143Y-50993571D02*
X134836905Y-50945952D01*
X134836905Y-50945952D02*
X134789286Y-50898333D01*
X134789286Y-50898333D02*
X134741667Y-50803095D01*
X134741667Y-50803095D02*
X134741667Y-50707857D01*
X134741667Y-50707857D02*
X134789286Y-50612619D01*
X134789286Y-50612619D02*
X134836905Y-50565000D01*
X134836905Y-50565000D02*
X134932143Y-50517380D01*
X134932143Y-50517380D02*
X135170238Y-50517380D01*
X135170238Y-50517380D02*
X135313095Y-50565000D01*
X135646429Y-50517380D02*
X135884524Y-51517380D01*
X135884524Y-51517380D02*
X136075000Y-50803095D01*
X136075000Y-50803095D02*
X136265476Y-51517380D01*
X136265476Y-51517380D02*
X136503572Y-50517380D01*
X137313095Y-50850714D02*
X137313095Y-51517380D01*
X137075000Y-50469761D02*
X136836905Y-51184047D01*
X136836905Y-51184047D02*
X137455952Y-51184047D01*
%TO.C,SW2*%
X96641667Y-51469761D02*
X96784524Y-51517380D01*
X96784524Y-51517380D02*
X97022619Y-51517380D01*
X97022619Y-51517380D02*
X97117857Y-51469761D01*
X97117857Y-51469761D02*
X97165476Y-51422142D01*
X97165476Y-51422142D02*
X97213095Y-51326904D01*
X97213095Y-51326904D02*
X97213095Y-51231666D01*
X97213095Y-51231666D02*
X97165476Y-51136428D01*
X97165476Y-51136428D02*
X97117857Y-51088809D01*
X97117857Y-51088809D02*
X97022619Y-51041190D01*
X97022619Y-51041190D02*
X96832143Y-50993571D01*
X96832143Y-50993571D02*
X96736905Y-50945952D01*
X96736905Y-50945952D02*
X96689286Y-50898333D01*
X96689286Y-50898333D02*
X96641667Y-50803095D01*
X96641667Y-50803095D02*
X96641667Y-50707857D01*
X96641667Y-50707857D02*
X96689286Y-50612619D01*
X96689286Y-50612619D02*
X96736905Y-50565000D01*
X96736905Y-50565000D02*
X96832143Y-50517380D01*
X96832143Y-50517380D02*
X97070238Y-50517380D01*
X97070238Y-50517380D02*
X97213095Y-50565000D01*
X97546429Y-50517380D02*
X97784524Y-51517380D01*
X97784524Y-51517380D02*
X97975000Y-50803095D01*
X97975000Y-50803095D02*
X98165476Y-51517380D01*
X98165476Y-51517380D02*
X98403572Y-50517380D01*
X98736905Y-50612619D02*
X98784524Y-50565000D01*
X98784524Y-50565000D02*
X98879762Y-50517380D01*
X98879762Y-50517380D02*
X99117857Y-50517380D01*
X99117857Y-50517380D02*
X99213095Y-50565000D01*
X99213095Y-50565000D02*
X99260714Y-50612619D01*
X99260714Y-50612619D02*
X99308333Y-50707857D01*
X99308333Y-50707857D02*
X99308333Y-50803095D01*
X99308333Y-50803095D02*
X99260714Y-50945952D01*
X99260714Y-50945952D02*
X98689286Y-51517380D01*
X98689286Y-51517380D02*
X99308333Y-51517380D01*
%TO.C,SW10*%
X153315476Y-70519761D02*
X153458333Y-70567380D01*
X153458333Y-70567380D02*
X153696428Y-70567380D01*
X153696428Y-70567380D02*
X153791666Y-70519761D01*
X153791666Y-70519761D02*
X153839285Y-70472142D01*
X153839285Y-70472142D02*
X153886904Y-70376904D01*
X153886904Y-70376904D02*
X153886904Y-70281666D01*
X153886904Y-70281666D02*
X153839285Y-70186428D01*
X153839285Y-70186428D02*
X153791666Y-70138809D01*
X153791666Y-70138809D02*
X153696428Y-70091190D01*
X153696428Y-70091190D02*
X153505952Y-70043571D01*
X153505952Y-70043571D02*
X153410714Y-69995952D01*
X153410714Y-69995952D02*
X153363095Y-69948333D01*
X153363095Y-69948333D02*
X153315476Y-69853095D01*
X153315476Y-69853095D02*
X153315476Y-69757857D01*
X153315476Y-69757857D02*
X153363095Y-69662619D01*
X153363095Y-69662619D02*
X153410714Y-69615000D01*
X153410714Y-69615000D02*
X153505952Y-69567380D01*
X153505952Y-69567380D02*
X153744047Y-69567380D01*
X153744047Y-69567380D02*
X153886904Y-69615000D01*
X154220238Y-69567380D02*
X154458333Y-70567380D01*
X154458333Y-70567380D02*
X154648809Y-69853095D01*
X154648809Y-69853095D02*
X154839285Y-70567380D01*
X154839285Y-70567380D02*
X155077381Y-69567380D01*
X155982142Y-70567380D02*
X155410714Y-70567380D01*
X155696428Y-70567380D02*
X155696428Y-69567380D01*
X155696428Y-69567380D02*
X155601190Y-69710238D01*
X155601190Y-69710238D02*
X155505952Y-69805476D01*
X155505952Y-69805476D02*
X155410714Y-69853095D01*
X156601190Y-69567380D02*
X156696428Y-69567380D01*
X156696428Y-69567380D02*
X156791666Y-69615000D01*
X156791666Y-69615000D02*
X156839285Y-69662619D01*
X156839285Y-69662619D02*
X156886904Y-69757857D01*
X156886904Y-69757857D02*
X156934523Y-69948333D01*
X156934523Y-69948333D02*
X156934523Y-70186428D01*
X156934523Y-70186428D02*
X156886904Y-70376904D01*
X156886904Y-70376904D02*
X156839285Y-70472142D01*
X156839285Y-70472142D02*
X156791666Y-70519761D01*
X156791666Y-70519761D02*
X156696428Y-70567380D01*
X156696428Y-70567380D02*
X156601190Y-70567380D01*
X156601190Y-70567380D02*
X156505952Y-70519761D01*
X156505952Y-70519761D02*
X156458333Y-70472142D01*
X156458333Y-70472142D02*
X156410714Y-70376904D01*
X156410714Y-70376904D02*
X156363095Y-70186428D01*
X156363095Y-70186428D02*
X156363095Y-69948333D01*
X156363095Y-69948333D02*
X156410714Y-69757857D01*
X156410714Y-69757857D02*
X156458333Y-69662619D01*
X156458333Y-69662619D02*
X156505952Y-69615000D01*
X156505952Y-69615000D02*
X156601190Y-69567380D01*
%TO.C,SW6*%
X77591667Y-70519761D02*
X77734524Y-70567380D01*
X77734524Y-70567380D02*
X77972619Y-70567380D01*
X77972619Y-70567380D02*
X78067857Y-70519761D01*
X78067857Y-70519761D02*
X78115476Y-70472142D01*
X78115476Y-70472142D02*
X78163095Y-70376904D01*
X78163095Y-70376904D02*
X78163095Y-70281666D01*
X78163095Y-70281666D02*
X78115476Y-70186428D01*
X78115476Y-70186428D02*
X78067857Y-70138809D01*
X78067857Y-70138809D02*
X77972619Y-70091190D01*
X77972619Y-70091190D02*
X77782143Y-70043571D01*
X77782143Y-70043571D02*
X77686905Y-69995952D01*
X77686905Y-69995952D02*
X77639286Y-69948333D01*
X77639286Y-69948333D02*
X77591667Y-69853095D01*
X77591667Y-69853095D02*
X77591667Y-69757857D01*
X77591667Y-69757857D02*
X77639286Y-69662619D01*
X77639286Y-69662619D02*
X77686905Y-69615000D01*
X77686905Y-69615000D02*
X77782143Y-69567380D01*
X77782143Y-69567380D02*
X78020238Y-69567380D01*
X78020238Y-69567380D02*
X78163095Y-69615000D01*
X78496429Y-69567380D02*
X78734524Y-70567380D01*
X78734524Y-70567380D02*
X78925000Y-69853095D01*
X78925000Y-69853095D02*
X79115476Y-70567380D01*
X79115476Y-70567380D02*
X79353572Y-69567380D01*
X80163095Y-69567380D02*
X79972619Y-69567380D01*
X79972619Y-69567380D02*
X79877381Y-69615000D01*
X79877381Y-69615000D02*
X79829762Y-69662619D01*
X79829762Y-69662619D02*
X79734524Y-69805476D01*
X79734524Y-69805476D02*
X79686905Y-69995952D01*
X79686905Y-69995952D02*
X79686905Y-70376904D01*
X79686905Y-70376904D02*
X79734524Y-70472142D01*
X79734524Y-70472142D02*
X79782143Y-70519761D01*
X79782143Y-70519761D02*
X79877381Y-70567380D01*
X79877381Y-70567380D02*
X80067857Y-70567380D01*
X80067857Y-70567380D02*
X80163095Y-70519761D01*
X80163095Y-70519761D02*
X80210714Y-70472142D01*
X80210714Y-70472142D02*
X80258333Y-70376904D01*
X80258333Y-70376904D02*
X80258333Y-70138809D01*
X80258333Y-70138809D02*
X80210714Y-70043571D01*
X80210714Y-70043571D02*
X80163095Y-69995952D01*
X80163095Y-69995952D02*
X80067857Y-69948333D01*
X80067857Y-69948333D02*
X79877381Y-69948333D01*
X79877381Y-69948333D02*
X79782143Y-69995952D01*
X79782143Y-69995952D02*
X79734524Y-70043571D01*
X79734524Y-70043571D02*
X79686905Y-70138809D01*
D13*
%TO.C,C4*%
X137027836Y-67335000D02*
X136812164Y-67335000D01*
X137027836Y-66615000D02*
X136812164Y-66615000D01*
%TO.C,NP10*%
X153125000Y-81450000D02*
X157125000Y-81450000D01*
X153125000Y-81750000D02*
X153125000Y-81450000D01*
X153125000Y-84450000D02*
X157125000Y-84450000D01*
%TO.C,NP8*%
X115025000Y-81450000D02*
X119025000Y-81450000D01*
X115025000Y-81750000D02*
X115025000Y-81450000D01*
X115025000Y-84450000D02*
X119025000Y-84450000D01*
%TO.C,C1*%
X80887164Y-66615000D02*
X81102836Y-66615000D01*
X80887164Y-67335000D02*
X81102836Y-67335000D01*
%TO.C,C11*%
X88392164Y-62040000D02*
X88607836Y-62040000D01*
X88392164Y-62760000D02*
X88607836Y-62760000D01*
%TO.C,C9*%
X137077836Y-86360000D02*
X136862164Y-86360000D01*
X137077836Y-85640000D02*
X136862164Y-85640000D01*
%TO.C,C8*%
X118032836Y-86385000D02*
X117817164Y-86385000D01*
X118032836Y-85665000D02*
X117817164Y-85665000D01*
%TO.C,NP3*%
X115025000Y-62400000D02*
X119025000Y-62400000D01*
X115025000Y-62700000D02*
X115025000Y-62400000D01*
X115025000Y-65400000D02*
X119025000Y-65400000D01*
%TO.C,C2*%
X101062164Y-66590000D02*
X101277836Y-66590000D01*
X101062164Y-67310000D02*
X101277836Y-67310000D01*
%TO.C,C5*%
X156187836Y-67360000D02*
X155972164Y-67360000D01*
X156187836Y-66640000D02*
X155972164Y-66640000D01*
%TO.C,C10*%
X156207836Y-86385000D02*
X155992164Y-86385000D01*
X156207836Y-85665000D02*
X155992164Y-85665000D01*
%TO.C,C6*%
X79902836Y-86360000D02*
X79687164Y-86360000D01*
X79902836Y-85640000D02*
X79687164Y-85640000D01*
%TO.C,C7*%
X98987836Y-86335000D02*
X98772164Y-86335000D01*
X98987836Y-85615000D02*
X98772164Y-85615000D01*
%TO.C,NP7*%
X95975000Y-81450000D02*
X99975000Y-81450000D01*
X95975000Y-81750000D02*
X95975000Y-81450000D01*
X95975000Y-84450000D02*
X99975000Y-84450000D01*
%TO.C,NP9*%
X134075000Y-81450000D02*
X138075000Y-81450000D01*
X134075000Y-81750000D02*
X134075000Y-81450000D01*
X134075000Y-84450000D02*
X138075000Y-84450000D01*
%TO.C,NP4*%
X134075000Y-62400000D02*
X138075000Y-62400000D01*
X134075000Y-62700000D02*
X134075000Y-62400000D01*
X134075000Y-65400000D02*
X138075000Y-65400000D01*
%TO.C,NP1*%
X76925000Y-62400000D02*
X80925000Y-62400000D01*
X76925000Y-62700000D02*
X76925000Y-62400000D01*
X76925000Y-65400000D02*
X80925000Y-65400000D01*
%TO.C,NP2*%
X95975000Y-62400000D02*
X99975000Y-62400000D01*
X95975000Y-62700000D02*
X95975000Y-62400000D01*
X95975000Y-65400000D02*
X99975000Y-65400000D01*
%TO.C,C3*%
X118027836Y-67310000D02*
X117812164Y-67310000D01*
X118027836Y-66590000D02*
X117812164Y-66590000D01*
%TO.C,NP6*%
X76925000Y-81450000D02*
X80925000Y-81450000D01*
X76925000Y-81750000D02*
X76925000Y-81450000D01*
X76925000Y-84450000D02*
X80925000Y-84450000D01*
%TO.C,U1*%
X89150000Y-58740000D02*
X87750000Y-58740000D01*
X87750000Y-61060000D02*
X89650000Y-61060000D01*
%TO.C,NP5*%
X153125000Y-62400000D02*
X157125000Y-62400000D01*
X153125000Y-62700000D02*
X153125000Y-62400000D01*
X153125000Y-65400000D02*
X157125000Y-65400000D01*
%TO.C,SW1*%
X86025000Y-66250000D02*
X86025000Y-52050000D01*
X86025000Y-52050000D02*
X71825000Y-52050000D01*
X71825000Y-66250000D02*
X86025000Y-66250000D01*
X71825000Y-52050000D02*
X71825000Y-66250000D01*
%TO.C,SW7*%
X105075000Y-85300000D02*
X105075000Y-71100000D01*
X105075000Y-71100000D02*
X90875000Y-71100000D01*
X90875000Y-85300000D02*
X105075000Y-85300000D01*
X90875000Y-71100000D02*
X90875000Y-85300000D01*
%TO.C,SW9*%
X143175000Y-85300000D02*
X143175000Y-71100000D01*
X143175000Y-71100000D02*
X128975000Y-71100000D01*
X128975000Y-85300000D02*
X143175000Y-85300000D01*
X128975000Y-71100000D02*
X128975000Y-85300000D01*
%TO.C,SW5*%
X162225000Y-66250000D02*
X162225000Y-52050000D01*
X162225000Y-52050000D02*
X148025000Y-52050000D01*
X148025000Y-66250000D02*
X162225000Y-66250000D01*
X148025000Y-52050000D02*
X148025000Y-66250000D01*
%TO.C,SW3*%
X124125000Y-66250000D02*
X124125000Y-52050000D01*
X124125000Y-52050000D02*
X109925000Y-52050000D01*
X109925000Y-66250000D02*
X124125000Y-66250000D01*
X109925000Y-52050000D02*
X109925000Y-66250000D01*
%TO.C,SW8*%
X124125000Y-85300000D02*
X124125000Y-71100000D01*
X124125000Y-71100000D02*
X109925000Y-71100000D01*
X109925000Y-85300000D02*
X124125000Y-85300000D01*
X109925000Y-71100000D02*
X109925000Y-85300000D01*
%TO.C,SW4*%
X143175000Y-66250000D02*
X143175000Y-52050000D01*
X143175000Y-52050000D02*
X128975000Y-52050000D01*
X128975000Y-66250000D02*
X143175000Y-66250000D01*
X128975000Y-52050000D02*
X128975000Y-66250000D01*
%TO.C,SW2*%
X105075000Y-66250000D02*
X105075000Y-52050000D01*
X105075000Y-52050000D02*
X90875000Y-52050000D01*
X90875000Y-66250000D02*
X105075000Y-66250000D01*
X90875000Y-52050000D02*
X90875000Y-66250000D01*
%TO.C,SW10*%
X162225000Y-85300000D02*
X162225000Y-71100000D01*
X162225000Y-71100000D02*
X148025000Y-71100000D01*
X148025000Y-85300000D02*
X162225000Y-85300000D01*
X148025000Y-71100000D02*
X148025000Y-85300000D01*
%TO.C,SW6*%
X86025000Y-85300000D02*
X86025000Y-71100000D01*
X86025000Y-71100000D02*
X71825000Y-71100000D01*
X71825000Y-85300000D02*
X86025000Y-85300000D01*
X71825000Y-71100000D02*
X71825000Y-85300000D01*
%TD*%
M02*
