M48
; DRILL file {KiCad (7.0.0-0)} date Monday, April 10, 2023 at 20:33:20
; FORMAT={-:-/ absolute / metric / decimal}
; #@! TF.CreationDate,2023-04-10T20:33:20-04:00
; #@! TF.GenerationSoftware,Kicad,Pcbnew,(7.0.0-0)
; #@! TF.FileFunction,Plated,1,2,PTH
FMAT,2
METRIC
; #@! TA.AperFunction,Plated,PTH,ViaDrill
T1C0.300
; #@! TA.AperFunction,Plated,PTH,ComponentDrill
T2C0.350
; #@! TA.AperFunction,Plated,PTH,ComponentDrill
T3C0.600
%
G90
G05
T1
X76.0Y-68.025
X76.115Y-63.025
X78.925Y-81.975
X79.35Y-64.65
X83.0Y-84.5
X83.25Y-62.275
X83.45Y-65.05
X84.775Y-66.825
X88.975Y-73.2
X89.425Y-58.225
X89.6Y-67.05
X89.703Y-64.222
X89.75Y-70.897
X90.0Y-70.147
X91.154Y-65.857
X91.25Y-80.5
X91.75Y-61.2
X93.75Y-84.25
X94.116Y-60.686
X94.234Y-68.724
X95.0Y-62.147
X97.5Y-55.725
X99.06Y-66.438
X99.06Y-69.231
X102.108Y-63.389
X104.422Y-67.811
X105.41Y-65.272
X105.725Y-72.275
X114.31Y-66.752
X129.4Y-63.025
X137.95Y-68.2
T2
X95.465Y-65.712
X95.465Y-66.987
X95.465Y-68.263
X96.74Y-65.712
X96.74Y-66.987
X96.74Y-68.263
X98.015Y-65.712
X98.015Y-66.987
X98.015Y-68.263
T3
X68.1Y-61.485G85X68.9Y-61.485
G05
X68.1Y-70.125G85X68.9Y-70.125
G05
X72.12Y-61.485G85X73.22Y-61.485
G05
X72.12Y-70.125G85X73.22Y-70.125
G05
T0
M30
