M48
; DRILL file {KiCad (7.0.0-0)} date Monday, April 10, 2023 at 20:33:20
; FORMAT={-:-/ absolute / metric / decimal}
; #@! TF.CreationDate,2023-04-10T20:33:20-04:00
; #@! TF.GenerationSoftware,Kicad,Pcbnew,(7.0.0-0)
; #@! TF.FileFunction,NonPlated,1,2,NPTH
FMAT,2
METRIC
; #@! TA.AperFunction,NonPlated,NPTH,ComponentDrill
T1C0.600
; #@! TA.AperFunction,NonPlated,NPTH,ComponentDrill
T2C1.750
; #@! TA.AperFunction,NonPlated,NPTH,ComponentDrill
T3C3.050
; #@! TA.AperFunction,NonPlated,NPTH,ComponentDrill
T4C4.000
%
G90
G05
T1
X72.19Y-62.915
X72.19Y-68.695
T2
X73.845Y-59.15
X73.845Y-78.2
X84.005Y-59.15
X84.005Y-78.2
X92.895Y-59.15
X92.895Y-78.2
X103.055Y-59.15
X103.055Y-78.2
X111.945Y-59.15
X111.945Y-78.2
X122.105Y-59.15
X122.105Y-78.2
X130.995Y-59.15
X130.995Y-78.2
X141.155Y-59.15
X141.155Y-78.2
X150.045Y-59.15
X150.045Y-78.2
X160.205Y-59.15
X160.205Y-78.2
T3
X75.115Y-56.61
X75.115Y-75.66
X81.465Y-54.07
X81.465Y-73.12
X94.165Y-56.61
X94.165Y-75.66
X100.515Y-54.07
X100.515Y-73.12
X113.215Y-56.61
X113.215Y-75.66
X119.565Y-54.07
X119.565Y-73.12
X132.265Y-56.61
X132.265Y-75.66
X138.615Y-54.07
X138.615Y-73.12
X151.315Y-56.61
X151.315Y-75.66
X157.665Y-54.07
X157.665Y-73.12
T4
X78.925Y-59.15
X78.925Y-78.2
X97.975Y-59.15
X97.975Y-78.2
X117.025Y-59.15
X117.025Y-78.2
X136.075Y-59.15
X136.075Y-78.2
X155.125Y-59.15
X155.125Y-78.2
T0
M30
