M48
; DRILL file {KiCad (6.0.7-1)-1} date Saturday, August 13, 2022 at 08:31:26 PM
; FORMAT={-:-/ absolute / metric / decimal}
; #@! TF.CreationDate,2022-08-13T20:31:26-04:00
; #@! TF.GenerationSoftware,Kicad,Pcbnew,(6.0.7-1)-1
; #@! TF.FileFunction,Plated,1,2,PTH
FMAT,2
METRIC
; #@! TA.AperFunction,Plated,PTH,ViaDrill
T1C0.300
; #@! TA.AperFunction,Plated,PTH,ComponentDrill
T2C0.350
; #@! TA.AperFunction,Plated,PTH,ViaDrill
T3C0.400
; #@! TA.AperFunction,Plated,PTH,ViaDrill
T4C0.500
; #@! TA.AperFunction,Plated,PTH,ComponentDrill
T5C0.600
; #@! TA.AperFunction,Plated,PTH,ComponentDrill
T6C1.000
; #@! TA.AperFunction,Plated,PTH,ComponentDrill
T7C2.000
%
G90
G05
T1
X24.85Y-80.6
X24.9Y-42.35
X27.1Y-38.6
X27.15Y-76.9
X28.688Y-103.25
X30.35Y-43.35
X30.45Y-74.1
X30.55Y-36.0
X30.8Y-81.65
X30.812Y-101.5
X31.137Y-105.275
X34.025Y-112.125
X34.1Y-73.05
X34.15Y-34.95
X38.0Y-73.05
X38.2Y-35.05
X40.55Y-81.85
X40.95Y-52.2
X41.35Y-43.85
X41.75Y-36.4
X41.8Y-74.7
X44.9Y-38.95
X44.9Y-77.2
X46.8Y-42.45
X47.0Y-81.35
X47.682Y-102.872
X47.835Y-106.25
X50.25Y-73.2
X51.785Y-77.565
X51.81Y-58.49
X51.835Y-39.415
X51.835Y-96.59
X55.9Y-110.05
X57.4Y-119.5
X59.0Y-84.2
X59.1Y-65.2
X59.15Y-103.4
X59.164Y-46.4
X59.875Y-108.225
X60.5Y-47.75
X62.3Y-47.8
X66.25Y-124.925
X66.55Y-115.4
X67.3Y-116.975
X68.1Y-116.675
X69.125Y-103.425
X69.175Y-116.5
X69.5Y-111.225
X70.55Y-123.603
X70.825Y-111.625
X70.9Y-122.45
X70.915Y-58.435
X70.915Y-77.51
X70.94Y-39.41
X71.95Y-121.575
X72.825Y-111.475
X73.29Y-91.11
X73.875Y-111.1
X75.584Y-117.047
X76.725Y-125.775
X77.65Y-111.2
X77.65Y-125.95
X77.75Y-45.45
X78.4Y-125.95
X78.75Y-115.475
X79.175Y-125.975
X79.975Y-119.525
X79.975Y-125.975
X80.2Y-46.2
X80.3Y-65.3
X80.3Y-84.2
X80.3Y-103.2
X80.8Y-125.975
X81.026Y-110.236
X81.575Y-108.966
X83.133Y-121.176
X83.725Y-120.563
X84.0Y-37.075
X84.0Y-46.825
X84.175Y-64.425
X84.9Y-120.8
X86.6Y-37.3
X86.7Y-73.275
X88.21Y-100.72
X89.965Y-58.46
X89.965Y-77.51
X89.99Y-39.41
X89.99Y-96.56
X91.186Y-45.72
X99.4Y-84.4
X99.4Y-103.3
X99.5Y-46.2
X99.5Y-65.2
T2
X72.985Y-118.014
X72.985Y-119.289
X72.985Y-120.564
X74.26Y-118.014
X74.26Y-119.289
X74.26Y-120.564
X75.535Y-118.014
X75.535Y-119.289
X75.535Y-120.564
T3
X85.05Y-57.225
T4
X48.05Y-105.182
X54.275Y-34.0
X55.75Y-34.0
X61.6Y-32.2
X63.075Y-32.2
X72.0Y-117.225
X73.9Y-121.575
X74.725Y-34.475
X76.625Y-121.575
X83.058Y-45.6
X87.1Y-46.45
T6
X22.54Y-124.575
X25.08Y-124.575
X27.62Y-124.575
X30.16Y-124.575
X32.7Y-124.575
X33.293Y-42.309
X33.293Y-56.809
X33.293Y-80.534
X33.293Y-95.034
X35.24Y-124.575
X35.793Y-56.809
X35.793Y-95.034
X37.78Y-124.575
X38.293Y-42.309
X38.293Y-56.809
X38.293Y-80.534
X38.293Y-95.034
X40.32Y-124.575
X42.86Y-124.575
X45.4Y-124.575
X51.225Y-68.85
X52.725Y-49.825
X55.372Y-68.825
X72.5Y-68.825
X87.55Y-68.825
X87.775Y-32.65
X88.4Y-106.175
X102.725Y-68.85
X102.75Y-49.8
X102.75Y-87.9
T5
G00X63.266Y-24.356
M15
G01X63.266Y-25.156
M16
G05
G00X63.266Y-28.376
M15
G01X63.266Y-29.476
M16
G05
G00X71.906Y-24.356
M15
G01X71.906Y-25.156
M16
G05
G00X71.906Y-28.376
M15
G01X71.906Y-29.476
M16
G05
T7
G00X30.193Y-49.559
M15
G01X30.193Y-49.059
M16
G05
G00X30.193Y-87.784
M15
G01X30.193Y-87.284
M16
G05
G00X41.393Y-49.559
M15
G01X41.393Y-49.059
M16
G05
G00X41.393Y-87.784
M15
G01X41.393Y-87.284
M16
G05
T0
M30
